<?xml version="1.0" standalone="no"?>
<!DOCTYPE svg PUBLIC "-//W3C//DTD SVG 1.1//EN" "http://www.w3.org/Graphics/SVG/1.1/DTD/svg11.dtd">
<svg xmlns="http://www.w3.org/2000/svg"><metadata>This SVG WebFont was generated by YouWorkForThem.
Copyright Â© 2016 by Adam Ladd. All rights reserved.</metadata><defs><font horiz-adv-x="903" id="ywftsvg"><font-face ascent="1536" bbox="-236.883 -616.471 2515.43 1840.02" cap-height="1419" descent="-512" font-family="" font-stretch="normal" font-weight="400" panose-1="0 0 5 0 0 0 0 0 0 0" underline-position="0" underline-thickness="0" unicode-range="U+0020-E00C" units-per-em="2048" x-height="838"/><missing-glyph d="M0 0v1434h1024v-1434h-1024zM512 809l348 522h-696zM573 717l349 -522v1044zM164 102h696l-348 523zM102 1239v-1044l349 522z" horiz-adv-x="1024"/><glyph d="M1530 1481q12 -14 92 -25q20 -4 23.5 -8t1.5 -25q-4 -55 8 -171.5t12 -139.5q2 -35 15.5 -142.5t9.5 -166.5q0 -33 4 -98.5t4 -98.5q0 -43 12 -124t14 -115q2 -10 0 -31t-2 -27q-4 -6 -1 -48t3 -48q4 -57 -10 -88q-2 -2 -2 -27q0 -66 -6 -98q-16 10 -18 15t-4 26 q-2 16 -1 28.5t-0.5 30t-7.5 33.5q-2 -16 -6 -50t-8 -50q0 -2 -2 -17.5t-9 -20.5t-24 -3q-2 0 -22 -31q-14 10 -41 55q-27 55 -66 -4l-4 -8l-7 -7t-6 0t-12 5q-4 0 -8 -8q-27 -31 -57 -14q-20 16 -23 34q-12 61 -12 92q2 27 3 112t5 132q10 72 -16 72q-4 0 -80 4t-88 2 q-8 0 -26.5 3t-28.5 3q-33 -86 -49 -153q-31 -100 -78 -197q-25 -57 -74 -109q-39 35 -27 86q4 23 54 156q12 37 34.5 100.5t32.5 94.5q6 27 6 28q-23 0 -70.5 5.5t-72.5 3.5q-12 0 -21 14q-4 4 0 6q6 2 18.5 2h20.5q18 2 29.5 1t18.5 3q12 0 12 6q0 8 -27 8q-4 0 -39 -2 t-51 -2q-43 4 -68 -2v-108q2 -31 5.5 -66t7.5 -78t6 -65v-64q-2 -37 -43 -51q-12 -6 -31 -18q-55 -29 -82 14q-25 37 -28 39q-14 -12 -13 -27q0 -4 -1 -13t-1 -13q-47 -8 -64.5 2t-31.5 53q-16 61 -16 191q-10 129 -9 167q0 14 2 31q0 14 -10 17q-6 2 -10 2q-37 8 -143 8 q-27 0 -39 -29q-102 -256 -125 -321q-2 -8 -14.5 -46t-23.5 -66t-24 -40q-10 -10 -8 10q6 31 2 31q-31 -33 -35 -23q-2 4 -2 15q0 25 4 37q10 43 39 142t43 153q20 63 39 141q-37 4 -54 8t-38.5 21.5t-28.5 48.5q12 4 36 14t44.5 15.5t46.5 5.5q27 4 33 8t15 28l92 281 q18 57 94 258q10 25 31.5 83t35.5 89q2 4 7.5 17.5t8.5 17.5t10 13t15.5 7t22.5 -2q4 -2 8 6q20 23 32.5 25t31.5 -12q4 -2 11 -8.5t11 -10.5q6 2 23.5 11.5t29.5 13.5q16 6 39 -6.5t23 -30.5q2 -23 14 -111t10 -137q-4 -172 -16 -239q-4 -27 -4 -57.5t2 -66.5t2 -55 q0 -10 3 -50t7 -64q4 -27 9.5 -33t29.5 -6l115 -8q23 0 65.5 -1t63.5 -3q25 0 35 24q25 63 69.5 194.5t71.5 196.5q16 45 52 162t61 176q0 10 16 21q8 -8 -5 -50t-33.5 -104.5t-24.5 -101.5q12 31 52 138t60 157l6 47q6 49 50 39q16 -8 24 2q13 18 33 2zM1292 1069 q-29 -55 -32 -102q4 8 12 24.5t12 25.5t7 23.5t1 28.5zM1661 768q-8 16 -8 -16q-2 -20 18 -461q8 117 8 161t-8 158.5t-10 157.5zM1679 258q-4 0 -7 -10t-2 -21.5t7 -13.5q10 22 2 45z" glyph-name="A_A.liga" horiz-adv-x="1779" unicode="AA"/><glyph d="M1464 1489q96 0 146 -4q59 -6 114 -37q43 -27 68 -21q16 4 49 -25.5t55 -74.5q8 -14 9 -47q0 -82 -4 -125q0 -29 -27 -68q-18 -27 -59 -56.5t-52 -45.5q-12 -23 -67.5 -62.5t-87.5 -54.5q27 -4 70.5 -28.5t58.5 -30.5q4 -2 22.5 -7t38 -12.5t29.5 -15.5q8 -6 19.5 -21.5 t19.5 -21.5q63 -49 43 -158q-16 -80 -80 -202q-37 -66 -60 -92q-66 -66 -75 -72q-31 -18 -42.5 -36.5t-29.5 -33.5q-12 -10 -102 -61q-29 -14 -62 -14.5t-72 -24.5q-20 -12 -83 -23q-6 -2 -18.5 0t-12.5 9q-2 4 26 18q20 4 33 8q20 4 23 25q-10 -2 -35 -4t-39 -6.5 t-28.5 -6.5t-20.5 -4q-25 -12 -37 -34.5t-18 -26.5q-12 -8 -27.5 2t-26.5 10q-8 0 -14 4t-8 8t-6 3t-9 -9q-57 18 -65 66q-8 25 0 67q25 180 51 326q12 66 32.5 198t33.5 197q10 45 39 226q2 16 47 188l12 53q14 47 -23 51q-14 2 -14 21q8 14 21 22q120 58 245 64zM250 1411 l340 43q125 12 225 -29l57 -20q106 -41 70 -164q-31 -88 -61 -117q-92 -88 -150 -125q-10 -8 -33.5 -20t-35.5 -21q-29 -16 -31 -24q0 -6 -6.5 -11t-12.5 -3q-20 2 -47.5 -18.5t-34.5 -22.5q-8 -4 -15 -18.5t-15 -18.5q117 -8 184 -15q113 -14 143 -28q92 -39 160 -113 q27 -39 6 -88q-10 -29 -61 -113q-20 -33 -48 -62.5t-64 -63t-52 -52.5q-63 -68 -152 -133q-12 -8 -59 -37q-178 -125 -209 -143l-112 -68q-4 29 -5 37q0 18 -10 21q-33 0 -41 43l-2 4q-2 4 -4 6q-8 -4 -34.5 -30.5t-51.5 -29.5l2 58l2 205q0 2 2 12t4 14q25 57 47 217 q31 188 41 262l31 234q4 41 19 84q12 23 16 67q8 31 18.5 88.5t12.5 69.5q2 20 -2.5 24.5t-22.5 8.5q-43 0 -57 -6q-23 -8 -31 18q0 4 -1 16.5t-1 20.5q0 25 25 31q8 0 28.5 4t28.5 6zM1788 1247q10 -37 -12 -86q55 33 12 86z" glyph-name="B_B.liga" horiz-adv-x="1910" unicode="BB"/><glyph d="M1573 1499q10 6 37.5 3t36 -4t36 -7t35.5 -8q16 -4 23 -4q66 0 119 -49q25 -16 31.5 -22.5t21 -19t23 -25.5t16.5 -32q23 -63 24 -74q4 -37 -18 -49q-12 -8 -12 -20q-12 -41 -70 -70q-10 -4 -33.5 -31.5t-27.5 -29.5q-8 2 -12.5 13t-4.5 29.5v20.5q-4 12 2 43t6 37 t1 26.5t1 30t-4 23.5t-12 25q-29 41 -53 51q-31 14 -82 28.5t-94 -12.5q-10 -6 -86 -209q-10 -27 -25.5 -83t-24.5 -81q-14 -43 -32 -163q-25 -147 -41 -224q-6 -23 -15.5 -106.5t-7.5 -112.5q18 -139 58 -192q37 -51 75 -72q8 0 13 2q100 29 290 137q4 2 15.5 14.5 t17.5 14.5q12 2 30.5 15.5t27.5 17.5q-14 -84 -86 -144l-33 -32q-23 -31 -119 -95q-12 -8 -41 -16q-68 -20 -82 -33q-31 -27 -70 -12q-76 23 -129 22q-14 0 -27.5 6.5t-29.5 17.5t-22 15q-55 33 -74 64q-20 27 -41 20q-2 -2 -6 1t-4 6q-6 8 -23.5 28.5t-23.5 34.5 q-35 86 -29 193q6 123 72 364q23 102 57 191q8 8 6 14q-6 37 -5 49t13.5 48t16.5 48q25 84 69 166q49 84 88 109q16 12 61.5 37.5t67.5 42.5q16 10 34 15t41.5 6t33.5 3zM698 1462q137 25 256 -51q55 -37 45 -113q-25 -252 -61 -299q-12 -14 -23 5q-10 14 -14 11t-6 -18 q0 -6 -1 -9t-2 -8t-3 -8t-4 -5q-6 -6 -12.5 -18.5t-10.5 -16.5q-16 18 -24.5 41.5t-8.5 46t-1 49.5t-1 49q0 80 7 160q4 57 -47.5 86t-110.5 2q25 -4 29 -4q6 -6 0 -10q-47 -29 -76 -90q-6 -14 -22.5 -42t-27 -50.5t-16.5 -43.5q-10 -33 -36.5 -95t-37.5 -91 q-29 -74 -38 -113q-12 -47 -27.5 -151.5t-20.5 -120.5q-10 -31 -10 -37q4 -27 -14 -98q-2 -12 7 -36t9 -34q-8 -104 21 -170q27 -61 90 -53l84 6q12 0 41 17q94 51 131 81l10 7q10 4 23.5 13t27.5 19q12 10 40 32t44 36q27 25 56 29q4 -8 -10.5 -31t-6.5 -29q-4 -8 -4 -10 q-10 -10 -29.5 -22.5t-25.5 -20.5t-17.5 -25.5t-21.5 -27.5q-8 -8 -25.5 -20.5t-21.5 -14.5q-4 -4 -12.5 -13.5t-12.5 -13.5q-80 -74 -112 -88q-51 -25 -117 -65q-18 -10 -123 -47q-18 -6 -43 -3t-41 -6q-2 0 -21 7q-18 8 -28 0q-4 -6 -10 -7q-16 6 -48 16.5t-50.5 18.5 t-42 46t-27.5 63q-33 113 -29 184q12 104 6 135q-2 10 2 33t0 35q-12 25 4 55q6 14 17 68q47 238 61 282q8 23 16.5 69t18.5 71q63 184 207 360q4 4 8 6q2 0 4 -2t4 -2q18 -20 33 4q29 39 84 74q16 10 20 8q37 -4 42 -6t44 6t43 8zM1513 1452q-6 2 -26 -12l-10 -17l18 7 l12 4q10 6 13 14q-1 4 -7 4zM1272 72q8 -12 20.5 -14.5t30.5 0.5t29 1q-31 40 -80 13z" glyph-name="C_C.liga" horiz-adv-x="1878" unicode="CC"/><glyph d="M1403 1497q27 0 86 -18q33 -10 31 -45q-2 -33 32 -33q59 0 142 -19q70 -14 145 -41q12 -6 39 -6q61 6 82 -47q6 -16 25 -33q4 4 9 16.5t13 16.5q41 -12 51 -39q2 -4 7.5 -30.5t10.5 -46t13 -27.5q63 -84 37 -191q-8 -29 -19.5 -80t-15.5 -69q-29 -119 -55 -178l-49 -125 q-18 -10 -29 -37q-16 -41 -35.5 -60.5t-64.5 -54.5q-12 -8 -27 -16q-33 -12 -41 -37q-6 -10 -16 -18q-43 -29 -118 -85.5t-108 -78.5q-12 -8 -39.5 -21.5t-42.5 -23.5q-29 -27 -71 -39q-8 -4 -39 -13q-2 0 -10.5 -2t-11.5 -2t-9 -3t-9 -6t-7 -8t-6 -13q-4 -12 -23 -7 q-4 2 -14.5 11.5t-18.5 13.5q-6 -4 -17 -10t-18 -10q-31 -10 -43 2q-20 18 -49 14q-39 0 -49 41q-12 43 0 90q41 180 57 326q8 53 27 150t25 130q14 66 20 150q2 20 7 43.5t12.5 52.5t11.5 45q33 125 63 283q4 16 0 22q-49 10 -57 19.5t-6 48.5q80 0 98 4q8 18 -6 42.5 t-14 35.5q29 0 67 14q4 2 27 2zM424 1475q25 -6 69 -11.5t62 -9.5q23 -4 231 -43q8 -2 32 -4t36 -6q135 -41 164 -158q10 -41 12 -82q0 -18 14 -18q6 0 9.5 -3t5.5 -10.5t2 -9.5q18 -129 -17 -250q-25 -86 -28 -131q0 -4 -4 -12q-2 -4 -2 -6q-78 -193 -172 -318l-17 -22 q-10 -39 -61 -87t-58 -54q-8 -8 -20 -7q-8 2 -5 11.5t-1 15.5q-51 -61 -58 -67q-84 -84 -110 -107q-74 -55 -121 -80q-27 -14 -33 -25.5t-10 -39.5q-80 0 -106 -9q-53 -23 -70 19q-4 0 -23 -21q-2 -2 -17 -12t-18.5 -9t-21.5 1q-39 14 -31 53q6 31 15.5 95.5t17.5 99.5 q27 98 33 211q6 143 31 286q6 35 14 100.5t10 75.5q33 205 51 267q6 23 10.5 65.5t8.5 63.5q8 35 18 45q8 6 19 59q2 6 6 43h-45q-16 2 -17.5 6t11.5 23q27 39 90 35q41 -4 59 2q6 2 6 10q-2 23 3.5 27t25.5 -2zM829 1278q-6 -6 2 -14q0 -2 9 -15q12 29 -11 29zM1034 1087 q-10 -16 -6 -74.5t2 -72.5q14 36 4 147zM1909 483q-27 -29 -90.5 -72.5t-92.5 -86.5q115 71 183 159zM1401 74q-16 -2 -21.5 -4t-9.5 -6.5t-12 -16.5q2 2 17.5 9.5t25.5 17.5z" glyph-name="D_D.liga" horiz-adv-x="2099" unicode="DD"/><glyph d="M1642 1456q6 -12 37 -12q6 -2 19.5 -2h21.5q35 -4 47 -17q23 -18 15 -36q-8 -20 -37 -21q-100 -8 -143 -10q-68 -4 -271 -31q-31 -6 -18 -31q10 -16 2 -57q-8 -20 -11.5 -44t-4.5 -52.5t-3 -44.5q-20 -143 -45 -215q-4 -12 -6 -25.5t-5 -32t-5 -30.5h49h55.5h46.5h23.5 h27h19.5q61 -4 80 -2q12 2 25 0q2 -2 10 -3.5t13 -4.5t3 -9q-4 -25 -35 -31q-68 -8 -88 -20q-31 -16 -59 -4q-29 8 -49 0q2 -8 23.5 -8t23.5 -11q-20 -14 -72 -14q-27 0 -76 -8q-6 0 -13 -1t-10 -1t-7 -1t-5 -3t-4.5 -5t-4.5 -7.5t-3 -12.5q-6 -53 -4 -96q2 -33 -6 -98.5 t-8 -96.5q-4 -23 0 -28q10 -10 4 -19q-12 -23 -18.5 -65.5t-8.5 -51t-7 -33t-11 -41t-16 -32.5v-16q45 2 130 19.5t103 19.5h57q66 6 117 4q37 -2 48 -13.5t18 -52.5q-29 -4 -76 -12t-87 -13.5t-77 -5.5q-31 0 -114 -13t-128 -9l-4 -16q8 -29 -12 -39q-10 -6 -25.5 -3 t-23.5 11q-2 2 -7 10t-9.5 13t-12.5 8l-2 -3q-2 -2 0 -4q-4 -33 -16 -39q-25 -8 -43 15q-10 14 -17 28q-6 16 -14 16.5t-13 1.5t-10.5 5t-7.5 6t-5 8t-4 9.5t-4 11.5t-3 10q-2 12 -2 39q4 41 12 124t14 124q2 33 35 137q25 68 37 197q-18 0 -35.5 3t-28 6t-12.5 3 q-4 0 -56 4t-94 6t-65 -6q-6 -2 19 -6q14 -2 57 -6l62 -8q-16 -8 -64 -9q-10 0 -52 -5t-65 -3q-35 2 -93 -4t-79 -6q-20 -2 -25 -8t-10 -29q-12 -96 -38 -201q-35 -117 -60 -264v-20q57 -6 129 8q20 4 29 -4q20 -20 63 -13q27 6 79 7.5t79 5.5h8q6 -2 8 -2t6.5 -2t5.5 -5.5 t1 -7.5q-2 -10 -23 -14q-14 0 -76 -20q-27 -12 -24 -27q0 -8 -12 -12q-127 -20 -191 -25q-240 -12 -373 -53q-37 -8 -57 -8t-27 8q-18 25 -16 31t31 18q20 6 64 17.5t65 17.5q6 2 19.5 5t19.5 5q-10 4 -24.5 13.5t-20.5 11.5q-35 -4 -45.5 16t-2.5 76q6 63 27 153 q23 111 49 283q6 18 -2 20q-35 8 -41 29q-4 10 -23.5 8t-29.5 0q6 10 14.5 18.5t14.5 13.5t17 12.5t17.5 10.5l19.5 9t17 8q18 8 21 25l12 84q10 53 23 65q2 4 4 13.5t4 13.5q6 37 21.5 112.5t21.5 114.5q2 12 12 47t14 55q0 8 11.5 20.5t9.5 20.5q0 4 -12 11q-16 10 -9 51 q4 20 35 28q209 33 312 39q41 2 264 -2q70 0 78 2q-18 -23 -47 -22q-8 0 -18.5 -10.5t-16.5 -12.5q16 0 22 -2q4 -2 0 -6q-29 -18 -47 -18q-20 0 -56 -9.5t-63 -3.5q-18 4 -106 -12t-121 -29q2 -23 1 -63.5t1 -58.5q10 -92 2 -166q-2 -25 -12 -73t-12 -65l-13 -67 q-2 -14 4 -19.5t21 -3.5q47 8 158 4q2 0 18 2.5t18 2.5q39 4 92.5 -3.5t73.5 -7.5q80 0 121 -2q20 -2 25.5 2t9.5 25q2 8 49 250l39 215q4 20 8 31q8 23 25 16q14 -4 19 -4t21.5 6t24.5 8q-12 23 -32.5 29t-53.5 4t-45 -2q23 45 62 57q59 20 77 19q2 0 35 12q39 16 58 -14 q8 -12 51 -2q27 4 65.5 7t59.5 5q74 10 80 12q8 0 27.5 6t29.5 6t22 -12zM565 1352q-8 -2 -26.5 -2t-32.5 -4.5t-27 -14.5q33 -4 86 21zM1645 784q4 -2 2 -10t-7 -10q-31 -14 -36 14q21 18 41 6zM1532 729q10 0 12 -8q0 -4 -8 -12q-35 -14 -47 12q10 2 24.5 5t18.5 3z" glyph-name="E_E.liga" horiz-adv-x="1669" unicode="EE"/><glyph d="M399 1458q18 -25 19 -55q18 0 39.5 3t46 8t39.5 7q31 4 92 10.5t92 10.5q37 6 106.5 7t98.5 5q18 4 20 -4q2 -12 -14 -20q-45 -25 -66 -64q-18 -25 -45 -29q-92 -16 -141 -12q-37 2 -50 1t-50 -7t-51 -8q-43 -6 -62 -2q-14 4 -24 -2q-16 -55 -21 -117 q-2 -41 -15.5 -137.5t-15.5 -147.5q-2 -16 6.5 -21t28.5 -1q80 16 156 18q12 0 29.5 1t23.5 1h15.5t14.5 -3t9 -9q-10 -8 -20.5 -36t-18.5 -36q-4 -6 -15.5 -9t-17.5 -6t-2 -7q14 -18 13 -22.5t-23 -10.5q-18 -6 -62.5 -8t-62.5 -8q-55 -14 -70 -17q-29 -6 -28 -33 q-18 -166 -17 -225l-6 -125q0 -14 -7 -74.5t-3 -91.5q6 -23 -6 -57q-4 -8 -15 -57q-2 -18 -11 -53t-11 -46q-2 -12 -8 -17t-17.5 -8t-15.5 -5q-20 -33 -31 10q2 16 -16.5 30.5t-18.5 26.5q2 8 -4 11t-16 -1q-31 -20 -72 -2q-20 10 -24 18.5t-2 33.5q2 12 12 81.5t18 106.5 q6 39 14.5 109.5t12.5 97.5q4 41 21.5 119.5t21.5 117.5q2 16 -6 22.5t-19.5 8.5t-13.5 4q-6 4 -5 28.5t-7 31.5q-20 16 20 34q4 2 23.5 6.5t23.5 8.5q35 233 41 272q8 51 16.5 148.5t14.5 142.5q4 29 27 37q27 12 30 -10q4 -18 21 -27q0 20 7 28.5t29.5 16.5t24.5 8z M1681 1436q27 0 29 -9q6 -20 -14 -36l-17 -11q4 -8 23.5 -27.5t17.5 -37.5q-4 -4 -28 -4l-13 -6q0 -10 -5 -15.5t-8 -5.5t-10 3t-9 3q-111 12 -164 23q-43 8 -107 -10q-61 -16 -139 -27q-20 -2 -24.5 -5t-6.5 -24v-26q6 0 10.5 10t14.5 12q-14 -166 -47 -364q16 0 55 7t59 3 q4 -12 -10 -24.5t-16 -16.5q20 -2 47 4q70 14 106 -27q6 -6 10.5 -20t8.5 -21q-18 -14 -38 -22t-47.5 -12.5t-36.5 -5.5t-48 -3h-37q-37 -4 -55 -10q-25 -6 -27 -26v-23q2 -96 -20 -213q-2 -12 -34 -175t-40 -216q-6 -51 -49 -174q-4 -12 -25 -29q-14 -10 -24 -2 q-2 2 -6.5 7t-7.5 8t-7 6.5t-7 4.5t-9 1t-13 -2q-57 41 -59 79q0 29 -25 35q-18 2 -28 27q-25 57 -13 117q51 262 78 440q6 43 35 214t41 263q10 90 51 230q10 51 19 67q6 12 18 19q39 10 78 -11l6 6l2 5q2 4 5 11t6 12t12 5q35 4 45 -8q10 -18 41 -10q16 4 176 20 q87 9 280 17z" glyph-name="F_F.liga" horiz-adv-x="1562" unicode="FF"/><glyph d="M399 1458q18 -25 19 -55q18 0 39.5 3t46 8t39.5 7q31 6 91 3t89 3q12 2 96 3.5t152 7.5q66 6 163 11t107 7q16 4 19 -4q2 -6 -5.5 -12t-9.5 -8q-8 -12 -18 -21.5t-18.5 -12.5t-16.5 -7.5t-12 -5.5t-5 -6t5 -11q6 -10 -10.5 -19.5t-32.5 -9.5q-76 -2 -181 11q-49 4 -49 -2 q-2 0 2 -5q-2 -8 -14 -10q-37 0 -104.5 -5t-104.5 -7q-49 -2 -151 -14q-43 -6 -62 -2q-14 4 -24 -2q-18 -55 -21 -113q-2 -41 -15.5 -137.5t-15.5 -147.5q-2 -16 6.5 -21t28.5 -1q80 16 156 18q12 0 29.5 1t23.5 1h15.5t14.5 -3t9 -9q-10 -8 -20.5 -36t-18.5 -36 q-4 -6 -15.5 -9t-17.5 -6t-2 -7q14 -18 13 -22.5t-23 -10.5q-18 -6 -62.5 -8t-62.5 -8q-55 -14 -70 -17q-29 -6 -28 -33q-18 -166 -17 -225l-6 -125q0 -14 -7 -74.5t-3 -91.5q6 -23 -6 -57q-4 -8 -15 -57q-2 -18 -11 -53t-11 -46q-2 -12 -8 -17t-17.5 -8t-15.5 -5 q-20 -33 -31 10q2 16 -16.5 30.5t-18.5 26.5q2 8 -4 11t-16 -1q-31 -20 -72 -2q-20 10 -24 18.5t-2 33.5q2 12 12 81.5t18 106.5q6 39 14.5 109.5t12.5 97.5q4 41 21.5 119.5t21.5 117.5q2 16 -6 22.5t-19.5 8.5t-13.5 4q-6 4 -5 28.5t-7 31.5q-20 16 20 34q4 2 23.5 6.5 t23.5 8.5q35 233 41 272q8 51 16.5 148.5t14.5 142.5q4 29 27 37q27 12 30 -10q4 -18 21 -27q0 20 7 28.5t29.5 16.5t24.5 8zM1012 1235q8 -2 26.5 -4t28.5 -3t23.5 -8.5t21.5 -17.5q39 -51 35 -135q-16 -137 -21 -195q-2 -35 -6 -84t-6 -83q0 -63 2 -76q4 -70 -29 -174 q-2 -4 -47 -203q-14 -82 -32 -109q-8 -14 -4 -41q0 -29 -13 -34q-10 -6 0 -17q8 -12 -8 -35q-14 -20 -20.5 -21t-22.5 11t-43 0q-39 -20 -113 -12q-23 4 -24 20q-4 59 -2 72q4 31 13 85t13 79q8 45 13 172q2 53 14 142t18 149q4 41 17.5 115.5t17.5 99.5q4 37 9.5 69.5 t14.5 72.5t13 71q6 23 11.5 26.5t29.5 3.5q6 2 14 3q4 8 4.5 20t2.5 20q4 6 15 8.5t15 6.5q11 10 19 6zM1063 666l4 86q-8 -18 -25 -86l-6 -48q-2 -4 2 -22t4 -23l-2 -45q0 4 2 7q4 6 11 18q2 2 10 57v16.5v23v16.5z" glyph-name="F_I.liga" horiz-adv-x="1183" unicode="FI"/><glyph d="M399 1458q18 -25 19 -55q18 0 39.5 3t46 8t39.5 7q35 6 97 11.5t87 9.5q76 10 161 13t107 5q16 4 21 -4q2 -6 -8.5 -19.5t-18.5 -17.5q-43 -23 -55 -47q-10 -23 -43 -29q-18 -4 -75.5 -4t-86.5 -8q-31 -10 -111.5 -15t-82.5 -5q-43 -6 -62 -2q-14 4 -24 -2 q-16 -55 -21 -117q-2 -41 -15.5 -137.5t-15.5 -147.5q-2 -16 6.5 -21t28.5 -1q80 16 156 18q12 0 29.5 1t23.5 1h15.5t14.5 -3t9 -9q-10 -8 -20.5 -36t-18.5 -36q-4 -6 -15.5 -9t-17.5 -6t-2 -7q14 -18 13 -22.5t-23 -10.5q-18 -6 -62.5 -8t-62.5 -8q-55 -14 -70 -17 q-29 -6 -28 -33q-18 -166 -17 -225l-6 -125q0 -14 -7 -74.5t-3 -91.5q6 -23 -6 -57q-4 -8 -15 -57q-2 -18 -11 -53t-11 -46q-2 -12 -8 -17t-17.5 -8t-15.5 -5q-20 -33 -31 10q2 16 -16.5 30.5t-18.5 26.5q2 8 -4 11t-16 -1q-31 -20 -72 -2q-20 10 -24 18.5t-2 33.5 q2 12 12 81.5t18 106.5q6 39 14.5 109.5t12.5 97.5q4 41 21.5 119.5t21.5 117.5q2 16 -6 22.5t-19.5 8.5t-13.5 4q-6 4 -5 28.5t-7 31.5q-20 16 20 34q4 2 23.5 6.5t23.5 8.5q35 233 41 272q8 51 16.5 148.5t14.5 142.5q4 29 27 37q27 12 30 -10q4 -18 21 -27q0 20 7 28.5 t29.5 16.5t24.5 8zM973 1243q18 2 24.5 -4t3.5 -22q-4 -18 17 -39q59 -63 -8 -113q-6 -4 -20.5 -16.5t-26 -17.5t-25.5 -3q-6 8 -24.5 7t-30.5 3q-94 53 -6 154q35 41 96 51zM928 860q31 0 44 -13t17 -46q0 -14 6 -19q18 12 23.5 10.5t3.5 -22.5q0 -16 -8 -31 q-12 -31 -13 -61q-2 -51 -30 -258q-6 -55 -10 -158q-2 -18 -3.5 -55t-3.5 -55q0 -10 -2 -27q-4 -23 -1 -29t26 0q84 37 117 58q78 47 86 49q25 12 32 20q43 29 68 8q-23 -25 -57 -49q-51 -35 -76 -67q-14 -20 -41 -23q-4 0 -41 -24q-6 -4 -20.5 -10.5t-20.5 -12.5 q-16 -20 -27 -27q-8 -6 -39 -16l-40 -12q-12 -6 -29 -6q-4 0 -10.5 1t-8.5 1q-4 -2 -11 -7.5t-11 -7.5q-10 -2 -23 11q-16 16 -30 18q-4 2 -13.5 7t-13.5 6t-16 -5q-8 -4 -25 12q-23 29 -22 115q4 53 24 164q27 139 41 199q27 92 35 172q0 16 10 58t8 67q2 10 31 39 q33 22 74 26z" glyph-name="F_i.liga" horiz-adv-x="1140" unicode="Fi"/><glyph d="M748 1479q-12 -16 -41 -24.5t-39 -16.5q68 -4 98 6q20 6 59 2q47 -6 74 -31q47 -31 41 -94q-2 -47 -25 -117l-16 -63q-10 -23 -12 -25q-12 -8 -19.5 -19.5t-12.5 -26.5t-11 -23h-37q-27 -8 -45.5 2t-22.5 36q-4 14 0 45q4 41 17 144q0 12 -2 36.5t-2 37.5q0 25 -21 30 q-45 16 -90 0t-72 -59q-72 -117 -77 -129q-59 -145 -62 -213q-2 -29 -12 -83t-12 -75q-2 -14 -7.5 -58t-9.5 -69q-14 -70 -25.5 -200t-19.5 -183v-8t-2 -10q-12 -29 -11 -63.5t5 -48t18 -56.5q8 -25 17.5 -28t36.5 9q4 2 68.5 37t98.5 45q20 6 23 27q8 61 33.5 185t34.5 186 v10q-94 29 -125 24q-6 0 -11.5 3.5t-7.5 7.5t-4 12t-2 10q8 12 23 13q31 0 89 12t77 14h8q23 16 27.5 12t11.5 -24q2 -2 6 -3t6 -1q8 8 13 28.5t16 30.5q8 0 23 -8t25.5 -8t10.5 -23q0 -12 -1 -36.5t-2 -44t-3 -35.5q-16 -109 -17 -127q-4 -45 -17 -133.5t-17 -127.5 q-2 -23 -8.5 -67.5t-8.5 -67.5q-6 -74 -71 -108q-2 -2 -7.5 -8.5t-11.5 -8.5q-14 18 -39.5 65.5t-44.5 67.5q-8 8 -10 31t-4 27q-10 0 -29 -19q-72 -72 -112 -79q-10 -12 -25.5 -18.5t-35 -9.5t-28.5 -7q-37 -14 -98 -6q-25 2 -84 10q-86 12 -96 78q-6 45 -23 100 q-10 37 2 115q18 123 31 235q0 4 37 156q0 2 6 27.5t6 37.5q2 27 15.5 78t15.5 76q2 33 13.5 65.5t29.5 76.5t25 65q12 20 14 28q31 106 160 220q6 6 78 55q8 4 10 4q27 0 53.5 11.5t58 28.5t50.5 24q16 4 44 4t40 2zM1608 1442q16 14 48 10t50 -22q23 -27 45 -33 q6 -2 10 -7.5t7.5 -13.5t5.5 -10q6 -12 9 -26.5t5 -32t4 -27.5q12 -49 -6 -129q-4 -25 -10 -33q-2 -6 -6.5 -23.5t-9.5 -27.5t-15 -16q-4 -2 -26.5 -16.5t-35.5 -16.5q-2 0 -14 -17q-4 10 -17.5 24.5t-15.5 27.5q2 2 0 4t-4 2q-10 2 -19 7t-14.5 13t-8.5 13.5t-5 17.5t-2 16 t-1 19.5t-1 17.5q-2 23 1 63t3 56q2 27 -15.5 49.5t-45.5 26.5q-39 8 -84 6q-29 -70 -68 -197q-2 -10 -5 -21t-7 -24.5t-6 -21.5q-20 -72 -90 -371q-4 -23 -16.5 -72t-16.5 -73q-2 -14 -7 -42t-8.5 -49.5t-3.5 -42t-6 -61.5t-8 -61q0 -14 -5 -39t-5 -37q0 -16 2 -32.5t5 -37 t5 -32.5q-4 -8 6 -13q4 -2 14.5 -7t15.5 -8t14.5 -5t18.5 -2t19 4q14 4 28.5 11t29 19.5t22.5 18.5t24.5 23.5t22.5 21.5q10 10 6 23q6 150 68 311q8 16 2 24q-10 0 -34.5 -1t-38 -1t-30 9.5t-26.5 29.5q10 6 22.5 8t21.5 1t19 1q59 2 125 13q35 8 35 33q2 27 35 30 q35 4 53 -10q20 -14 33 -6q6 6 12 -8q6 -12 15 -11q18 4 21 0t-1 -20t-9 -49t-7 -47q-6 -59 -32 -179t-32 -180q-12 -106 -14 -118q-4 -31 -17 -48l-22 19q-2 2 -6 10t-6 6q-6 -8 -21.5 -4t-21.5 2q-70 -27 -105 31q-12 23 -22.5 25t-38.5 -11q-8 -4 -28.5 -13t-31.5 -15 q-16 -10 -50 -11.5t-40 -3.5h-8q-10 -2 -14 -6q10 -12 47 -12q10 -4 8 -8q0 -12 -12 -13q-6 0 -38 -5t-50.5 -2t-34.5 18q-8 6 -21 6q-59 8 -73 45l-13 8q-10 2 -18 6t-13 8t-11.5 15.5t-8.5 14.5t-7 17.5t-5 16.5q-2 2 -2 4q-10 33 -15.5 127t-3.5 141q0 20 17 133 q2 27 26 123q12 45 9 64q-6 49 14 106q43 147 96 264q6 16 8 17q14 6 22.5 15t14.5 25.5t8 22.5q33 66 41 88q20 49 74 99q6 6 12.5 8t15.5 4t15 4q23 8 25 -4q0 -14 -25 -60l-8 -16q-37 -80 -41 -133q0 -18 8 -20q8 20 36 105t52 122q2 8 10.5 14t10.5 15q8 10 43 12 q68 4 116 -10q34 -8 52 10zM252 981q-16 -8 -21 -29q-23 -90 -34 -151q-4 -12 12 -13q16 104 47 183q0 2 -4 10z" glyph-name="G_G.liga" horiz-adv-x="1785" unicode="GG"/><glyph d="M836 1522q25 -16 36 -62q2 -12 5.5 -36.5t7.5 -44t12 -33.5q4 -8 4 -31q-8 -35 -12 -107q0 -39 -19 -153l-36 -228q2 -2 26 -2q98 16 178 11q23 -2 35 26q35 113 96 338q10 35 26.5 103.5t25.5 101.5q59 4 73 -37q6 25 31 74q4 18 16 20q10 0 15 -14q4 -12 8 -14 q35 -27 39 -113q4 -39 -12 -117q-27 -137 -39 -186q0 -2 -25 -158q-2 -10 2 -14t12 -2q25 2 72 -1t69.5 -1t67.5 5t68 5q12 0 16 22q4 33 23 132l59 335l13 84q6 2 22 6.5t23.5 4.5t17.5 -4.5t16 -14.5q2 -4 17 -4q6 2 20.5 3t22.5 1q-6 -31 22 -43q27 -8 31 -20.5t-6 -40.5 q-39 -131 -47 -256q0 -8 -4 -34t-4 -38q0 -31 -6.5 -90t-4.5 -88q4 -61 -14 -168q-4 -43 -20 -129q-2 -23 -10.5 -65t-10.5 -50q-49 -225 -57 -254q-20 -55 -27 -116q-8 -41 -39 -97q-8 8 -31.5 21.5t-31.5 27.5q0 2 -2 2.5t-2 2.5q-45 16 -54.5 31.5t-3.5 60.5 q20 121 8 223q-12 86 29 190q6 25 4 45q-6 55 6 101q0 2 19 108q-2 2 -14.5 5.5t-16.5 9.5q4 8 19.5 12t21.5 16q-29 -10 -58.5 -14t-68.5 -7t-57 -5q2 -4 9 -5t9 -5q-4 -8 -8 -9q-20 0 -58 -10t-57 -10q-23 -2 -29 -8t-10 -27q-14 -59 -18 -176q-2 -41 -21 -195 q-16 -109 -36 -207q-4 -25 -15.5 -70.5t-15.5 -62.5q-8 -23 -12 -26q-20 -25 -31 -10q-8 14 -35 21t-33 19q-8 23 -28 9q-16 -12 -58 -2q-16 4 -16 34q0 10 2 31t2 31q2 47 22 141q12 53 27 248q12 131 33 215l4 23q-33 -8 -125 -3t-123 3q-37 -184 -33 -291q2 -96 -18 -191 q-4 -23 -10 -35q-39 -72 -49 -153q-37 14 -62 -10q-14 -14 -31 2q-43 57 -39 112q2 43 17.5 119t17.5 96q14 109 47 326l2 18q-4 4 -28 5q-104 -18 -170 -29q-23 -4 -27 -33q-4 -23 -10 -67t-10 -66q-4 -29 -54 -217q-6 -16 -10 -46t-8 -42q-2 -4 -2 -13.5t-2 -13.5 q-25 -92 -37 -176q-8 -49 -57 -57q-14 -2 -35 7t-27 23q-20 53 -14 84q0 20 -14 29q-39 23 -33 76q8 59 0 90q-6 20 4 94l49 262q12 41 -18 43q-10 0 -11 9q2 8 -1 12t-10 7t-9 5q-39 25 -45 72q16 0 51 8t55 4q10 -4 15.5 3t7.5 20l27 122q63 291 86 422l10 66q8 33 39 33 q20 0 38.5 -14.5t20.5 -35.5q4 -29 41 -106q12 -18 12 -41q8 -176 -10 -250q-4 -25 -20 -153q-4 -25 0 -29t28 -4h31q14 0 66.5 6t80.5 4q20 -4 25 16q18 119 41 203q12 57 29 172q14 88 45 238q8 39 2 57q4 6 17.5 10.5t17.5 12.5zM1393 750q-51 4 -76 -13q10 2 34 5.5 t42 7.5z" glyph-name="H_H.liga" horiz-adv-x="1867" unicode="HH"/><glyph d="M954 1444q4 -8 36 -27.5t30 -48.5q0 -14 10 -25q6 14 9 42t5 36q33 -27 17 -71q-14 -41 -10 -109q0 -29 -15 -119q-16 -92 -16 -110q-2 -82 -33 -291q-6 -33 -6 -66q-2 -20 -33 -149q-20 -96 -24 -152q0 -16 -4 -45q0 -27 4 -28q14 -14 -4 -31l-7 -8q-4 -6 -6 -11 q-4 -31 -24.5 -85t-24.5 -76q-2 -10 -10 -25.5t-10 -21.5q-18 -2 -31.5 -27t-28.5 -31q2 12 -1 18.5t-7 7.5t-14.5 2t-16.5 3q-12 2 -23 -1t-14 -3q-8 0 -18 11t-20 7q-4 -4 -9 6q-39 68 -30 109q4 33 2 41t0 17.5t-3.5 14.5t-21.5 1l-6 12q-23 49 -4 90q6 6 4 21.5t-2 19.5 q6 31 17.5 92.5t17.5 91.5l61 273q43 203 70 297q10 39 24 151q8 51 11 84q0 14 8 17q33 6 39 32q0 6 14 17.5t16 21.5q-2 6 11 11q8 2 29.5 7t33.5 7q4 4 8 0zM373 1399q8 -2 27.5 -4t29.5 -3t23.5 -8.5t21.5 -17.5q39 -53 33 -135q-31 -262 -31 -277q-2 -23 -7 -65.5 t-8 -77.5t-3 -66v-75q4 -70 -29 -174q-14 -47 -31.5 -135.5t-21.5 -108.5q-14 -82 -33 -109q-8 -14 -4 -41q0 -29 -12 -34q-10 -6 0 -17q8 -10 -9 -35q-16 -20 -21 -21t-21.5 11t-43.5 0q-39 -20 -112 -12q-23 4 -25 20q-4 59 -2 72q4 31 13.5 85t13.5 79q6 33 8 91t4 81 q4 78 25.5 220t27.5 194q4 39 16.5 111.5t16.5 103.5q8 61 45 254q4 23 9.5 26.5t29.5 3.5q6 2 14 2q6 8 5.5 20.5t3.5 20.5q4 6 15 8.5t15 6.5q11 10 17 6zM705 512l-9 10q0 -2 -4 -7t-8 -13t-4 -17l-10 -61l-13 -66q-2 -4 -3 -38.5t-1 -41t9 6.5q16 31 18 51l6 70 q0 4 6 28.5t6 34.5z" glyph-name="I_I.liga" horiz-adv-x="1040" unicode="II"/><glyph d="M512 1442q41 -14 47 -24.5t4 -55.5q-2 -53 10 -113q2 -45 2 -64.5t-5 -64.5l-7 -63q0 -39 2 -58q-8 -53 -14 -138t-12 -132q-8 -49 -23 -82q-14 -27 -16 -91t-2 -67q-18 -123 -64 -276q-16 -72 -67 -125q-88 -94 -199 -154q-18 -12 -55 -6q18 18 70.5 48t74.5 53 q-31 8 -59 -15q-74 -61 -117 -71q-14 -16 -52 -26.5t-53 -29.5q-6 -8 -17 -7t-17 9q-8 20 -39 17q-18 -4 -21.5 1t-3.5 30q2 27 35 47q80 45 152 114q94 96 110 248q4 53 19.5 151.5t19.5 123.5q16 102 45 311q4 35 21 94q14 53 26 156q2 27 9.5 80t11.5 79v5q8 35 21 42 t46 -10q25 37 45 39q6 0 11 8q18 29 61 17zM997 1389q10 -4 18.5 -6.5t12.5 -3.5t8 -4t13 -11q10 4 35.5 7t31.5 5q8 -8 8 -12l19 -279v-30q-8 -43 -16.5 -132t-18.5 -137q-8 -33 -12 -102.5t-15 -105.5q-39 -160 -49 -275q0 -10 -8 -31q-27 -76 -43 -157q-16 -96 -78 -140 q-10 -6 -19.5 -24.5t-17.5 -24.5q-158 -117 -303 -110q-35 0 -49 22h27.5h29t24.5 1t27.5 3t25 6.5t25.5 11.5t23 15q-35 16 -67 8q-10 -6 -59.5 -4t-57.5 2t-12 2q-8 6 -35 21.5t-40 28t-24 30.5q55 -4 64 -2q4 2 26.5 9t28.5 9.5t26.5 8.5t28 10t24.5 11t25.5 13.5 t21.5 14.5t20.5 17t15.5 19.5t14 22.5q18 37 39 115q4 20 16.5 66.5t17.5 68t11 67.5t-2 68q-12 104 13 262q47 231 47 332q0 39 36 158q16 51 21 72q4 29 43 67q28 29 59 17zM344 121q-4 -2 -27 -29q23 11 27 29z" glyph-name="J_J.liga" horiz-adv-x="1124" unicode="JJ"/><glyph d="M1847 1548q10 -8 7 -45t-11 -47q-43 -49 -47 -57q-10 -29 -30.5 -42.5t-32.5 -35.5q-4 -8 -47 -68q-10 -12 -28 -30.5t-29 -33.5t-19 -34q-4 -16 -13.5 -31.5t-30 -40t-22.5 -28.5q-76 -98 -104 -152q-2 -16 -4 -18t8 -13.5t12 -13.5q2 6 5 21.5t7.5 23.5t14.5 17 q20 -12 26 -27q14 -68 29 -107q29 -59 39 -73q25 -29 37 -107l67 -319q51 -199 56 -213q10 -35 14 -41q10 -18 -4 -33q-20 -16 -33 -4q-12 10 -42 15t-40 14q-12 10 -41 2q-31 -6 -47 16.5t-49 32.5q-66 27 -76 121q-27 242 -33 278q-8 33 -11 101.5t-5 80.5q-4 66 -8 105 q-39 -37 -51 -107l-56 -344l-6 -54l-6 -54q-4 -27 -35 -160q-6 -27 -17 -31t-32 6q-6 2 -26 -2q-35 -8 -64 17l-4 4q-8 12 -18 0q-2 -2 -13 8v39q4 25 10.5 69t12.5 80.5t14 67.5q25 61 49 182q-35 -23 -39 -59.5t-55 -243.5q-2 -12 -6 -41.5t-8 -46.5q-4 -20 -4 -24 q0 -12 -31 6q-23 10 -25 35q-6 39 0 81q61 430 68 469q8 43 22.5 131.5t22.5 131.5q4 18 8 57t6 57q27 137 60 289q4 16 20 100q6 27 17 29q18 2 22 -18l6 -17q8 6 42 47t65 52q6 -2 13 -17.5t22 -11.5q2 2 8 -6q2 -4 2 -6q-2 -23 11 -58t15 -51q4 -76 -4 -135 q-4 -18 -3 -78.5t1 -79.5q0 -41 -12 -127q0 -14 4 -18q25 25 41 57q37 59 94.5 139t85.5 123q18 25 59.5 70t59.5 72q16 27 69.5 83t69.5 74zM979 1435.5q8 8.5 21.5 1.5t11.5 -22q0 -18 -15 -33q-51 -63 -100 -116q-20 -23 -96 -119q-25 -31 -27 -33q-2 -4 -18.5 -21.5 t-20.5 -27.5q-2 -8 -12 -23.5t-12 -23.5q-8 -27 -64 -68q-45 -41 -31 -100q6 -33 22.5 -94.5t23.5 -85.5q0 -4 5 -24.5t3 -33.5q0 -12 8 -30.5t10 -24.5q27 -125 86 -278q43 -119 47 -160q6 -10 2 -25q-2 -33 11 -69q10 -25 4 -37q-47 14 -72 -27q0 -4 -5 -2t-7 2 q-10 -4 -28.5 -5t-27.5 -3q-37 -12 -75 31q-35 35 -52 43q-4 -2 -5 -12.5t-7 -14.5q-29 10 -35 49q-18 94 -32 219q-27 160 -35 217q-27 168 -29 230q2 4 -2 12t-4 12q-18 -10 -23 -43q-8 -135 -16 -200q-33 -297 -39 -322q-2 -18 -25 -63q-6 -10 -10 -25l-4 -14 q-2 -4 -5 -12.5t-5 -12.5t-9 -8t-18 -4q-8 0 -12 -7.5t-7 -17.5t-7 -16q-16 4 -21.5 5t-23 -6t-21.5 -9q-35 -10 -59.5 4t-24.5 45q0 53 8 135q10 98 23 291q16 168 29 254q8 49 20 145t21 146q23 174 43 241l6 49q0 41 6 49q41 41 35 70l8 6h6q18 -4 49 11q39 18 90 4 q31 -6 35 -43q0 -84 -10 -146q-6 -37 -6 -69q0 -37 -19 -138q-4 -37 -11 -106.5t-11 -100.5q14 10 61 62q25 27 131 154q123 147 246 274q74 74 80 82q6 6 22.5 15t24.5 17.5z" glyph-name="K_K.liga" horiz-adv-x="1804" unicode="KK"/><glyph d="M436 1487q4 -4 8.5 -13.5t9.5 -15.5t15 -8q4 0 4 -20l-18 -80q-6 -20 -39 -246q0 -8 -8.5 -46t-6.5 -57q0 -33 9 -38q20 43 26 121.5t19 113.5q14 39 24 120t23 120q20 -18 10 -72l-25 -160q-10 -53 -23 -151.5t-18 -128.5q-33 -215 -30 -275q8 -96 2 -209 q-4 -39 -43 -186q-8 -31 -10 -41q-12 -45 -27 -65q-25 -31 -14 -66q8 -2 14 6q10 14 13 15t14 -11q6 -6 18 -6q66 0 84 4q4 0 121 12q45 0 59 -10q6 -4 35 -4q25 0 31 -4q18 -14 2 -25q-18 -16 -10 -28q8 -10 -9 -17q-4 -2 -25.5 -12t-34.5 -13t-30 -1q-23 2 -74 -4t-75 -4 q-39 2 -170 -9q-18 -2 -83 -5t-95 -9q-55 -8 -74 53q6 6 34.5 9.5t36.5 23.5q0 4 -14 23q-23 45 -20 65q6 55 25.5 179t25.5 188q6 59 20.5 165.5t18.5 141.5q10 61 23.5 175t17.5 148q2 14 18.5 111.5t20.5 149.5q0 27 28 26q16 -2 46 11.5t44 13.5q6 0 15 12q18 29 61 33z M1055 1425q29 12 57 -12q23 -18 37 -45l27 -59q2 0 4 2h4l10 57q18 -20 14 -74q0 -25 -4 -73q0 -45 13 -60q4 -4 4 -15v-13q2 -55 -9 -193q-16 -152 -28 -227q-8 -55 -13 -111q-12 -66 -26 -96q-12 -23 -27 -105q-4 -18 -10 -26q-8 -10 -4 -27q8 -43 -4 -153q-2 -23 2 -28 t28 -5q23 0 48.5 -1t56.5 -3t47 -2q23 -2 43 -15q43 -20 86 -18q31 2 84 -2q33 -2 68 -41q23 -14 -4 -29q-41 -20 -52 -18q-33 8 -72.5 9t-89 -2t-75.5 -3q-123 4 -301 -17q-27 -2 -73 1.5t-60 3.5q-8 0 -16.5 4t-16.5 14t-12 14q10 16 36.5 25.5t34.5 15.5q-47 41 -35 152 q8 57 26.5 162.5t25.5 138.5q31 188 30 225q2 78 25.5 202t30.5 167q2 23 12 90.5t12 103.5q0 2 -1 10.5t-3 12.5q-4 53 51 59q4 0 10.5 2t8.5 2zM1198 129q-84 0 -100 -4q55 -23 100 4zM1024 117q-33 8 -41 7t-20 -18q45 1 61 11zM149.5 72q-2.5 0 -12.5 -15q-2 -6 4 -6 q8 -2 15 10q-4 11 -6.5 11z" glyph-name="L_L.liga" horiz-adv-x="1630" unicode="LL"/><glyph d="M524 1466q12 2 17 -8q14 -51 34 -86q16 -29 21 -82q6 -76 19.5 -234.5t21.5 -234.5q4 -94 12 -149q20 37 47 129q10 31 27.5 93t28.5 95q68 188 73 207q4 12 19.5 55t28 71t28.5 52q35 51 74 43l47 -10q14 -2 29 -14q16 -18 22 -16.5t23 28.5l6 6q2 -2 9 -6t10 -4t14 4 q8 8 26 -2q4 -2 9.5 -6t7.5 -4q45 -14 56 -55.5t-1 -84.5l-6 -22q-4 -63 -30 -181t-30 -137q-27 -150 -30 -254q-2 -35 -8.5 -106.5t-8.5 -106.5q-4 -51 -19.5 -145t-19.5 -131q0 -10 -3 -51t-7 -64q-14 -63 -76 -49q-4 -2 -10 -24q-16 -23 -43 -17q-31 4 -100 55 q-45 33 -35 101q20 143 29 176q12 45 12 106q4 70 20.5 198t20.5 187q2 43 16.5 169t16.5 194l-4 16q-23 -27 -39 -71q-6 -12 -33 -67.5t-37 -86.5q-82 -231 -94 -313q-2 -12 -10.5 -36t-10.5 -34t-10 -32.5t-12 -39t0 -32.5q2 -16 -3 -27.5t-21.5 -29t-18.5 -19.5 q-6 -10 -21 0q-29 12 -37 10q-12 -27 13 -27q8 0 14 -8t10 -19t6 -16q-6 -8 -30 -12q-72 -8 -86 15q-8 12 -39 30q-39 27 -58 92q-51 227 -71 381q0 6 -9.5 88t-15.5 123q-4 45 -10 70q0 -20 -13.5 -60t-11.5 -61q0 -29 -9 -83l-11 -66q-2 -25 -15.5 -114t-17.5 -136 q-2 -25 -5 -68t-5 -79t-2 -66q0 -74 -12 -123q-16 -63 -37 -205q4 -16 -9 -31q-29 -31 -63 -10q-2 -2 -8 -9t-13 -9l-6 12l13 115l41 237q16 86 24 215q10 182 58 445q10 53 27.5 168.5t25.5 167.5q2 8 4 25.5t2 19.5q0 20 27 30q35 10 67 -2q8 4 15.5 15.5t11.5 13.5 q25 23 36 26t37 -10q45 -16 52 -47q0 -8 12 -6q4 8 6 27.5t8 27.5zM2204 1415q2 0 16 1t19.5 0t13.5 -5t10 -14q2 -4 14 -4q39 6 52 -33q6 0 14 6t12 2q10 -16 53 -16q6 0 11.5 -3t7.5 -8.5t6 -11.5t6 -10q23 -18 8 -59v-31q2 -25 -4 -148q-18 -166 -18 -221 q-4 -102 -17 -153q-4 -14 -8 -72q-23 -160 -24 -168q-4 -25 -8.5 -68t-6.5 -59q-12 -80 -30 -119q-23 -51 -23 -143q0 -29 -16 -47q-23 -25 -49 -13q-20 12 -29 21q-2 2 -6 10t-7 7t-16 -11q-4 4 -26.5 18.5t-26.5 28.5l-25 74q-8 33 -10 47q2 27 -14 47q-18 16 -15 62 q2 76 13 149q16 92 24 274q4 57 17 168q2 33 10 97.5t10 99.5q-14 -6 -24 -31q-6 -18 -22.5 -55t-22.5 -55q-10 -33 -58 -121q-82 -164 -96 -197q-2 -6 -8 -16t-8 -14q0 -2 -5.5 -6.5t-3.5 -8.5q6 -29 2 -42t-19 -38.5t-19 -38.5q-6 -23 -29 -41q-10 -8 -19 -28 q-10 -27 -32.5 -76t-28.5 -63q-6 0 -22.5 7t-28.5 3q-6 -2 -12 4q-4 6 -12.5 15t-11.5 15.5t-9 16.5t-6 17.5v21.5q4 25 -6.5 69t-10.5 60l-4 10q-31 29 -47 109q-37 156 -43 211q0 4 -1 11t-3 11q-31 92 -37 193q-14 -4 -14 -25q-4 -33 -5 -97.5t-8 -96.5l-36 -308 q-4 -31 -9.5 -90t-7.5 -78q-6 -57 -22 -125q-29 -82 -27 -106q2 -31 -3 -71t-5 -50q0 -20 -8.5 -57t-10.5 -47q-16 -10 -30 8q-35 51 -31 90q4 41 16.5 138.5t21.5 178t13 136.5q6 57 19.5 170.5t17.5 171.5q20 160 37 237q14 66 39 197q4 37 -8 47q-6 6 -7 16 q-8 23 -1.5 31t30.5 10q35 4 47 10q35 16 64 -8q12 -10 38.5 -24.5t36.5 -20.5q47 -33 68 -76q8 -23 27 -30l-21 82q0 18 4 20q8 4 21 -4q33 -37 41 -55q14 -33 29.5 -100.5t17.5 -75.5l49 -191q10 16 25.5 46t21.5 42q31 61 68 117q49 72 116 186q39 70 41 72q25 27 21 57 q-2 16 7.5 26.5t25.5 8.5zM1057 1053q-12 -20 -15.5 -45t-0.5 -43.5t-1 -44.5q18 31 24.5 73t-7.5 60z" glyph-name="M_M.liga" horiz-adv-x="2441" unicode="MM"/><glyph d="M1966 1516q12 -10 2 -29q-12 -18 -16 -68q0 -70 -15 -98q-4 -8 -4 -15.5t2 -16.5t2 -13q0 -14 -28 -150q-4 -20 -12.5 -59t-14.5 -70.5t-10 -60.5q-4 -18 -10.5 -90t-18.5 -137q-2 -12 -5 -37t-5 -37q-25 -129 -43 -330q-10 -80 -14 -94q-8 -39 -13.5 -81t-9.5 -93 t-8 -80l-4 -14q-4 -2 -19 8q-2 2 -5 8t-5 9t-6 6t-10 2t-15 -5q-6 0 -6 2q-10 16 -44 25.5t-46 21.5q-16 16 -33 3q-4 -4 -18 0q-4 2 -18 20q-2 4 -10.5 14.5t-10.5 18.5q-6 20 -29.5 55t-33.5 55q-8 18 -17 64q-2 35 -22 100q-33 117 -43 193q-2 18 -8.5 52t-10.5 61.5 t-6 52.5q-27 180 -29 252q0 10 -6 30.5t-6 30.5q0 29 -5 60.5t-15.5 72.5t-14.5 62q0 18 -10 24q0 -4 -3 -15.5t-3 -17.5q-16 -156 -16 -159q-4 -16 -5 -23q0 -12 2.5 -42t2.5 -45t-4.5 -47t-16.5 -71q-14 -35 -10 -78q4 -27 -8 -41q-8 -16 -9 -22q4 -109 0 -213 q-4 -162 -12 -203q-8 -55 -10 -78q-6 -104 -39 -215q-6 6 -30.5 18.5t-30.5 26.5q-8 18 -25 4q-4 -2 -13.5 -3t-13.5 -5q-8 12 -6 25q2 31 5 123t9.5 157.5t20.5 124.5q6 27 10 119q2 55 22.5 164t22.5 121q29 139 33 158q6 23 8 66.5t2 51.5q27 260 27 264v17q10 27 16 27 q6 2 21.5 13t25.5 13q39 6 50 -26q12 2 36 18q4 6 39 16q20 4 29 -16l23 -6q29 0 43 -35q2 -8 10 -38t18 -48q2 20 -3 53t-5 49q16 6 21 -8q14 -31 38 -39q10 -4 11 -12q41 -94 47 -180q2 -27 11 -72t11 -61q8 -68 17 -199q6 -125 22 -279l27 -206q18 -96 10 -140 q-2 -6 8 -10q12 6 17 27q41 434 84 655l71 385q4 16 22.5 88t20.5 113q14 -4 25.5 -1t29 16.5t21.5 15.5zM539 1425q12 0 12 -6q2 -16 14.5 -38.5t14.5 -34.5q6 -37 9 -119t13 -125q14 -66 33.5 -193t30.5 -182q4 -20 7 -45t6 -53.5t5 -44.5q4 -39 16.5 -119t16.5 -121 q0 -10 8 -10q43 160 37 305q-8 -8 -9 -24.5t-1 -18.5q-2 -6 -3 -21.5t-6 -23.5q-10 2 -10 22q8 51 21 158q2 16 10 50t10 46q2 18 4 38t4 43.5t4 37.5q2 55 17 123q37 199 47 293q2 12 29 43q4 6 20 6q14 -2 32.5 -20.5t18.5 -32.5q-4 -25 -5 -88.5t-9 -98t-18.5 -101 t-14.5 -91.5q-2 -14 -9 -66.5t-13 -83.5q-10 -49 -23.5 -141t-19.5 -131q-4 -31 -5.5 -91t-3.5 -79q-4 -35 -5 -105.5t-5 -107.5q-4 -49 -14 -55q-12 -8 -16.5 -16.5t-3.5 -21.5t1 -18q-2 -10 -2 -28q-4 -45 -47 -60q-16 -10 -20 9q-8 12 -41 16q-6 2 -49 2t-62 12 q-16 -8 -36.5 2.5t-26.5 10.5q-33 2 -37 41q-2 18 -6 47.5t-7 55.5t-6 48q-2 39 -13 117t-15 117q-2 27 -41 319q-23 135 -29 252q0 29 -4 83t-4 71q-12 -4 -12 -17q-63 -354 -88 -508q-10 -66 -23.5 -187.5t-21.5 -176.5q-4 -39 -10.5 -127t-8.5 -111q0 -6 -16 -119 q-10 4 -32 20.5t-36 20.5q-18 4 -10 29q4 23 -6 51q-8 18 -2 45q2 29 39 326q6 74 4 84q0 6 4 22q14 66 28.5 187t22.5 166q27 143 66 397q4 27 8 84q6 23 20 29q4 0 8 2q59 12 84 2q12 -4 33 6q23 10 47.5 14t55.5 5t45 3zM674 90q-6 -29 -2 -33t30 0q0 2 -2 8.5t-2 8.5 t-2 6t-5 6t-7 3t-10 1z" glyph-name="N_N.liga" horiz-adv-x="1884" unicode="NN"/><glyph d="M1929 1053q0 -170 -41 -314q-63 -233 -94 -319q-4 -12 -17.5 -36t-17.5 -34q-35 -104 -49 -137q-10 -25 -12 -47q-14 -41 -53 -57q-4 -2 -41 -39q-14 -12 -32 -22.5t-43.5 -22t-35.5 -15.5q-10 -8 -20 0q-8 6 -20.5 0t-19 -8t-9.5 -2t-12 6t-15 8q-16 6 -22.5 4 t-18.5 -18q-23 -33 -33 -36t-39 18q-92 55 -127 81l-14 5q-16 -8 -20.5 -8.5t-12.5 11t-10 13.5t-10.5 16.5t-16.5 20.5q-53 80 -41 186q6 63 15 201q0 12 16 90q4 20 11 88t26 111q0 2 12 53t30.5 122.5t37.5 119.5q8 18 29.5 51t29.5 47q29 51 33 65l-43 -26 q-18 -14 -62 -43l-77 -45l-9 -6q-6 -6 -13 -11.5t-23.5 -15.5t-36.5 -18q-6 -4 -29 -14.5t-33 -14.5q6 -55 -2 -203q-2 -37 -18 -115q-6 -53 -35 -155.5t-35 -153.5q-6 -68 -41 -164q-8 -29 -33 -32q-6 0 -6 -7q-10 -23 -40.5 -53.5t-41.5 -48.5q-14 -29 -53 -49.5 t-51 -30.5q-51 -49 -107 -49q-80 0 -90 -16q-18 -23 -51 -11q-88 25 -141 80q-35 37 -68 90q-6 18 -2 25q10 -6 28.5 -31.5t35.5 -32.5q-4 12 -16.5 41t-16.5 45q-2 6 -23 3q-39 -2 -51 7t-20 48q0 43 2 51q10 66 14 147q-2 41 27 160q20 92 28 156q20 182 72 344 q55 168 168 283q25 25 98 67q29 20 49 6q14 -10 43 0q43 12 62 13q4 0 4 -4.5t-2 -11.5t-8 -11q-10 -10 -10.5 -19.5t-6.5 -17.5q-4 -10 -18 -29q-35 -61 -58 -135q43 23 58 45q6 16 31.5 38t29.5 28q12 18 47 49q2 0 17.5 7t25.5 7q8 0 30 -8t32 -8q6 0 22.5 -11.5 t22.5 -13.5q4 -2 7 -9t9 -9l23 -72q2 -6 9 -16t9 -14q18 -45 29 -121q23 4 35 10q8 4 46 25.5t50 23.5q23 4 74 43q10 8 112 70q80 45 125 57l49 18q10 4 21.5 -7t15.5 -13q12 0 37 12q12 8 10 21q-4 4 0 9t4 7t7.5 5t9.5 5q66 18 92.5 13.5t81.5 -29.5q27 -14 33 -49 q0 -25 4 -29q16 0 18 12q2 4 2 14.5t2 15.5t9 5q10 2 23 -8t20 -18q14 -27 47 -60q16 -14 24 -47q0 -2 3 -9t4 -10t4.5 -7.5t8.5 -5.5t13 -1q6 2 11 -5t3 -15q-8 -23 -9 -46.5t2 -52t3 -40.5zM467 1417q20 0 41 19q-35 -11 -41 -19zM1747 1257q14 33 4 50q-6 -8 -7 -17.5 t1 -19t2 -13.5zM1217 410q6 18 -3 36q-9 -18 3 -36zM1225 248q-12 -41 28 -80q-12 57 -28 80zM207 88q0 -16 22 -14q-12 16 -22 14z" glyph-name="O_O.liga" horiz-adv-x="1912" unicode="OO"/><glyph d="M1247 1509q12 0 13 -18q10 -33 8 -45l8 -4q55 10 141 2q27 -2 80 6q39 2 76 -6q49 -12 82 -17q31 -6 49 -20q45 -33 68 -51q31 -25 30 -60q0 -10 15 -65q6 14 8 28.5t1 35t-1 30.5l12 -4q4 -16 20.5 -54t20.5 -63q0 -16 -4 -22q-23 -86 -74 -191q-8 -14 -17 -26.5 t-23.5 -25.5t-22.5 -20.5t-26.5 -21.5t-24.5 -18q-70 -55 -158 -86q-41 -16 -78 -37q-20 -12 -27 4q-6 8 13 22q16 12 28 19q-23 8 -39 -8q-10 -12 -33.5 -27.5t-31.5 -24.5q-25 -29 -47 -28q-12 -25 -12.5 -61t-2.5 -58q-6 -43 -14 -119q-12 -111 -37 -174q-4 -10 -8 -27 q0 -29 -10 -81t-12.5 -72.5t-16.5 -36.5q-4 -4 -18 -39q-8 -25 -31 -47q-6 2 -10 10t-11 10l-8 -8q0 -8 -12 -22.5t-14 -22.5q-2 -10 -11.5 -11t-11.5 5q-14 31 -53 31q-20 0 -25 22q-6 27 -26 27q-27 4 -39 43q-12 49 -4 84q12 84 30 166q31 178 43 356q8 61 19 96 q16 61 18 97q4 35 22.5 100.5t22.5 93.5l33 246q0 8 -2 10q-35 -6 -48 10.5t-11 61.5q45 6 80 14q8 31 0 47q-10 18 18 33q43 18 96 12zM293 1448q6 -4 28.5 -6t28.5 -15q4 -8 12 -8q12 6 49.5 2t49.5 -4q147 4 182 0q139 -12 188 -53q45 -35 72 -80q8 -12 12.5 -27.5 t7.5 -33t5 -27.5q4 -10 0 -20q-6 -20 -8 -45t-1 -44.5t-1 -44.5q-8 -92 -33 -143l-21 -27q-27 -18 -71 -90q-18 -23 -29 -26l-111 -68q-16 -10 -22 -12q-31 -12 -62.5 -28.5t-71.5 -40t-61 -34.5q-25 -14 -28 -14q-8 -2 -14.5 -4t-10.5 -4t-8 -7t-6 -7t-5.5 -10.5t-3.5 -9.5 t-4 -11l-2 -10l-6 -27q0 -41 -15.5 -117t-17.5 -108q-2 -16 -11 -47t-11 -43q-14 -90 -10 -144q0 -18 -4 -26q-8 -25 -29 -17t-66 16.5t-65 16.5q-8 2 -23 2q-55 0 -49 51q4 51 12 78q4 14 27 172l18 109q2 12 -3 17t-21 3q-14 -4 -18.5 2t1.5 21q18 29 29 28q8 2 13.5 4 t8.5 6.5t3 7.5t1 10t1 9q6 51 16 150.5t17 148.5q27 188 47 293q4 33 39 164q12 49 14 76q0 29 -5 35t-34 14q41 20 45 31q4 8 15.5 13t19.5 3zM1640 1368q8 -6 16.5 -28.5t22.5 -28.5q6 14 -5 29.5t-9 23.5q2 2 -2 4t-10.5 2t-12.5 -2z" glyph-name="P_P.liga" horiz-adv-x="1789" unicode="PP"/><glyph d="M690 -63l17 6q14 2 20 -11q8 -10 -2 -20l-16 -18q-23 -16 -33 -35q-23 -37 -62 -37q-68 0 -92 45q-25 43 -47 129l-8 18q-14 -2 -29 -12q-33 -20 -68.5 -21t-57 6t-60.5 25q-14 4 -16 19q2 23 -11.5 30t-34.5 5q-57 -4 -88 57q-70 133 -41 317q45 291 58 361 q39 195 102 360q39 96 109 187q37 47 114 79q16 6 35 -2q4 0 16.5 -4t20.5 -4q45 -4 66 19q10 12 49 16q70 6 131 -63q20 -20 18 -48q-2 -8 8 -30q16 -45 15 -68q0 -39 24 -55q4 8 2 20.5t2 18.5q14 0 15 -21q10 -121 -2 -162q-14 -37 -6 -92q8 -70 -13 -161 q-4 -20 -26.5 -131t-38.5 -168q-35 -141 -115 -256q-2 -2 -18.5 -30t-30.5 -40l-6 -25q0 -35 24 -172q2 -23 26.5 -32.5t49.5 0.5zM1757 905q2 -84 -22 -180l-5.5 -27.5t-6.5 -32t-7 -28.5q-4 -12 -10 -39t-10 -43t-11.5 -37.5t-17.5 -38.5q-10 -20 -29.5 -73.5t-35.5 -79.5 q-20 -29 -25 -33q-12 -8 -9 -31.5t-5 -36.5q-23 -33 -47 -43q-16 -8 -23 -16q-25 -29 -26 -38t16 -40q8 -20 29.5 -55t27.5 -47q20 -27 25 -47q4 -6 -6 -45q-8 -35 -18.5 -41.5t-6.5 -18.5t-2 -18q-4 0 -17.5 8t-23.5 6q-4 -2 -7 1t-6 10t-3 9q-10 23 -27.5 67t-22.5 52 q-16 37 -45 99q-41 -25 -59 -37q-4 -2 -35 -21q-45 -18 -76 6l-8 7v-11q-4 -27 2 -47l-15 -3t-7 1t-6.5 5t-10.5 5q-25 8 -41 7q-33 0 -71 43q-29 37 -68 135q-6 16 -17.5 49t-17.5 49q-12 27 -16 66.5t-10 60.5q-2 12 -2 54t2 57q12 43 17 103t11 89q4 23 11.5 68 t14.5 79.5t19 65.5q12 41 13 45q4 35 26.5 101.5t24.5 72.5q6 12 14 21q23 23 37 57q20 45 55 76q6 6 29 29.5t39 31.5q59 35 92 64q10 10 45 12t58 -8v8q43 37 86 25q8 -2 17 -6.5t15 -6.5q25 -8 37 4q12 8 55 5q29 -4 27 -31q0 -4 19 -17q51 -55 59 -75q4 -8 16 -93 q6 -57 5 -108t-5 -122t-4 -79zM1616 1405q-4 10 -31 0l5 -5l5 -5t7.5 -3t9.5 3q2 2 2 6t2 4zM766 1085q-4 -8 -5 -15t1 -16.5t2 -13.5q0 2 4 13.5t4 16.5t-6 15zM1157 387q-25 -78 8 -137q6 74 -8 137z" glyph-name="Q_Q.liga" horiz-adv-x="1724" unicode="QQ"/><glyph d="M1802 55q8 -20 -5 -53t-40 -22q-25 -49 -24 -62q-4 -23 -23 -12q-6 4 -10 10q-10 18 -62 51q-78 55 -112 137q-25 55 -47 82q-39 51 -60 185q-6 33 -20 196q-2 14 -2 45q-10 0 -27.5 -14t-30.5 -10q-2 0 -4 -2t-3 -7.5t-1 -7.5q-2 -4 -24 -106q-29 -147 -41 -256 q-2 -23 -12.5 -64t-12.5 -59q-10 -47 -8 -55q4 -10 -14 -39q-20 -33 -27 -55h-16q-6 0 -13.5 10t-13.5 13t-23 -11q-8 2 -29.5 6t-31.5 8q-27 14 -59 19q-27 0 -33 24q-27 84 -17 160q12 135 60 334q8 37 39 221q20 162 65 481q2 18 25.5 95t25.5 104q0 2 2.5 8t2.5 7t2 6 t4 6.5t6 3.5t10 2t8 2q35 43 107 18h4q6 12 6 25q35 4 46 -2.5t17 -32.5q4 -20 13 -25q18 -12 10 -67l37 18q8 4 0 6q-12 4 -14 8q31 8 131 5q20 -2 45.5 -5.5t38.5 -5.5q35 -4 48 -6t27.5 -8t32.5 -12q74 -8 109 -64q68 -109 6 -235q-4 -6 -15 -41q-35 -104 -106 -152 q-14 -8 -38.5 -32.5t-35.5 -32.5q-12 -10 -37.5 -42t-54.5 -44l-16 -11q29 -23 55 -102q61 -199 94 -270q16 -31 39 -89.5t35 -84.5q0 -2 10 -19.5t10 -30.5v-14q2 -14 -6 -14q-6 -5 -2 -19zM852 57q10 -59 129 -258q14 -23 6 -45q-2 -6 -8 -2q-25 20 -25 6q0 -6 7 -26 q12 -37 2 -37l-7 6l-12 8t-6 2q-16 -18 -31 -4q-2 4 -14 19q-49 72 -51 28q0 -12 4 -37l-31 7q-2 0 -4 2q-10 6 -43 38.5t-74 91t-59 107.5q-2 10 -33 75.5t-33 74.5q-12 33 -17 101.5t-24 98.5q-18 33 -59 211q-14 47 -20 60q-49 -25 -50 -66l-2 -16q-12 -33 -18 -71 t-10 -85t-9 -74q-18 -158 -36 -217q-2 -4 -3.5 -10t-2.5 -9t-3 -8t-5 -7.5t-9 -3.5t-14 -1q-8 2 -13 -12l-12 -31q-8 4 -15 9.5t-14.5 11.5t-12.5 11t-12 13.5t-13 14.5q-47 -41 -84 -13q-45 27 -39 84q2 16 11 48t11 49q4 47 16.5 140t18.5 138q2 18 2 53q-6 143 35 318 q12 55 31.5 161.5t29.5 162.5q27 137 29 153v31q-10 0 -32.5 -7.5t-35.5 -4.5q-2 4 4.5 12t2.5 12q-16 18 14 31q129 41 233 26q25 -4 54.5 -6t63.5 -3t52 -3q127 -8 166 -39q31 -27 88 -49q35 -18 45 -61q29 -123 13 -193q-4 -10 -1 -31.5t1 -31.5q-16 -115 -133 -211 q-18 -14 -58.5 -37t-50.5 -29q-27 -16 -39 -20q2 8 14.5 19t14.5 22q-23 -6 -68 -41q-12 -8 6 -27q12 -14 70 -80q55 -61 84 -184q6 -29 13 -72t14.5 -74.5t19.5 -68.5q41 -146 41 -150zM1726 1229l-4 -146q39 93 4 146z" glyph-name="R_R.liga" horiz-adv-x="1890" unicode="RR"/><glyph d="M668 1468q68 0 94 -12q8 -4 12 -4q12 2 23.5 -2t16.5 -7t17.5 -13.5t14.5 -12.5q20 -20 22 -143q0 -63 -10 -57q-12 6 -20.5 6t-11.5 -2t-3 -4q-2 -4 -14 -29t-12 -27q-2 -6 -9.5 0t-16.5 14.5t-15 2.5q-14 -10 -19 26q-2 14 -4 45q-2 27 -4 29q-8 4 -21.5 40t-31.5 54 q-29 31 -82 -6q-41 -23 -59 -47q-4 -4 -13.5 -15.5t-12.5 -15.5t-10 -15t-10.5 -20.5t-8.5 -25t-7 -33.5q-12 -82 4 -111q0 -2 2 -6q4 -8 4 -12q20 -66 88 -152q86 -115 117 -174q8 -14 32.5 -54t35.5 -62q6 -16 26 -2q131 86 248 208q16 18 8 35q-14 23 -24 47.5 t-21.5 66.5t-15.5 52q-8 8 2 14q8 4 13 23.5t7 44.5t2 29q6 20 14.5 37.5t27 44t24.5 37.5q37 55 104 100q6 4 30 15t30 16q8 2 17 8t17.5 9t16.5 1q2 2 19.5 4t27.5 8q72 47 205 13q14 -2 38.5 -35t29.5 -47q0 -2 -3 -6q-2 -8 -4 -9q31 -47 -4 -82q-10 -29 -45 -63 q-47 -31 -59 -45q-16 -16 -49 -47t-43 -41q-90 -78 -101 -84q27 -20 64 -72q23 -29 49.5 -89t42.5 -85q6 -8 13 -26.5t14 -26.5q59 -98 63 -232q2 -78 -15.5 -125t-58.5 -108q-23 -37 -65.5 -81t-75.5 -58q-12 -6 -58 -22.5t-65 -26.5q-4 -2 -22.5 -10.5t-29.5 -12.5 t-30.5 -9t-23.5 1q-68 -29 -138 0q-18 8 -36.5 21.5t-43 35t-34.5 27.5q-6 4 2 25.5t-2 25.5q-12 4 -17 45q-2 12 2 14q2 0 7 -2q20 -16 38 -20l19 -4q55 -35 59 -6q-78 41 -78 63q23 0 72 -16q2 0 13.5 -5.5t15.5 -6.5t15 -5t17.5 -5t16.5 -3t17.5 -2h16.5t16 2t15.5 6 t16.5 8q20 16 54 48t42 38q12 12 21 29q6 10 13 25.5t9 18.5t4 13.5t3 19.5t1 30q0 16 -5 35.5t-9 29.5t-20.5 44t-24.5 48q-12 25 -70 111q-10 16 -25.5 43t-25.5 43q-8 -4 -37 -31q-59 -51 -131 -108q-33 -27 -37 -33q-4 -4 -67 -39q-39 -23 -35 -39q10 -10 3 -44t-11 -48 t-19.5 -48t-19.5 -46q-4 -16 -13.5 -31.5t-24.5 -34t-22 -28.5q-2 -4 -15 -20.5t-19 -27.5q-20 -25 -37 -24q-25 -4 -41 -23q-8 -8 -20.5 -24.5t-16.5 -22.5q-6 -6 -13.5 -13t-12.5 -10t-11 -8.5t-13 -7.5t-18 -4q-23 -2 -41 -12l-94 -47q-25 -12 -65.5 -18.5t-53.5 -10.5 q-80 -23 -118 -18q-45 8 -78 46t-21 85q6 29 29 78q2 4 6 10q10 10 2 14q-4 4 -4 5t4 6.5t4 7.5q41 49 140 114q217 135 297 176q-6 29 -30 70t-28 66q-4 16 -20.5 43.5t-18.5 33.5q-4 16 -37 54q-47 57 -104 215q-12 27 -12 82q0 53 34 137q31 74 58 96q16 16 41.5 48 t49.5 54.5t52 32.5q66 25 66 17q-2 -4 -13 -15q-12 -12 -2 -10l82 31q12 10 48.5 19t52.5 7zM274 1032q-14 -45 3.5 -73.5t60.5 -26.5q-16 14 -33 50t-31 50zM1262 889q41 -80 86 -160l4 -2l8 -4q-4 53 -12 68q-6 6 -19.5 25.5t-21.5 27.5q-4 4 -10.5 15t-14.5 18.5 t-20 11.5zM1376 647q2 -4 5 -19.5t14 -19.5q2 20 -0.5 25.5t-18.5 13.5z" glyph-name="S_S.liga" horiz-adv-x="1585" unicode="SS"/><glyph d="M1225 1487q4 4 12 2t19.5 -14.5t19.5 -30.5q12 -8 34.5 -7t65.5 5t60 4q106 -4 161 4q84 10 185 -6q4 -6 2 -15.5t-15.5 -19.5t-29.5 -14q-61 -10 -67.5 -14.5t-57.5 1.5q-20 4 -70 -8q-8 -2 -71 -2q-27 0 -37 -10q-4 -2 4 -4q4 -2 10 -2q6 -2 16.5 -3t21.5 -1t21.5 -1 t16.5 -1t6 -2q-6 -12 -20.5 -20.5t-20.5 -4.5q-6 10 -51 5t-56 -5q-16 0 -29.5 -5t-25.5 -5q-29 4 -33 -2q-2 -4 4.5 -15.5t6.5 -13.5q10 -33 24 -12q10 20 21 2q4 -10 10 -33q6 -8 9 -33.5t3 -59.5v-40q2 -41 -13 -120t-18 -112q-2 -47 -34 -481q-4 -61 -54 -176 q-2 -4 -6 -44t-4 -42q-6 -45 -14 -67.5t-14.5 -26.5t-12.5 -3t-11 -3t-9 -21q-4 -12 -6 -14q-12 -6 -20.5 -16.5t-15.5 -28t-12 -23.5q-4 -2 -8 6.5t-8 12.5t-16 -4q-2 -2 -19 14q-10 6 -23.5 23.5t-25.5 26.5t-29 3h-13t-8 9.5t-6 15.5t-4 19.5t-1 20.5t-1 20.5t-1 17.5 q-2 27 10 80q27 117 63 350q16 113 29 162q10 43 18.5 121.5t12.5 103.5q27 147 41 241q2 16 9 55.5t9 59.5q0 6 5 14.5t5 16.5q-121 0 -145 2q-84 10 -158 2q-49 -6 -92 6q-8 8 -73.5 2t-75.5 -6l-107 -8q-55 -14 -127 -15q-4 0 -16.5 -3t-14.5 -3q-20 -8 -41.5 -8t-47 3 t-40.5 3q-45 25 -75 35q-10 2 -14.5 4t-6.5 6t-8 19q6 6 19.5 13t19.5 13q12 18 47 25q45 12 96 12q29 0 64 -1t49 -1q20 0 50 3t46 3q23 0 53.5 -2t50 -1t35.5 10q10 6 25.5 7t60.5 1t91 2q27 2 74.5 1t70.5 -1q137 4 145 6q18 2 47 -6q25 -10 31 2q0 6 6 17t10.5 19.5 t6.5 8.5zM1563 1350q37 8 47 -4q-4 -8 -10.5 -11.5t-17.5 -5.5t-17 -4q-10 19 -2 25zM545 1274q20 -8 47 -53q8 8 9 19t1 13q0 12 8 15q16 4 17 -4q0 -23 35 -33q35 -4 45 -49q8 -53 -9 -164q-10 -57 -26 -176q-12 -92 -31 -193q-10 -43 -23 -133q-2 -10 -14 -91t-16 -122 q-6 -82 -27 -242q-6 -37 -14 -124q0 -27 -25 -50q-6 -4 -18 -22.5t-25 -24.5q0 18 -9 29.5t-25.5 24t-22.5 18.5q-2 2 -14.5 16.5t-16.5 24.5q-6 12 -12 6q-8 -12 -15.5 -8t-9.5 12q-4 14 -7 38t-6 35t-11 11q-2 0 -9.5 -19.5t-13.5 -46t-6 -44.5q-18 4 -18 32q-8 174 8 244 q12 45 22.5 129t16.5 115q8 41 28.5 149.5t34.5 167.5q4 20 13.5 69.5t17.5 76.5l2 8q-6 37 0 78t19.5 91t17.5 74q6 -4 5 -20t-3 -34.5t2 -37.5q8 8 13 23.5t5 17.5q12 39 21 115v18q10 29 39 21z" glyph-name="T_T.liga" horiz-adv-x="1619" unicode="TT"/><glyph d="M997 1456h23q16 0 22 -20q8 -18 -12 -29q-10 -6 -25.5 -22.5t-23.5 -22.5q-8 -2 -4 -9t4 -10q-29 -12 -55 -10q-70 4 -127 4q-47 4 -101 -4q-35 -4 -45 -30l-15 5t-18.5 5t-17.5 2q2 -8 2 -26.5t5 -30t20 -19.5q4 -2 4 -29q-6 -20 -8 -41.5t-2 -49t-2 -42.5 q-2 -45 -25 -184q-6 -39 -21.5 -132t-21.5 -143q-6 -55 -6 -106q0 -20 -23 -178q0 -6 -6 -32t-8 -40q-4 -29 -16.5 -83t-16.5 -79q-4 -20 -22.5 -54t-24.5 -50l-4 -8q-8 -4 -28.5 -7.5t-30.5 -9.5q-6 -4 -23 4q-6 4 -20.5 13.5t-18.5 11.5q-18 8 -35 -2q-23 -12 -44 5 t-15 44q4 23 7 49.5t6 58t5 48.5q6 70 31 137q25 82 19 123q-4 39 4 67q6 20 8 54t4 47q20 147 33 221q20 160 47 238q0 2 18 96q18 72 21 76q4 6 4 41q-2 14 -21 18q-88 4 -118 0q-25 -4 -69 -4h-54q-20 -4 -33 12q6 8 20 12q18 6 19 25q0 16 22 23q18 4 117 10q6 0 219 31 q20 2 81 11t104 12t81 1q90 -6 211 2zM442 1315q0 4 -6 -2q-4 -4 -4 -39l10 -2q0 6 4 23.5t-4 19.5zM1087 1264q18 2 24.5 -4.5t4.5 -22.5q-6 -16 17 -39q59 -63 -9 -113q-6 -4 -20 -16t-26.5 -17t-26.5 -3q-6 8 -24.5 7t-29.5 3q-94 53 -6 153q35 42 96 52zM1038 860 q31 0 44.5 -13t17.5 -46q0 -14 6 -19q18 12 23.5 10.5t3.5 -22.5q0 -16 -9 -31q-12 -31 -12 -61q-2 -51 -31 -258q-6 -55 -10 -158q-2 -18 -3 -55t-3 -55q0 -10 -2 -27q-4 -23 -1 -29t25 0q84 37 117 58q78 47 86 49q25 12 33 20q43 29 68 8q-23 -25 -58 -49 q-51 -35 -76 -67q-14 -20 -40 -23q-4 0 -41 -24q-6 -4 -20.5 -10.5t-20.5 -12.5q-16 -20 -27 -27q-8 -6 -39 -16l-41 -12q-12 -6 -29 -6q-4 0 -10 1t-8 1q-4 -2 -11 -7.5t-12 -7.5q-10 -2 -22 11q-16 16 -31 18q-4 2 -13 7t-13.5 6t-16.5 -5q-8 -4 -24 12q-23 29 -23 115 q4 53 25 164q27 139 41 199q27 92 34 172q0 16 10.5 58t8.5 67q2 10 31 39q32 22 73 26z" glyph-name="T_i.liga" horiz-adv-x="1251" unicode="Ti"/><glyph d="M1769 1520q16 -14 31 -82q2 -10 0 -18.5t1 -17.5t14 -13q2 -2 2 -11q2 -6 2 -8q-10 -193 -37 -297q-4 -18 -27 -207q-2 -14 -5 -41.5t-6 -50t-7 -43.5q-10 -49 -21.5 -142t-19.5 -136q-35 -184 -113 -316q-18 -31 -41 -28q-2 0 -22 -15q-37 -31 -150 -69q-25 -6 -65 4 q-2 0 -7 2q-14 4 -10 18q0 6 -5 10t-12 3t-14 -7q-39 -41 -102 -18q-86 29 -133 108q-14 18 -18 21q-35 8 -43 65q-2 27 0 58q6 39 13 109.5t11 101.5q10 109 33 180q10 41 18 117.5t11 91.5q18 133 43 223q8 37 17 79t20.5 93t17.5 80q2 12 -2 29q-6 23 4 45q14 20 35 18 q80 -8 104 -41q10 -10 21 -12q43 -8 47 -60q0 -51 -17 -153q-2 -12 -21.5 -115.5t-23.5 -159.5q-4 -20 2 -24q31 0 27 31q-4 72 43 288q4 16 12 18.5t11.5 -2.5t1.5 -14l-7 -49l-32 -170q-4 -23 -6.5 -64.5t-4.5 -60.5q-8 -59 -28 -174q-2 -14 -8.5 -49t-8.5 -50t-5 -50 t1 -49q10 -63 -10 -152q-10 -47 8 -72l6 -12q4 -68 41 -104q-12 -4 -23.5 2t-17.5 4q14 -27 49 -39t64 -2q37 10 67.5 41t38.5 63q2 10 29 74q66 150 80 354q8 106 20 158q16 63 30 183t24 167q57 309 65 340q0 3 8 19zM475 1468q20 4 21 -16q10 -76 -4 -141 q-8 -31 -13 -152q0 -27 -5 -57.5t-13 -68.5t-12 -58q-4 -29 -16.5 -88.5t-18.5 -89.5q-20 -104 -45 -183q-12 -39 -21 -122l-12 -117q-4 -51 0 -72q4 -14 13 -64.5t16 -76.5q2 -14 16 -38t18 -32q10 -31 56 -31q53 0 73 15q90 55 107 162q14 92 43 186q8 25 6 35 q4 39 13.5 81t22.5 94t19 79q14 53 15 133q2 96 30 223q0 2 19 164q0 6 2 19.5t3 20.5t6 17t13 19q2 2 9 41q4 27 24 28q35 2 39 -22q4 -27 0 -41l-10 -62q18 25 21 74t14 72q8 2 12 -1t2 -9q4 -16 -2 -27q-8 -31 -15.5 -91.5t-13.5 -90.5q-2 -12 -7 -34t-5 -26 q-10 -31 -14 -92q-10 -170 -17 -205q-43 -190 -49 -241q-2 -27 -41 -234q-4 -27 -33 -96q-12 -35 -10 -66q8 -72 -65 -149q-20 -20 -52 -25q-23 -4 -77 -20q-25 -10 -45 -10q-16 6 -23 -5q-10 -18 -49 -14q-31 6 -60 -2q-63 -10 -124 29q-18 12 -52 35.5t-51 35.5 q-59 37 -63 144q0 55 -2 82q0 8 6 26.5t6 26.5q4 43 45 281q33 174 47 325q10 100 64 311q4 12 16 53.5t16 63.5q8 33 21.5 46.5t46.5 21.5q12 4 18 0q10 -12 47 -8q2 0 9.5 -1t9.5 0t7 5t7 12q10 14 41 18zM1386 1356q12 -6 7 -39l-13 4q-14 18 -4 35h10zM1294 868 q-23 -37 -2 -55q16 35 2 55z" glyph-name="U_U.liga" horiz-adv-x="1757" unicode="UU"/><glyph d="M1059 1532q0 -6 -21 -45q-4 -10 -22.5 -45t-26.5 -57.5t-10 -45.5q-4 -23 -12.5 -46t-21.5 -53t-19 -44q-10 -27 -28.5 -90.5t-31.5 -95.5q-59 -162 -84 -219q-16 -37 -49 -162q-29 -90 -39 -107q-6 -16 -13 -49t-13 -49q-4 -10 -21 -68q-20 -74 -39 -108 q-27 -53 -41 -103q-4 -18 -23.5 -47.5t-23.5 -38.5q-14 -35 -14 -45q6 -2 12 4.5t10 6.5q0 -23 -18 -56q-16 8 -39 0q-4 8 4 28.5t2 29.5q-16 -6 -18 -17q-25 -61 -86 -71q-4 0 -27 10q-12 8 -29 0q-14 23 -20 51.5t-8 67t-6 57.5q-25 96 -33 178q-4 31 -8 94.5t-10.5 113.5 t-14.5 93q-6 33 -2 74q4 45 -9 128t-13 114l-5 192q0 25 -2 37q-4 20 0 27q4 23 6.5 24.5t-5 23t-7.5 23.5q-4 43 0 90q4 16 15 21q10 -14 12 -52t10 -55q16 80 12 131q-2 35 31 37q47 8 64 -24l4 -13q8 0 20 15.5t20.5 28t19.5 0t24 -59.5q0 -4 12 -66q2 -27 10 -82t10 -83 q8 -139 9 -213q2 -47 28 -111v-18q0 -47 11.5 -135.5t11.5 -131.5q0 -37 3 -80t8 -94t7 -82q29 68 66 181q14 51 30 94q6 10 46 147q8 41 16 64q16 33 34.5 95t28.5 87q10 29 26.5 92.5t29.5 95.5q18 45 96 232q37 80 45 88q14 25 27 29q0 -4 -2 -21q-4 -16 -1 -16t11 8 q2 2 11 17.5t15.5 22.5t15.5 19.5t20.5 18.5t21.5 8zM991 1522q2 -14 -2 -23.5t-9 -10.5t-11 3q0 12 5 20.5t11 10.5t6 0zM1925 1432q10 -6 8 -18.5t0 -14.5q10 -2 21 2q4 4 6 -4q0 -2 -25 -86q-10 -45 -61 -135q-14 -29 -14 -35t-17 -35q-18 -31 -29.5 -58.5t-21.5 -62.5 t-14 -43q-16 -47 -45 -96q-12 -27 -70 -180q-10 -35 -42 -108t-42 -114t-46 -120.5t-46 -124.5q-10 -55 -27 -88q-10 -18 -15 -35t-6 -25t0 -30.5t1 -28.5q4 -31 -13 -58q-10 -25 -30 -8l-4 4q-10 14 -23 0q-14 -6 -18 0q-14 16 -51 22.5t-52 12.5q-57 43 -51 127 q2 37 -6 99.5t-8 76.5q-23 154 -64 287q-4 16 -8 50t-6 46q-29 176 -45 381q0 61 -12 117q-4 20 -5 41q2 20 4.5 25.5t8.5 9.5t24 8q-14 104 -14 127q0 16 18 22q61 20 86 -10q23 -18 60 -8q20 4 26 -16q10 -31 50 -121q25 -45 39 -125q37 -109 32 -234q0 -39 5.5 -73.5 t19.5 -94t16 -67.5q18 -66 2 -230q16 10 21 33q10 29 51 115t51 143q4 29 18.5 60.5t34 68.5t27.5 56q4 6 27.5 70.5t44.5 101.5q10 16 17 30.5t10 20.5t9.5 15t14.5 21.5t25 32.5q6 10 20 37t23 39q18 27 40.5 74t32.5 63q10 21 37 48zM530 211l-45 -109q-2 -4 -2 -19 t4 -20q0 2 9.5 13.5t9.5 13.5q36 113 24 121z" glyph-name="V_V.liga" horiz-adv-x="1820" unicode="VV"/><glyph d="M1399 1524q18 6 26 -2q16 -18 74 -33q53 -8 66 -62q27 -113 22 -208q-6 -225 15 -394q6 -57 -7 -116q-8 -29 -4 -68q0 -68 -4 -86q-2 -4 -2 -9v-9l2 -265q0 -27 6 -34q27 100 33 129q31 121 82 272q4 16 13.5 53t15.5 53q35 158 114 377q6 20 7 45q6 37 8 43q8 18 24 19 q68 -8 86 -55q0 -4 13 -66l2 -21q6 -8 8 -8q12 4 8 13q0 6 -1 16t-1 14q0 8 14 13q6 4 11 -7q0 -2 1 -5t1 -5q41 -238 28 -403q-6 -96 -6 -193q0 -41 8 -59q4 -8 7.5 -27.5t5.5 -27.5q39 72 32 124q-2 39 15 86q4 12 21.5 60.5t23.5 75.5q4 10 65 198q70 229 133 363 q12 25 25 78q31 0 37 -29q2 -8 0 -17.5t2 -17.5t14 -12q4 -2 -6 -23q-20 -33 -47 -114q-12 -37 -39 -128t-45 -141q-4 -8 -8 -28.5t-8 -30.5q-23 -98 -39 -129q-12 -27 -21.5 -78t-11.5 -63q-49 -215 -113 -404q-4 -12 -18 -53t-21 -64q-12 -39 -41 -84q-8 -14 -20 -12 q-14 2 -8 21q6 12 10 37q2 18 -4 22t-23 -6q-12 -10 -20 2q-10 10 -15.5 32.5t-7.5 26.5q-10 33 -12 33v-31q-4 -8 0 -25.5t-4 -25.5q-53 61 -51 111q0 129 -8 229q-2 49 3 142.5t5 107.5q0 137 -4 205q4 10 -6 16q-45 -129 -56 -174q-12 -90 -63 -209q-20 -49 -23 -71 q-20 -104 -108 -246q-10 -16 -8 -31q8 -31 8 -96q-4 -41 -39 -29q-68 29 -86 86q-6 20 -10.5 24.5t-24.5 8.5q-2 -4 1 -18.5t-7 -20.5q-14 6 -27 41q-10 29 -16 33q-41 33 -53 125q-8 61 -5 188q6 295 9 332q6 88 2 260q2 53 -3 170t-5 158q-2 4 -2.5 10t-0.5 8 q-4 35 0.5 44t34.5 30q8 4 11.5 11t5.5 15.5t4 12.5zM1231 1454q18 0 22 -27q10 -29 -10 -88q-53 -152 -82 -247q-57 -205 -112 -369q-10 -31 -24.5 -90.5t-20.5 -79.5q-8 -31 -27 -82q-6 -18 -45 -215q-10 -41 -23 -123q-4 -33 -14 -43q-10 -12 -6 -31q0 -27 -12 -41 q-35 -6 -95 7q-49 10 -61 59q-43 254 -45 334q-2 47 -8 133t-9 119q-4 43 -8 129q-51 -156 -57 -221q-4 -18 -17.5 -60.5t-15.5 -66.5q-8 -53 -49 -205q-6 -20 -16.5 -60.5t-19.5 -72t-19 -58.5q-8 -16 -29.5 -47t-24.5 -35q-25 14 -63 29q-2 0 -7 2t-8 2t-7.5 -2t-8.5 -10 q-10 -10 -16 0l-17 20q-6 -2 -11 -13t-15 -11q-4 6 -12.5 18t-13.5 19.5t-8 20.5t-1 26q0 18 -20 22q-37 8 -37 58l12 305q6 197 23 338q2 27 -3 121q-4 59 0 241q-4 37 -8 59.5t2 141.5q6 6 16.5 6t14.5 2q8 6 4 14q-2 31 11.5 42.5t43.5 5.5q23 -4 41 -19q2 -2 7.5 -8 t7.5 -7t12 1q2 2 26.5 6t32.5 20l5 -2q2 0 2 -2q43 -106 34 -198q-4 -59 -9 -167t-7 -143q0 -25 -5 -70.5t-5 -62.5l-2 -213v-51v-59.5v-51.5q0 -10 4 -38q35 57 42 73.5t13 57.5q6 39 23 67q2 2 9 14.5t8 15.5t4 15.5t-3 16.5q0 6 4 14q25 61 57.5 175t42.5 144q4 12 28 90 t40 117q8 25 16 74q4 16 22.5 26.5t29.5 -1.5q4 -6 12 -9.5t13 -3.5t15.5 1t14.5 1q16 -2 20.5 -3t6.5 -5t2 -18q0 -18 1 -40t3 -47.5t2 -39.5q2 -31 2 -100.5t4 -106.5q4 -47 7 -99.5t6 -115t5 -96.5q4 -82 11 -127q10 2 10 14q4 16 21.5 64.5t21.5 76.5q8 45 49 178 q6 18 13 55.5t10 47.5q12 53 40 108q6 10 56 138q63 184 86 235q10 25 14 53q6 25 31 29z" glyph-name="W_W.liga" horiz-adv-x="2318" unicode="WW"/><glyph d="M829 1454q12 -76 -47 -180q-25 -41 -71.5 -129t-67.5 -121q-100 -176 -96 -188q6 -20 7 -67.5t5 -61.5q4 -18 5 -46t5 -47q35 -164 39 -231q0 -18 7.5 -76.5t5.5 -93.5q-2 -16 3 -46t5 -36q0 -14 4 -18q6 -16 1 -25.5t-20.5 -29t-19.5 -29.5q0 -2 -1 -8.5t-2 -8.5t-3 -5 t-6 -4t-11 -1q-2 0 -4 -12.5t-4 -17.5t-14 5q-20 0 -29 11q-12 12 -74 -4q-41 -10 -51 30q-2 14 -24.5 104.5t-22.5 141.5q2 31 -18 143q0 10 -3 33t-3 29q-8 -6 -37 -53q-16 -25 -84 -166q-10 -20 -39 -62q-8 -14 -78 -121q-29 -41 -74 -40q-27 0 -14 22q37 55 91 169 t61 126l114 219q10 16 31 45q12 16 10 31q-6 37 -14 111.5t-15 109.5q-2 18 -30 139q-27 104 -31 217q-2 12 -2 34t-1 36t-6 31.5t-13 32.5l2 12q8 4 16 1t12 -1l4 4q2 4 4 6q2 20 33 35q33 12 69 -7.5t56 -68.5q2 -4 2 4q0 6 -2 23q-6 47 -2 49q6 4 36 -34t56.5 -89 t26.5 -78q0 -33 3 -59.5t9 -61t10 -59.5q0 -14 4 -18q14 6 25 36q20 33 53 103.5t68 116.5q6 8 34.5 41.5t39.5 52.5q8 18 26.5 44.5t24.5 37.5q8 12 26 18zM965 1372q29 2 65 -14q31 -12 66 -19q6 4 4 14.5t6 14.5q35 25 51 -4q29 -45 41 -92q8 -33 13.5 -100.5 t13.5 -102.5q6 -20 8 -58t6 -55q0 -4 2 -11t2 -11q8 0 23 18q49 63 77 142q6 14 58.5 86.5t71.5 107.5q27 55 65 74q29 12 47 0q-2 -8 -12 -20.5t-12 -16.5q-6 -14 -5 -16q18 -18 -12 -56q-41 -49 -70.5 -98t-61.5 -110.5t-58 -104.5q-10 -18 -32 -56t-34 -57q-8 -16 -6 -24 q20 -78 18 -131q-6 -68 17 -142q8 -20 6 -56t2 -60q0 -2 6 -27t13.5 -52.5t11.5 -39.5q20 -76 28 -168l9 -57q8 -27 -10.5 -52.5t-51.5 -35.5q-41 -10 -45 -13q-43 -20 -63 13q-16 20 -39 22q-10 -6 -11.5 -21.5t-3.5 -19.5q-14 0 -23 3t-14.5 5t-9.5 11.5t-5 12.5t-4 18.5 t-3 19.5l-16 73q-6 37 -12.5 114t-18.5 134q-6 29 -19 72q-31 -31 -55 -88q-8 -18 -37.5 -67.5t-42.5 -77.5q-14 -35 -59 -113q-27 -47 -56.5 -88t-43 -60.5t-13.5 -33.5q-14 -6 -57 -36t-64 -28q-12 0 -6 16q20 51 74.5 143.5t122 200t88.5 142.5q14 27 121 201 q8 12 -1 124.5t-22 178.5q-45 225 -53 323q-2 27 -3 80t-5 80q0 4 2 11t0 12q-2 12 6.5 18t24.5 8z" glyph-name="X_X.liga" horiz-adv-x="1499" unicode="XX"/><glyph d="M1174 1442l16 28q31 -6 31 -32q0 -63 20 -178q14 -78 21 -183q2 -20 5 -136t9 -150q0 -4 -1 -22.5t3 -25.5q10 12 19.5 34t11.5 26q12 18 41.5 103t35.5 98q18 39 54.5 109.5t54.5 115.5q47 115 64 141q16 35 30 33q45 -6 39 -39q-16 -80 -31 -107q-14 -25 -21 -46 t-16.5 -46.5t-17.5 -48.5q-8 -18 -19.5 -38.5t-24.5 -42t-17 -29.5q-35 -66 -76 -198t-62 -169q-31 -63 -26 -123q4 -53 1 -63.5t-11.5 -37t-12.5 -63.5q-18 -195 -22 -215q0 -4 -4 -24.5t-8.5 -38t-10.5 -25.5q-12 -12 -18 -12q-25 8 -33 -27q-6 -10 -29 -18q-6 0 -13 2 t-8 2t-3 -2t-2 -5t-3 -11.5t-7 -18.5q-8 -8 -33 -8t-37 8q-39 29 -47 31q-16 10 -6 26q14 31 14 113q6 102 27 236q0 10 4 39.5t4 46.5q0 96 8 124q2 20 1 26.5t-7 24t-8 23.5q-47 160 -70 275q-4 29 6 45q12 -16 20.5 -36t16.5 -46.5t14 -40.5q2 51 -18 133q-25 86 -49 262 q-12 106 -12 215q0 8 4 12q16 6 51 -8q23 -8 53 8q37 18 67 11.5t38 -37.5zM860 1444q39 -23 17 -72q-6 -12 -36 -73.5t-48 -92.5q0 -2 -3.5 -7t-3.5 -9q-6 -37 -23.5 -76t-43 -85t-37.5 -73q-70 -150 -88 -178q-27 -45 -37 -108q-4 -27 -8 -78t-8 -76q-4 -27 -26.5 -163 t-35.5 -210l-4 -26q-4 -82 -39 -127q-18 12 -24 12t-27 -16q-18 -14 -25.5 -15.5t-21.5 9.5q-2 2 -10.5 9t-12.5 11q-18 18 -30 14q-4 0 -6 2q-2 0 -8.5 11.5t-16.5 7.5q-8 -4 -13 -16.5t-9.5 -16.5t-8.5 -6q-8 6 -12 35q-2 94 51 342q25 102 25 198q4 100 -21 138 q-10 14 -20 98q-12 115 -29 362q-8 139 -29 195q-4 12 21 61q8 8 14 5q113 -4 160 -99q33 -63 41 -78q10 33 0 62q-4 12 12 35q27 -23 27 -50q-2 -27 12 -47q14 -29 14 -65q2 -43 11.5 -123t11.5 -111q2 -33 25 -114q198 416 323 604zM401 1389q16 0 13 -13q8 -16 -2 -18 q-4 -2 -9 2q-14 4 -10 18q-4 11 8 11z" glyph-name="Y_Y.liga" horiz-adv-x="1505" unicode="YY"/><glyph d="M1810 1513q18 10 30.5 2t8.5 -28q-8 -31 4 -47q2 -2 1 -5t-2 -7.5t-1 -6.5q-2 -18 -13 -42.5t-28.5 -58.5t-23.5 -48q0 -8 -2 -10q-86 -176 -164 -297q-72 -102 -111 -166l-2 -13q8 -4 66 5q53 8 78 0q8 -2 13 -1t14.5 4t15.5 3q41 12 73 2q18 -6 17 -19 q2 -8 -15.5 -23.5t-27.5 -15.5q-53 0 -127 -22q-35 -8 -76 -14l-61 -11q-20 -2 -31 -26q-74 -139 -84 -158q-63 -117 -174 -289q-4 -8 -10.5 -17t-15.5 -19.5t-13 -18.5q27 2 141 -4q168 -16 199 -21q55 -10 57 -10q2 -4 -12 -10q-6 -4 14 -4h17q18 -2 22 -2l41 -11 q45 0 56.5 -12t15.5 -63q-139 0 -176 4t-76 0q-31 -4 -86 0q-106 12 -219 -10q-12 -2 -70.5 -7.5t-89.5 -17.5h-14q-29 -2 -36 4t-9 35l-4 14l-5 4q-2 0 -23.5 -14t-37.5 -10q4 10 31 88q29 76 78 162q6 12 19 32.5t22.5 38t13.5 33.5q8 31 43 88t47 84q31 70 57 111 q8 12 17 28l-41 -2q-12 0 -70 -8q-109 -16 -184 -16q-35 0 -72 -2l-35 -2q-27 0 -81 -7.5t-81 -7.5q-16 0 -24 -22q-37 -76 -107 -158q-10 -14 -20 -30.5t-22.5 -37t-18.5 -30.5q-16 -25 -59 -88.5t-65.5 -104.5t-45.5 -61q31 -4 109 10q39 6 80.5 8t96 1t83.5 -1 q25 2 63 10q12 2 23 5q6 2 12 -2q8 -4 16 -9l45 -4q16 0 14.5 -10t-16.5 -14q-29 -4 -44 -16.5t-44 -18.5h-63q-68 -4 -113 -2t-103.5 -1t-113.5 -12q-4 -2 -13 -2t-17.5 -2t-16.5 -8q16 -4 63 0q53 6 345 15h59q-14 -8 -28.5 -12.5t-33 -6.5t-28.5 -4t-33 -4t-35 -6 q-29 -12 -80 -13q-18 0 -44.5 -4t-32.5 -4q-74 -8 -143.5 -21.5t-102.5 -17.5q-6 0 -33 -6q-59 -14 -59 -8q-2 4 10 12q8 6 -4 9h-21q-27 2 -35 4q-18 4 -22 16t2 51q8 57 49 125q152 264 199 373l47 86q-25 0 -70 -8q-4 0 -14 -4.5t-14 -4.5q-6 -2 -17.5 6.5t-15.5 10.5 q-6 4 -6 14t-2 17q-10 18 -1 33.5t46 21.5q25 4 71.5 5t77.5 9q10 2 27 31q76 119 166 250l106 160q6 12 25.5 25t23.5 9q-2 -12 -17 -37.5t-20 -37.5q27 33 61 92t54 86q-8 2 -54 -1t-79 3h-61q-117 -8 -138 -8q-16 0 -55 7t-65 7q-12 0 -40 -3t-40.5 -4t-22.5 3 q-8 6 14 14q8 4 0 6q-4 0 -8 2t-7 5.5t-5 3.5q-16 8 4 20q6 6 14 6q141 16 158 17q92 -2 354 16q12 0 38 -1t40 1q47 4 62 18q20 20 41 -4q2 -4 10 -15t11 -16.5t6 -18.5t-5 -21v-25q8 -27 -14 -59l-10 -19q4 -23 -3.5 -46t-21.5 -52t-20 -43q-12 -29 -43 -75t-41 -64 q-57 -98 -125 -219q29 6 68.5 6t72.5 8q8 2 113 2q35 0 108 6q23 2 78 7t88 7q31 4 47 29q20 37 52 102.5t57 108.5q18 31 45 84q23 47 104 178q20 29 12 51q-23 0 -63.5 4.5t-67.5 6.5q-20 0 -52 8t-64 2q-8 0 -29 4q-10 0 -28.5 -2t-28.5 0q-55 14 -72 29q-10 10 -6 18 q2 8 18 12q29 4 49 19q4 6 23.5 4t24.5 -2q20 2 62 4t62 4q31 2 90.5 -1t77.5 -3q23 0 75 5t81 5q31 0 47 23q4 8 17.5 18t15.5 12q25 20 41 6q14 -6 24 0zM1720 721q-6 -10 -19 -15.5t-23.5 -6.5t-24 -1h-17.5q0 8 5.5 11.5t13.5 6.5t12 5h53zM1130 258q-14 -10 -32 -41 q-4 -8 -18.5 -34.5t-22.5 -39.5q-18 -18 -21 -34l39 16q4 33 51 100q16 19 4 33zM1262 135q-12 0 -36 1t-38 1t-34.5 -3t-37.5 -13q25 2 73 6t73 8z" glyph-name="Z_Z.liga" horiz-adv-x="1808" unicode="ZZ"/><glyph d="M1677 244q18 -2 9 -21v-4q-12 -10 -36 -31.5t-44.5 -38t-44.5 -32.5q-31 -12 -62 -41q-4 -2 -14 -6t-12 -7q-23 -6 -41.5 -22t-38.5 -25q-35 -14 -57.5 -16t-31 4t-13.5 17.5t-7 11.5q-14 8 -14 -6q2 -8 8 -21q2 -2 -5 -4t-13 -2q-25 2 -48 25q-2 2 -12 0l-10 -2 q-10 0 -14.5 4t-10.5 13t-12 15q-12 12 -20 47q-35 -31 -48 -34q-31 -27 -94 -54q-20 -20 -39 -20q-10 0 -23.5 -1t-29.5 -3t-25 -2q-10 0 -19 3t-18.5 10t-15.5 12t-14 17.5t-11 16.5t-12.5 19.5t-9.5 17.5q-16 29 -20 72q-45 -49 -76 -74q-66 -51 -98 -68 q-59 -35 -140 -32q-18 0 -37 32q-4 14 -22 45q-14 0 -23 -12q-16 -16 -20 -16q-14 -2 -33.5 -16.5t-32.5 -18.5q-10 -8 -37.5 -5t-35.5 3q-10 0 -15 -4q6 -2 11 -4l16 -4q-8 -10 -80 -9h-8q-80 6 -100 39q-29 45 -36 65.5t-3 55.5l8 80q12 94 90 180q72 78 176 103 q12 4 32.5 8t38 9t33.5 13q10 6 32 1t34 -1q16 59 29 211q4 25 -4.5 31t-32.5 -2q-84 -31 -199 -35q-2 0 -9 -1t-11 -3q-27 -12 -38 -9t-29.5 13t-31.5 10q0 14 11 15q150 37 168 39q20 2 42.5 8t50 17t42.5 16q43 12 51 14q37 4 63 -14q43 -25 60 -23q4 8 -4 15.5t-8 9.5 t-9 8q-8 4 0 4q49 0 86 -41q43 -55 15 -119l-2 -12q4 -57 -23 -148q-4 -10 -4 -27.5v-21.5q-16 -143 -31 -211q-2 -14 -14 -51t-14 -47q-4 -23 0 -70q35 -4 77 27q29 10 99 76q8 49 49 174q16 47 70 90q72 53 141 68q10 2 28.5 5t34 6t29.5 7l25 -2q23 0 45 1t24 9 q29 115 31 129q0 27 12 35q16 14 4 37q-10 20 6 41q-6 0 -62 -7t-83 -16q-92 -29 -147 -34q-2 0 -31 -5.5t-31 -5.5q-31 0 -31 17q0 10 4.5 13t14.5 4t14 3t17.5 4t23.5 7.5t21 13.5q6 6 31.5 12t33.5 10q35 16 101 33q59 16 151 20q25 2 71 -6t52 -8q29 -4 25 -35 q0 -8 1 -24.5t-1 -29.5t-9 -26q16 -2 21 17q4 20 2 33q0 18 10 22q16 4 25 -8q8 -27 4 -41q-8 -29 -13.5 -70t-13.5 -69q-12 -41 -14 -62q-6 -43 -16.5 -93t-24.5 -109.5t-21 -94.5q-2 -12 -1 -36.5t-3 -36.5q-8 -35 -2 -58q12 -43 25 -43q2 0 6 2q20 0 43 13q98 57 133 84 q31 25 68 43q20 8 26 6zM1278 799q18 -4 33 -17q-2 20 -6 22.5t-27 -5.5zM948 326l10 12q12 14 3 18q-4 0 -7 -2q-10 -5 -6 -28zM53 43q2 0 14.5 -14.5t28.5 -12.5q-39 57 -47 78q-4 20 -12 21q-4 0 -6 -13q0 -4 -4 -10t-3 -9t5 -7q6 -4 13 -16.5t11 -16.5z" glyph-name="a_a.liga" horiz-adv-x="1591" unicode="aa"/><glyph d="M289 1270q23 8 30 -8q16 -33 35 -50q6 -6 6 -22q-2 -29 -1 -51.5t0 -50t-5 -50.5q-12 -57 -25.5 -161.5t-21.5 -145.5q-4 -8 6 -12q90 72 234 110q76 20 96 -36q8 -2 12 7t11 7q14 -8 12 -16q-4 -25 2 -41q4 -18 12 -21q23 -4 23 -37q-4 -141 -39 -272v-10 q6 -37 -27 -134q-27 -90 -55 -137q-31 -51 -90 -110q-37 -37 -94 -54q-20 -4 -27 -2q-14 10 -46 16.5t-46 14.5q-10 6 -23 23q-4 4 -14 25.5t-21 29.5q-10 -16 -15 -52t-19 -53q-12 -2 -16.5 10.5t-8.5 14.5q-10 -29 -18 -35q-8 6 -39 36t-54 40q-4 -4 -7 -16.5t-11 -16.5 q-31 18 -22 58q6 23 7 60.5t3 53.5q25 197 47 295l18 123q20 115 70 422q2 16 12 80.5t17 99.5q4 27 10 33t33 14q24 7 49 21zM938 1255q57 33 76 -10q4 -6 7 -13t4 -7t7 -3t15 1q23 2 30.5 -2t12.5 -27q31 -98 18 -207q-2 -27 -6 -57.5t-10.5 -68.5t-8.5 -58q-2 -14 -3 -45 t-1 -41q109 82 131 100q4 4 17.5 11.5t21.5 15.5t11 20q0 4 5 5t7 -1q14 0 31 11q12 12 24 4q8 -4 23.5 -9.5t23.5 -9.5q25 -16 41 -2q10 10 25 -4q37 -23 47 -65q6 -29 26 -82q16 -45 9 -88q-12 -94 -43 -195q-43 -143 -49 -170q-25 -100 -97 -182q-57 -68 -137 -76 q-8 -2 -37 10q-12 4 -65 8q-33 2 -66 29q-12 8 -23.5 20.5t-22.5 29t-17 24.5q-6 10 -15 12q-18 -23 -22 -51q-2 -25 -21 -39q-4 -6 -27.5 -13t-31.5 -5q-16 6 -33 51q-20 47 -27 53q-20 23 -16 76q0 57 14 137q29 135 33 201q2 53 23 112q37 125 53 269q6 43 20.5 119.5 t18.5 101.5q4 23 4 61.5v48.5zM1397 418q-12 -20 -39 -86q-4 -18 0 -23q2 -8 -6.5 -34.5t-8.5 -34.5q-4 -20 7 -27q4 16 20 64.5t23.5 81t3.5 59.5z" glyph-name="b_b.liga" horiz-adv-x="1556" unicode="bb"/><glyph d="M1495 322q4 -14 -10 -21q-6 -6 -31 -20q-45 -23 -106 -74q-72 -59 -125 -78q-10 -2 -27 -12q-43 -29 -117 -64q-66 -29 -96 -30q-12 0 -20 -9q-29 -29 -56 -2q-12 10 -24 2q-20 -14 -54 2q-37 18 -67 41q-4 4 -14.5 8.5t-16.5 10.5q-51 57 -55 121l-2 18 q-12 -10 -26.5 -28.5t-24.5 -24.5q-2 0 -52 -43q-31 -27 -39 -37q-2 -2 -12 -8l-12 -6q-27 -18 -59 -31q-18 -6 -53.5 -11.5t-57.5 -19.5q-86 -53 -137 -10q-20 14 -41 6t-37 0q-100 61 -94 186q0 76 6 115q41 242 65 318q35 100 54 135q35 61 84 63q2 0 47 23q90 49 166 6 q4 -4 17 -8t17 -9q8 -6 17 3q25 18 43 -5q12 -6 14 -8q68 -47 55 -137q-8 -72 -30 -96q-10 -12 -33 -31.5t-29 -26.5q-8 -8 -14 -4q-14 2 -18.5 1t-14.5 -10t-16 -11q-18 31 -13 65q16 78 23 117q6 33 -14.5 57.5t-51.5 24.5q-31 4 -45 -20q-2 -2 -41 -48q-20 -25 -18 -49 q-4 -27 -8 -30q-16 -31 -35 -138q-8 -39 0 -75v-7q-6 -23 -5 -60.5t-1 -59.5q-18 -88 -2 -142q14 -37 20 -45q25 -29 64 -16q80 18 162 55q57 25 145 113l23 20q-4 27 2 49q18 102 47 218q10 39 37.5 106.5t33.5 83.5q2 10 9.5 26.5t9.5 26.5q8 23 27.5 33t39.5 2 q4 -2 10.5 -5t10.5 -5t9 -5t8 -7.5t5 -10.5q14 14 2 27q-12 10 -11 16t16 17q94 74 172 34q12 -8 22 -4q18 6 72 -8q53 -10 61 -78q2 -12 -2 -90q0 -27 -22 -28q-14 0 -21 -29q-4 -29 -22 -31q-2 0 -2 -1t-2 -1q-4 -4 -7.5 -10t-4.5 -10t-6 -7.5t-11 1.5q-41 23 -45 43 q-6 27 -7 73.5t-3 61.5q-4 35 -34 52t-63 3q-12 -4 -18 -16q-10 -43 -10 -50q8 -59 -31 -147q-37 -100 -31 -209q2 -63 27 -186q0 -39 35 -33q18 0 14 -25q0 -14 8 -16q8 -4 32.5 -2t27.5 -8q4 -4 26 6q16 6 47 16.5t70 26.5q33 12 73 40t58 38q20 10 58 32.5t67 36.5 q4 2 14 5.5t15 5.5q12 4 20 -4zM219 614q6 6 13.5 31t0.5 31q-6 -6 -11 -30t-3 -32zM866 172q0 -4 1 -21.5t3 -23.5t7.5 -18.5t14.5 -18.5t23 -10q-43 78 -49 92z" glyph-name="c_c.liga" horiz-adv-x="1333" unicode="cc"/><glyph d="M1763 133q-14 -10 -6 -12q2 -2 -4 -6q-2 -2 -6 -4q-84 -51 -92 -60q-14 -14 -27 -16q-10 -2 -15 -1t-8 -2t-8 -16l-8 -4q-10 -6 -18 -11t-6 -9q-61 12 -72 10q-25 -2 -100 23q-47 14 -56 61l-10 31q-41 -41 -67 -86q-8 -14 -56.5 -40t-60.5 -22q-51 12 -82 0 q-12 -4 -33 4q-49 18 -108 62q-35 29 -46 61q-8 31 -10 54q-39 -39 -71 -62q-20 -14 -31.5 -22.5t-23 -20.5t-19.5 -20q-29 -23 -88 -33q-109 -18 -152 57q-4 4 -10 14.5t-8 12.5q-4 39 -6 45v12q-23 -45 -66 -117q0 -2 -10 -13t-26.5 -23.5t-28.5 -14.5q-94 -6 -181 49 q-49 35 -69 142q-2 8 -7.5 23.5t-7.5 23.5q-10 20 -11 44.5t1 60.5t2 48q-2 66 35 201q31 102 84 182q66 92 156 107q4 0 14 4l8 4q41 10 55 -8q14 -14 17 -15q72 -25 106 -77q43 143 66 272q10 51 37.5 141t34.5 111q16 4 21 4t15.5 -11t14.5 -14q6 6 6 9q-2 25 5 31t30 3 q18 -4 30 0q20 10 29 -20q8 -57 4 -139q-6 -139 -12 -166q-4 -47 -22.5 -134t-22.5 -122q-12 -76 -29 -125q-18 -59 -24 -115q-4 -45 -13 -84q-10 -47 -8 -78q-4 -70 -12 -94q-6 -27 -6 -78t47 -26q23 12 45 20t35.5 17.5t36.5 33.5q16 16 26 23q0 25 6 53q6 39 14.5 80 t17.5 91t15 81q12 63 52 125q49 86 82 123q23 23 31.5 25t33.5 -13q27 31 66 17q16 -8 77 2q72 8 101 -35q4 -8 14 -34t21 -36q8 59 40.5 234.5t43.5 267.5q41 14 47 20q14 18 22 18.5t23 -13.5q8 -4 10 -7q8 2 17.5 13.5t17.5 15.5l6 6t7 6t8 4.5t9 -0.5q2 -2 13.5 -7 t13.5 -8t8 -10t0 -15q-6 -23 -4 -70t-6 -70q-2 -6 -2 -16q2 -39 -2 -84t-9 -78t-14.5 -85t-13.5 -79q-16 -102 -22 -180q-8 -102 -21 -154q-6 -29 -14 -86t-15 -86l-8 -49q-8 -27 -4 -35q16 -45 21 -49q4 -12 22 -6q4 0 8 2q33 6 99 53q51 35 135 86q31 18 39 33 q12 20 32.5 19.5t32.5 -19.5q-41 -35 -104 -84zM618 37q10 4 5 18q-4 12 -15 17q-8 -10 -8 -27q4 -16 18 -8zM152 68q6 -12 27.5 -34t33.5 -20q-4 10 -26.5 31t-34.5 23zM1151 16q2 10 1 19.5t-5 12.5t-12.5 -1t-22.5 -1t-20 3q12 -16 19 -20.5t40 -12.5z" glyph-name="d_d.liga" horiz-adv-x="1806" unicode="dd"/><glyph d="M1135 868q29 18 47 -6q4 -12 26 -16q51 -10 72 -78q2 -4 4 -12q12 -33 6 -51q-2 -2 -2 -7q-6 -16 -10 -30q-4 -12 -33 -70q-8 -16 -42 -36.5t-40 -24.5q-68 -51 -73 -54q-29 -12 -62 -38.5t-47 -36.5q-59 -33 -78 -48q12 -18 21 -77q10 -68 55 -121q35 -43 154 -47 q14 0 43 14q12 8 29.5 21.5t33.5 23.5t37 21q12 4 63 41q45 29 88 34q12 0 13 -8q2 -10 -8 -16q-8 -4 -40 -26.5t-34 -24.5q-12 -8 -46 -35t-50 -39q-27 -18 -82 -66q-12 -10 -50 -24.5t-53 -24.5q-18 -16 -57 -8q-12 2 -34.5 3t-31.5 1q-115 4 -159 68q-4 10 -15 14 q-63 41 -63 147l-2 11v14q-4 2 -7 0t-6.5 -6t-7.5 -7t-6 -5q-76 -49 -102 -93q-4 -8 -15.5 -16t-28 -16.5t-20.5 -12.5q-6 -4 -17 -14t-21.5 -16.5t-18.5 -3.5q-14 0 -25 -15q-12 -18 -34.5 -30.5t-59.5 -23.5t-45 -13q-18 -6 -33.5 -9.5t-33 1t-25.5 6.5t-30.5 12t-31.5 12 q-12 4 -18 14q-72 78 -84 197q-4 16 -2 23q0 45 2 63q12 43 21 92q18 129 34 183q25 109 115 204q20 23 33.5 25t42.5 -12l16 22q14 25 33 10q12 -10 51 2q104 39 170 -6q8 -4 49 -16q25 -6 35 -23q18 -18 8 -36q-4 -6 -4 -41q6 -61 -45 -158q-20 -51 -69 -84 q-14 -8 -35 -29q-8 -8 -32 -19t-34 -18l-145 -84q-18 -12 -17 -26q20 -76 27 -86l6 -19q14 -8 33.5 -25.5t36.5 -25.5q25 -10 63 6q23 8 43.5 18.5t32.5 18.5t34.5 23.5t37.5 23.5q31 20 65.5 53t53.5 46q16 10 20 30q8 29 18.5 100.5t24.5 110.5q8 23 27.5 63t21.5 46 q29 63 33 69q57 88 137 125q37 16 113 19q45 2 -17 -19q-8 -2 -2 -10q2 -2 4 -2q8 4 25 2t25 12zM545 707l-8 -52q24 25 8 52z" glyph-name="e_e.liga" horiz-adv-x="1316" unicode="ee"/><glyph d="M1167 1374q18 -12 74 -8q29 0 55 -16q12 -8 -6 -11q-6 0 -18 2q-49 2 -103 -22q127 8 136 -6q4 -8 -13 -15q-4 0 -10 -2q-12 -2 -11 -4t9 -6t-10 -10q-10 -4 -37 -12q-72 -23 -94 -37q-43 -27 -76 -78q-2 -4 -15.5 -21.5t-23.5 -33t-10 -23.5q-4 -18 -18.5 -58t-22.5 -75 q-10 -35 -15 -78q6 -4 27 2q82 12 105 12q78 0 96 5h4q4 -2 13 -2t13.5 -2.5t4.5 -10.5t-4.5 -11t-8.5 -3t-11 1t-11 1q-2 0 -8.5 -2t-10.5 -2q0 -4 10.5 -7t6.5 -10q-4 -8 -22.5 -18t-24.5 -8q-12 6 -17.5 5t-16.5 -6t-16 -7q-6 0 -19 -1t-23.5 -2t-18.5 -3q-33 -8 -76 -9 q-12 -33 -12 -120q0 -25 -20 -148q-2 -14 -50 -303q0 -2 -28 -123q-4 -14 -17.5 -82.5t-27.5 -105.5q0 -2 -3.5 -10.5t-4.5 -11.5t-4 -9l-5 -10t-6 -9.5t-10 -9.5t-12 -6q-6 -4 -21.5 -16.5t-26.5 -18.5q-4 -2 -7 3t-5 14.5t-3 18.5t-4 18.5t-5 11.5t-5 -2t-7 -12.5 t-7.5 -15.5t-7.5 -13t-8 -6q-12 0 -12 10q-2 20 -15.5 51t-15.5 41q-6 18 -2 43q10 84 31 141q31 80 20 160q-4 45 19 189q23 164 47 268q6 20 4 45q-8 2 -28.5 -3t-26.5 -5q-20 0 -30.5 -3t-15.5 -3l-36 -5q-25 -2 -70 -9t-88 -9q-16 0 -25 -10q-2 -10 -6 -58.5t-12 -97.5 l-21 -119q-8 -61 -22 -102q-8 -25 -15.5 -90.5t-9.5 -77.5q0 -6 -4 -31.5t-8 -57.5t-4 -60q-4 -45 -23 -64q-6 -6 -6 -17.5t-4 -17.5q-12 12 -4 43q4 10 4 25.5v19.5q2 8 3 26.5t1 29.5q-10 -25 -15 -73t-17 -73q-12 8 -14.5 29.5t-6.5 30.5q-2 -12 -9 -33t-9 -31 q-6 -14 -31 -29.5t-37 -11.5q-6 4 -10 10l-17 31q-14 29 -14 30t-12.5 31.5t-7 33.5t1.5 36q2 23 6 56.5t6 54t6 28.5q12 33 12 115q14 178 31 254l29 148q-16 2 -62 -5q-37 -6 -39 -2t9 13q8 6 -21 28.5t-12 38.5q92 37 147 45q12 20 13 54q2 102 108 264q33 45 111 127 q18 23 41 22q25 2 69 19q16 4 47 4q2 0 28 4t28 0q49 -20 65.5 -18.5t36.5 -36.5q14 -25 2 -25q-18 0 -20 -9t5 -22.5t9 -30t-10 -28.5q-16 -6 -66.5 14.5t-83.5 5.5q-72 -31 -92 -63q-25 -49 -20 -62q2 -16 -10.5 -48.5t-14.5 -41.5q-2 -10 -5 -32.5t-5 -32.5q0 -2 -6 -64 q66 -4 180.5 6.5t138.5 14.5q6 25 27 108q23 94 78 195q27 51 75 84q18 12 33 37q25 41 88 63q16 6 46 19.5t50 19.5q27 8 39 4zM387 934h-6q-14 -25 -19.5 -57.5t5.5 -38.5h4q0 2 16 96z" glyph-name="f_f.liga" horiz-adv-x="1138" unicode="ff"/><glyph d="M1018 223q43 29 67 8q-23 -25 -57 -49q-51 -35 -76 -67q-14 -20 -41 -23q-4 0 -41 -24q-6 -4 -20 -10.5t-21 -12.5q-16 -20 -26 -27q-8 -6 -39 -16l-41 -12q-12 -6 -29 -6q-2 0 -8 1t-10 1q-4 -2 -11.5 -7.5t-11.5 -7.5q-10 -2 -22 11q-16 16 -31 18q-4 2 -13 7t-13.5 6 t-16.5 -5q-8 -4 -25 12q-23 29 -22 115q4 53 25 164q27 139 40 199q27 92 35 172q0 16 8.5 52t10.5 54q-236 -18 -248 -22q-27 -10 -29 -15q-4 -31 -24.5 -127t-24.5 -149q0 -6 -8 -98.5t-16 -139.5q-33 -246 -52 -368l-6 -9l-4 -8q-6 -2 -9 6.5t-5 17.5t-6 9 q0 -41 -62 -145q-20 27 -49 28q-23 2 -31 37q-2 18 -22 55q-23 53 -13 125q12 127 21 191q18 143 31 192q4 25 16 72t19.5 87t7.5 75q0 8 10 84q4 29 2 41q-39 0 -59 -13q-25 -16 -41 7q-12 20 12 36q4 4 4 27q-2 18 3 25.5t26 9.5l51 6q20 2 25.5 6t9.5 27q2 18 10 54 t10 54q10 68 51 140q23 43 90 102q61 49 195 86q72 18 100.5 15t71.5 -23l19 -8q16 -10 20 -17q-16 -4 -51 10.5t-62 2.5q-16 -6 -10 -11q4 -4 19 0q23 8 43 -2q27 -12 49 -20t26 -10q12 -6 15 -33q0 -8 -6 -4q-23 8 -68 6t-70 -6q-39 -8 -83 -38t-60 -59q-41 -76 -64 -135 q-12 -33 -26 -110q119 -2 222 10t134 10q31 0 44.5 -13t17.5 -46q0 -14 6 -19q18 12 23 10.5t3 -22.5q0 -16 -8 -31q-12 -31 -12 -61q-2 -51 -31 -258q-6 -55 -10 -158q-2 -18 -3 -55t-3 -55q0 -10 -2 -27q-4 -23 -1 -29t25 0q84 37 117 58q78 47 86 49q25 12 33 20z" glyph-name="f_i.liga" horiz-adv-x="946" unicode="fi"/><glyph d="M995 156q6 2 6 -4q-2 -29 -53 -80q-29 -31 -57 -41q-16 -6 -32.5 -20.5t-35.5 -20.5q-12 -2 -30 -15q-51 -37 -140 -30q-4 0 -11 2t-12 2t-14 -6q-6 -4 -16 10q-8 33 -14 49q-4 20 -19 14q-8 -4 -12 7q-33 57 -35 122q2 74 21 179q8 43 23.5 145t25.5 158q20 86 35 170 q-109 -12 -144 -19q-115 -25 -116 -39q0 -6 -7.5 -48t-15.5 -91t-12 -90q-4 -45 -23.5 -154.5t-23.5 -130.5q-33 -246 -52 -368l-6 -9l-4 -8q-6 -2 -9 6.5t-5 17.5t-6 9q0 -41 -62 -145q-20 27 -49 28q-23 2 -31 37q-2 18 -22 55q-23 53 -12 125q12 127 20 191 q18 143 31 192q4 25 16 72t19.5 87t7.5 75q0 8 10 84q4 29 2 41q-41 0 -57 -6q-27 -10 -45 -11q-20 0 0 33q6 10 14 14q25 20 14 21q-27 0 -10 16q10 12 29 17q8 2 25.5 7t25.5 7q20 2 25.5 6t9.5 27q2 18 10 54t10 54q18 109 58 181q25 45 92 102q80 66 192 86q68 10 76 8 q12 -4 16 -12q-86 -18 -112 -16q-10 2 -31 -9q-8 -4 -16 -10t-16.5 -16.5t-12.5 -14.5q2 -2 23 9q57 35 104 32q8 0 10 2q23 8 29 8.5t19.5 -11t17.5 -13.5q8 -4 13 -18.5t-5 -18.5q-10 -2 -30.5 -13t-30.5 -13q-59 -18 -93 -76q-14 -29 -77 -191q-8 -23 -19 -102 q131 6 248 24l4 52q10 35 12 67q0 29 25 94q6 -10 6 -31.5t4 -33.5q23 41 23 94q4 41 39 60q49 -29 61 -123q2 -14 2 -156q10 0 84 14q76 10 72 6q-2 -2 -23 -8q0 -2 17.5 1t40 8.5t28.5 5.5q63 0 66 -15q0 -4 -13 -10q-8 -4 11 -10q20 -8 24 -13q-16 -14 -38.5 -20 t-58.5 -9t-46 -5q-6 0 -28.5 -2t-39.5 -4q-10 -2 -67 -9q-31 -4 -33 -14q-2 -4 -4 -18q-6 -41 -5 -83t-1 -81q-12 -119 -17 -144q-6 -33 -9 -69.5t-5 -81.5t-4 -70q-2 -23 -4 -65.5t-4 -63.5q0 -33 37 -65q8 -8 20 -2q6 2 19.5 5t24.5 6t20 9q25 18 47 31.5t43.5 23 t27.5 13.5zM690 49q4 -2 6 1t2 7q0 8 -7 37t-13 29q-2 -4 -1 -15.5t3 -29.5v-17q-4 -12 10 -12z" glyph-name="f_t.liga" horiz-adv-x="1009" unicode="ft"/><glyph d="M1659 317q37 27 74 -2q-23 -20 -75 -53t-73 -51q0 -2 -14.5 -10t-16.5 -11q-18 -18 -73 -57q-16 -8 -40 -28.5t-36 -26.5q-2 -2 -8 -23q-12 -82 -54 -200q-14 -39 -14 -66q-4 -35 -55 -121q-6 -2 -13.5 3t-11.5 5q-18 -18 -18 -36q0 -12 -12 -33l-68 -68q-18 -18 -37 -20 q-14 -4 -36.5 -18.5t-33.5 -18.5q-100 -35 -170 8q-12 6 -55 35q-14 10 -28 35q-29 47 -22 115.5t46 119.5l31 43q16 25 84 74q39 25 117.5 63.5t97.5 49.5q16 10 22 12q35 8 41 78l6 35q-12 -4 -53 -39q-12 -10 -23.5 -26.5t-25.5 -25.5q-39 -23 -72 -8q-49 0 -55 10 q-18 -10 -49 17q-51 37 -84 121q-6 -4 -18.5 -13.5t-18.5 -13.5q-14 -10 -29.5 -21.5t-35.5 -25.5q-23 -16 -66 -41q-18 -8 -35 -25q-27 -23 -20 -45q10 -57 -21 -104q-6 -10 -10 -35q-4 -53 -61 -178q-68 -139 -146 -203q-31 -31 -57 -31q-14 0 -60 -24q-16 -6 -45.5 -23.5 t-50.5 -23.5q-33 -12 -45 -7t-27 35q-6 12 -20 13q-43 4 -63 63q-4 16 -5 78q-4 80 60 160q63 82 145 153q16 14 43 30.5t35 21.5q10 6 88 61q4 4 30.5 17.5t31.5 25.5q2 4 8 68v51q-31 -14 -39 -31q-8 -14 -29.5 -36.5t-30.5 -37.5q-10 -16 -47 -34l-59 -25q-37 -12 -82 16 q-8 4 -30.5 18.5t-35.5 20.5q-18 10 -28 39q-37 98 -35 203q0 197 125 420q47 74 78 100l9 9t10 8.5t9.5 4.5t12.5 2t12 -8l27 5q51 14 77 -17q4 -4 12.5 -7t10.5 -5q78 -25 78 -109q0 -12 2 -18q2 0 4 -2q4 -2 6 -2q23 92 21 125q0 43 34 30q35 -10 66 -45l10 -12 q8 0 12.5 10.5t10.5 12.5q51 -41 49 -78l-12 -109q-4 -43 -13.5 -131t-13.5 -133q-2 -33 -21 -158q-8 -29 0 -49q6 0 10.5 2t9.5 6.5t7 6.5q57 27 152 88q-14 59 4 129q8 35 18 92t19 94q25 111 73 182q18 27 49 58q2 2 9.5 9t9.5 11q27 49 59 25q6 -4 21 4q18 6 22 10 q63 25 85 17.5t65 -46.5q35 -35 55 -43q6 12 16 76q2 20 23 25q35 8 47 26q23 33 47 4q4 -6 11.5 -16t13.5 -18.5t12 -14.5q12 -16 10 -43q-8 -37 -8 -110q0 -90 -29 -183q-25 -86 -30 -168q-2 -35 -12.5 -95t-12.5 -85q0 -20 4 -24q20 12 51 35.5t56 37.5q55 33 133 86z M1141 772q8 12 12 21q-16 4 -16 -7q-6 -12 4 -14z" glyph-name="g_g.liga" horiz-adv-x="1628" unicode="gg"/><glyph d="M1837 270q2 0 3 -3t0 -9t-7 -10q-8 -6 -27.5 -18.5t-27.5 -20.5q-66 -61 -88 -78q-12 -6 -50 -43q-45 -37 -108 -76q-61 -37 -107 -51q-55 -16 -77 14q-4 4 -25 21q-78 63 -61 194q4 59 23.5 169t23.5 139q4 25 8 37q12 33 19 67.5t12.5 80.5t9.5 67q0 4 -1 10t-1 8 q-10 59 -58 33q-61 -35 -118 -86q-45 -43 -52 -111q-23 -176 -38 -235q-12 -43 -17 -105q-2 -102 -57 -280l-8 -9q-6 -2 -12.5 5.5t-12.5 5.5q-8 -8 -22 -39q-18 -31 -48 -25q-18 2 -28 -8q-47 53 -47 152q4 45 14 124l-2 -2q-31 -29 -35 -30q-23 -4 -61 -43 q-8 -8 -26.5 -21.5t-27.5 -23.5q-25 -31 -59 -52q-57 -35 -72 -45q-23 -16 -39 -12l-14 2q-4 0 -15.5 -8t-17.5 -2q-4 4 -12 10t-13 10t-10.5 11.5t-7.5 15.5l-6 16q-8 111 2 152q23 90 35 125q12 57 10 84q-2 25 1 52.5t7.5 46t12.5 54t10 48.5q8 45 55 196q12 31 -6 41 q-20 12 -35 6q-10 -4 -28 -18l-41 -33q-2 -2 -5 -3t-6.5 -3t-7.5 -6q-14 -10 -36.5 -31.5t-32.5 -30.5q-6 -4 -17 -18q-43 -70 -53 -146q-12 -72 -8 -149q0 -96 -33 -186q-10 -27 -10 -84q-2 -39 -19 -80q-12 -31 -32 -31q-8 0 -14.5 -12.5t-16.5 -12.5q-31 16 -51 5 q-14 -8 -19 4q-43 51 -37 94q0 31 -4 37q-14 20 -6 71q23 168 41 263q10 68 23 202q2 51 30 252l52 314q10 51 32 94q51 10 78 -29q4 4 8 10t8.5 9.5t10.5 1.5q12 -2 8 -21q4 -35 20 -41q2 0 9 -16q12 -125 12 -127q0 -6 -7 -39t-5 -45q4 -45 -25 -178q-2 -14 -4 -51t-8 -60 q25 14 71 68q51 51 91 75q74 43 139 15q35 -14 86 -78q8 -10 0 -29q-10 -61 -12 -65q0 -6 -1 -27.5t-4 -34.5q-4 -25 -14 -69.5t-14 -63.5q-10 -47 -15 -174q-12 -86 -12 -90q-4 -12 -8 -42t-10 -46q-6 -25 6 -41q4 -4 18 6q4 2 5 1t3.5 -2t5.5 0t11 6t20 16q25 23 71 48 t71 44l24 16q12 70 37 344q2 59 27 174q4 20 8 57t6 52q4 25 24.5 98.5t22.5 114.5q0 23 -2 33q-4 31 2 40t39 11q0 29 6 37q2 2 35 16q18 6 21 8q23 20 43 0h4q49 -6 57 -80q12 -121 -14 -239q-29 -111 -31 -174q37 23 98 63q86 59 162 29q10 -6 16 2q2 8 -9 12t-13 8 q0 12 12 8q61 -12 80 -38q55 -90 43 -215q-18 -178 -37 -238q-29 -102 -31 -152q-12 -109 21 -159q14 0 45 25.5t47 31.5q53 31 76 53q84 63 178 88zM1432 86q-10 23 -7 84l15 88q-10 -12 -14.5 -33.5t-8.5 -29.5q-30 -58 15 -109z" glyph-name="h_h.liga" horiz-adv-x="1695" unicode="hh"/><glyph d="M236 1243q-94 53 -7 154q35 41 97 51q18 2 24 -4t4 -23q-6 -16 17 -39q59 -63 -9 -112q-6 -4 -20 -16.5t-26.5 -17.5t-26.5 -3q-6 8 -23.5 7t-29.5 3zM766 1182q-25 -2 -31 18q-8 35 9.5 76t50.5 63l30 21q49 35 84 -12q8 -8 23 -17q-29 -33 -23 -49q4 -6 -4 -18 q-10 -8 -17 -27.5t-22 -24.5q-98 -30 -100 -30zM1087 254q6 -16 -6 -31.5t-39.5 -36t-35.5 -26.5q-4 -2 -10.5 -5t-10.5 -5q-18 -8 -18 -11q-6 -20 -35 -37.5t-37 -27.5q-2 -6 -7 -9.5t-13.5 -5.5t-12.5 -4q-14 -6 -19 -11t-9.5 -12t-8.5 -12q-8 -8 -27.5 -14t-25.5 -12 q-12 -6 -76 -23q-78 -29 -135 15q-2 2 -16 20q-10 20 -17 23q-35 20 -30 90l4 35q-14 -12 -35 -39q-14 -20 -41 -23q-4 0 -41 -24q-6 -4 -20.5 -10.5t-20.5 -12.5q-16 -20 -27 -27q-8 -6 -38 -16l-41 -12q-12 -6 -29 -6q-4 0 -10 1t-9 1q-4 -2 -11 -7.5t-11 -7.5 q-10 -2 -23 11q-16 16 -30 18q-4 2 -13.5 7t-13.5 6t-16 -5q-8 -4 -25 12q-23 29 -22 115q4 53 24 164q27 139 41 199q27 92 35 172q0 16 10 58t8 67q2 10 31 39q33 23 74 26q31 0 44 -13t17 -46q0 -14 6 -19q18 12 23.5 10.5t3.5 -22.5q0 -16 -8 -31q-12 -31 -12 -61 q-2 -51 -31 -258q-6 -53 -10 -158q-2 -18 -3.5 -55t-3.5 -55q0 -10 -2 -27q-4 -23 -1 -29t26 0q84 37 117 58q78 47 86 49l10 6q12 86 16 121q8 47 31 141t33 141q39 180 45 224q2 41 43 51q31 8 47 -21q12 -14 20.5 -49t8.5 -37q12 20 10 53t2 41q41 -20 39 -51v-37 q0 -23 -8.5 -94t-5.5 -102q0 -27 -13 -76q-27 -102 -47 -307q-12 -111 -26 -144q-6 -8 4 -28q20 0 39 12q61 35 83.5 49.5t35 24.5t28.5 25.5t33 27.5l24 12q23 12 67.5 34t67.5 34z" glyph-name="i_i.liga" horiz-adv-x="948" unicode="ii"/><glyph d="M729 1315q-12 0 -18 10q-12 20 -7 54t25 55q8 8 19 8q12 -2 59 16h2q2 2 4 2q29 4 37 -8q4 -8 3 -11t-5 -12.5t-6 -13.5q43 -8 20 -43q-8 -14 -30.5 -33.5t-30.5 -31.5q-4 -4 -11.5 -6.5t-9.5 2.5q-6 8 -51 12zM190 1204q-29 -6 -36 19q-16 25 8 77q4 16 22.5 33t22.5 23 q14 23 53 26q18 4 47 13q18 4 23 -4q2 -14 -11 -23q-2 -2 -8 -6t-9 -8t-5 -8q2 -6 8 -10.5t11.5 -5.5t12.5 -2t13 -3q-6 -10 -15.5 -29.5t-19.5 -36t-24 -30.5q-27 -16 -37 -15q-27 2 -56 -10zM733 215q98 72 158.5 107.5t148.5 70.5q0 -35 -6 -44t-37 -21 q-39 -16 -61.5 -32.5t-48 -41.5t-56.5 -45q-23 -16 -94 -59q-29 -20 -35 -54q0 -10 -6 -45t-4 -55q-6 -78 -55 -135q-31 -37 -43 -78q-4 -16 -10 -23q-20 -16 -65.5 -63t-76.5 -66q-51 -35 -135 -30q-23 0 -38 9t-34.5 31.5t-23.5 26.5q-8 8 -8 27q4 10 11 39.5t15.5 50 t24.5 39.5q92 113 217 203q12 8 23 28q29 66 26 97q0 12 1 36.5t1 36.5l6 58q-35 -18 -67 -47q-14 -14 -61.5 -43t-53.5 -33q-72 -55 -102 -72q-18 -10 -27 -31q-2 -14 -8 -40.5t-8 -39.5q-14 -66 -27 -106q-4 -33 2 -41q4 -4 -6 -33q-49 -131 -174 -198q-86 -47 -100 -54 q-33 -10 -39 -10q-4 0 -11.5 1t-11.5 1t-10 1t-10 4t-7.5 8.5t-5.5 11.5q0 2 -8 10q-53 41 -12 143l29 62q20 41 28 49q86 106 123 137q6 6 16.5 12.5t22.5 12.5t18 10q10 113 11 117q2 76 16 163t35.5 189t32.5 162l22 219q0 8 9.5 21.5t17.5 15.5q63 16 117 -2 q10 -6 12 -9q0 -10 11 -35.5t7 -43.5q-4 -25 -4 -69v-54q-14 -195 -31 -260q-25 -98 -22 -148q2 -18 -7 -46t-12 -42q-6 -29 5 -39q12 4 20 9.5t18.5 14.5t20.5 15q25 18 80 41q29 10 53 39q8 8 26.5 20.5t44 24.5t31.5 16q6 53 19 115q2 6 12 72q16 123 27 184l26 209 q4 23 21 25q2 0 9 2t9 0q20 -2 53 -11.5t44 -11.5q6 -2 18 -18q57 -123 37 -254q-2 -8 -14.5 -50t-14.5 -65q-2 -14 -3 -29.5t-2 -34t-1 -28.5q-14 -84 -29 -133q-10 -35 -10 -74z" glyph-name="j_j.liga" horiz-adv-x="878" unicode="jj"/><glyph d="M946 1356q23 12 41 -2q20 -25 27 -37q4 -12 24 -27q2 4 7.5 17.5t11.5 17.5q18 -16 59 -16q18 0 23.5 -6.5t1.5 -26.5q-4 -23 -11.5 -67t-13.5 -66q-25 -172 -33 -203q-23 -96 -36 -240q-14 -88 -17 -104q10 0 31 20q29 29 79 86.5t70 77.5q12 14 80 79t92 93l11 11 q33 23 43 6q12 -23 -9 -39q-29 -23 -88 -95.5t-69 -82.5l-94 -101q20 -8 36.5 -26.5t21.5 -28.5t19 -43q4 -12 22.5 -63.5t28 -73t27 -58t37.5 -63.5q8 -12 16 -41q14 -66 43 -109q10 -14 9 -28q-2 -2 -9.5 -5t-9.5 -10q0 -4 8.5 -17t-4.5 -22q-4 -4 -15 -18t-21.5 -19.5 t-24.5 -2.5q-76 4 -94 30q-4 6 -19 10q-57 14 -76 76q-8 29 -42.5 137.5t-47.5 169.5q-6 29 -24 60q-39 -37 -47 -74q-2 -18 -13.5 -98t-13.5 -123q0 -20 -10 -64.5t-12 -66.5q0 -12 -7 -12q-10 0 -22 -14.5t-23 -14.5q-35 -4 -57 10q-20 12 -43 14q-37 8 -45 62 q-8 43 -4 108q8 113 20 168q16 66 25 195q12 119 26 180q6 31 16.5 85t20 99.5t19.5 86.5q23 80 47 256q0 16 -2 22q4 27 14 31zM289 1257q10 -4 24.5 -16t22.5 -14q4 2 10 11t10 11q29 -6 35 -39q18 -109 -18 -215q-6 -31 -4 -49q2 -90 -25 -203q-8 -33 -14 -95t-8 -77 q14 -4 24 13q27 27 77 72.5t91 85.5t74 77q18 14 50 41t52 39q51 39 49 25q0 -4 -1 -21.5t-6 -31t-15 -17.5q-18 -8 -35.5 -24.5t-35 -39t-28.5 -32.5q-20 -23 -76.5 -75t-84.5 -85q25 -14 39 -34.5t31.5 -61.5t21.5 -49q16 -33 46 -113t52 -119q10 -20 25.5 -61t21.5 -54 q2 -8 32 -61t36 -59q12 -16 38.5 -70.5t28.5 -73.5q-27 -12 -41 -14q-49 -8 -61 16q-8 16 -31 0q-4 -2 -7 -13t-6 -13t-13 4q-2 4 -7.5 0t-11.5 -11.5t-10 -9.5q-16 12 -55 67.5t-62 98.5q-41 92 -51 113q-53 106 -94 285q-4 25 -22.5 64.5t-24.5 57.5q-18 -12 -17 -26 q-2 -16 -6 -45t-7 -52.5t-5 -44.5q-6 -39 -39 -161q-14 -61 -14 -80q-2 -53 -45 -105q-16 -16 -25 -4q-2 2 -9 13.5t-9 11.5h-9q-23 -35 -30 26v11q-2 8 -17 -8q-8 -8 -12 -9q-6 0 -13 -5t-14 -3q-4 2 -12 22.5t-10 20.5q-23 16 -16 68q16 129 83 512q6 37 23.5 110.5 t24.5 110.5q2 27 11 87t11 93q2 23 7 66t7 57q6 16 9 18q10 2 15 8.5t6 10.5t2 14t1 13q13 56 66 40zM381 549q-6 -12 2 -17q2 -2 5 -11t8 -15t10 -4q0 2 -4.5 15t-8.5 22.5t-12 9.5z" glyph-name="k_k.liga" horiz-adv-x="1437" unicode="kk"/><glyph d="M944 1427q23 4 42.5 -6t21.5 -26.5t12 -46t12 -45.5q14 -96 -14 -209q-6 -18 -17.5 -53t-17.5 -52q-14 -49 -16 -51q-10 -12 -37 -88q-6 -14 -19.5 -40t-22.5 -46.5t-16 -40.5q-4 -16 -28.5 -50t-30.5 -46q-10 -41 -10 -54v-57q-12 -33 -20.5 -93.5t-12.5 -74.5 q-23 -104 -4 -266q6 -33 18 -33q6 -2 15 0q6 0 22 -12q31 -25 68 -2q51 25 84 51q20 18 110 84q47 31 91 43q10 -12 -5 -27q-10 -10 -18 -14q-23 -12 -47.5 -36.5t-44.5 -37.5q-8 -6 -31.5 -27.5t-46.5 -39t-37 -23.5q-14 -4 -26 -14q-18 -29 -74 -29q-20 -18 -53 -12 q-51 12 -91 45q-80 61 -98 96q-23 37 -31 127q0 55 -8 78l-28 -35q-6 -8 -36 -58t-44 -67q-16 -18 -44 -56t-53 -58q-18 -14 -18 -18.5t-7 -8.5t-16.5 -6t-11.5 -4q-47 -16 -68.5 -16.5t-50.5 24.5l-26 24q-18 18 -43 21q10 -10 24.5 -32.5t26.5 -31.5q-25 -16 -39 -2 q-35 35 -43 52q-43 72 -33 192q6 74 39 316l62 417q27 186 34 224q10 41 15 49q4 27 14 37q6 4 16.5 3t16.5 1q8 2 53 26q31 20 55.5 12t30.5 -40q0 -4 4 -13.5t3 -17.5t-7 -16q-4 -10 2 -17q18 -37 15 -131q-29 -260 -44 -346q-2 -14 -9 -43t-9 -45q-16 -109 -22 -201 q0 -8 -17 -80q-4 -16 -13 -73.5t-20 -87.5q-6 -25 17 -80q2 -10 26 -7q20 2 37 13.5t25 21t24 31.5q35 45 84.5 117.5t63.5 87.5q23 23 22 53q0 25 5.5 60.5t7.5 48.5q6 123 20 178q14 57 29.5 160.5t28.5 154.5q23 115 28 215q2 6 8.5 23.5t8.5 25.5q6 25 24 37 q12 8 25.5 27.5t23.5 28.5q66 43 127 36q6 0 18.5 1t18.5 1zM881 1399q-39 0 -54 -13q15 -7 54 13zM739 477q-14 -37 -19 -106.5t1 -77.5q12 39 19 103.5t-1 80.5z" glyph-name="l_l.liga" horiz-adv-x="1044" unicode="ll"/><glyph d="M1137 918q8 2 12 -9l12 -16q25 27 64 14q16 -4 26 -4q68 -2 92 -78q10 -37 27 -67q47 -92 86 -271q8 4 25 33q27 47 75 110.5t74 110.5l49 72q10 16 64 55q16 10 26 4q25 -12 52 -2q18 8 28 -26q2 -6 4 -9.5t4.5 -2t5.5 -2t5 -11.5q6 14 2 21.5t0 21.5q16 8 33 -2 q55 -43 41 -112l-2 -5q-14 -45 -19 -135q0 -18 -7 -41.5t-7 -29.5q-6 -27 -13.5 -80.5t-13.5 -79.5q-6 -41 -9 -115t-5 -98q0 -8 -2 -30.5t-5 -38t-12 -29.5q-4 -8 -2 -17q0 -27 -20 -33q-4 -2 -10.5 -8t-10.5 -8t-14 2q-6 2 -10 -1t-7 -12t-6 -12q-14 4 -16 7 q-20 27 -82 34q-10 0 -16 7.5t-12.5 21.5t-8.5 19q-2 2 0 8q0 27 -4 80t-2 97t17 85q4 14 7 30.5t6 38t5 31.5q6 43 11 107.5t12 109.5q-2 4 -3 19q-18 -18 -32 -43q-16 -25 -68.5 -96.5t-77.5 -129.5q-12 -25 -45 -87t-47 -97q-8 -20 -28.5 -27.5t-30.5 5.5q-6 18 -6 20 q-4 25 -25 33q-29 16 -35 59q0 4 -24 137l-7 17q-18 23 -47 112q-16 45 -12 107q2 37 -20 70l-72 -449q-2 -10 -4 -51t-6 -64q-2 -8 -4 -28.5t-7.5 -35.5t-17.5 -28q-4 -4 -4 -16v-14q4 -45 -14 -91q-12 -23 -29 -24q-6 0 -11 1t-7.5 5t-4.5 8t-2 10q-6 37 2 72 q10 43 16.5 123t8.5 102v15q18 76 36.5 215t24.5 180q2 12 9.5 51t13.5 60q4 14 6 45.5t8 50.5l2 10q1 15 15 19zM819 877q18 18 42 13t40 -30q20 -33 8 -80q-8 -78 -6 -102q4 -20 -6 -86q-16 -80 -35.5 -226.5t-23.5 -177.5q-25 -147 -47 -229q-4 -2 -10.5 5t-12.5 5 q-4 -4 -5 -10t-3 -8q-23 -31 -43 -31q-6 0 -15.5 -4t-18.5 -4t-17 8q-8 10 -18.5 0t-16.5 -24q-45 18 -53 92q-6 70 16 205q4 27 24.5 164t34.5 208v17l-6 -7q-63 -143 -172 -321q-25 -35 -24 -72q0 -29 -23 -14q-27 10 -31 10q-4 -10 -5 -33.5t-7 -35.5q-84 -10 -106 71 q-8 31 -22.5 91.5t-23.5 88.5q-29 92 -22 185q0 49 -10 71q-14 -125 -68 -354q-25 -119 -35 -176q-4 -20 -12 -44t-18.5 -53.5t-14.5 -43.5q-14 -4 -22 4q-20 37 -23.5 56.5t4.5 68.5q14 113 60 303q6 27 15 80t15 80q10 45 20.5 125.5t16.5 115.5q2 4 3 14.5t2 15.5t4.5 12 t7.5 9q29 16 63 7q25 -8 45 4q45 27 86 14q16 -4 12 -12q-10 -16 9 -35q20 -23 24 -72q2 -39 33 -145q20 -102 39 -156q2 -10 2 -29.5v-31.5q8 8 12 16t8.5 19.5t6.5 15.5l157 328q35 68 70 108q4 8 14 8q0 -55 29 -104v88q41 15 53 25z" glyph-name="m_m.liga" horiz-adv-x="2019" unicode="mm"/><glyph d="M1825 256q2 2 6 3t10 2t10 3q-10 -18 -34.5 -44.5t-28.5 -33.5q-6 -10 -19 -14q-25 -10 -42 -27.5t-33 -27.5q-80 -47 -99 -56q-16 -8 -38.5 -23t-36 -22.5t-25.5 -7.5q-12 -6 -16 -4q-8 0 -11 2q-8 4 -24.5 -8t-22.5 2q-4 6 -31.5 17.5t-31.5 15.5q-49 57 -53 88 q-6 57 -7 61q4 41 17 123q4 37 12 74t21.5 86t19.5 74q45 195 47 213q4 29 4 43q6 20 -14 34q-23 14 -37 0q-10 -8 -52 -38.5t-61 -57.5q-33 -47 -79 -121q-31 -53 -33 -82q-2 -41 -14.5 -114.5t-14.5 -112.5q-6 -86 -27 -160q-16 -84 -12 -153q0 -6 -15.5 -11.5 t-27.5 -11.5t-6 -14q10 -12 -6 -19.5t-33 -7.5q-29 0 -54.5 24.5t-37.5 55.5q-14 43 -10 121q-41 -23 -66 -57q-20 -27 -67 -50q-29 -25 -72 -36q-37 -23 -57 -25q-96 -6 -127 70q-33 70 -19 172q8 86 29 200q31 197 74 310q10 29 10 84q2 23 -12.5 29.5t-36.5 -11.5 q-123 -100 -199 -248q-37 -74 -41 -180q-2 -37 -12 -74q-47 -211 -56 -286q-6 -29 -38 -37q-8 -4 -25 -15q-47 -29 -70 17q-10 27 -18 30q-6 -2 -8 -6t-2 -10t-2 -8q-14 6 -23 41q-18 84 -4 153l41 281l57 360q4 20 9.5 24.5t23.5 0.5q20 -4 31 0q27 10 49 -8 q8 -8 25.5 -20.5t25.5 -18.5q25 -25 17 -64q-10 -41 -7 -120q14 8 29 32q29 55 113 148q70 70 161 53q20 -2 38 -10t37.5 -20.5t31.5 -18.5l6 -8q0 -8 10.5 -52t6.5 -73q-25 -174 -54 -293q-6 -27 -13 -76t-11 -69q-2 -10 4 -107q2 -16 31.5 -27.5t44.5 -3.5q18 10 66 40 t73 44q12 88 18 125q2 18 82 424q6 31 21 115q4 37 28 41q47 10 56 -15q8 -27 49 -30q25 -2 26 -33q0 -10 -7 -53t-5 -64q39 45 45 56q43 70 148 131q74 45 133 -4q4 -6 14 -11h6q4 4 3 12.5t3 12.5q25 10 31 -12q4 -10 18.5 -35t18.5 -41q16 -10 22.5 -28.5t7.5 -29 t-3.5 -39t-4.5 -30.5q0 -80 -18 -160q-12 -61 -37.5 -167.5t-34.5 -141.5q-4 -6 -1 -40t3 -38t2.5 -7t6.5 -5t6 -2q33 -10 67 8q20 10 52 31.5t59 35.5q43 29 121 66z" glyph-name="n_n.liga" horiz-adv-x="1718" unicode="nn"/><glyph d="M1407 465q-8 -90 -21 -123q-2 -6 -4 -19.5t-4 -19.5q-20 -94 -90 -186q-14 -18 -37.5 -50t-38.5 -49q-4 -6 -18 -16t-23 -10q-6 0 -17 -4t-13 2q-10 8 -21.5 9t-18.5 -2t-18.5 -10t-19.5 -12q-70 -27 -102 -2q-2 2 -41 26t-56 38q-111 96 -90 211q4 23 4 62.5v49.5 q0 23 4 35q6 25 15.5 68t19.5 79t27 68q-10 -2 -21.5 -12t-19.5 -14t-21.5 -13.5t-19.5 -13.5q-33 -25 -62 -27l-14 -4q2 -4 -4 -4q-4 -2 -10 -2q-16 0 -21 -14q-4 -20 -4 -27q-2 -53 -33 -141l-6 -27q-4 -31 -43 -110q-41 -63 -45 -88q-8 -35 -45 -62q-27 -16 -47 -37 q-37 -33 -86 -28q-10 0 -19.5 5t-19.5 13t-16 12l-12.5 12.5t-14.5 12.5q-14 -20 -19 -23.5t-22 5.5q-109 41 -137 133q0 2 -8 26.5t-10.5 32.5t-5.5 27.5t-1 35t9 31.5q-6 10 -7 80q-8 4 -3 35t5 41q10 16 18.5 51t12.5 47q33 98 107 209q39 63 127 92l53 15q20 8 33 -5 q-8 -12 -27 -22l-14 -2q-14 -2 -19 -10q8 -4 51 10q18 4 23 -4q6 -4 -4 -21q-20 -37 -37 -73q14 12 60.5 45.5t52.5 44.5q6 8 18 10t21 -6q39 -29 45 -43q49 -78 57 -164q0 -8 7 -23.5t7 -25.5q-2 -4 6 -6q2 -2 5 -2q16 0 57 10q35 8 102 74q90 86 135 131q12 12 17 18 q49 43 94 12q20 -16 0 -28l-12 -13q8 -14 8 -32q25 20 102 67q78 49 156 0q78 -51 78 -172q0 -20 5 -83.5t1 -100.5zM256 604q59 82 96 193q-76 -105 -96 -193zM1335 332q18 39 13 74q-19 -29 -13 -74z" glyph-name="o_o.liga" horiz-adv-x="1470" unicode="oo"/><glyph d="M1382 893q16 0 19 -2q8 -8 19.5 -12.5t25.5 -7.5t20 -5q49 -23 68 -65q12 -27 35 -49q16 -18 16 -58q-18 -164 -35 -227q-12 -53 -16 -80q0 -27 -18 -51q-10 -12 -19 -49q-10 -43 -41 -68q-10 -6 -14 -18q-14 -29 -49 -76t-41 -55q0 -2 -17 -23q-8 -4 -12 -2l-2 4 q-2 4 -2 6q0 4 3 10.5t4 10.5t-1 12q-25 -6 -41 -39q-20 -29 -51 -22q-98 14 -143 75q-16 27 -43 58q-2 -10 -4.5 -30.5t-4.5 -31.5q-4 -16 -13 -70.5t-15 -82.5q-16 -72 -23 -195q-8 -33 -14 -49q-18 -37 -17 -51q4 -12 -3 -17.5t-21 -1.5q-31 6 -45 31q-12 16 -27 4 q-6 -6 -16 4q-8 4 -23.5 18.5t-29.5 18.5q-8 4 -9 31q0 16 1 75.5t5.5 101.5t16.5 79q20 74 24 160q4 25 13.5 73.5t11.5 73.5q4 55 21.5 156.5t21.5 146.5q8 86 25 172q6 23 2 49q0 25 24 31q16 4 19 2q61 -8 83.5 -24.5t28.5 -49.5q4 -37 21 -53q6 2 53 39q47 43 74 61 q67 50 155 62zM199 877q39 -4 41 -21q0 -14 22 -14q33 -2 37 -41q10 -90 14 -101q68 53 82 68q70 66 144.5 78t138.5 -15q20 -6 37 -34q66 -104 53 -179q-16 -94 -10 -145l-4 -18q-10 -31 -19.5 -90.5t-13.5 -73.5q-8 -45 -39 -92q0 -6 -2 -9q-31 -23 -74 -81t-51 -68 l-33 -33q-4 20 20.5 44t20.5 42q-8 -8 -22.5 -26.5t-27.5 -30.5t-30 -21l-4 -4q-2 -4 -4 -6t-4 -17.5t-14 -17.5q-23 -6 -66 -6q-63 2 -104 62q-10 12 -26.5 37.5t-22.5 33.5q-10 -25 -20.5 -69.5t-16.5 -61.5q-8 -37 -17.5 -104.5t-15.5 -98.5q-16 -80 -35 -112 q-4 -8 -7 -24.5t-5 -22.5q-10 -33 -17 -37q-6 8 -25.5 20.5t-31.5 27.5t-14 40q-16 -31 -25 -55q-33 27 -39 69q-4 31 3.5 88.5t7.5 71.5q4 98 49 299q10 35 23.5 106.5t21.5 108.5q14 59 29.5 166.5t23.5 146.5l20 88q8 45 13 93q0 39 39 39zM1425 825q4 -4 26 -30.5 t30 -32.5q-2 43 -17.5 57t-38.5 6z" glyph-name="p_p.liga" horiz-adv-x="1613" unicode="pp"/><glyph d="M1419 889l13 -6q43 -12 49 -21.5t6 -52.5q-2 -59 -29 -158q-4 -16 -14 -55t-19 -61q0 -10 7 -15q4 2 15 17.5t26 13.5q-20 -61 -33 -162q-12 -86 -51 -291q-18 -78 -48 -237q-8 -66 -14 -99q-8 -35 -27 -67q-4 -10 -13 -19.5t-21.5 -18.5t-18.5 -15q-4 -10 -24 0 q-4 2 -13.5 11t-15.5 13l-4 -2q-2 0 -2 -2q-8 -27 -29 -24q-4 0 -7 4t-4 7t-2 9t-1 8q-2 10 -2 33q0 18 -10 27q-41 37 -31 118q20 154 47 248q4 23 2 27q-61 -53 -90 -80q-16 -14 -66 -23q-16 -4 -20 -12q-8 -20 -39 -12l-14 8q-6 4 -35 25.5t-43 33.5q-86 66 -86 172 q-8 147 20 244q41 168 45 180q10 37 35 62q18 18 21 26q10 20 29.5 38t28.5 23t46 19l35 17q10 4 45 0t53 2q68 23 103 -41q6 -10 15 -29.5t13 -26.5q10 -23 23 -24l10 61l12 56q8 6 31 6h10q6 16 28.5 22t29.5 17q10 14 28 6zM303 811q8 -10 33 -2q37 12 115 -14 q12 -4 12 -13q-2 -12 2 -20t14 -18.5t13 -14.5q18 -14 16 -35q-2 -16 12 -28q12 16 23 67q6 45 6 47q4 18 18.5 27.5t32.5 1.5q33 -18 33 -21q2 -6 12 -6q25 2 32 -2t9 -24q14 -51 2 -97q-8 -45 -20.5 -126.5t-18.5 -114.5q-6 -43 -19.5 -144.5t-23.5 -156.5 q-2 -8 -10 -71.5t-18 -96.5q-10 -27 -14.5 -75t-8.5 -69q-45 -197 -49 -213q0 -2 -37 -69q-2 4 -7 13t-8 12t-7.5 5.5t-8.5 -5t-10 -21.5q-10 -10 -33.5 -3t-27.5 19q-27 66 -25 111q2 18 2 48v48q-2 35 29 199l12 71q-8 2 -29 -8q-20 -12 -82 -22q-66 -14 -104 33 q-16 16 -33 8q4 -12 23.5 -27.5t25.5 -28.5q-49 -4 -65 29q-2 2 -5 7t-5 7t-5.5 6.5t-8.5 5.5t-11 1q-23 -2 -31 28q-31 70 -18 142q4 37 10 111.5t10 111.5q6 98 66 209q29 53 78 106q8 8 22.5 23.5t26.5 27t26 19.5q19 12 27 2zM1421 498q0 -10 -6 -31t-4 -33q14 27 10 64 z" glyph-name="q_q.liga" horiz-adv-x="1558" unicode="qq"/><glyph d="M1255 895q-27 -6 -10 -12q35 -8 37 -15q0 -4 -4 -8q-6 -6 -10 -20.5t-15.5 -21.5t-38.5 -9q-27 0 -40 -25q-6 -10 -64 -32q-18 -8 -33.5 -22.5t-34 -34t-28.5 -29.5l-45 -54q-16 -20 -23 -32q-6 -8 -13 -28t-13 -26q-23 -20 -32 -43.5t-14.5 -57.5t-9.5 -46q-2 -6 -2 -21 q-16 -51 -34.5 -146t-30.5 -136q0 -4 -1 -14.5t-3 -14.5l-7 -22q-4 -20 -11 -28.5t-21 -16.5q-4 -2 -15 -33q-12 -29 -18 -33t-37 6q-25 10 -84 57q-25 16 -12 58q18 80 34.5 169t35 197.5t28.5 167.5q6 37 20.5 113t20.5 115q2 10 -2 30q-6 43 39 43q61 -4 80 9 q16 8 30 -11q49 -53 50 -84q0 -14 14 -20q14 16 29.5 29.5t36 28t32.5 24.5q39 35 103 47q111 25 127 8q2 -2 -6 -4q-3 -2 -5 -2zM244 864q53 -35 61 -57q8 -18 4 -41q0 -10 2 -14v-2q2 -4 2 -7q18 12 50 36t38 28q78 53 162 33q53 -14 82 -58q-20 -29 -49 -14q-18 8 -31 -4 q-6 -6 -24.5 -11t-26.5 -18l-14 -10q-94 -33 -148 -117q-6 -10 -14 -33.5t-19 -35.5q-23 -23 -22 -54q-8 -80 -14 -112q-6 -45 -14.5 -127t-12.5 -115q-4 -29 -16 -102q-2 -12 -22.5 -49t-31.5 -46q-31 45 -80 5q-6 -10 -17 -4t-15 6q-4 -2 -4 -9.5v-9.5h-9q-51 59 -34 150 q16 88 28 260q2 47 21 114q18 63 28 154q2 12 8.5 34.5t8.5 33.5q14 68 8 118q-10 14 8 19q6 2 8 0t3.5 -6t3.5 -6q16 8 20 45q6 4 25.5 11t27.5 15q7 8 19 0zM883 772q-31 -86 -31 -205q20 86 33 129q12 49 -2 76zM559 748q27 10 38 5t24 -30q-6 -6 -7 -2q-41 16 -84 -6 q-31 -23 -57 -25q6 10 18.5 17.5t14.5 9.5l14 10q6 2 20.5 10.5t18.5 10.5z" glyph-name="r_r.liga" horiz-adv-x="1204" unicode="rr"/><glyph d="M895 883q23 -4 33 -2q18 0 80 -13q2 -6 -15 -8q-33 -4 -32 -6q0 -4 4 -4q45 -4 57 -10q10 -4 10 6q2 6 -6 12l33 -10q2 -2 13 -9.5t15 -11.5q33 -20 28 -52t-46 -52q-8 -4 -45 -26.5t-61 -26.5q-8 0 -18.5 -6.5t-24 -14.5t-21.5 -12q72 -55 143 -150q8 -12 82 -129 q10 -16 11 -34q6 -74 -9 -113q-2 -6 -14 -40t-20 -50q-41 -76 -195 -123q-117 -39 -209 0q-78 31 -108 113q-8 18 14 41q14 -6 55 -41q6 2 8 11t7 11q12 -6 29.5 -24.5t29.5 -24.5q6 -2 16.5 -7t16.5 -7q33 -6 63 16q68 51 90 90q12 25 13 41q-4 37 -23 78q-6 10 -19.5 49 t-29.5 57q-6 12 -16 23q-59 37 -103 104q-12 -8 -107.5 -67.5t-148.5 -95.5q20 -82 21 -121q0 -53 -21.5 -110.5t-62.5 -88.5q-6 -4 -11 -10q-25 -47 -98 -64q-31 -6 -85 -25.5t-77 -25.5q-109 -27 -186 35q-18 14 -12 45q0 6 3 36t6 43t11 35.5t21 37.5q39 47 67 65 q66 47 117 68q66 29 74 34q-2 4 -24.5 46.5t-45.5 56.5q-8 4 -12 11t-9.5 18.5t-9.5 15.5q-2 4 -37 78q-23 51 -26.5 77.5t14.5 92.5q29 76 92 100q16 6 50 26.5t71 32.5q35 10 39 12.5t15.5 -0.5t35.5 -3q35 10 84 -2q20 -4 35 -21q6 -6 0 -8q-20 -6 -14 -16.5t17 -20.5 t-5 -24q-23 6 -36 6t-32.5 -5.5t-25.5 -5.5q-31 0 -82 -30q-49 -31 -53 -51q-4 -39 28 -84q8 -12 17.5 -25.5t13.5 -17.5q4 -6 9 -14.5t9 -12.5q16 -16 49 -56t40 -49q4 -6 30 3q72 27 90 45q51 45 127 75q-35 55 -39 76q-12 63 15 111q39 63 80 84q10 4 26.5 12t23.5 12 t19.5 9.5t19.5 7.5t16 4t18.5 1t19.5 -3zM1055 813q-4 -14 2 -18q6 -2 12 4q2 10 -14 14zM160 727q-2 -6 -10.5 -22.5t-8.5 -24.5t11 -31q0 10 7 27.5t8 26t-7 24.5zM827 565q-2 2 -5 1t-5 -3q-6 -6 0 -16q18 -14 43 -51q6 -8 23.5 -23.5t23.5 -23.5q8 -12 21 -3q4 8 0 19 q-10 18 -26.5 34.5t-40.5 37t-34 28.5zM606 195q10 6 21 -5q10 -16 4 -28q-18 -2 -25 8q-8 17 0 25z" glyph-name="s_s.liga" horiz-adv-x="1210" unicode="ss"/><glyph d="M717 1243q-94 53 -6 154q35 41 96 51q18 2 24.5 -4t4.5 -23q-6 -16 16 -39q59 -63 -8 -112q-6 -4 -20.5 -16.5t-27 -17.5t-26.5 -3q-6 8 -23.5 7t-29.5 3zM1014 223q43 29 67 8q-23 -25 -57 -49q-51 -35 -76 -67q-14 -20 -41 -23q-4 0 -41 -24q-6 -4 -20.5 -10.5 t-20.5 -12.5q-16 -20 -26 -27q-8 -6 -39 -16l-41 -12q-12 -6 -29 -6q-2 0 -8 1t-10 1q-4 -2 -11.5 -7.5t-11.5 -7.5q-10 -2 -22 11q-16 16 -31 18q-4 2 -13.5 7t-13.5 6t-16 -5q-8 -4 -25 12q-23 29 -22 99q-59 -45 -105 -88q-10 -10 -19 -15.5t-14.5 -7.5t-17.5 -5t-20 -7 q-18 -4 -31 -14q-59 -43 -135 -37q-4 0 -11.5 2t-12.5 2t-13 -6q-6 -4 -16 10q-8 33 -15 49q-4 20 -18 14q-8 -4 -12 7q-33 57 -35 122q2 74 20 179q8 43 23.5 145t25.5 158q12 49 33 149.5t25 114.5q6 33 2 43q-70 -14 -99 -4q-6 4 -4 8q10 0 41 7t43 9q-23 4 -33 4 t-35.5 -4t-31.5 -4q-33 0 -42 8.5t-5 34.5q20 2 78.5 12.5t83.5 12.5q10 0 11 2t3 14q10 37 10 70q2 29 27 94q6 4 6 -6v-14q-2 -35 4 -45q18 33 23 94q4 41 36 59q51 -31 64 -123q4 -27 4 -137q25 2 60.5 4t44.5 2q49 6 110 6q18 0 86 9.5t84 9.5q6 0 45 5t49.5 1t51 2 t43.5 6q39 0 65 -20q14 -12 -4 -21q-10 -4 16 -18q12 -6 15 -11q-66 0 -82 -18q-4 -6 2 -10t-17 -6q-8 -2 -36 -4q-18 -2 -27 -2q-2 0 -23.5 2t-55.5 3t-93 -3q-55 -4 -100 -5q-84 -4 -119 -8q-59 -12 -88 -8q-23 2 -28 -3t-9 -30q-6 -41 -10.5 -121.5t-8.5 -113.5 q-14 -147 -22 -189q-6 -33 -9 -69.5t-5.5 -81.5t-4.5 -70q-2 -23 -4 -65.5t-4 -63.5q0 -33 37 -65q8 -8 21 -2l45 20q20 10 110 74q4 4 9.5 7t11.5 6l10 5q14 86 20 119q27 139 41 199q27 92 35 172q0 16 10.5 58t8.5 67q2 16 30 39q33 23 74 26q55 6 62 -59q0 -14 6 -19 q18 12 23 10.5t3 -22.5q0 -16 -8 -31q-12 -31 -12 -61q-2 -51 -31 -258q-6 -55 -10 -158q-2 -18 -3 -55t-3 -55q0 -10 -2 -27q-4 -23 -1 -29t25 0q84 37 117 58q78 47 86 49q25 12 33 20zM215 74q4 -14 25 -17q8 -2 8 4q0 2 -6 11q-8 10 -17.5 29.5t-14.5 32.5t-9 13 q-2 -4 -1 -15t3 -30l2 -16q-2 -4 4 -7t6 -5z" glyph-name="t_i.liga" horiz-adv-x="942" unicode="ti"/><glyph d="M737 1243q-94 53 -6 154q35 41 96 51q18 2 24.5 -4t4.5 -23q-6 -16 16 -39q59 -63 -8 -112q-6 -4 -20.5 -16.5t-26.5 -17.5t-26 -3q-6 8 -24 7t-30 3zM1604 1061q-8 -4 8 -10q20 -8 24 -13q-10 -14 -23.5 -23t-30.5 -14.5t-28.5 -8.5t-33 -5t-29.5 -4h-28.5t-37.5 -2 q-51 -10 -69 -8q-33 4 -33 -17q-2 -57 -27 -282q-14 -147 -22 -189q-6 -33 -9 -69.5t-5.5 -81.5t-4.5 -70q0 -8 -6 -121q0 -37 37 -65q2 -2 21 -2q4 0 39.5 -2t42.5 6q33 16 52 31.5t44 25.5q6 4 6 -4q-2 -35 -47 -78q-14 -14 -31 -24q-25 -14 -67 -31q-18 -4 -31 -14 q-82 -27 -168 -21q-4 0 -11.5 2t-12.5 2t-13 -6q-8 -8 -14 10q-2 8 -8.5 14.5t-10.5 14.5q-4 20 -18 14q-8 -4 -12 7q-16 31 -17 149q-6 -4 -25.5 -24.5t-37.5 -30.5q-49 -35 -56 -35q-6 -6 -23.5 -15.5t-21.5 -13.5l-47 -35q-8 -6 -39 -16l-41 -12q-12 -6 -28 -6 q-2 0 -8.5 1t-10.5 1q-4 -2 -11 -7.5t-11 -7.5q-10 -2 -23 11q-16 16 -31 18q-4 2 -13 7t-13 6t-17 -5q-8 -4 -24 12q-23 29 -23 101q-33 -18 -67.5 -48t-57.5 -42q-45 -25 -71 -35q-18 -4 -31 -14q-59 -43 -135 -37q-4 0 -11.5 2t-12.5 2t-13 -6q-6 -4 -16 10q-8 33 -15 49 q-4 20 -18 14q-8 -4 -12 7q-33 57 -35 122q2 74 20 179q8 43 23.5 145t25.5 158q12 49 33 149.5t25 114.5q6 33 2 43q-53 -12 -97 -2q-6 4 -6 6q10 0 41 7t43 9q-23 4 -33 4t-35.5 -4t-31.5 -4q-33 0 -42 8.5t-5 34.5q20 2 78.5 12.5t83.5 12.5q10 0 11 2t3 14q10 37 10 70 q2 29 27 94q4 -8 4 -30.5t6 -34.5q18 33 23 94q4 41 36 59q51 -31 64 -123q4 -27 4 -137q18 2 54 2t51 4q4 2 20 4t46 4t65 -2q20 -2 88.5 8.5t81.5 10.5q6 0 45 5t49 1q8 -2 82.5 2t153.5 9t83 5h2q2 4 2 8l19 68q2 16 28 105l37 40q4 12 9.5 6t20.5 -15t26 -3 q33 -18 39 -28.5t12 -47.5q4 -23 -6.5 -67.5t-10.5 -65.5q18 2 33 2t24 1t19 3l62 5q-2 -2 -15 -5q4 -2 18.5 0t39 5.5t30.5 3.5q45 0 62 -19q6 -6 -10 -14zM1147 938q0 4 3 16.5t1 20.5l-70 -6q-297 0 -383 -6q-55 -4 -100 -5q-8 0 -54 -5t-85 -3q-2 0 -40 -5t-48 -3 q-23 2 -28 -3t-9 -30q-6 -41 -10.5 -121.5t-8.5 -113.5q-14 -147 -22 -189q-6 -33 -9 -69.5t-5.5 -81.5t-4.5 -70q-2 -23 -4 -65.5t-4 -63.5q0 -33 37 -65q8 -8 21 -2l45 20q29 14 66.5 38t64.5 36l30 16q10 74 21 121q27 139 41 199q27 92 35 172q0 16 10 58t8 67 q2 16 31 39q33 23 74 26q55 6 61 -59q0 -14 6 -19q18 12 23.5 10.5t3.5 -22.5q0 -16 -8 -31q-12 -31 -13 -61q-2 -51 -30 -258q-6 -55 -11 -158q-2 -18 -3 -55t-3 -55q0 -10 -2 -27q-4 -23 -1 -29t26 0q78 33 114 58q78 47 86 49l31 18v37q0 27 5 53.5t12.5 58t11.5 52.5 q2 16 25.5 133t27.5 176q2 62 35 207zM1235 328q0 106 -6 106q-2 0 -7 -47t-5 -55q-2 -8 -2.5 -32t4.5 -24q2 0 6 11.5t7 24t3 16.5zM201 49q4 -2 6 1t2 7q0 8 -7 37t-14 29q-2 -4 -1 -15.5t1 -29.5l2 -17q-1 -12 11 -12z" glyph-name="t_i_t.liga" horiz-adv-x="1501" unicode="tit"/><glyph d="M872 1352q41 -6 50 -47q20 -143 18 -199q-2 -27 4 -31t35 2q33 4 51 4q131 4 182 -6q33 -8 37 -24q2 -4 2 -9q-8 -2 -27.5 -6t-27.5 -4h-29q-37 8 -71 -14q-27 -16 -54 -17q-25 0 -69 -8q-43 -8 -45 -49q-2 -31 -12.5 -90t-24.5 -129t-19 -90q-20 -96 -22 -119 q-2 -25 -13.5 -77t-13.5 -79q0 -8 -1 -20t-1 -18q2 -84 -12 -160q-8 -14 -4 -32.5t6 -25t13.5 -21.5t15.5 -26q12 -18 47 -6q76 25 84 31q111 59 121 65q12 6 10 -10q-2 -39 -35 -69q-6 -6 -12 -9q-27 -8 -51 -26q-4 -2 -33 -17.5t-39 -23.5q-29 -23 -47.5 -28t-61.5 -5 q-29 4 -43 2q-45 -4 -102 41q-39 35 -47 45q-20 20 -21 90q0 33 8 94q4 33 13.5 98.5t13.5 98.5q4 29 0 37q-4 4 -2 10q2 23 5 87.5t8.5 117.5t17.5 88q10 27 20.5 93.5t12.5 78.5q4 10 -1.5 16.5t-15.5 4.5q-80 0 -84 8q6 8 44 13t42 9q-12 12 -53 4q-102 -25 -121 -24 q-12 0 -36.5 -8.5t-41.5 -6.5q-29 0 -28 -28q-10 -123 -52 -328q-10 -63 -23 -183t-22 -173q-2 -27 -8 -168q0 -74 -47 -109q-23 -18 -39 -49q-20 2 -25.5 1t-10.5 -19.5t-7 -22.5q-23 20 -32 48t-8 55.5t1 58.5v166q-23 -37 -18 -92q4 -82 -15 -164q-23 4 -18 22 q6 20 -4 92q-4 59 16 183q4 16 6.5 51t6.5 51q6 41 9 135.5t13 147.5q33 158 41 182q18 70 19 111q-20 2 -55.5 -5.5t-47.5 -7.5t-26.5 -2t-19.5 -2t-16.5 3t-25.5 10q-4 2 -10 24.5t-4 26.5q23 23 41 22.5t40.5 3.5t43.5 2q33 -2 65 9q25 6 30 11t9 25q20 100 23 121 q2 18 17 47t17 35q12 25 33 8q6 -6 10 -14q8 -49 31 -55q39 -12 49.5 -25.5t10.5 -48.5t4 -43q2 -4 4 -12l2 -8l4 -5q4 -4 9 -2t16 0q66 6 114 7q23 0 52.5 5t52.5 3q29 0 53 8q10 18 10 55q0 55 19 51q12 -2 20 -38q6 18 10 53q0 27 19 45q31 33 41 98q2 20 7 23.5t25 -0.5 zM1188 1020q-18 -10 -24.5 -11t-28.5 7q22 10 53 4zM1241 1016q-16 -10 -33 -2q2 14 33 2zM780 256q-25 -35 -27.5 -80t3.5 -80q2 18 13 73.5t11 86.5z" glyph-name="t_t.liga" horiz-adv-x="1114" unicode="tt"/><glyph d="M1864 227q4 -8 0 -15t-15.5 -14.5t-15.5 -11.5q-41 -41 -49 -45q-23 -14 -48.5 -33.5t-47.5 -33.5q-63 -47 -115 -66q-94 -29 -133 -16h-4q-27 -16 -45 14q-2 4 -5 6q-25 33 -28 54q-4 16 -17 24q-10 -12 -34.5 -24.5t-36.5 -20.5q-6 -4 -14.5 -8t-12.5 -6 q-35 -35 -92 -64q-47 -20 -133 2q-2 0 -7 2t-9.5 3t-6.5 1q-14 -4 -25.5 2.5t-24.5 21.5t-17 19q-14 12 -19 66v16q-10 -6 -24.5 -11t-28.5 -13t-31 -25q-4 -2 -13 -8t-16.5 -10t-13.5 -4q-12 0 -16 -6q-14 -18 -59 -35q-16 -8 -29 -19q-18 -14 -80 -14q-18 8 -46 17.5 t-42 15.5q-27 14 -39 35q-29 41 -25 94q0 6 -2 10q-8 0 -16 -4t-12 -8t-11.5 -12.5t-11.5 -12.5q-53 -53 -82 -78q-55 -49 -131 -37q-59 10 -104 60q-14 14 -19 47q-12 152 21 285q6 27 0 51q-2 47 -1 61.5t11 62.5t12 62q4 23 22.5 88.5t18.5 102.5q4 47 33 47q10 0 43 3 t47 1q31 -2 60 -43q23 -29 26.5 -71t-0.5 -64.5t-16 -77.5q-27 -125 -29 -146q-2 -23 -12 -67.5t-12 -67.5q-4 -61 -11 -90q-8 -33 29 -69q8 -10 35.5 -5t46.5 21q37 33 78 76q12 12 16 39q12 59 25.5 167.5t21.5 151.5q33 180 33 211q4 18 18 18q18 0 51 12.5t46.5 10.5 t40.5 -23q4 2 17 12.5t24 6.5q8 -4 4 -39q-2 -8 -8.5 -48t-6.5 -63q-2 0 0 -30v-29q4 -63 -14 -102q-6 -12 -10 -58q-6 -41 -19.5 -118.5t-19.5 -118.5q-4 -23 -13.5 -71t-11.5 -73q-6 -37 5.5 -54t39.5 -3q20 4 25 8q61 41 184 111v6q10 6 12.5 13t0.5 20.5t-2 17.5 q0 6 2 25.5t0 31.5q0 43 14 105q16 61 67 379q2 14 0 41.5t3 40.5q4 23 13 28.5t32 3.5q49 -6 77 -49q2 2 4.5 7.5t4.5 7.5q35 29 49 -4q4 -6 6 -18.5t8 -18.5q8 -8 2 -31q-10 -74 -10 -82t-8 -33q-2 -35 -18.5 -116.5t-18.5 -112.5q-2 -27 -14.5 -109t-9.5 -136t30 -95 q18 -23 41 -14q16 6 33.5 16t30 16t31 20.5t28.5 24.5l12 11q25 27 25 104q0 53 20 164q2 10 19 113q10 80 34 188q6 29 7 55q-2 18 14 35q14 10 39 -6q4 -2 10 -8t10 -8q20 12 49 8t39 -23q33 -55 27 -86q-14 -61 -21 -139q-2 -31 -7 -63.5t-14 -75.5t-13 -64 q-10 -47 -11 -141q0 -16 4.5 -32.5t12.5 -36t12 -31.5q6 -10 27 -7q33 8 80 33q39 33 120 86q40 24 54 6zM1327 156l-14 -11q10 11 14 11zM981 41q10 -35 53 -21q-8 14 -42 41t-40 54q-14 -23 4 -41q23 -27 25 -33zM186 35q25 -8 60 14q-18 8 -25.5 7t-34.5 -21z" glyph-name="u_u.liga" horiz-adv-x="1726" unicode="uu"/><glyph d="M1339 940q14 -4 7 -18q-2 -8 -17 -41q-10 -23 -20.5 -66t-18.5 -61q-49 -121 -61 -150q-16 -39 -23 -72q-4 -31 -55 -151l-12 -33q-39 -123 -99 -250q-4 -8 -7 -16t-6 -17.5t-5 -15.5l-2 -8q-4 -8 -6 -11t-6 -7.5t-9.5 -6.5t-13.5 0q-4 0 -6 -2t-4 -6t-4 -6 q-10 -10 -53.5 -18.5t-51.5 -1.5q-25 16 -28 34q-2 8 -13.5 51.5t-21.5 65.5q-4 12 -4 21q-2 47 -18.5 151.5t-18.5 161.5q-2 31 -14.5 84t-14.5 76l-16 164q0 12 4 33.5t4 29.5q27 -6 76 -2q31 0 59 -37q37 -45 35 -94q-2 -27 0 -82t0 -84q0 -12 2 -14q10 -25 33 -109 q14 10 10 25q0 16 -25 323v31q0 18 15 20q18 4 20 -12q8 -27 11 -47q2 -27 2 -93.5t4 -100.5q2 -29 15 -120t15 -143q4 -23 -2 -41q-10 -23 17 -61q70 186 71 193q16 53 57.5 150t55.5 136q8 27 33.5 79t34.5 79q6 16 26.5 42t26.5 42q6 10 22 6zM76 889q43 10 64.5 9 t60.5 -17q12 -4 18 -21q0 -4 5 -23.5t7 -29.5q6 8 8.5 25.5t6.5 25.5q27 -14 39 -76q2 -10 18 -149q2 -27 9 -74t11.5 -86t4.5 -76q-2 -55 6 -166q10 -2 16 15q49 82 66 143q31 94 131 324q29 61 39 92q4 12 37 59q16 25 43 15q14 -6 -9 -52q-18 -51 -63 -153l-10 -25 q-4 -23 -37 -98q-8 -18 -23.5 -54t-23.5 -53q-14 -29 -27.5 -61.5t-29 -72.5t-23.5 -62q-14 -45 -17 -60q-6 -20 -8 -26q-23 -27 -40 -86.5t-33 -81.5q-4 -2 -5 -8q-2 -6 0 -13.5t-1 -13.5t-11 -10q-10 -2 -14 0t-10.5 7t-10.5 7q-39 12 -59 2q-10 -8 -26.5 3.5t-18.5 27.5 q-10 66 -14 82q-2 8 7 22.5t9 22.5q12 -12 20.5 -39t12.5 -33q-8 92 -41 117q-39 31 -39 90q0 96 -19 240q-6 49 -11 141t-9 127q0 39 -19 55q-20 16 -4 53q1 11 17 15zM918 881q18 4 18 -11q2 -8 -8 -12q-14 -2 -19 12q1 11 9 11z" glyph-name="v_v.liga" horiz-adv-x="1261" unicode="vv"/><glyph d="M983 928q14 -4 8 -21q-4 -8 -11 -28.5t-11 -30.5q-23 -49 -54 -168q-18 -66 -88 -219q-51 -113 -75 -193q-12 -33 -41 -93t-35 -73q-6 -16 -25.5 -46.5t-27.5 -49.5q-2 -10 -9.5 -14t-33.5 -19q-47 23 -76 72q-6 -4 -6 -11t-4 -9q-53 27 -62 84q-4 25 2 143 q4 37 12.5 109.5t10.5 109.5q4 20 -4 27q-18 -18 -29 -47q-8 -20 -61.5 -132t-71.5 -176q-6 -23 -27.5 -69.5t-27.5 -73.5q-4 -16 -15 -25q-18 8 -24.5 6.5t-22.5 -18.5q-18 -20 -27.5 -22t-31.5 10q-49 20 -56 90q-2 20 -2 45t1 53.5t1 44.5q4 106 2 127q-8 55 -8 252 q-6 223 -6 225q0 25 2 27q8 -4 10 -21.5t9 -21.5q4 8 1 26.5t1 28.5q14 -6 35.5 5.5t31.5 11.5q6 16 16.5 21t30 4t21.5 -1q25 2 41 -14t16 -43q0 -70 2 -82q6 -43 -2 -104q-4 -29 -4 -84.5t-2 -81.5q-8 -106 -4 -160v-41q10 10 33 53q25 55 77 166q84 166 93 189 q12 23 12 45v53q4 66 61 49q49 -10 82 -31q16 -16 19 -20q37 -61 37 -162q4 -160 -19 -319q-4 -16 4 -21q8 6 19 31q86 164 129 244q6 12 26 67q10 31 36 89.5t36 84.5q2 6 9 27.5t14 34.5l2 14q2 12 7 16t17 4q6 8 6 13q8 20 9 26q8 19 22 17zM1090 866q35 -4 45 -30 q0 -4 4 -14.5t4 -16.5q51 39 63 -19q6 -27 6 -108q0 -39 6.5 -131t4.5 -144q-2 -20 -2 -63v-66v-8t4 -8q8 0 12 4t5 7t3 10.5t2 9.5q14 43 35 129q10 31 35.5 89t36.5 85q8 25 30.5 72t30.5 71q4 14 17.5 23.5t25.5 5.5q20 -6 51 6q35 18 72 -4q14 -8 29 -8q27 -2 30 -33 q2 -18 10.5 -84t10.5 -102q0 -72 10 -164v-144q0 -29 6 -36q10 41 35 114l135 432q10 31 22.5 39t45.5 8q-6 -18 -16.5 -53t-16.5 -51q-43 -127 -113 -381q-4 -16 -14 -48t-14 -44q-4 -16 -16.5 -54t-14.5 -59q-8 -47 -51 -116q-6 -8 -19.5 -14.5t-15.5 -12.5q-23 23 -39 20 q-31 -6 -51 29l-8 19q-6 10 -16.5 32.5t-18.5 32.5q-16 16 -21 57q0 25 -8 70q-8 33 -8 74q4 98 4 145q-2 12 8 64q2 10 -8 27.5t-10 27.5q0 8 -1 20.5t-1 20.5q0 31 -8 37q-10 -6 -17 -35q-14 -59 -94 -258q-2 -8 -18.5 -52t-24.5 -69q-10 -31 -33.5 -85t-27.5 -66 q-8 -16 -14.5 -19.5t-26.5 -1.5q-4 -2 -1 -9t1 -11q-18 -27 -31 -23q-2 2 -13.5 4t-18.5 7t-7 16q0 4 -1 12t-1 13t-3 11.5t-7 10.5q-14 -8 -17.5 -27.5t-9.5 -25.5q-18 0 -26 26q-45 147 -50 232q-2 47 -1 71.5t4.5 71.5t3.5 70q2 49 7 143t7 143q0 20 2 31q2 12 8 20.5 t19 6.5q23 -4 22 16q3 12 21 12zM1917 854q4 -2 4 -8t2 -8q10 -18 -4 -25q-25 -10 -37 8q-10 10 6 15q17 6 29 18zM1499 719q-4 -4 -4 -6q0 -33 6 -33l2 6q0 6 1 13.5t1 9.5q0 10 -6 10zM1081 299q-2 0 -10 -4q4 -6 -4 -15.5t-8 -13.5q2 -33 22 -94q12 23 11.5 57.5 t1.5 57.5q1 8 -13 12z" glyph-name="w_w.liga" horiz-adv-x="1859" unicode="ww"/><glyph d="M795 932q2 8 15 7t15 -9q4 -6 8.5 -20.5t6.5 -20.5q2 2 10 11t14 11t13 0q4 -2 31.5 -5t35.5 -15q2 -2 23 -29l8 -16t12 -20.5t17 -12.5q8 -2 18 -41l47 -154q51 59 131 140q12 12 34.5 32.5t31.5 28.5q23 18 43 10q-4 -4 -1 -24.5t-44 -56.5q-29 -25 -54.5 -54.5 t-58.5 -71.5t-45 -57q-16 -20 -14 -43q4 -14 10 -42.5t8 -35.5q4 -18 13.5 -57t13.5 -59q6 -27 21.5 -76t21.5 -70q4 -16 10 -48t10 -48q-29 -8 -33 -14t-4 -27q0 -6 -1 -12t-4 -14.5t-5 -14.5q-35 23 -66 39q-27 16 -38 8q-10 -4 -23 8q-41 29 -57 88q-6 23 -16.5 66 t-16.5 63q-4 18 -14 35q-18 -14 -46 -44.5t-38 -39.5q-82 -72 -156 -190q-23 -31 -37 -31q-6 0 -16 4q-6 4 -29 -18q-12 -20 -31 -12q-4 4 -7 22t3 23l23 22q2 2 5 4t6 5t3 5q4 12 12.5 25.5t14.5 20t20.5 19.5t18.5 17l32 33q57 74 177 217q10 12 10 43q-12 66 -82 273 q-8 25 -13.5 53.5t-9.5 64t-8 56.5q-2 10 9.5 25.5t11.5 23.5zM711 852q14 -16 0 -37q-119 -170 -217 -264q-14 -12 -80 -90q-18 -18 -6 -35q6 -27 6 -29q-8 -51 12 -108q10 -27 15 -81t10 -69q4 -35 14 -51q4 -8 9 -25.5t7 -21.5q4 -14 -10 -31.5t-27 -17.5q0 -8 -7 -14.5 t-15 -6.5t-16 2q-4 0 -37 25q-12 10 -13 -6q0 -10 6 -31q-2 -2 -20 4q-59 23 -84 96q-4 10 -26.5 74t-30.5 98q-6 2 -25 -12q-16 -16 -56 -54t-68.5 -67.5t-51.5 -58.5q-10 -12 -21.5 -18.5t-34 -9.5t-24.5 -3q14 16 35.5 55t36.5 56q23 29 50.5 57.5t63 64.5t52.5 52 q23 23 18 49q-45 156 -51 283l-12 141q0 37 19.5 56.5t53.5 15.5q96 -12 133 -95q41 -92 46 -112l18 -82l6 -2q41 53 91 102t125 110.5t106 90.5zM883 594q0 -4 3 -17.5t5 -23.5t2 -12q-2 -4 4 -11q8 -8 8 -12l4 -35l6 13q6 14 9 22q4 23 -9 31q-4 4 -10 17.5t-12 22.5 t-10 5z" glyph-name="x_x.liga" horiz-adv-x="1247" unicode="xx"/><glyph d="M129 842q39 -20 55 -17q6 2 9.5 -2t1.5 -10q0 -14 14 -20q57 45 78 -17q49 -158 55 -323q0 -27 14 -113q2 -6 5.5 -37t11.5 -49q8 27 18 51q55 180 113 293q27 47 76 176q12 35 20 41q18 0 18 -12q0 -14 4.5 -40t2.5 -40q-14 -129 -82 -260q-49 -94 -88 -232 q-14 -49 -54 -129q-14 -25 -24 -65q-12 -45 -47 -121q-12 -25 -27.5 -69t-23.5 -62q-4 -20 -13 -29q-29 -33 -47 -94q-27 -72 -67 -108q-2 -4 -7.5 -13.5t-9.5 -15.5q-10 -20 -31 -21q-6 0 -9 3.5t-3 11.5t-2 10q-10 29 6 63q10 23 19.5 47.5t19.5 55.5t17 47q31 86 104 254 q16 37 -10 49q-12 -27 -33 -35q-35 45 -43 92q-4 25 -23.5 114t-30 147.5t-12.5 117.5q-2 25 -12 71t-12 62q-20 139 -17 172q2 4 8.5 2t8.5 0q2 4 0 12.5t0 12.5q6 49 49 29zM782 821q35 -4 58 -2q12 0 20 -8q53 -96 58 -141q2 -31 11 -84.5t11 -69.5q18 -121 18 -213 q0 -29 5 -43q8 -2 0 -96q131 379 161 444q25 53 27 82l2 6q2 6 4 9q10 8 17.5 16t13.5 24.5t10 22.5q2 -6 9 -19.5t9.5 -18.5t5.5 -19.5t-1 -22.5q-14 -61 -34 -123.5t-53.5 -159t-41.5 -122.5q-47 -145 -60 -189q-8 -23 -31 -74q-10 -18 -26.5 -66t-32.5 -71 q-8 -10 -14 -35.5t-8 -29.5q-6 -16 -29 -74.5t-31 -91.5l-8 -33q-8 -18 -23 -16q-4 0 -7 -2t-7 -7.5t-6 -7.5q-31 -23 -49 -12q-20 8 -21 29q2 14 29 114q6 18 26.5 63.5t26.5 69.5q18 66 17 76q0 2 5 18.5t-3 24.5l-4 6q-2 8 -6.5 17.5t-6.5 13.5q-4 10 -20.5 50t-18.5 65 q-8 166 -53 303q-20 63 -41 194q-4 31 19 123q-14 35 13.5 42.5t55.5 -1.5q2 4 0 18.5t4 20.5z" glyph-name="y_y.liga" horiz-adv-x="1234" unicode="yy"/><glyph d="M1262 868q27 2 37 2t34.5 -7t32.5 -9q16 -4 8 -25q-6 -23 -18 -45q-43 -59 -114 -172.5t-99 -156.5q-35 -51 -117 -146q-53 -66 -68 -92q-47 -74 -67 -98q47 8 55 10q92 10 166 -16q23 -10 64 -11q49 -6 63 -53q-57 -14 -145 -10q-59 0 -80 -6t-41 -2q-14 4 -69.5 3 t-69.5 -1q-29 0 -43 -25q-35 -55 -72 -63q-2 4 -8 17t-8.5 20.5t-5.5 18.5t-1 22.5t6 23.5q-4 8 -14 3t-14 -5q-29 25 -2 68q8 14 35.5 64t48 82t45.5 60q2 2 14 21q4 8 201 287q23 27 28 41q8 14 30 34.5t30 30.5q2 4 8 13.5t8 17.5q-20 14 -51 4q-27 -6 -52.5 -8t-64.5 0 t-51 2h-4q-88 23 -131 14q-2 12 1 21.5t12 21.5t12 19q0 4 12 4q78 4 117 2q55 -2 213 12q123 10 129 12zM559 838q14 2 42 -2.5t40 -4.5q6 0 7 -4t1 -8t4 -6q16 -10 16.5 -24.5t-5 -21.5t-19.5 -28q0 -2 -8 -10q-6 -12 -23.5 -33.5t-29 -42t-17.5 -41t-16 -42t-25.5 -49 t-23.5 -42.5q-55 -111 -111 -184q-12 -16 -23.5 -35.5t-22.5 -45.5t-17 -38q-4 -6 -11.5 -20.5t-11.5 -22.5t-13 -19.5t-22 -19.5q51 -2 154 10q96 14 170 -20q-4 -6 -24.5 -20.5t-22.5 -28.5l-8 -4q-82 -25 -117 -21q-18 4 -82 3t-82 -1q-49 0 -139 -20.5t-131 -22.5 q-53 -2 -66 58q10 6 30.5 7t29.5 3q2 4 4 20.5t6 24.5q4 10 -7.5 16t-9.5 17q305 399 441 657q-8 6 -27 2q-80 -18 -168 -8q-18 4 -31 0q-23 -10 -38 2q-14 12 -51.5 23.5t-51.5 17.5q76 23 105 22q49 -2 149 -2q125 0 189 2q30 1 67 7zM1241 811h-14t-16.5 -2t-10.5 -8 q-43 -51 -82 -129q23 16 43.5 39.5t44 54.5t35.5 45zM459 772q0 -20 18 -14q8 2 8 12q-10 12 -26 2zM287 203l-8 2q-6 -10 -34 -51t-44 -64q8 -8 16 -4q58 84 70 117z" glyph-name="z_z.liga" horiz-adv-x="1345" unicode="zz"/><glyph d="M0 0v1434h1024v-1434h-1024zM512 809l348 522h-696zM573 717l349 -522v1044zM164 102h696l-348 523zM102 1239v-1044l349 522z" glyph-name=".notdef" horiz-adv-x="1024"/><glyph glyph-name="glyph1" horiz-adv-x="0"/><glyph glyph-name="glyph2" horiz-adv-x="681"/><glyph glyph-name="space" horiz-adv-x="430" unicode=" "/><glyph d="M412 1475q68 -12 71 -70q4 -133 -26 -217q-35 -98 -58 -232q-2 -20 -10 -73.5t-10 -81.5l-12 -43q-27 -76 -33 -160q-2 -51 -45 -168q-12 -47 -31 -70q-12 -16 -22 -12q-4 2 -7.5 -2t-7.5 -10t-8 -10q-12 -10 -16 14q-2 12 0 22q2 4 0 8.5t-7 2.5q-14 -6 -16 -3t-2 13v2 q-2 25 -14 45q-16 33 -2 96q0 10 4 17q4 70 -6 88q-6 23 -6.5 31t5 30.5t7.5 32.5q4 35 10 106.5t10 106.5q10 106 8 120.5t2 39.5l11 108q2 16 12 64.5t12 75.5q0 16 24.5 35.5t31.5 31.5q4 10 12 14.5t15 1t7 -11.5q2 -45 15 -43q16 0 16 64q3 45 66 37zM188 186 q16 8 29 -2q31 -18 70 -69q8 -8 4 -17q-8 -12 -8 -41q4 -25 -25 -37q-12 -4 -35.5 -17t-43 -19.5t-36.5 0.5q-8 0 -21 -2t-22.5 -2t-15.5 6t-7 15t0 20.5t1 17.5q0 10 -4 31q-4 39 28 61q47 37 86 55z" glyph-name="exclam" horiz-adv-x="409" unicode="!"/><glyph d="M315 1462q12 -6 38 -8t30 -2q57 -8 51 -74q-2 -25 -19.5 -69.5t-19.5 -48.5l-41 -138l-2 -12q0 -43 -37 -74q-18 -18 -26 0q-2 6 -17 17q-59 74 -43 164q4 35 9 129q0 6 -5.5 19t-3.5 21q10 29 25 35q8 2 11 8.5t6 14.5t5 10q16 14 19.5 15t19.5 -7zM645 1460 q23 -4 27 -14q8 -12 26 -14q55 -8 35 -60q-6 -18 -21.5 -62t-21.5 -67q-25 -90 -33 -115q-6 -25 -28 -36q-16 -16 -19 -29q0 -8 -18 -37q-14 -16 -33 -4q-10 6 -16 14t-10.5 18.5l-7.5 17.5t-4 20.5t-1 18.5v20.5v17.5q4 43 8 111.5t4 82.5q0 10 2.5 31t2.5 33q2 8 11 16.5 t11 12.5q2 6 6 9t7 2t8.5 -3t7.5 -2q18 -8 24 12q6 12 19 6h14z" glyph-name="quotedbl" horiz-adv-x="651" unicode="&quot;"/><glyph d="M606 1473q49 -6 49 -60q0 -8 2 -14q4 6 5.5 18.5t7.5 18.5q27 -10 36 -37t-1.5 -55.5t-35 -104.5t-40.5 -117q-14 -33 -15 -59q18 -2 39 0t170 2q25 2 27 20q2 12 7 24.5t12.5 28t11.5 25.5q10 27 25.5 80t30.5 94t38 76q4 -18 -6 -96q6 0 10 6q0 2 2 4q4 14 22.5 59.5 t24.5 71.5q2 12 11.5 15.5t17.5 -5.5q20 -20 35 -28q10 -6 10 -39q0 -25 -37 -158l-16 -72q-4 -10 -17.5 -47t-17.5 -57q14 2 40.5 -2t41.5 -2q10 0 39 -4q6 0 7 -4t0 -9.5t1 -9.5q2 -2 -10 -8q-31 -10 -33 -37q-4 -10 -10 -12q-10 -2 -31 -8t-33 -8q-45 -12 -47 -13 q-8 0 -12 -16q0 -10 -23 -64q-35 -84 -51 -139q-29 -80 -37 -106q4 2 66 8q27 0 47 -12q8 -2 8 -19q-6 -14 -16 -18q-4 0 -21 -4q4 -4 29 -5q31 -4 12 -30l-6 -13q0 -8 -1 -12t-7 -6t-7.5 -2h-11.5q-18 0 -28 -10q-6 -6 -23 -6q-18 4 -80 -7q-8 -2 -10 -8q-4 -20 -19.5 -57 t-19.5 -55q-12 -51 -35 -109q-8 -20 -17 -57t-14 -49q-2 -6 -36 -95q-8 -12 -23.5 -37.5t-24.5 -39.5q-6 -8 -14 -16.5t-20.5 -18.5t-18.5 -15q-2 2 -1 7.5t-3 5.5q-14 -10 -19 -12.5t-8.5 2t-7.5 20.5q-6 14 -20 31q-2 -2 -9.5 -12.5t-9.5 -16.5q-12 -12 -18 -10 q-8 2 -2 18l18 37q-25 0 -18 31q0 29 8 56.5t24.5 68.5t20.5 53q8 20 24.5 57t29 68t20.5 59q0 10 11 35t9 37q-82 -18 -135 -16q-14 0 -43.5 -4.5t-38.5 -4.5q-18 0 -18 -20q0 -12 -25 -72q-6 -14 -20 -69q-31 -102 -35 -123l-25 -111q-25 -70 -71 -106q-8 -8 -15 4 q-8 18 -6 43q-23 -8 -26.5 -6t-5.5 22q-2 8 -6.5 23.5t-6.5 28t0 24.5q14 78 23 102l35 99q8 31 47 143q-14 6 -37 -2q-16 -6 -82 -6q-16 0 -29.5 16.5t-9.5 32.5q4 29 31 29q20 2 28 24q8 12 21 23q-2 2 -6 4q-8 6 -4 12q4 8 20 8q2 0 10.5 2t12.5 0t9 -1t3 12q-2 2 2 3 t8 1q41 0 62 -4q12 0 12 10q8 23 29.5 76t36 93t22.5 77q12 41 20 59q4 12 -8 12q-41 2 -86 -10q-18 -4 -45 14q-8 12 4 19q12 10 10 26q-12 43 17 70q4 4 4 18q53 8 82 5q10 0 28.5 2t28.5 2q12 -2 21 16q10 37 78 215q10 23 23 68t22 67q2 6 3 15.5t3 17.5t6 14q4 11 14 9 z" glyph-name="numbersign" horiz-adv-x="1112" unicode="#"/><glyph d="M492 1503q12 4 20 -14q2 -2 8 -9t8 -12q16 -39 2 -63q-2 -2 -4 -21.5t0 -23.5q12 -12 25 -17l16 -6q63 -8 131 -80q33 -33 13 -86q-2 -6 -5.5 -17t-5.5 -17q-43 18 -57 45q-4 12 -20.5 29.5t-20.5 25.5q-6 8 -16 8q-29 -8 -74 17q-2 -4 -20 -80q-4 -20 -17.5 -69.5 t-17.5 -74.5q-16 -133 -19 -139q-10 -29 13 -45q33 -23 116 -113q6 -8 22.5 -22t24.5 -21q96 -100 86 -227q-2 -27 -19 -88t-19.5 -81.5t-8.5 -37t-10 -25t-19.5 -30t-21.5 -29.5q-27 -39 -86 -63l-10 -6q-10 -6 -12 -7q-12 8 -14.5 5t-8.5 -14t-14 -15q-72 -23 -99 -21 q-41 2 -51 -41q-10 -53 -12 -71q-8 4 -25.5 0t-21.5 2q-27 23 -15 59q6 23 3 29t-25 10q-57 12 -102 68q-16 20 -54 57q-6 6 -39 84q-2 4 9.5 26.5t15.5 26.5q29 16 49 -14q8 -12 28.5 -35.5t31.5 -38.5q16 -29 34.5 -40t61.5 -13q4 18 14 51t17.5 60.5t11.5 52.5 q2 23 0 64.5t-2 60.5q2 27 5 57.5t7 67t6 57.5q4 31 -14 41q-76 39 -135 147q-8 16 -18.5 51t-18.5 52q-18 37 2 61q4 -4 12 -18.5t17.5 -24.5t17.5 -10q8 16 -6 35q-47 141 8 241q47 86 184 125q10 2 101 33q-2 41 12 103q5 22 25 28zM426 666q35 -47 61 -62q-20 50 -61 62 z" glyph-name="dollar" horiz-adv-x="733" unicode="$"/><glyph d="M926 1444q23 -29 12 -74q-8 -37 -45 -102q-66 -137 -80 -162q-6 -8 -12 -25.5t-6 -19.5q-14 -35 -51 -95.5t-44 -70.5q-8 -16 -24.5 -53t-26.5 -56q-8 -18 -27.5 -56t-27.5 -56q-33 -74 -98 -191q-18 -35 -52 -122t-61 -130q-16 -29 -44 -93t-46 -97q-20 -27 -33 -33 q-16 -8 -31 -8q-14 2 -10 25q0 23 10 53q12 27 40 92.5t50.5 111.5t49.5 89q4 6 26 69q61 160 142 314q25 47 68.5 134t80.5 157.5t72 132.5q27 45 73 130t56 105q16 27 39 31zM463 1415l47 -12q86 -23 86 -119q0 -102 -2 -115q-14 -143 -72 -260q-23 -55 -96 -96 q-18 -10 -28.5 -10t-35.5 6q-6 -6 0.5 -12t2.5 -13q-68 0 -84 23q-8 10 -34 28.5t-36 30.5q-31 45 -33 80q-10 182 60 330q18 35 51 80q25 35 77 53t97 6zM803 680q31 10 49 -12q18 -20 35 -29q39 -14 49 -55q45 -147 -8 -295q-4 -12 -17.5 -65.5t-27.5 -80.5 q-82 -150 -219 -125q-35 8 -43 23q0 4 -12.5 6t-16.5 8q-29 35 -39 84q-18 55 -4 137q33 178 108 299q48 78 146 105zM676 453q-12 -8 -18.5 -19.5t-8.5 -26t-4 -18.5t-7 -19.5t-6 -22.5t1 -25q16 33 43 131zM758 80q-6 0 -13.5 -6t-9.5 -6q4 -4 15 0q12 6 8 12z" glyph-name="percent" horiz-adv-x="1024" unicode="%"/><glyph d="M1071 113q2 -4 7 -10.5t7 -10.5q-4 -6 -15 -6t-15 -10q-10 -27 -11 -31q2 -10 -5 -14t-17 2q-8 4 -14 10l-17 10q6 -29 -20 -59q-90 4 -150 57q-6 4 -20.5 15.5t-22.5 20.5t-14 22q-4 10 -12 12q-12 2 -21.5 10t-19 22.5t-13.5 18.5q-12 18 -16 18q-2 -4 -18.5 -21 t-20.5 -28q-23 -45 -68 -80q-90 -59 -153 -73q-72 -16 -170 16q-53 16 -72 8q-16 -8 -35 15q-53 53 -73 84q-37 45 -23 116q14 117 25 146q25 86 92 159q14 16 40.5 48t49.5 57t47 43l59 53q2 2 11.5 13.5t15.5 17.5q-12 12 -17 23.5t-10.5 26.5t-9.5 26q-12 29 -30.5 62.5 t-27.5 57t-15 48.5q-4 43 0 65q23 111 59 172q96 160 225 172q23 2 49 17q43 18 70 4q18 -6 25 -19q37 10 57 -18q25 16 47 4q86 -57 98 -127q4 -41 -18 -102q-33 -90 -55 -134q-16 -31 -52 -63q-20 -18 -59 -67.5t-74 -80.5q-10 -10 -4 -24q4 -10 26.5 -63.5t39.5 -77.5 q23 -33 26 -56q16 -57 52 -108q4 2 38 55q16 29 64 86q10 18 21.5 18.5t15.5 -20.5q23 27 35 33q6 2 14 6q2 -4 -8 -29q-20 -49 -76 -127q-10 -14 -29.5 -50t-29.5 -50q-2 -8 -2 -11t6 -12l8 -8q18 -23 55 -61.5t45 -48.5q45 -45 84 -123q4 -8 18.5 -22.5t20.5 -24.5z M209 440q6 12 68.5 93t66.5 88l-41 -29q-16 -8 -56 -74t-38 -78zM434 96q10 -14 15.5 -16t25.5 8q-27 14 -41 8z" glyph-name="ampersand" horiz-adv-x="1204" unicode="&amp;"/><glyph d="M342 1460q23 -4 27 -14q8 -12 26 -14q55 -8 35 -60q-6 -18 -21.5 -62t-21.5 -67q-25 -90 -33 -115q-6 -25 -28 -36q-16 -16 -19 -29q0 -8 -18 -37q-14 -16 -33 -4q-10 6 -16.5 14t-10.5 18.5t-7 17.5t-4 20.5t-1 18.5v20.5v17.5q4 43 8 111.5t4 82.5q0 10 2 31t2 33 q2 8 11.5 16.5t11.5 12.5q2 6 6 9t7 2t8.5 -3t7.5 -2q18 -8 24 12q6 12 19 6h14z" glyph-name="quotesingle" horiz-adv-x="348" unicode="'"/><glyph d="M614 1499q4 2 23 -12q10 -16 -6 -31q-12 -8 -47 -57q-47 -61 -58 -117q0 -4 -2 -6q-12 -10 -20 -23.5t-11.5 -24.5t-9.5 -28.5t-8 -25.5q-33 -94 -33 -121q2 -6 -3 -18.5t-5 -16.5q-2 -10 -2 -35t-4 -39q-2 -10 -8 -35.5t-8 -38.5q0 -10 -2 -12q-14 -14 -16.5 -42 t-6.5 -36q-6 -14 -9 -42.5t-7 -39.5q-6 -25 -15.5 -69.5t-13.5 -59.5q-12 -37 0 -77q4 -6 1 -23.5t-5 -25t-10.5 -24t-10.5 -24.5q-4 -8 -5 -14t1 -15.5t2 -13.5q4 -53 -2 -80q-4 -16 -4 -42.5v-32.5q-4 -57 -10 -88q-12 -72 18 -123q33 -55 45 -70q4 -6 6.5 -18.5 t4.5 -16.5q0 -2 -4 -10q-14 -14 -11 -27q2 -8 -7 -15t-17 -7q-35 4 -43 14q-53 57 -68 80q-4 6 -22.5 30.5t-25.5 36t-18.5 33t-16.5 41t-7 39.5q2 6 -2 10q-20 18 -31 89q-2 8 -7 19t-5 17q-14 90 -10 150q0 4 4 16q-2 33 7 91.5t9 66.5q16 143 58 276q39 139 71 199 q10 20 37 72.5t43 79.5q53 80 78 104q4 4 33 49q2 2 4 7.5t4 8.5t5 7t7 6t11 4q-2 8 9 16.5t13 12.5q16 33 51 39q4 0 13 8q6 6 21 19.5t22 23.5q4 4 17 7t19 5z" glyph-name="parenleft" horiz-adv-x="540" unicode="("/><glyph d="M322 1513q10 -6 19 -14t19.5 -20.5t16.5 -18.5q14 -14 25.5 -32.5t23.5 -43t20 -36.5q12 -18 31 -99q2 -10 8.5 -32.5t8.5 -34.5q14 -70 16 -123q0 -8 4 -29.5t2 -34.5q0 -82 -8 -149q-2 -12 -12.5 -57.5t-10.5 -69.5l-12 -133q-10 -84 -20 -113q-2 -6 -14.5 -31.5 t-16.5 -40.5q-4 -12 -9 -31.5t-7 -27.5q-2 -6 -4.5 -16.5t-5.5 -18.5t-9 -14q-18 -18 -20 -35q-6 -39 -45 -137q-8 -25 -56 -98q-12 -14 -28 -58q-20 -55 -60 -88q-2 -2 -6 -9t-8 -9q-10 -4 -17 0q-2 4 1.5 6t3.5 4q4 16 10 22q6 2 -2 11q-8 4 -13 -4q-8 -16 -29.5 -40 t-25.5 -30q-12 -18 -49 -35q-23 -8 -23 14q4 57 31 91q39 51 66 118q6 16 67 201q0 4 9.5 27.5t11.5 38.5q0 61 10 104q4 25 9 73t9.5 72.5t9.5 69.5t7 60q4 29 22 108q4 23 8.5 62.5t6.5 56.5q4 25 8 67.5t6 59.5q4 35 4 149q6 57 4 72q-4 31 -22 125q0 8 -6 6 q-10 -4 -11 6q-16 43 -24 78q-2 10 2 49q4 16 20 6q12 -10 27 4q9 8 27 2zM479 1016q-10 -35 -6 -49q10 -33 2 -88q-4 -23 4 -31q16 109 0 168zM428 600q-25 -35 -16 -70q2 8 7 22.5t7 26t2 21.5z" glyph-name="parenright" horiz-adv-x="516" unicode=")"/><glyph d="M422 1460q16 4 20 -10q14 -20 17 -45v-90q-8 -18 0 -31q10 6 43 30.5t58.5 38t49.5 13.5q6 -2 0 -10l-4 -8q10 -25 -5 -45.5t-42 -40t-35 -31.5q-2 -4 -16 -12q-23 -23 -4 -39l59 -47q23 -18 37 -41q16 -25 -16 -29q-12 -2 -17 -14q-16 -39 -49 -29q-16 4 -49 33l-10 10 q-8 10 -17 12q-14 -18 -10 -57q-2 -8 0 -24.5t0 -24.5q-4 -25 -18 -29q-6 -4 -10.5 3t-10.5 7t-6 -4q-8 -23 -24.5 -22.5t-20.5 24.5q-4 51 6 86q2 6 6 27.5t6 28.5l-16 -13q-61 -68 -151 -98q-14 25 -3 84q6 18 27 33q12 10 51 38.5t58 45.5q-41 53 -54 61q-23 14 -24 41 q0 8 -4 16.5t-11.5 18.5t-11.5 16q18 14 39 2q49 -20 111 -63l26 119q0 6 1 21t3 26q5 16 21 22z" glyph-name="asterisk" horiz-adv-x="567" unicode="*"/><glyph d="M504 897q6 -4 39 -4q35 0 49 -35q0 -2 1 -2t1 -2q-8 -18 -7 -47t-1 -45q-4 -6 -4 -48v-48.5v-20.5t-2 -22q-2 -14 3 -17.5t19 -3.5q104 -6 109 -6q16 -2 59 6q25 2 55 -8q14 -8 0 -23q-2 -2 -11 -8t-13 -10q4 -2 15 -2t13 -4q23 -18 -14 -33q-10 -2 -12 -14 q-8 -25 -39 -25h-47q-18 0 -21 -12q0 -2 -10 -2q-18 2 -52 2h-52q-16 0 -16.5 -10.5t-6.5 -35t-6 -36.5q4 -31 -4 -90q-4 -29 -31 -117q-4 -27 -12 -39q-6 -12 -8 -12q-8 0 -13 12q-4 18 -20 12q-6 -2 -7 -5t-1 -8t-2 -7q-10 4 -14.5 -1t-2.5 -13q0 -27 2 -31 q-37 18 -71 -23q-35 55 -35 109q0 45 31 160q2 14 8 40.5t8 39.5l2 14q8 23 3 28t-26 1q-16 -2 -50 -1t-46 -4q-12 -2 -27.5 4.5t-23.5 6.5q-16 -4 -44 2t-38 6q-14 2 -25 16l-8 13q-20 20 6 41q2 0 11.5 4t12.5 8t1 14q43 33 55 33q16 0 45 4l146 6q2 0 10 -1t12 -1 q-2 33 6 94q6 55 23 119q2 12 14 14q6 0 6 -7t5 -9q8 14 4 41q-6 20 6 31q2 2 6 5t6 5t6 5t7 3t8.5 -1t9.5 -5z" glyph-name="plus" horiz-adv-x="884" unicode="+"/><glyph d="M182 180q8 0 8 -4q53 -12 50 -86q-6 -53 -50 -115q-6 -8 -23 -33.5t-29.5 -42t-30 -36t-29.5 -29.5q-14 -14 -17 0q-2 6 -10 -2q-6 -12 -18 -4q-4 4 -8.5 16.5t-1.5 18.5q4 6 4 18q-2 14 8 35t12 37q2 6 10.5 14t10.5 13q12 6 8 12q-2 0 -4 -2q-4 -4 -6 -4 q-8 8 -18.5 29.5t-18.5 29.5q-12 14 -4 37q8 27 20 37q6 6 16.5 19.5t16.5 19.5q29 25 53 8h10q16 26 41 14z" glyph-name="comma" horiz-adv-x="358" unicode=","/><glyph d="M289 584q45 -4 128 -7.5t118 -5.5q14 -2 19 -5t4 -9t-11 -18q-4 -6 -4 -20.5t-6 -20.5q-20 -12 -48 -13q-131 2 -266 -6q-6 0 -32.5 -4t-40.5 -4q-39 0 -54 43q-10 27 19 37q111 39 174 33z" glyph-name="hyphen" horiz-adv-x="602" unicode="-"/><glyph d="M145 203q10 10 32 0t24 -25q4 -43 39 -43q16 0 10 -20q-6 -12 -13.5 -39t-9.5 -33q-6 -25 -28.5 -40t-46.5 -13q-14 2 -40 -4t-38 -2h-10.5t-12.5 4q-4 6 -10 19t-11 21.5t-7.5 19.5t0.5 24q6 51 53 86q8 6 32.5 20.5t36.5 24.5z" glyph-name="period" horiz-adv-x="364" unicode="."/><glyph d="M758 1499q27 10 41 -1t6 -38q-2 -6 10 -2q14 4 14 -4q0 -6 -6 -20q-2 -2 -4 -11.5t-6 -13.5q-31 -61 -55 -123q-14 -43 -105 -217q-84 -156 -104 -207q-6 -14 -23.5 -44t-25.5 -48q-74 -164 -90 -201q-16 -39 -51 -116.5t-52 -116.5q-10 -25 -52 -125t-69 -154 q-8 -18 -18 -32q-37 -61 -49 -97q-14 -39 -72 -116q-10 12 -21.5 35.5t-21.5 33.5q-14 14 0 60q37 86 68 141q18 33 84 188l6 19q35 63 87 185t75 167l116 231q16 31 39 90.5t27 69.5q18 45 73.5 149.5t67.5 129.5q16 35 55.5 96t55.5 92z" glyph-name="slash" horiz-adv-x="733" unicode="/"/><glyph d="M637 1466q4 2 35 -8q61 -29 86 -49q20 -18 43 -23q43 -6 61 -59q27 -102 29 -170q4 -45 -10.5 -128t-14.5 -120q0 -35 -20 -198q-2 -27 -17.5 -83.5t-17.5 -86.5q0 -10 -2 -17q-23 -47 -41 -196q-2 -18 -37 -74q-14 -20 -36.5 -62t-35.5 -63q-27 -41 -81 -80 q-20 -14 -23 -18q-33 -51 -96 -51h-10q-49 -27 -117 20q4 10 27.5 10h25.5q-12 27 -19.5 29t-39.5 -10q-39 -16 -86 -1t-74 52q-8 12 -26.5 44t-30.5 48q-14 18 -19 82q-6 57 10 176q8 55 9 121q0 90 37.5 258t43.5 213q6 37 38 106.5t36 82t10 12.5h12.5t7.5 4t3 7t2 9t2 8 q27 90 96 152q14 12 31 6q14 -8 33 2q94 47 180 33q4 6 -1 12t-3 10zM547 1378q-10 -2 -22.5 -9t-16.5 -9q-14 -6 -15 -10t7 -25q6 10 22.5 25.5t24.5 27.5z" glyph-name="zero" horiz-adv-x="866" unicode="0"/><glyph d="M555 1438q12 -8 12 -25q0 -29 -2 -33q-8 -31 -11 -89t-5 -66q-4 -37 -8 -155t-15 -181q-10 -55 -14 -168q0 -12 -4 -38t-6 -38q-8 -51 -27 -180q-8 -68 -24 -137q-27 -115 -27 -160q0 -12 -2 -27.5t-5 -35t-5 -29.5q-4 -16 -17 -21l-39 -12q-4 -8 -7 -24.5t-3 -20.5 q-8 -27 -31 -16q-37 20 -79 12q-23 -4 -38.5 12.5t-19.5 44.5q-4 90 25 228q18 100 18 106q10 160 41 295q2 14 4 42t4 42q14 72 35 229q4 37 17 127q0 25 -3 27q-25 -6 -69 -31q-35 -23 -86 -14q-33 6 -19 39q8 12 11 18q10 35 43 33q29 -4 75 35q74 59 109 125 q41 90 129 73q12 -2 20 5q19 12 23 8z" glyph-name="one" horiz-adv-x="575" unicode="1"/><glyph d="M653 1430q25 -10 27 -17q4 -10 10 -16t17.5 -13.5t15.5 -9.5q4 10 -6 21q-8 12 -8 20l2 2h4q20 10 28 2q4 -10 31 -17t29 -28q8 -49 6 -98q0 -20 -3 -59t-5 -58q-8 -84 -58 -178q-27 -49 -71 -147q-31 -66 -78 -148q-113 -182 -178 -244q-14 -14 -21 -30 q-18 -59 -71 -127q-53 -74 -119 -179q0 -6 -4 -14q10 0 41.5 -6t50.5 -4q57 4 106 -8q23 -4 66 2t49 6q47 4 76 -10q8 -4 45 -4q2 0 13 3t11 -1q2 0 8.5 -2t8.5 -3.5t5 -5.5t3 -8q0 -6 -3 -9t-10 -6t-9 -5q-16 -12 -32 -16.5t-40.5 -3.5t-30.5 1q-23 0 -62.5 1t-73.5 0 t-67 -7q-68 -10 -116 2q-51 10 -101 -2q-111 -18 -143 -12q-10 0 -14 2q-14 2 -11 18q4 10 13 13q4 2 13 5t13 5q25 14 10 24q-29 29 -6 89q45 111 105 186q55 70 149 217q20 33 80 115q109 160 162 295q49 117 49 303q0 29 -9 36t-40 5q-6 0 -22.5 1t-22.5 1 q-111 -14 -197 -95q-20 -16 -37 -14q-25 4 -26.5 20.5t16.5 30.5l66 60q-16 -2 -36 -19.5t-30 -21.5q16 63 103 94q29 10 51 22q137 81 278 44zM739 1360q2 -12 7.5 -44t7.5 -48q0 6 2 23.5t3 26.5t-4.5 21.5t-15.5 20.5zM344 1348q-27 -8 -45 -29q25 11 45 29zM588 1284 q-6 -20 0 -41q16 -59 6 -108q-6 -25 8 -50q29 74 29 179q-2 14 -10 18t-33 2z" glyph-name="two" horiz-adv-x="768" unicode="2"/><glyph d="M498 1450q109 8 149 -10q12 10 26.5 7t20.5 -7t17.5 -13.5t17.5 -13.5q49 -29 55 -102q2 -4 2 -12.5v-12.5q27 -125 -26 -272q-27 -92 -74 -174q-29 -49 -61 -52q-10 -2 -41 -26q2 -6 5 -11.5t7 -8.5t10 -7t8 -6q80 -59 93 -164q8 -82 -13 -190q-12 -63 -30 -121 q-45 -145 -138 -227q-16 -14 -47 -21q-8 0 -11 2t-3 7t-2 8q-4 0 -12 -5q-59 -61 -127 -30q-12 4 -35 0q-178 -18 -271 104q-2 6 -12 17q-16 20 -17 27t15 36q20 33 43 10l43 -43q27 -33 105 -69q45 -20 114 12q111 53 152 188q53 152 43 277q-6 88 -64 125q-6 4 -30 22 q-18 10 -33 8q-4 -8 -48 -2.5t-48 5.5q-23 0 -7 24q-2 4 -12 7t-14 5q-14 14 -8 25q10 20 24 16q8 -4 27.5 -1t27 5t27 10.5t27.5 10.5q68 23 100 80q4 12 18.5 31.5t18.5 25.5q31 53 53 137q20 98 -37 267q-4 12 -14 14q-4 0 -26.5 5t-31 5t-25.5 -2t-32 -10 q-8 -4 -34.5 -16.5t-44 -23.5t-27.5 -30q-23 -8 -42.5 -37.5t-23.5 -33.5q-6 4 -16 23.5t-25 21.5q39 49 90 92q43 37 58 47q62 35 166 47zM518 653q8 -33 12.5 -71.5t4.5 -61t-2.5 -75t-2.5 -64.5q16 82 19 119q0 16 -4 104q0 33 -27 49z" glyph-name="three" horiz-adv-x="768" unicode="3"/><glyph d="M666 1436q2 0 32 -6q23 -4 29 -5.5t16.5 -6.5t12.5 -14t2 -26q-16 -213 -21 -227q-23 -121 -41 -285q-4 -29 -18 -101.5t-19 -111.5q0 -8 -4 -28q0 -25 25 -13q47 18 63 -20q6 -16 -10 -23q-14 -6 -35.5 -25.5t-33.5 -25.5q-10 -4 -15 -29q-14 -178 -16 -215l-6 -114 q0 -39 -21 -68q-4 -4 -7 -15t-3 -14q-4 -25 -21 -38q-10 2 -18 14t-12 14q-4 -8 -14.5 -26.5t-14.5 -28.5q-4 -8 -9 -13t-10 -8.5t-15.5 -7.5t-16.5 -8q-14 -8 -23.5 -10t-15.5 4t-14 20q-14 25 -23 48q-12 25 -6 55q20 174 35 268q2 16 14 66.5t14 79.5q-10 8 -25 9 t-35.5 -2t-29.5 -3q-20 0 -95 1t-109 3q-37 4 -68 -8q-16 -6 -31 -11q-14 -2 -22 8q-12 12 6 25q16 8 32.5 50t16.5 63q2 18 23 78l73 182q8 23 20.5 78t26.5 86q29 61 50 118q10 23 18 88q4 16 35 17q2 0 12 -10q10 -14 6 -78q-8 -102 -63 -228q-6 -16 -22.5 -65t-28.5 -74 q-2 -4 -3 -14q4 -23 1 -44.5t-14 -58t-13 -43.5v-6v-7t-2 -6t-4 -5q-16 -23 -2 -31h71.5h98h71.5q12 0 19 4q12 74 16 103q4 88 18.5 186t38 221t33.5 187l2 12q2 25 6.5 33t26.5 26q16 12 18 27q11 39 48 33z" glyph-name="four" horiz-adv-x="755" unicode="4"/><glyph d="M575 915q98 -6 138 -77q47 -84 30 -152q-6 -35 -10 -96q-6 -82 -69 -367q-10 -33 -13 -35q-25 -29 -45 -94q-12 -39 -65 -61l-86 -37q-18 -8 -60 -12q-12 0 -37.5 -7.5t-40.5 -9.5q-49 -6 -77.5 -2t-69.5 27q-53 31 -111 78q-10 8 -16 19t-12 31.5t-8 24.5v15q8 23 22 14 q6 -2 18 -14q2 0 7.5 -6.5t8.5 -5t11 7.5q2 2 16 -6q16 -16 41 -54q63 -82 148 -41q8 2 20 21q35 39 58 55q27 16 47 59q49 113 65 314q4 63 17 106q20 55 10 101q-18 80 -80 102q-23 6 -57 -8q-18 -10 -29.5 -18.5t-27 -23.5t-21.5 -22q-4 -4 -19.5 -15t-21.5 -17.5 t-13 -17.5t-10 -23q-4 -20 -18 -31q-45 23 -72 8q-10 -6 -20 19q-4 37 -2 51q4 18 11 50t13.5 58.5t12.5 50.5q8 37 20 110t19 99q18 98 26 134q4 23 5 60.5t3 49.5q2 20 -16 37q-6 4 -16 14q8 14 34 23q16 6 21 10q8 12 27 12q47 2 116.5 5.5t114.5 3.5q14 2 72 -5l106 7 q43 2 117 -19q20 -6 14 -24q-8 -18 8 -31q12 -12 -2 -37q-18 -20 9 -33q-129 -39 -164 -41q-88 -6 -199 -2q-57 -16 -188 0q-4 4 -15 -2q-4 -8 11 -16q12 -6 4 -15q-8 -10 -9.5 -15t1 -6t10.5 -1l10 -2q14 -2 16 -2t9.5 -4t3.5 -8.5t0 -16.5q-16 -274 -21 -297q-4 -18 2 -37 q16 12 33.5 28.5t32 25t37.5 14.5q35 10 57 10q20 -4 29 10q0 12 10 7t69 -5zM500 420q4 14 9 80.5t26 103.5q2 -30 -35 -184z" glyph-name="five" horiz-adv-x="776" unicode="5"/><glyph d="M670 1440q72 -10 143 -47q20 -12 18 -39q-6 -35 -36 -27q-16 4 -47 23q-31 23 -78 32q-14 2 -29 -6q-16 -12 -47 -37.5t-45 -38.5q-74 -63 -98 -151q-49 -172 -72 -240q-6 -18 -14.5 -62t-16.5 -67q113 78 144 94q66 35 118 7q20 -8 37 -4q39 10 57.5 1.5t28.5 -42.5 q4 -20 17.5 -57.5t20.5 -69t7 -64.5q-8 -193 -49 -289q-12 -27 -22 -75q-27 -102 -60 -164q-8 -18 -15 -23.5t-34 -17.5q-2 0 -6 -4q-20 -31 -107 -66q-2 0 -4 -2q-4 0 -8 -5t-5 -10t-4 -8.5t-7 1.5q-12 4 -14.5 5t-11.5 -4.5t-13 -5.5q-8 -2 -20.5 -1t-18.5 1 q-45 -12 -86 19q-8 6 -27 33q-8 8 -14 4q-14 -10 -8 -17q8 -8 0 -18q-18 -10 -25 -4q-72 47 -92 82q-12 20 -29.5 63t-27.5 64q-14 27 -11 106q4 119 25 191q25 86 31 172q2 63 37 168q16 47 50 141t50 141q37 98 131 193q2 2 9 10t9 9t12.5 6.5t14.5 -1.5q6 -2 10 9l4 4 q23 37 50 59q20 16 30 4q12 -14 35 2q43 33 113 23zM600 1395q-23 0 -39 -17q25 1 39 17z" glyph-name="six" horiz-adv-x="817" unicode="6"/><glyph d="M915 1473q10 -57 -30 -127q-37 -63 -94 -195q-113 -254 -140 -311q-14 -31 -51 -88q-14 -23 -31.5 -67t-25.5 -58q-33 -72 -115 -273q-41 -92 -63 -149q-23 -47 -43 -107q-8 -20 -27 -39q-8 -6 -57 -71q-12 10 -39 12t-37 6q-25 10 -25 31q0 4 -10 35q-10 -4 -17.5 -20.5 t-15.5 -20.5q-39 63 -2 141q16 35 44 94.5t52.5 108.5t49.5 90q10 16 22 35.5t27.5 44t23.5 37.5q12 16 13 24q12 10 19 21.5t16.5 33t9.5 23.5q-37 -37 -45 -78q-14 12 2 37q6 10 32.5 57.5t44.5 71.5q20 25 56 96q29 47 74 138.5t61 121.5q2 4 15.5 26t17.5 36t2 31 q0 2 2 4t5 6t5 6q45 63 55 92q-18 6 -32 -4q-14 -14 -56 -25q-27 -6 -184 -22q-12 0 -45 4q-100 6 -135 2q-2 -2 -10.5 -1t-10.5 1q-18 2 -29.5 3t-16.5 11.5t-6 13.5t-2 24.5t-1 31.5q-4 53 29 53l295 -8q92 -2 280 19l19 6q43 14 51 14t49 -12q6 4 11 16.5t13 16.5z M743 1335q-23 10 -30 -14q-6 -27 -33 -100q32 36 63 114z" glyph-name="seven" horiz-adv-x="784" unicode="7"/><glyph d="M594 1454q41 2 78 -22q76 -45 94 -91q2 -8 16.5 -13t16.5 -15q35 41 57 86q16 20 25 18q6 -2 6 -24q-20 -53 -23 -58q-29 -90 -67 -133q-12 -10 -19.5 -24.5t-15.5 -36t-10 -27.5q-86 -174 -144 -235q-18 -18 -18 -24.5t12 -25.5q8 -10 24.5 -33.5t30 -41t29.5 -31.5 q115 -98 92 -272q-14 -100 -22 -129q-20 -57 -33 -72q-4 -6 -6 -13.5t-4 -16.5t-4 -13q-16 -59 -54 -98q0 -2 -5 -8.5t-5 -10.5q-2 -12 -7 -22.5t-16.5 -18.5t-16.5 -12t-22.5 -12.5t-19.5 -8.5q-12 -6 -90 -32q-51 -8 -78 -4q-10 4 -57 -7q-39 -6 -113 17q-14 8 -18 26 q4 4 24 4q10 -4 31 -8q16 0 21 8q4 14 -13 17q-16 4 -26 4q-109 8 -174 109q-51 72 -15 198q37 137 172 273q23 23 66 66.5t63 64.5q0 14 -16 22q-14 8 -39 29.5t-39 30.5q-88 55 -100 176q-12 162 104 319q39 57 105 86q43 20 110 2q2 -2 17 -6q2 8 4 16.5t4 11.5t2 6t3 3 t5 1t9 1h14q18 0 55 4zM285 1247q-8 -16 -18.5 -44.5t-16.5 -41.5q-6 -18 -2 -21t22 -5q15 85 15 112zM242 1124q-8 -41 2 -49q8 33 -2 49zM160 268q-12 -33 2 -49q2 16 -2 49z" glyph-name="eight" horiz-adv-x="821" unicode="8"/><glyph d="M541 1446q39 -4 67 -16q31 -8 66 -29q10 -6 18 -4q47 14 94 -47q16 -16 45 -105q35 -96 33 -180q4 -47 2 -111.5t-22 -113.5l-10 -47q-18 -119 -78 -228q-76 -145 -88 -166q-80 -127 -113 -163q-23 -23 -16 -35q2 -8 -17 -21q-27 -16 -61 -55q-72 -72 -131 -100 q-2 0 -23 -17q-53 -39 -125 -43q-18 -2 -59 27q-4 2 -12.5 9t-15.5 10t-15 3q-8 2 -15.5 13.5t-11.5 15.5l10 10q33 0 132 33q35 10 65 49q31 31 58.5 62.5t58.5 74.5t46 64.5t51 79t44 69.5q51 82 51 181q-29 -10 -37 -35q-10 -33 -38 -47q-14 -8 -45 -39q-23 -23 -39 -23 q-18 -2 -50 -10t-38 -10q-43 -8 -72 24q-31 31 -66 60q-70 53 -69 159q-4 152 4 201q4 25 19.5 74t21.5 76q25 115 131 241q41 41 61 60q8 8 15 4q23 -10 51 14q37 18 47 15h10q8 10 16.5 15t14.5 5t17.5 -2t17.5 -2zM629 1337l8 -32q2 -4 2 -11q0 -16 10 -18q6 37 3 47 t-23 14z" glyph-name="nine" horiz-adv-x="851" unicode="9"/><glyph d="M307 852q2 -2 18.5 -19.5t22.5 -28.5t6 -26q4 -49 -39 -92q-4 -4 -27.5 -24.5t-31.5 -32.5q-8 -10 -33.5 -5t-27.5 19q-12 39 -52 33q-8 -2 -10 3t0 15q0 2 2 30t4 42q2 25 22.5 43t43.5 22q16 0 40.5 11.5t39.5 9.5q2 0 11 1t11 -1zM145 203q10 10 32 0t24 -25 q4 -43 39 -43q16 0 10 -20q-6 -12 -13.5 -39t-9.5 -33q-6 -25 -28.5 -40t-46.5 -13q-14 2 -40 -4t-38 -2h-10.5t-12.5 4q-4 6 -10 19t-11 21.5t-7.5 19.5t0.5 24q6 51 53 86q8 6 32.5 20.5t36.5 24.5z" glyph-name="colon" horiz-adv-x="366" unicode=":"/><glyph d="M299 852q2 -2 18.5 -19.5t22.5 -28.5t6 -26q4 -49 -39 -92q-4 -4 -27.5 -24.5t-31.5 -32.5q-8 -10 -34 -5t-28 19q-12 39 -51 33q-8 -2 -10 3t0 15q0 2 2 30t4 42q2 25 22.5 43t43.5 22q16 0 40.5 11.5t38.5 9.5q2 0 11.5 1t11.5 -1zM190 180q8 0 9 -4q53 -12 49 -86 q-6 -53 -49 -115q-6 -8 -30 -41.5t-41 -56t-34 -35.5q-14 -10 -16 0q-4 10 -10 -2q-6 -10 -21 -4q-4 4 -8 16.5t0 18.5q8 10 2 18q-2 4 1 14.5t7 25t6 24.5q2 6 10.5 14t10.5 13q12 6 8 12q-2 0 -4 -2q-4 -4 -6 -4q-8 8 -18.5 29.5t-18.5 29.5q-12 14 -4 37q8 27 20 37 q6 6 16.5 19.5t16.5 19.5q29 25 53 8h11q15 26 40 14z" glyph-name="semicolon" horiz-adv-x="366" unicode=";"/><glyph d="M899 881q-10 -10 -31 -39q-8 -10 -7 -27.5t-3 -28.5q-2 0 -2 -4t-2 -6q-10 -4 -25.5 -19.5t-25.5 -19.5q-8 -2 -20.5 -12t-14.5 -12q-10 -8 -39 -24.5t-43 -31.5q-14 -16 -48 -34.5t-46 -28.5q-18 -12 -41 -12q-12 0 -25.5 -6.5t-19.5 -10.5t-22.5 -18.5t-20.5 -16.5 q-41 -35 -113 -55q-35 -12 -45 -26q47 -27 103 -50q141 -59 161 -65q125 -35 217 -84q6 -4 29 -13.5t33 -19.5q10 -16 -8 -33q-6 -6 -16.5 -13t-12.5 -7q-18 -10 -41 -2q-8 -33 -27 -33q-6 0 -18 1t-18 1q-37 -2 -115 37q-98 55 -172 72q-18 4 -49 19t-45 20q-12 4 -44 15 t-49 13q-12 2 -26 12q-8 6 -62 23q-43 14 -63 45q-20 33 18 59q23 18 19 35q0 14 28 43q33 33 78 49q18 6 46 22.5t42 22.5q31 12 65 28t75 35t63 30q33 14 93.5 43.5t78.5 38.5q55 25 121 67q31 25 57 12q6 -2 16.5 3.5t16.5 5.5z" glyph-name="less" horiz-adv-x="952" unicode="&lt;"/><glyph d="M580 743q59 8 153 -2l55 -6q8 0 25.5 -19.5t17.5 -29.5q2 -4 -21.5 -33.5t-29.5 -31.5q-43 -6 -88 -7q-193 -4 -221 -6q-6 0 -87 -4t-101 -10q-43 -10 -70 -4q-8 2 -26.5 1t-24.5 3q-35 20 -43 27q-16 20 8 28q12 2 16 7.5t4 7.5t-6 9t-8 9q14 0 32.5 14.5t27.5 16.5 q47 16 110 12q10 0 26.5 2t51.5 6t80 6q16 2 42.5 2h43.5q13 0 33 2zM743 494q6 -2 23.5 -2t26.5 -5q29 -16 41 -28q20 -20 -8.5 -26.5t-12.5 -26.5q4 -4 6 -7q-14 0 -32.5 -14t-26.5 -16q-45 -12 -113 -9q-8 0 -25.5 -2t-52 -4t-80.5 -4q-16 -2 -45.5 0t-40.5 2 q-53 4 -94 -2q-33 -4 -116 6q-6 0 -26 4.5t-30 4.5q-8 0 -24.5 20.5t-16.5 30.5q0 4 23.5 32.5t30.5 30.5q29 4 88 4h245q12 0 55.5 1t81 2t54.5 6q34 8 69 2z" glyph-name="equal" unicode="="/><glyph d="M248 874q6 0 17 -1t18 -1q39 2 116 -36q94 -53 172 -72q18 -4 49 -19.5t46 -19.5q10 -2 41.5 -14.5t50.5 -14.5q4 0 26 -12q6 -4 60 -22q41 -12 65 -46q18 -33 -18 -59q-23 -14 -21 -35q2 -14 -26 -43q-39 -35 -80 -49q-18 -6 -45 -22.5t-41 -22.5q-31 -12 -64.5 -27.5 t-74.5 -35t-64 -29.5q-33 -14 -96.5 -45t-77.5 -37q-66 -31 -119 -68q-35 -25 -59 -12q-6 2 -15.5 -3t-15.5 -5q14 14 31 39q8 10 7 27.5t3 27.5l2 4q0 4 2 6q8 4 23.5 19.5t27.5 19.5q4 0 33 25q10 8 40 24.5t44 30.5q14 16 48 34.5t46 29.5q14 12 41 12q12 0 25.5 6t20 10 t22.5 18.5t20 16.5q41 35 113 55q37 16 45 27q-59 31 -102 49q-158 66 -162 66q-127 33 -219 84q-6 4 -28.5 13t-31.5 19q-10 16 7 33q6 4 30 21q16 8 41 2q4 32 27 32z" glyph-name="greater" horiz-adv-x="954" unicode=">"/><glyph d="M602 1438q8 -2 72 -27q86 -31 104 -129q14 -72 -4 -154q-25 -102 -35 -153q-14 -57 -51 -121q-45 -78 -115 -158q-6 -8 -34 -26q-94 -49 -103 -103q-8 -37 -16 -55q-12 -23 -12 -72q0 -10 -9.5 -29.5t-9.5 -29.5q-12 -4 -49 -23.5t-55 -23.5q-14 -2 -26.5 22.5 t-16.5 49.5q-6 49 -2 96t0 71q-6 31 18 72q33 57 37 66q29 49 98 102q74 55 107 168q20 63 12 160q-8 100 -10 108q-2 10 -13 29q-2 4 -8 12t-8 13q-2 2 0 2q4 2 6 2q4 4 10 0q4 -6 13.5 -15.5t13.5 -15.5t9 -14.5t6 -18.5t1 -22q-2 -14 3.5 -21.5t5.5 -19.5l6 -23 q6 18 4 47t-2 43q0 16 -6 30.5t-13.5 21t-21.5 17.5t-21 17h-8q-8 0 -27.5 2t-29.5 1t-27.5 -6t-32.5 -17q-66 -51 -65 -156q4 -119 -12 -127q-10 33 -43 37q-4 0 0 -6q2 -4 -2 -4q-6 -2 -21 2q-20 4 -22 73.5t16 118.5q35 86 55 107q53 57 144 72q2 0 17 3t24 3q16 -4 26 2 q20 14 40 15t49.5 -7t33.5 -8zM283 201q8 10 29.5 -0.5t23.5 -24.5q0 -43 41 -43q14 0 8 -20q-8 -23 -20 -72q-8 -25 -31 -40t-45 -13q-16 2 -42 -4.5t-38 -1.5q-4 2 -8 1t-8.5 0t-4.5 3q-4 6 -12 19t-12 20.5t-7 19.5t-1 25q10 53 57 86q10 8 34 21.5t36 23.5z" glyph-name="question" horiz-adv-x="731" unicode="?"/><glyph d="M989 1427q68 4 119 -10q23 -6 31 -10q31 -29 98 -43q27 -6 104 -59q8 -6 26.5 -22.5t31.5 -25.5q16 -8 47 -63q49 -88 53 -150q0 -14 3 -44.5t4 -49t-2 -45t-11 -47.5q-20 -66 -76 -133q0 20 17.5 53t15.5 51q0 2 -2 2q-4 2 -6 5q-53 -137 -96 -195q10 -2 27.5 15.5 t21.5 17.5q14 -23 -35 -76q-63 -68 -126 -112t-85.5 -54t-75.5 -31q-20 -8 -30.5 -11t-15.5 -4t-21.5 2t-28.5 5q-59 8 -74 25q-18 25 -41 57q-10 -2 -14 -14q-23 -51 -86 -66q-72 -16 -123 4l-27 11q-68 27 -77 92q-27 129 4 200q8 16 30.5 108.5t48.5 143.5 q59 113 162 121q14 8 30.5 9t26 0t29 -9t25.5 -10q59 -18 92 -68q4 2 27 43q14 27 32.5 23t27.5 -16.5t9 -18.5t11 0q14 16 16 17.5t14 -3.5q10 -14 14.5 -32.5t4.5 -30.5t-4.5 -35.5t-4.5 -30.5q-10 -70 -36 -151q-4 -16 -13.5 -67.5t-15.5 -67.5q-10 -55 -8 -68 q8 -20 28 -20q16 0 69.5 27.5t70.5 58.5q4 8 13 21t13 19.5t10.5 17.5t9.5 18.5t8 18.5t8 21.5l7 24.5q8 0 11.5 8t6.5 24.5t7 26.5q0 6 6 29q31 100 8 229l-4 25q-4 0 -16 35q-2 10 -17.5 26.5t-19.5 26.5q-12 31 -51 56.5t-80 35.5q-6 2 -50 20.5t-71 16.5q-14 0 -51 4 q-16 2 -34.5 -1t-42.5 -10t-36 -9q-8 -2 -29.5 2t-33.5 0q-94 -33 -215 -121q-45 -33 -129 -137q-6 -8 -11 -27q-4 -51 -34 -63q-20 -10 -33 -48q-27 -72 -41 -129q-31 -115 -12 -286l2 -19q2 -98 69 -166q6 -4 31 -39q16 -29 61 -51q14 -8 49 -36.5t58 -36.5q25 -8 53 -13 l164 -20q49 -6 111 -2q18 2 47 18l159 82q6 2 23.5 11.5t25 13.5t22.5 13t23.5 14t21.5 14.5t22.5 17.5t19.5 18.5t19 20.5q12 14 43.5 42t48.5 48q8 -43 12 -47q16 -25 -8 -47q-12 -12 -3 -12h11q4 -2 -8.5 -11.5t-28.5 -24t-20 -26.5q0 -4 -9 -8q-35 -23 -90 -76t-69 -65 q-18 -14 -73.5 -33t-68.5 -25q-80 -41 -161 -55q-117 -27 -201 -2q-104 27 -143 22q-6 -2 -19 3q-147 57 -242 133q-137 113 -153 313q-2 6 0 26.5t0 26.5q-14 123 8 201q39 141 88 240q86 168 244 272q0 4 -5 6t-7 4q92 72 221 117q55 23 110 37q49 14 209 28zM659 946 l-28 -102q-8 -68 -19 -84l25 43q4 6 6 12q8 14 17.5 61.5t13.5 57.5l18 47zM1241 526q-47 -18 -55 -41q47 25 55 41zM289 281q-25 -51 55 -88q-10 33 -39 55q-4 4 -7 16.5t-9 16.5z" glyph-name="at" horiz-adv-x="1495" unicode="@"/><glyph d="M528 1460q20 -10 66 -2q4 2 8 -6t7 -20.5t5 -23.5t2 -19q10 61 23 55q8 -4 16 -45q25 -109 25 -113q0 -10 8 -58t6 -75q-2 -10 0 -18.5t3 -10.5t5.5 -9t8.5 -17q12 -31 12 -93.5t2 -72.5q12 -109 49 -268q14 -55 19 -209q0 -8 -3.5 -28.5t-1.5 -31.5q12 -123 39 -225 q23 -80 9 -145q-12 -51 -48 -56l-2 -6q0 -6 -5 -11t-15 -5q-2 2 -14.5 11t-16.5 22q0 4 -8 6t-8 8q-4 16 -19.5 20t-21.5 -10q-6 -16 -18.5 -19t-30 -1t-25.5 0q-25 -8 -29 16q-25 137 -30 199q-2 25 -13.5 79t-13.5 84q0 27 -33 27q-23 -2 -99.5 -2t-125.5 -6q-6 0 -21.5 1 t-26.5 -1t-17.5 -8t-10.5 -14.5t-8 -20.5t-6 -19q-4 -8 -20.5 -49t-22.5 -63l-39 -141q-6 -23 -16 -52q-10 -33 -49 -22q-2 0 -7.5 11t-9.5 14t-12 -11q-4 -12 -8 6q-6 29 0 47q39 145 90 269l12 30q6 23 4 26t-22 9q-31 10 -35 23q8 12 43 16q41 10 44 14.5t11 34.5 q10 31 41 111t41 117q37 133 98 282q37 92 64 180q10 35 30.5 98.5t26.5 84.5q8 31 4 45q-4 33 23 43q4 2 21.5 11t23.5 10t22 -3zM696 883q-6 -16 -5 -29.5t9 -38.5l7 -27q4 10 0.5 50.5t-11.5 44.5z" glyph-name="A" unicode="A"/><glyph d="M250 1411l340 43q125 12 225 -29l57 -20q106 -41 70 -164q-31 -88 -61 -117q-92 -88 -150 -125q-10 -8 -33.5 -20t-35.5 -21q-29 -16 -31 -24q0 -6 -6.5 -11t-12.5 -3q-20 2 -47.5 -18.5t-34.5 -22.5q-8 -4 -15 -18.5t-15 -18.5q117 -8 184 -15q113 -14 143 -28 q92 -39 160 -113q27 -39 6 -88q-10 -29 -61 -113q-20 -33 -48 -62.5t-64 -63t-52 -52.5q-63 -68 -152 -133q-12 -8 -59 -37q-178 -125 -209 -143l-112 -68q-4 29 -5 37q0 18 -10 21q-33 0 -41 43l-2 4q-2 4 -4 6q-8 -4 -34.5 -30.5t-51.5 -29.5l2 58l2 205q0 2 2 12t4 14 q25 57 47 217q31 188 41 262l31 234q4 41 19 84q12 23 16 67q8 31 18.5 88.5t12.5 69.5q2 20 -2.5 24.5t-22.5 8.5q-43 0 -57 -6q-23 -8 -31 18q0 4 -1 16.5t-1 20.5q0 25 25 31q8 0 28.5 4t28.5 6z" glyph-name="B" horiz-adv-x="995" unicode="B"/><glyph d="M698 1462q137 25 256 -51q55 -37 45 -113q-25 -252 -61 -299q-12 -14 -23 5q-10 14 -14 11t-6 -18q0 -6 -1 -9t-2 -8t-3 -8t-4 -5q-6 -6 -12.5 -18.5t-10.5 -16.5q-16 18 -24.5 41.5t-8.5 46t-1 49.5t-1 49q0 80 7 160q4 57 -47.5 86t-110.5 2q25 -4 29 -4q6 -6 0 -10 q-47 -29 -76 -90q-6 -14 -22.5 -42t-27 -50.5t-16.5 -43.5q-10 -33 -36.5 -95t-37.5 -91q-29 -74 -38 -113q-12 -47 -27.5 -151.5t-20.5 -120.5q-10 -31 -10 -37q4 -27 -14 -98q-2 -12 7 -36t9 -34q-8 -104 21 -170q27 -61 90 -53l84 6q12 0 41 17q94 51 131 81l10 7 q10 4 23.5 13t27.5 19q12 10 40 32t44 36q27 25 56 29q4 -8 -10.5 -31t-6.5 -29q-4 -8 -4 -10q-10 -10 -29.5 -22.5t-25.5 -20.5t-17.5 -25.5t-21.5 -27.5q-8 -8 -25.5 -20.5t-21.5 -14.5q-4 -4 -12.5 -13.5t-12.5 -13.5q-80 -74 -112 -88q-51 -25 -117 -65 q-18 -10 -123 -47q-18 -6 -43 -3t-41 -6q-2 0 -21 7q-18 8 -28 0q-4 -6 -10 -7q-16 6 -48 16.5t-50.5 18.5t-42 46t-27.5 63q-33 113 -29 184q12 104 6 135q-2 10 2 33t0 35q-12 25 4 55q6 14 17 68q47 238 61 282q8 23 16.5 69t18.5 71q63 184 207 360q4 4 8 6q2 0 4 -2 t4 -2q18 -20 33 4q29 39 84 74q16 10 20 8q37 -4 42 -6t44 6t43 8zM276 1018l-10 -33q-12 -33 -23.5 -65.5t-11.5 -34.5q-4 -4 -10 -41l-6 -37q-8 -12 6 -29q12 -12 15 4v9q0 10 16 72.5t25 103.5t-1 51z" glyph-name="C" horiz-adv-x="978" unicode="C"/><glyph d="M424 1475q25 -6 69 -11.5t62 -9.5q23 -4 231 -43q8 -2 32 -4t36 -6q135 -41 164 -158q10 -41 12 -82q0 -18 14 -18q6 0 9.5 -3t5.5 -10.5t2 -9.5q18 -129 -17 -250q-25 -86 -28 -131q0 -4 -4 -12q-2 -4 -2 -6q-78 -193 -172 -318l-17 -22q-10 -39 -61 -87t-58 -54 q-8 -8 -20 -7q-8 2 -5 11.5t-1 15.5q-51 -61 -58 -67q-84 -84 -110 -107q-74 -55 -121 -80q-27 -14 -33 -25.5t-10 -39.5q-80 0 -106 -9q-53 -23 -70 19q-4 0 -23 -21q-2 -2 -17 -12t-18.5 -9t-21.5 1q-39 14 -31 53q6 31 15.5 95.5t17.5 99.5q27 98 33 211q6 143 31 286 q6 35 14 100.5t10 75.5q33 205 51 267q6 23 10.5 65.5t8.5 63.5q8 35 18 45q8 6 19 59q2 6 6 43h-45q-16 2 -17.5 6t11.5 23q27 39 90 35q41 -4 59 2q6 2 6 10q-2 23 3.5 27t25.5 -2zM829 1278q-6 -6 2 -14q0 -2 9 -15q12 29 -11 29zM1034 1087q-10 -16 -6 -74.5t2 -72.5 q14 36 4 147z" glyph-name="D" horiz-adv-x="1034" unicode="D"/><glyph d="M461 1446q51 -23 61 -41q0 -4 15 0q45 8 133 14t131 13q8 0 31.5 4t35.5 4q33 2 59.5 -18.5t37.5 -53.5q-90 -23 -146 -22q-94 4 -139 2q-20 -2 -64.5 -9.5t-66.5 -7.5q-16 0 -27 -20q-20 -53 -20 -176q-2 -16 -10 -64q-37 -176 -43 -266q35 6 100 1t98 1q16 2 27.5 -2 t26 -20.5t18.5 -18.5q-29 -23 -49 -25q-31 -2 -62 -14q-49 -16 -149 -20q-20 -2 -24.5 -5.5t-6.5 -23.5q-6 -63 -22 -150q-2 -6 -16.5 -68.5t-16.5 -94.5q0 -14 -15 -58q-33 -76 -34 -151q0 -27 26 -25q4 0 22.5 2t22.5 0q10 -4 8 -14q-10 -8 -42.5 -10.5t-49.5 -18.5 q12 -8 41 2q33 8 108 23.5t115 25.5q20 6 58.5 7.5t56.5 5.5q14 2 27 -9l33 -32q-8 -8 -28 -11.5t-26 -7.5q-2 -4 -1 -8t2 -7t4.5 -6t3.5 -7q14 -27 -17 -27q-12 0 -96 -21q-55 -10 -68 -10q-125 0 -188 -12q-35 -8 -41 -29q-6 -29 -29 -6q-10 8 -47 4q-129 -18 -242 -16 q-6 0 -17 6t-15 8q-12 4 -8 21q2 14 18 18q102 31 108 33q12 94 23 143q16 76 43 223.5t43 223.5q20 88 90 444q6 37 15.5 109.5t15.5 109.5q2 27 -21 27q-14 0 -24 8t-23 10q-20 4 -24 21q20 6 100 22q10 27 10 33q2 12 5 18.5t10.5 11.5t19.5 3q6 0 6 2q10 8 20.5 12 t17.5 6t18.5 0t16.5 -3t18.5 -6t17.5 -7zM121 129q-12 -8 -18.5 -24.5t-9.5 -38t-5 -27.5q25 2 29 6t4 21q0 4 2 18t2 26.5t-4 18.5z" glyph-name="E" horiz-adv-x="819" unicode="E"/><glyph d="M387 1458q4 -4 27.5 -20.5t23.5 -28.5q31 -2 103 6q23 2 86 4t96 8q39 6 108.5 7.5t98.5 5.5q14 2 20 -4q8 -10 -16 -21q-31 -16 -53 -63q-16 -23 -56 -29q-35 -6 -139 -6q-31 0 -79 -3t-60 -3q-72 -4 -98 -15q2 -23 -3.5 -58.5t-5.5 -47.5q-2 -43 -16 -144.5t-16 -152.5 q-2 -16 6 -21.5t28 -3.5q31 4 79 4h60.5t31 1t24.5 1h15.5t14.5 -3t9 -9q-23 -16 -74 -37q-39 -14 -41 -18q0 -2 4 -4q37 -16 -8 -29q-37 -10 -76 -10q-8 0 -18 -2t-24.5 -5t-22.5 -5l-23 -7q-27 -168 -24 -272q0 -20 -8.5 -61t-10.5 -64q0 -14 -7 -74.5t-3 -91.5 q6 -23 -6 -57q-4 -8 -15 -57q-2 -18 -11 -53t-11 -46q-2 -12 -9 -16t-17.5 -5t-14.5 -3q-20 -29 -31 10q8 10 11.5 66.5t-7.5 58.5q-6 0 -8 -16.5t-6 -39t-10 -32.5q-18 -16 -53 -14t-58 12q-20 10 -24 21.5t2 54.5q2 12 12 81.5t18 106.5q6 39 14.5 109.5t12.5 97.5 q4 41 23.5 132t23.5 132q2 16 -6 22.5t-19.5 8.5t-13.5 4q-6 4 -6 22.5t-8 24.5q-14 12 20 29q4 2 22.5 6t24.5 8q31 205 39 264q8 53 15.5 146.5t13.5 136.5q4 29 27 37q29 14 30 -11q0 -6 21 -14q0 20 5 27.5t24.5 13.5t21.5 8zM649 813q-12 -16 -22 -20q-31 -6 -31 0 q-2 10 27 22q20 0 26 -2z" glyph-name="F" horiz-adv-x="776" unicode="F"/><glyph d="M748 1479q-12 -16 -41 -24.5t-39 -16.5q68 -4 98 6q20 6 59 2q47 -6 74 -31q47 -31 41 -94q-2 -47 -25 -117l-16 -63q-10 -23 -12 -25q-12 -8 -19.5 -19.5t-12.5 -26.5t-11 -23h-37q-27 -8 -45.5 2t-22.5 36q-4 14 0 45q4 41 17 144q0 12 -2 36.5t-2 37.5q0 25 -21 30 q-45 16 -90 0t-72 -59q-72 -117 -77 -129q-59 -145 -62 -213q-2 -29 -12 -83t-12 -75q-2 -14 -7.5 -58t-9.5 -69q-14 -68 -18 -196.5t-15 -186.5v-8t-2 -10q-12 -29 -11 -63.5t5 -48t19 -56.5q8 -25 17 -28t36 9q16 8 68.5 40t86.5 42q20 6 23 27q8 61 33.5 185t34.5 186v10 q-94 29 -125 24q-6 0 -11.5 3.5t-7.5 7.5t-4 12t-2 10q8 12 23 13q31 0 89 12t77 14h8q23 16 27.5 12t11.5 -24q2 -2 6 -3t6 -1q8 8 13 28.5t16 30.5q8 0 23 -8t25.5 -8t10.5 -23q0 -12 -1 -36.5t-2 -44t-3 -35.5q-16 -109 -17 -127q-4 -45 -17 -133.5t-17 -127.5 q-2 -23 -8.5 -67.5t-8.5 -67.5q-6 -74 -71 -108q-2 -2 -7.5 -8.5t-11.5 -8.5q-14 18 -39.5 65.5t-44.5 67.5q-8 8 -10 31t-4 27q-10 0 -29 -19q-72 -72 -112 -79q-10 -12 -21.5 -18.5t-29 -10.5t-25.5 -6q-37 -14 -99 -6q-25 2 -84 10q-90 14 -100 78q-12 100 -16 114 q-10 37 2 115q6 45 9 117.5t7 103.5q0 4 37 156q0 2 6 27.5t6 37.5q2 27 15.5 78t15.5 76q2 33 13.5 65.5t29.5 76.5t25 65q12 20 14 28q31 106 160 220q6 6 78 55q8 4 10 4q27 0 53.5 11.5t58 28.5t50.5 24q16 4 44 4t40 2zM244 981q-16 -8 -21 -29q-23 -90 -35 -151 q-4 -12 13 -13q16 104 47 183q0 2 -4 10z" glyph-name="G" unicode="G"/><glyph d="M281 1436q63 4 86 -23q4 -6 12 -6q10 2 21.5 -1t17.5 -6t16 -11.5t15 -10.5q25 -14 20 -47q-4 -43 -20 -125l-3 -12q-2 -31 -13 -107.5t-11 -117.5q4 -150 -16 -279q0 -18 4 -24q55 8 143 22q4 0 4 2q14 14 29.5 19.5t37 4.5t31.5 1h17q8 0 13 1l10 2t7.5 3t4.5 3t5 5 t4 6t4 10.5t5 12.5q10 25 12 69.5t8 63.5q20 82 44 235.5t30 190.5q2 16 2 53q0 25 15 31q8 2 22 13t25 11q18 -2 18 -28q4 -31 -4 -99q-4 -29 -4 -41q-4 -94 -12 -141q-2 -20 -8.5 -68.5t-8.5 -74.5q0 -6 13 -10q10 51 21 133t20.5 149.5t9.5 73.5q6 35 16 -14.5t6 -75.5 q-18 -178 -20 -223q-12 -47 -17 -84q-2 -14 -13 -93t-13 -122q-8 -92 -25 -140q-2 -2 0 -18.5t2 -18.5q0 -96 -18 -168l-4 -22q2 -16 -8 -133q0 -12 -6.5 -38t-8.5 -40q-2 -23 -33 -45q-23 -23 -30 -43q-2 -4 5 -11t-3 -12q-43 -33 -56 -36q-16 -4 -45 -19q-39 23 -22 76 q6 16 4 18q-2 49 20 174q4 16 5.5 51t5.5 54q10 61 10 108q4 43 22 58l5 10q-10 8 -11.5 18.5t2.5 25.5t4 19q-4 16 -14 17q-37 0 -55 -2q-190 -6 -209 -8q-6 0 -18 -4q-8 -12 -9 -54q-2 -8 -2 -21.5t-2 -24.5t-8 -21q-4 -10 0 -19q2 -27 -10 -67q-16 -45 -27 -115 q-2 -12 -5 -39t-7 -43q-12 -49 -10 -59q4 -14 -2.5 -40t-6.5 -34q0 -18 -20 -18q-10 0 -46 -8.5t-55.5 -6.5t-21.5 17q-4 12 -16 -7q-2 -2 -4 -8q-6 -12 -19.5 -16t-39 -3t-32.5 1q-10 20 -4 41q4 29 9.5 84t9.5 84q2 25 10 67.5t10 53.5q0 4 33 210q2 14 -1 18.5t-19 8.5 q-6 2 -16.5 4t-17.5 4t-14.5 7.5t-11.5 13.5q14 8 58 18q35 10 36 45q8 117 35 269q6 39 29.5 181t34.5 220q4 33 2 41q-6 25 12 55q11 17 23 19z" glyph-name="H" horiz-adv-x="933" unicode="H"/><glyph d="M377 1419q8 -2 26.5 -4t28.5 -3t23.5 -8t21.5 -18q41 -55 35 -135q-2 -8 -16.5 -123.5t-18.5 -173.5q-2 -23 -7 -65.5t-8 -77.5t-3 -66v-75q4 -70 -29 -174q-14 -47 -31.5 -135.5t-21.5 -108.5q-14 -82 -33 -109q-8 -14 -4 -41q0 -29 -12 -34q-10 -6 0 -17q8 -10 -9 -35 q-16 -20 -21 -21t-22 11q-27 18 -43 0q-25 -31 -40 -33t-34.5 10.5t-37.5 10.5q-20 -2 -25 20q-4 59 -2 72q4 31 13.5 85t13.5 79q6 33 8 91t4 81q4 78 25.5 220t27.5 194q4 39 16.5 111.5t16.5 103.5q4 37 12.5 85t19.5 104t15 85q6 23 11.5 27t29.5 4q6 2 15 2q4 8 4 20.5 t2 20.5q4 6 15 8t15 6q13 8 19 6zM410 727l4 86q-16 -33 -25 -86l-6 -47q-2 -4 2 -22.5t4 -22.5l-2 -45q0 4 2 6q4 6 10 18q2 4 11 58v55z" glyph-name="I" horiz-adv-x="514" unicode="I"/><glyph d="M526 1442q41 -14 47.5 -24.5t4.5 -55.5q-2 -53 10 -113q2 -45 2 -64.5t-5 -64.5l-7 -63q0 -39 2 -58q-8 -53 -14.5 -138t-12.5 -132q-8 -49 -23 -82q-14 -27 -16 -91t-2 -67q-18 -123 -63 -276q-16 -72 -68 -125q-88 -94 -199 -154q-18 -12 -55 -6q18 18 70.5 48t74.5 53 q-31 8 -59 -15q-63 -53 -119 -82q-12 -10 -19 -13t-23.5 -7t-35.5 -10q-27 -10 -41 0q-4 4 5 8q16 8 -3 12h-16q-70 -18 -67 19q0 4 -6.5 22.5t2 32.5t42.5 22q76 18 148 91q94 94 110 237q4 53 19.5 151.5t19.5 123.5q16 102 45 311q4 35 21 94q14 53 27 156q2 27 9 80 t11 79v5q8 35 21.5 42t46.5 -10q25 37 45 39q6 0 10 8q18 29 61 17zM358 121q-4 -2 -26 -29q20 11 26 29z" glyph-name="J" horiz-adv-x="571" unicode="J"/><glyph d="M979 1435.5q8 8.5 21.5 1.5t11.5 -22q0 -18 -15 -33q-51 -63 -100 -116q-20 -23 -96 -119q-25 -31 -27 -33q-2 -4 -18.5 -21.5t-20.5 -27.5q-2 -8 -12 -23.5t-12 -23.5q-8 -27 -64 -68q-45 -41 -31 -100q6 -33 22.5 -94.5t23.5 -85.5q0 -4 5 -24.5t3 -33.5q0 -12 8 -30.5 t10 -24.5q27 -125 86 -278q43 -119 47 -160q6 -10 2 -25q-2 -33 11 -69q10 -25 4 -37q-47 14 -72 -27q0 -4 -5 -2t-7 2q-10 -4 -28.5 -5t-27.5 -3q-37 -12 -75 31q-35 35 -52 43q-4 -2 -5 -12.5t-7 -14.5q-29 10 -35 49q-18 94 -32 219q-27 160 -35 217q-27 168 -29 230 q2 4 -2 12t-4 12q-18 -10 -23 -43q-8 -135 -16 -200q-33 -297 -39 -322q-4 -43 -25 -63q-4 -4 -8 -14.5t-6 -14.5q0 -2 -2 -8t-3 -9.5t-4 -7.5t-6 -6t-9.5 -4t-12.5 -2q-8 0 -12 -7t-7 -17.5t-7 -16.5q-16 4 -21.5 5t-22 -6t-20.5 -9q-35 -10 -59.5 4t-26.5 45q0 43 8 125 q10 98 23 291q16 168 29 254q8 49 20 145t21 146q23 174 43 241l6 49q0 41 6 49q41 41 35 70l8 6h6q18 -4 49 11q39 18 90 4q31 -6 35 -43q0 -84 -10 -146q-6 -37 -6 -69q0 -37 -19 -138q-4 -37 -11 -106.5t-11 -100.5q14 10 61 62q25 27 131 154q123 147 246 274 q74 74 80 82q6 6 22.5 15t24.5 17.5z" glyph-name="K" horiz-adv-x="892" unicode="K"/><glyph d="M436 1487q4 -4 8.5 -13.5t9.5 -15.5t15 -8q4 0 4 -20l-18 -80q-6 -20 -39 -246q0 -8 -8.5 -46t-6.5 -57q0 -33 9 -38q20 43 26 121.5t19 113.5q14 39 24 120t23 120q20 -18 10 -72l-25 -160q-10 -53 -23 -151.5t-18 -128.5q-33 -215 -30 -275q8 -96 2 -209 q-4 -39 -43 -186q-8 -31 -10 -41q-12 -45 -27 -65q-25 -31 -14 -66q8 -2 14 6q10 14 13 15t14 -11q6 -6 18 -6q66 0 84 4q4 0 121 12q45 0 59 -10q6 -4 35 -4q25 0 31 -4q18 -14 2 -25q-18 -16 -10 -28q8 -10 -9 -17q-4 -2 -25.5 -12t-34.5 -13t-30 -1q-23 2 -74 -4t-75 -4 q-39 2 -170 -9q-18 -2 -83 -5t-95 -9q-55 -8 -74 53q6 6 34.5 9.5t36.5 23.5q0 4 -14 23q-23 45 -20 65q6 55 25.5 179t25.5 188q6 59 20.5 165.5t18.5 141.5q10 61 23.5 175t17.5 148q2 14 18.5 111.5t20.5 149.5q0 27 28 26q16 -2 46 11.5t44 13.5q6 0 15 12q18 29 61 33z M149.5 72q-2.5 0 -12.5 -15q-2 -6 4 -6q8 -2 15 10q-4 11 -6.5 11z" glyph-name="L" horiz-adv-x="782" unicode="L"/><glyph d="M524 1466q12 2 17 -8q14 -51 34 -86q16 -29 21 -82q6 -76 19.5 -234.5t21.5 -234.5q4 -94 12 -149q20 37 47 129q10 31 27.5 93t28.5 95q68 188 73 207q4 12 19.5 55t28 71t28.5 52q35 51 74 43l47 -10q14 -2 29 -14q16 -18 22 -16.5t23 28.5l6 6q2 -2 9 -6t10 -4t14 4 q8 8 26 -2q4 -2 9.5 -6t7.5 -4q45 -14 56 -55.5t-1 -84.5l-6 -22q-4 -63 -30 -181t-30 -137q-27 -150 -30 -254q-2 -35 -8.5 -106.5t-8.5 -106.5q-4 -51 -19.5 -145t-19.5 -131q0 -10 -3 -51t-7 -64q-14 -63 -76 -49q-4 -2 -10 -24q-16 -23 -43 -17q-31 4 -100 55 q-45 33 -35 101q20 143 29 176q12 45 12 106q4 70 20.5 198t20.5 187q2 43 16.5 169t16.5 194l-4 16q-23 -27 -39 -71q-6 -12 -33 -67.5t-37 -86.5q-82 -231 -94 -313q-2 -12 -10.5 -36t-10.5 -34t-10 -32.5t-12 -39t0 -32.5q2 -16 -3 -27.5t-21.5 -29t-18.5 -19.5 q-6 -10 -21 0q-29 12 -37 10q-12 -27 13 -27q8 0 14 -8t10 -19t6 -16q-6 -8 -30 -12q-72 -8 -86 15q-8 12 -39 30q-39 27 -58 92q-51 227 -71 381q0 6 -9.5 88t-15.5 123q-4 45 -10 70q0 -20 -13.5 -60t-11.5 -61q0 -29 -9 -83l-11 -66q-2 -25 -15.5 -114t-17.5 -136 q-2 -25 -5 -68t-5 -79t-2 -66q0 -74 -12 -123q-16 -63 -37 -205q4 -16 -9 -31q-29 -31 -63 -10q-2 -2 -8 -9t-13 -9l-6 12l13 115l41 237q16 86 24 215q10 182 58 445q10 53 27.5 168.5t25.5 167.5q2 8 4 25.5t2 19.5q0 20 27 30q35 10 67 -2q8 4 15.5 15.5t11.5 13.5 q25 23 36 26t37 -10q45 -16 52 -47q0 -8 12 -6q4 8 6 27.5t8 27.5zM1057 1053q-12 -20 -15.5 -45t-0.5 -43.5t-1 -44.5q18 31 24.5 73t-7.5 60z" glyph-name="M" horiz-adv-x="1196" unicode="M"/><glyph d="M539 1425q12 0 12 -6q2 -16 14.5 -38.5t14.5 -34.5q6 -37 9 -119t13 -125q14 -66 33.5 -193t30.5 -182q4 -20 7 -45t6 -53.5t5 -44.5q4 -39 16.5 -119t16.5 -121q0 -10 8 -10q43 160 37 305q-8 -8 -9 -24.5t-1 -18.5q-2 -6 -3 -21.5t-6 -23.5q-10 2 -10 22q8 51 21 158 q2 16 10 50t10 46q2 18 4 38t4 43.5t4 37.5q2 55 17 123q37 199 47 293q2 12 29 43q4 6 20 6q14 -2 32.5 -20.5t18.5 -32.5q-4 -25 -5 -88.5t-9 -98t-18.5 -101t-14.5 -91.5q-2 -14 -9 -66.5t-13 -83.5q-10 -49 -23.5 -141t-19.5 -131q-4 -31 -5.5 -91t-3.5 -79 q-4 -35 -5 -105.5t-5 -107.5q-4 -49 -14 -55q-12 -8 -16.5 -16.5t-3.5 -21.5t1 -18q-2 -10 -2 -28q-4 -45 -47 -60q-16 -10 -20 9q-8 12 -41 16q-6 2 -49 2t-62 12q-16 -8 -36.5 2.5t-26.5 10.5q-33 2 -37 41q-2 18 -6 47.5t-7 55.5t-6 48q-2 39 -13 117t-15 117 q-2 27 -41 319q-23 135 -29 252q0 29 -4 83t-4 71q-12 -4 -12 -17q-63 -354 -88 -508q-10 -66 -23.5 -187.5t-21.5 -176.5q-4 -37 -7.5 -105.5t-5.5 -97.5q-2 -31 -18 -119q-10 6 -30.5 21.5t-35.5 19.5q-18 4 -10 29q2 27 -6 51q-8 16 -4 45q4 39 35 291q6 74 4 84 q0 6 4 22q14 66 28.5 187t22.5 166q27 143 66 397q4 27 8 84q6 23 20 29q4 0 8 2q59 12 84 2q12 -4 33 6q23 10 47.5 14t55.5 5t45 3zM674 90q-6 -29 -2 -33t30 0q0 2 -2 8.5t-2 8.5t-2 6t-5 6t-7 3t-10 1z" glyph-name="N" horiz-adv-x="927" unicode="N"/><glyph d="M610 1483q31 8 39 -10q4 -6 0 -11.5t-12 -10.5t-12 -11q90 14 143 -6q115 -53 135 -150q8 -25 27 -59q47 -111 35 -232q-4 -25 -9.5 -67.5t-10.5 -78.5t-11 -69q-39 -205 -45 -231q-8 -45 -53 -152q-10 -23 -31 -61.5t-36 -70.5t-26 -62q-33 -90 -96 -154l-49 -31 q-53 -43 -104 -43q-23 4 -41 -12q-20 -18 -45 -2q-23 16 -13 37q2 8 -10 31q-14 -18 -45 -18.5t-47 -2.5q-51 -10 -88 37q-14 18 -23 37q-2 4 -7 15t-8 15.5t-8 11.5t-14.5 11t-19.5 4q25 20 10 35q-59 53 -47 186q6 102 27 297q2 45 12 88l45 211q39 170 117 303 q49 84 125 142q8 6 82 43q49 31 67 24q4 -2 25 9q2 0 10 3t12 5z" glyph-name="O" horiz-adv-x="944" unicode="O"/><glyph d="M293 1448q6 -4 28.5 -6t28.5 -15q4 -8 12 -8q12 6 49.5 2t49.5 -4q147 4 182 0q139 -12 188 -53q45 -35 72 -80q8 -12 12.5 -27.5t7.5 -33t5 -27.5q2 -4 0 -10t0 -10q2 -20 -4 -68.5t-6 -65.5q-8 -92 -33 -143l-21 -27q-8 -12 -26.5 -38.5t-25.5 -36t-20.5 -22.5 t-27.5 -19l-111 -68q-16 -10 -22 -12q-31 -12 -62.5 -28.5t-71.5 -40t-61 -34.5q-14 -8 -28 -14q-45 -20 -52 -49q0 -8 -8 -41q0 -41 -15.5 -117t-17.5 -108q-2 -16 -12 -52t-12 -49q-12 -78 -10 -143q0 -20 -5 -27q-8 -27 -26 -16q-10 4 -40 3t-50.5 9.5t-28.5 38.5 q-2 8 0 27.5t3 32t-1 18.5q-4 2 -10 -16q-4 -10 -12 -35q-12 -43 -17 -43q-51 0 -49 51q4 51 12 78q6 18 29 182l18 109q2 12 -3 17t-21 3q-14 -4 -18.5 2t1.5 21q18 29 29 28q8 2 13.5 4t8.5 6.5t3 7.5t1 10t1 9q6 51 16 150.5t17 148.5q27 188 47 293q4 33 39 164 q6 25 10 76q-2 8 0 17t2 11q0 4 -18.5 10.5t-18.5 10.5q2 6 21.5 13t23.5 18q4 8 15.5 13t19.5 3z" glyph-name="P" horiz-adv-x="856" unicode="P"/><glyph d="M631 1452q70 6 131 -63q20 -20 18 -48q-2 -8 8 -30q16 -45 15 -68q0 -39 24 -55q4 8 2 20.5t2 18.5q14 0 15 -21q10 -121 -2 -162q-14 -37 -6 -92q8 -70 -13 -161q-4 -20 -26.5 -131t-38.5 -168q-35 -141 -115 -256q-2 -2 -18.5 -30t-30.5 -40l-6 -25q0 -35 24 -172 q2 -23 27 -33t49 1l17 6q14 2 20 -11q8 -10 -2 -20l-16 -18q-23 -16 -33 -35q-23 -37 -62 -37q-68 0 -92 45q-25 43 -47 129l-8 18q-14 -2 -29 -12q-33 -20 -68.5 -21t-57 6t-60.5 25q-14 4 -16 19q2 23 -11.5 30t-34.5 5q-57 -4 -88 57q-70 133 -41 317q45 291 58 361 q39 195 102 360q39 96 109 187q37 47 114 79q16 6 35 -2q4 0 16.5 -4t20.5 -4q45 -4 66 19q10 12 49 16zM766 1085q-4 -8 -5 -15t1 -16.5t2 -13.5q0 2 4 13.5t4 16.5t-6 15z" glyph-name="Q" horiz-adv-x="841" unicode="Q"/><glyph d="M442 1427q25 -4 54.5 -6t63.5 -3t52 -3q127 -8 166 -39q31 -27 88 -49q35 -18 45 -61q29 -123 13 -193q-4 -10 -1 -31.5t1 -31.5q-16 -115 -133 -211q-18 -14 -58.5 -37t-50.5 -29q-27 -16 -39 -20q2 8 14.5 19t14.5 22q-23 -6 -68 -41q-12 -8 6 -27q12 -14 70 -80 q43 -47 65 -145q33 -154 66 -254q8 -29 8 -45q2 -37 19 -92q6 -12 -2 -47q-10 -29 -33 -31q-4 0 -8 -10q-16 -20 -31 -5q-29 33 -62 11q-8 -8 -22 0q-6 4 -22.5 14t-23.5 16.5t-17.5 18.5t-14.5 24l-11 27.5t-9 24.5q-53 162 -113 411q-14 47 -20 60q-49 -25 -50 -66l-2 -16 q-12 -33 -18 -71t-10 -85t-9 -74q-18 -158 -36 -217q-2 -4 -3.5 -10t-2.5 -9t-3 -8t-5 -7.5t-9 -3.5t-14 -1q-8 2 -13 -12l-12 -31q-8 4 -15 9.5t-14.5 11.5t-12.5 11t-12 13.5t-13 14.5q-47 -41 -84 -13q-45 27 -39 84q2 16 11 48t11 49q4 47 16.5 140t18.5 138q2 18 2 53 q-6 143 35 318q12 55 31.5 161.5t29.5 162.5q27 137 29 153v31q-10 0 -32.5 -7.5t-35.5 -4.5q-2 4 4.5 12t2.5 12q-16 18 14 31q129 40 233 26z" glyph-name="R" horiz-adv-x="925" unicode="R"/><glyph d="M623 1456q76 8 120 -2q72 -20 80 -86l19 -117q4 -20 -21 -94q-2 -8 -16 -15t-19 -14q-6 -10 -20 -30.5t-21 -28.5q-6 2 -9 12.5t-5 12.5q-8 -2 -13 -14.5t-11 -14.5q-4 -4 -5 2q-45 74 -18 145q12 37 6 84q-4 31 -31.5 56.5t-56.5 15.5q-12 -4 -36.5 -13t-28.5 -12 q-29 -12 -54 -53q-6 -10 -20 -37.5t-23 -38.5q-18 -16 -22 -51t10 -49q25 -23 44.5 -50.5t45 -72.5t31.5 -55q31 -49 108 -127q51 -57 82 -117q8 -25 31 -49q18 -20 25.5 -47t8.5 -70t3 -57q2 -8 -10 -133q-8 -43 -33 -55q-12 -6 -16 -27q-25 -74 -86 -148q-27 -35 -58 -36 q-8 -2 -24 -15q-27 -29 -88 -57q-20 -10 -27 -6q-25 10 -66 -10q-100 -51 -245 45q-8 8 -59.5 65.5t-53.5 61.5q-12 20 -6 18q4 -2 16 -10q20 -16 22.5 -13t-5.5 19q-14 33 -9 57q2 14 -9 34t-11 22l-12 24q27 20 41 4q6 -8 10 -10t10 -2t10 -2q4 -4 8.5 -7t8.5 -8.5 t10 -9.5q10 -10 19.5 -28.5t13.5 -24.5q12 -23 65 -49q12 -6 47 -24.5t53.5 -24.5t47 -2t55.5 26q55 51 70 136q6 53 -2 151q0 14 -9 31q-2 4 -17 30.5t-18.5 32.5t-16.5 30t-18 31t-17.5 27.5t-19.5 29.5t-19.5 25.5t-21.5 28t-21.5 25.5t-24.5 27q-90 82 -105 176 q0 14 -9 44.5t-7 49.5q0 33 10 53q2 6 29 73.5t45 100.5q57 106 186 185q33 20 72 14q23 -2 35 -1t37 6t39 7zM274 887q31 -72 136 -166q2 0 -1 12t-8.5 26.5t-11.5 22.5q-8 14 -24.5 29.5t-16.5 22.5q-8 6 -21.5 19t-26 21.5t-26.5 12.5zM0 254q12 0 19.5 -6t13.5 -20.5 t8 -16.5q-6 -2 -11 -2t-8.5 1t-6.5 5t-5 6t-4 8.5t-3 8.5t-3 8v8z" glyph-name="S" horiz-adv-x="849" unicode="S"/><glyph d="M956 1456h23q16 0 22 -20q8 -18 -12 -29q-8 -6 -23.5 -22.5t-25.5 -22.5q-8 -2 -4 -9t4 -10q-29 -12 -55 -10q-70 4 -107 4q-35 2 -80 -4q-35 -4 -45 -30l-15 5t-18.5 5t-17.5 2q2 -8 2 -26.5t5 -30t20 -19.5q4 -2 4 -29q-6 -20 -8 -41.5t-2 -49t-2 -42.5 q-2 -45 -25 -184q-6 -39 -21.5 -132t-21.5 -143q-6 -55 -6 -106q0 -20 -23 -178q0 -6 -6 -32t-8 -40q-4 -29 -16.5 -83t-16.5 -79q-4 -20 -22.5 -54t-24.5 -50l-4 -8q-8 -4 -28.5 -7.5t-30.5 -9.5q-6 -4 -23 4q-6 4 -20.5 13.5t-18.5 11.5q-18 8 -35 -2q-23 -12 -44 5 t-15 44q4 23 7 49.5t6 58t5 48.5q6 70 31 137q25 82 19 123q-4 39 4 67q6 20 8 54t4 47q20 147 33 221q20 160 47 238q0 2 18 96q18 72 21 76q4 6 4 41q-2 14 -21 18q-88 4 -118 0q-25 -4 -69 -4h-54q-20 -4 -33 12q6 8 20 12q18 6 19 25q0 16 22 23q18 4 117 10q6 0 219 31 q20 2 81 11t104 12t81 1q70 -6 170 2zM461 1315q0 4 -6 -2q-8 -10 -11.5 -34t7.5 -26l12 -2q-2 6 2 34t-4 30z" glyph-name="T" horiz-adv-x="839" unicode="T"/><glyph d="M475 1468q20 4 21 -16q10 -76 -4 -141q-8 -31 -13 -152q0 -27 -5 -57.5t-13 -68.5t-12 -58q-4 -29 -16.5 -88.5t-18.5 -89.5q-20 -104 -45 -183q-12 -39 -21 -122l-12 -117q-4 -51 0 -72q4 -14 13 -64.5t16 -76.5q2 -14 16 -38t18 -32q10 -31 56 -31q53 0 73 15 q90 55 107 162q14 92 43 186q8 25 6 35q4 39 13.5 81t22.5 94t19 79q14 53 15 133q2 96 30 223q0 2 19 164q0 6 2 19.5t3 20.5t6 17t13 19q2 2 9 41q4 27 24 28q35 2 39 -22q4 -27 0 -41l-10 -62q18 25 21 74t14 72q8 2 12 -1t2 -9q4 -16 -2 -27q-8 -31 -15.5 -91.5 t-13.5 -90.5q-2 -12 -7 -34t-5 -26q-10 -31 -14 -92q-10 -170 -17 -205q-43 -190 -49 -241q-2 -27 -41 -234q-4 -27 -33 -96q-12 -35 -10 -66q8 -72 -65 -149q-20 -20 -52 -25q-23 -4 -77 -20q-25 -10 -45 -10q-16 6 -23 -5q-10 -18 -49 -14q-31 6 -60 -2q-63 -10 -124 29 q-18 12 -52 35.5t-51 35.5q-59 37 -63 144q0 55 -2 82q0 8 6 26.5t6 26.5q4 43 45 281q33 174 47 325q10 100 64 311q4 12 16 53.5t16 63.5q8 33 21.5 46.5t46.5 21.5q12 4 18 0q10 -12 47 -8q2 0 9.5 -1t9.5 0t7 5t7 12q10 14 41 18z" glyph-name="U" horiz-adv-x="866" unicode="U"/><glyph d="M1047 1536q0 -6 -23 -49q-4 -10 -22.5 -45t-26.5 -57.5t-10 -45.5q-4 -23 -12.5 -46t-21.5 -53t-20 -44q-10 -27 -28.5 -90.5t-30.5 -95.5q-59 -162 -84 -219q-16 -37 -49 -162q-31 -90 -39 -107q-6 -16 -13.5 -49t-13.5 -49q-6 -10 -20 -68q-20 -74 -39 -108 q-27 -53 -41 -103q-14 -53 -31 -86q-2 -2 -7 -12t-8 -19.5t-3 -13.5q-6 -16 -12.5 -24t-11.5 -11.5t-17 -7.5q-4 -2 -6 -2q-4 8 4 28.5t2 29.5q-16 -6 -19 -17q-25 -61 -86 -71q-4 0 -26 10q-12 8 -29 0q-14 23 -20.5 51.5t-8.5 67t-6 57.5q-25 96 -32 178q-4 35 -5.5 140.5 t-13.5 160.5q-6 33 -2 74q4 45 -9 128t-13 114l-5 192q0 25 -2 37q-4 20 0 27q4 23 6.5 24.5t-5 23t-7.5 23.5q-4 43 0 90q4 16 15 21q10 -14 12 -52t10 -55q16 80 12 131q-2 35 31 37q47 8 64 -24l4 -13q8 0 20 15.5t20.5 28t19.5 0t24 -59.5q0 -4 12 -66q2 -27 10 -82 t10 -83q8 -139 9 -213q2 -47 28 -111v-18q0 -47 11.5 -135.5t11.5 -131.5q0 -197 4 -256q29 68 65 181q14 51 31 94q6 10 45 147q8 41 17 64q16 33 34.5 95t28.5 87q10 29 26.5 92.5t28.5 95.5q18 45 97 232q37 80 45 88q14 25 26 29q0 -4 -2 -21q-4 -16 -1 -16t12 8l14 20 q12 23 19 33t23 22.5t30 14.5zM983 1528q2 -14 -2 -24.5t-12 -11.5t-15 1q0 12 7.5 21.5t14.5 12.5t7 1zM518 215q-2 -2 -23.5 -54t-23.5 -54.5t-1 -18.5t3 -20q18 18 19 26q46 131 26 121z" glyph-name="V" horiz-adv-x="884" unicode="V"/><glyph d="M1231 1454q18 0 22 -27q10 -29 -10 -88q-53 -152 -82 -247q-57 -205 -112 -369q-10 -31 -24.5 -90.5t-20.5 -79.5q-8 -31 -27 -82q-6 -18 -45 -215q-10 -41 -23 -123q-4 -33 -14 -43q-10 -12 -6 -31q0 -27 -12 -41q-35 -6 -95 7q-49 10 -61 59q-43 254 -45 334 q-2 47 -8 133t-9 119q-4 43 -8 129q-51 -156 -57 -221q-4 -18 -17.5 -60.5t-15.5 -66.5q-8 -53 -49 -205q-6 -20 -16.5 -60.5t-19.5 -72t-19 -58.5q-8 -16 -29.5 -47t-24.5 -35q-25 14 -63 29q-2 0 -7 2t-8 2t-7.5 -2t-8.5 -10q-10 -10 -16 0l-17 20q-6 -2 -11 -13t-15 -11 q-4 6 -12.5 18t-13.5 19.5t-8 20.5t-1 26q0 18 -20 22q-37 8 -37 58l12 305q6 197 23 338q2 27 -3 121q-4 59 0 241q-4 37 -8 59.5t2 141.5q6 6 16.5 6t14.5 2q8 6 4 14q-2 31 11.5 42.5t43.5 5.5q23 -4 41 -19q2 -2 7.5 -8t7.5 -7t12 1q2 2 26.5 6t32.5 20l5 -2q2 0 2 -2 q43 -106 34 -198q-4 -59 -9 -167t-7 -143q0 -25 -5 -70.5t-5 -62.5l-2 -213v-51v-59.5v-51.5q0 -10 4 -38q35 57 42 73.5t13 57.5q6 39 23 67q2 2 9 14.5t8 15.5t4 15.5t-3 16.5q0 6 4 14q25 61 57.5 175t42.5 144q4 12 28 90t40 117q8 25 16 74q4 16 22.5 26.5t29.5 -1.5 q4 -6 12 -9.5t13 -3.5t15.5 1t14.5 1q16 -2 20.5 -3t6.5 -5t2 -18q0 -18 1 -40t3 -47.5t2 -39.5q2 -31 2 -100.5t4 -106.5q4 -47 7 -99.5t6 -115t5 -96.5q4 -82 11 -127q10 2 10 14q4 16 21.5 64.5t21.5 76.5q8 45 49 178q6 18 13 55.5t10 47.5q12 53 40 108q6 10 56 138 q63 184 86 235q10 25 14 53q6 25 31 29z" glyph-name="W" horiz-adv-x="1118" unicode="W"/><glyph d="M829 1454q12 -76 -47 -180q-25 -41 -71.5 -129t-67.5 -121q-100 -176 -96 -188q6 -20 7 -67.5t5 -61.5q4 -18 5 -46t5 -47q35 -164 39 -231q0 -18 7.5 -76.5t5.5 -93.5q-2 -16 3 -46t5 -36q0 -14 4 -18q6 -16 1 -25.5t-20.5 -29t-19.5 -29.5q0 -2 -1 -8.5t-2 -8.5t-3 -5 t-6 -4t-11 -1q-2 0 -4 -12.5t-4 -17.5t-14 5q-20 0 -29 11q-12 12 -74 -4q-41 -10 -51 30q-2 14 -24.5 104.5t-22.5 141.5q2 31 -18 143q0 10 -3 33t-3 29q-8 -6 -37 -53q-16 -25 -84 -166q-10 -20 -39 -62q-8 -14 -78 -121q-29 -41 -74 -40q-27 0 -14 22q37 55 91 169 t61 126l114 219q10 16 31 45q12 16 10 31q-6 37 -14 111.5t-15 109.5q-2 18 -30 139q-27 104 -31 217q-2 12 -2 34t-1 36t-6 31.5t-13 32.5l2 12q8 4 16 1t12 -1l4 4q2 4 4 6q2 20 33 35q33 12 69 -7.5t56 -68.5q2 -4 2 4q0 6 -2 23q-6 47 -2 49q6 4 36 -34t56.5 -89 t26.5 -78q0 -33 3 -59.5t9 -61t10 -59.5q0 -14 4 -18q14 6 25 36q20 33 53 103.5t68 116.5q6 8 34.5 41.5t39.5 52.5q8 18 26.5 44.5t24.5 37.5q8 12 26 18z" glyph-name="X" horiz-adv-x="735" unicode="X"/><glyph d="M860 1444q39 -23 17 -72q-6 -12 -36 -73.5t-48 -92.5q0 -2 -3.5 -7t-3.5 -9q-6 -37 -23.5 -76t-43 -85t-37.5 -73q-70 -150 -88 -178q-27 -45 -37 -108q-4 -27 -8 -78t-8 -76q-4 -27 -26.5 -163t-35.5 -210l-4 -26q-4 -82 -39 -127q-18 12 -24 12t-27 -16 q-18 -14 -25.5 -15.5t-21.5 9.5q-2 2 -10.5 9t-12.5 11q-18 18 -30 14q-4 0 -6 2q-2 0 -8.5 11.5t-16.5 7.5q-8 -4 -13 -16.5t-9.5 -16.5t-8.5 -6q-8 6 -12 35q-2 94 51 342q25 102 25 198q4 100 -21 138q-10 14 -20 98q-12 115 -29 362q-8 139 -29 195q-4 12 21 61 q8 8 14 5q113 -4 160 -99q33 -63 41 -78q10 33 0 62q-4 12 12 35q27 -23 27 -50q-2 -27 12 -47q14 -29 14 -65q2 -43 11.5 -123t11.5 -111q2 -33 25 -114q198 416 323 604zM401 1389q16 0 13 -13q8 -16 -2 -18q-4 -2 -9 2q-14 4 -10 18q-4 11 8 11z" glyph-name="Y" horiz-adv-x="755" unicode="Y"/><glyph d="M913 1434q49 -10 95 -2q4 0 8 -5q0 -8 -13.5 -20t-11.5 -23q0 -8 -24 -14q-10 -2 -12.5 -5t-4.5 -11t-8 -19q0 -8 -4 -24.5t-4 -24.5q6 2 10 4t6 5t5 6.5t5.5 6.5t4.5 5q6 10 26 30q6 6 21 3q4 -2 4 -17q-8 -18 -15 -20q-41 -39 -61 -99q-8 -16 -27.5 -37.5t-25.5 -31.5 q-8 -16 -21.5 -50t-21.5 -51q-43 -96 -72 -133t-80 -157q-18 -43 -37 -68q-29 -39 -65 -115q-18 -33 -50 -92t-44 -82q-10 -16 -29 -61q-10 -23 -48 -101.5t-57 -124.5q68 6 189 3q27 0 88 4t92 2l37 -6q25 -4 25 -23q0 -8 -29 -20q-18 -4 -68.5 -31t-77 -29t-61.5 2 q-16 4 -46 3t-46 1q-16 4 -31 -2q-20 -4 -88 -4q-57 0 -78 -6q-14 -2 -21 -1t-22.5 4t-23.5 3q-61 0 -101 -12q-8 -2 -26.5 -5t-26.5 -5q-6 -2 -18 -2q-31 10 -35 32q-2 8 3 14.5t12 12.5t11 12q-16 74 37 142q68 88 117 196q12 25 31 49q0 -4 1 -10t1 -8l6 6 q74 176 111 246q16 35 50 95t38 67q25 45 67.5 124.5t61.5 112.5q37 70 108 184q12 23 56 86q-78 8 -99 9q-6 0 -22.5 -8.5t-22.5 -6.5q-51 6 -59 2q-6 -2 -19 2q-35 12 -168 17q-35 0 -47 20q-16 23 11 39q20 14 45 10q57 -8 161.5 -6t163.5 -2q14 -2 72 8q63 12 119 -2 q31 -8 45 5q5 8 28 4zM641 702q-14 -12 -43 -77q4 8 15.5 23.5t18.5 27.5t9 26zM557 569q-25 -25 -86 -149q-39 -78 -88 -160q-6 -12 -38 -69.5t-44 -90.5q35 0 39 13q8 23 38 77t36 86q4 12 12 25q6 8 15.5 23.5t13.5 19.5q8 18 19 40t24.5 49.5t21.5 41.5q6 14 47 90 q-8 4 -10 4z" glyph-name="Z" horiz-adv-x="917" unicode="Z"/><glyph d="M600 1503q2 -2 25 -2q4 0 14 -1t16 -3q8 -4 8.5 -14t-8.5 -17q-25 -20 -37 -32q-8 -10 -36 -11q-16 0 -19 -6q-14 -16 -35 -12q-16 2 -53 -4t-55 -2q-6 2 -6 -13q0 -10 2 -55t0 -55q-6 -55 -23 -129q-6 -25 -9 -74t-7 -72q-10 -88 -15 -96q-6 -14 -10 -69 q-14 -68 -16 -123q-4 -43 -12 -86q-6 -49 -7 -103q-2 -41 -16 -88q-4 -10 -4 -28.5v-22.5q-10 -37 -18 -111q-2 -20 -8.5 -63t-9.5 -79t-3 -62q2 -31 -31 -93q-8 -25 -4 -28.5t23 -1.5q12 0 36.5 1t36.5 1q55 4 84 -10q10 -4 31 2t25 6q23 2 37 -17q4 -4 -2.5 -12t-4.5 -14 q4 -16 -12 -33q-4 -4 -12 -9t-14.5 -10.5t-10.5 -11.5q-4 -2 -16 -2q-25 10 -27 -14q2 -4 -10 -4q-23 -4 -72 4q-47 8 -116 -6q-66 -14 -129 4q-25 8 -13 35q4 12 -14 30l-6 15q-4 76 6 149q2 25 9 80t9 78q8 72 21 125q8 29 22 129l19 164q20 176 33 264q4 53 10 70 q2 8 8 67q6 55 49 260q2 12 9.5 45t9.5 51q0 14 22 46q-2 -10 6 -9q8 2 9 -6q10 31 -3 37q-4 2 -4 7t2 11.5t2 8.5q2 6 5.5 7t6.5 0t5 1q23 4 47.5 4t53 -2t44.5 -2q2 0 70 12q8 2 30.5 9.5t32 6t29.5 -11.5z" glyph-name="bracketleft" horiz-adv-x="641" unicode="["/><glyph d="M326 1499q6 -31 24.5 -93.5t24.5 -94.5q4 -27 27.5 -130.5t27.5 -148.5q2 -18 4 -74.5t8 -85.5q8 -39 23.5 -115.5t23.5 -115.5q8 -47 20.5 -168t27.5 -184v-8.5t2 -10.5q14 -158 22 -188q14 -55 23 -141q4 -43 -17 -60q-14 -10 -33.5 -33.5t-33.5 -35.5q-35 96 -35 116 q0 47 -16 97q-2 6 -5.5 16t-5.5 16q-10 51 -18 147.5t-12 131.5q-6 39 -15.5 116.5t-13.5 116.5q-2 23 -8 64t-10.5 73.5t-6.5 63.5q-2 10 -10 42t-10 50q-6 41 -20.5 113t-18.5 94q-35 158 -39 217q0 51 -14 123q-2 8 -2 25q-2 20 4 24t14 -1t8 3q0 27 18.5 38t41.5 1z" glyph-name="backslash" horiz-adv-x="731" unicode="\"/><glyph d="M381 1503q25 10 34 11.5t29.5 -6t28.5 -9.5t21.5 -5t23.5 -5t21 -2q129 6 145 2q2 -2 5 -1t6 0t3 -7v-6.5v-8.5t-3 -7t-7 -5q-10 -6 -10 -37q2 8 10 6t10 9q8 -35 7 -46q-4 -18 -6.5 -52t-4.5 -44q-2 -20 -12 -116.5t-18 -143.5q-16 -59 -17 -67q2 -31 -8 -70 q-6 -29 -16.5 -83t-18.5 -98t-14 -83l-33 -164q-16 -115 -16 -129q-2 -31 -21 -125q-14 -98 -31 -178q-16 -78 -43 -150q-4 -10 -8 -14q-25 -20 -24 -31q4 -27 -23 -35q-68 -18 -131 -6q-63 14 -114.5 6t-73.5 -4q-8 4 -9 4q4 16 -4 17.5t-18 -4.5q-12 0 -14 2 q-2 8 -14.5 18t-14.5 12q-10 14 -2 33q4 4 0 13.5t2 13.5q18 18 41 16q6 0 23.5 -5t29.5 -1q33 14 86 10q12 0 37 -1t37 -1q18 -2 24.5 3t4.5 28q-12 66 4 133q8 35 20 97.5t19 86.5q16 74 18 111q0 8 5 24.5t5 26.5q0 51 13 88q20 78 22 103q2 14 6 42.5t8 43.5l25 123 q0 8 5 32.5t5 36.5q0 14 2 30.5t5 36t6 29.5q4 23 16 72t16 74q4 74 17 129q4 18 34 110q2 12 -2 13q-18 -4 -53 2t-51 4q-27 -4 -31 12q-2 6 -18 6q-29 0 -33 11q-20 23 -31 32q-6 6 -3 16.5t16 14.5q6 2 16 3t14 1q23 0 25 2z" glyph-name="bracketright" horiz-adv-x="632" unicode="]"/><glyph d="M504 1462q6 0 37 -4q6 0 10 -14q4 -18 20 -8q18 6 19 4q20 -20 18 -29q-6 -10 -4 -12q14 -18 14 -58.5t5 -52.5q2 -6 4 -28.5t6 -34.5q4 -8 5 -24.5t3 -22.5q20 -147 29 -187q6 -25 14 -77t14 -76q4 -41 2 -62q-6 -96 -10 -110q-10 6 -12 16q-4 20 -37 20t-39 17 q-12 16 -27 24q-41 23 -57 115q-6 35 -8 104.5t-6 100.5v61q-10 2 -15 -6q-20 -57 -67 -133q-31 -61 -57 -82q-4 -4 -7 -8q-8 -31 -28 -49q-10 -12 -15.5 -38t-9.5 -34q-4 -14 -16.5 -37.5t-16.5 -34.5q-4 -12 -16 -12q-10 0 -12 -6q-12 -18 -37 -6q-16 12 -27 22 q-12 20 -37 7q-2 10 -10 22q-10 20 10 66l43 84q10 18 26.5 55t25.5 53q25 47 71.5 131t67.5 121q4 6 38 72.5t48 103.5q4 8 8 25q8 22 33 22z" glyph-name="asciicircum" horiz-adv-x="720" unicode="^"/><glyph d="M516 -72q104 0 148 -30q-51 -61 -132 -62h-194q-10 0 -31 -4q-72 -10 -213 -14q-27 0 -31 14q0 12 -20 8q-18 -2 -41 4q-16 2 -12 27q4 18 20 27q14 6 35 6q90 12 178 18q45 4 165 5t128 1z" glyph-name="underscore" horiz-adv-x="813" unicode="_"/><glyph d="M238 1241q14 4 20 -4q6 -20 29 -6q39 29 65 2q49 -45 58 -80q8 -16 34.5 -39.5t32.5 -38.5q6 -10 4 -20q-8 -4 0 -17q4 0 12.5 -7t14.5 -7q10 -6 16 -35q-33 -4 -35 -4q-6 -2 -10 4l-2 -4q0 -25 -18 -16q-8 0 -13 -11q0 -6 -4 -8t-7 -1t-5 5q-4 6 -10 10.5t-15.5 7.5 t-13.5 5q-57 35 -94 67q-8 6 -19.5 24.5t-21.5 25.5q-39 23 -41 24q-2 4 -6 10.5t-6 9.5t-5 9t-3 11t2 12.5t6 13.5q0 4 -1 8t-1 8q20 0 30 25q-3 10 7 16z" glyph-name="grave" horiz-adv-x="501" unicode="`"/><glyph d="M569 850q49 0 86 -41q43 -55 15 -119l-2 -12q4 -57 -23 -148q-4 -10 -4 -27.5v-21.5q-16 -143 -31 -211q-2 -14 -14 -51t-14 -47q-4 -23 0 -70q35 -4 77 27q43 14 122 73.5t87 63.5q-4 -37 -49 -86q-10 -10 -33.5 -27.5t-50 -37t-35.5 -25.5q-51 -39 -120 -76 q-59 -35 -140 -32q-18 0 -37 32q-4 14 -22 45q-14 0 -23 -12q-16 -16 -20 -16q-14 -2 -33.5 -16.5t-32.5 -18.5q-10 -8 -37.5 -5t-35.5 3q-10 0 -15 -4q6 -2 11 -4l16 -4q-8 -10 -80 -9h-8q-80 6 -100 39q-29 45 -36 65.5t-3 55.5l8 80q12 94 90 180q72 78 176 103 q12 4 32.5 8t38 9t33.5 13q10 6 32 1t34 -1q16 59 29 211q4 25 -4.5 31t-32.5 -2q-86 -33 -174 -35q-2 0 -9.5 -1t-11.5 -3q-27 -12 -38 -9t-29.5 13t-30.5 10q0 14 10 15q18 4 72.5 20.5t75 18.5t42 9t48 17t41.5 15q43 12 51 14q37 4 63 -14q43 -25 60 -23q6 10 -4 18 q-6 2 -8 5q-14 2 -17 10zM31 102q0 -4 -4 -10t-3 -9t5 -7q6 -4 13 -16.5t11 -16.5q2 0 14.5 -14.5t28.5 -12.5q-39 57 -47 78q-4 20 -12 21q-4 -1 -6 -13z" glyph-name="a" horiz-adv-x="763" unicode="a"/><glyph d="M289 1270q23 8 30 -8q16 -33 35 -50q6 -6 6 -22q-2 -29 -1 -51.5t0 -50t-5 -50.5q-12 -57 -25.5 -161.5t-21.5 -145.5q-4 -8 6 -12q90 72 234 110q76 20 96 -36q8 -2 12 7t11 7q14 -8 12 -16q-4 -25 2 -41q4 -18 12 -21q23 -4 23 -37q-4 -141 -39 -272v-10 q6 -37 -27 -134q-27 -90 -55 -137q-31 -51 -90 -110q-37 -37 -94 -54q-20 -4 -27 -2q-14 10 -46 16.5t-46 14.5q-10 6 -23 23q-4 4 -14 25.5t-21 29.5q-10 -16 -15 -52t-19 -53q-12 -2 -16.5 10.5t-8.5 14.5q-10 -29 -18 -35q-8 6 -39 36t-54 40q-4 -4 -7 -16.5t-11 -16.5 q-31 18 -22 58q6 23 7 60.5t3 53.5q25 197 47 295l18 123q20 115 70 422q2 16 12 80.5t17 99.5q4 27 10 33t33 14q24 7 49 21z" glyph-name="b" horiz-adv-x="749" unicode="b"/><glyph d="M451 848q4 -4 17 -8t17 -9q8 -6 17 3q25 18 43 -5q12 -6 14 -8q68 -47 55 -137q-8 -72 -30 -96q-10 -12 -33 -31.5t-29 -26.5q-8 -8 -14 -4q-14 2 -18.5 1t-14.5 -10t-16 -11q-18 31 -13 65q16 78 23 117q8 45 -11.5 74t-51.5 29q-29 4 -44 -21q-39 -45 -40 -47 q-27 -31 -23 -70q-4 -27 -8 -30q-16 -31 -35 -138q-8 -39 0 -75v-7q-6 -23 -5 -60.5t-1 -59.5q-18 -88 -2 -142q14 -37 20 -45q25 -29 64 -16q16 4 47 10t48 10t42 13.5t45 21.5q96 55 139 98q8 8 30 22.5t30 20.5q27 20 59 15q-4 -12 -13 -24.5t-15.5 -17.5t-22.5 -18.5 t-21 -17.5l-32 -31q-14 -14 -84 -69q-16 -14 -76 -45q-35 -20 -59 -31q-18 -6 -53.5 -11.5t-57.5 -19.5q-86 -53 -137 -10q-20 14 -41 6t-37 0q-100 61 -94 186q0 76 6 115q41 242 65 318q35 100 54 135q35 61 84 63q2 0 47 23q90 49 166 6zM244 690q-12 -8 -18.5 -47 t-2.5 -51q10 10 19.5 49t1.5 49z" glyph-name="c" horiz-adv-x="614" unicode="c"/><glyph d="M993 279q0 -16 -14 -31l-10 -10q-37 -49 -68 -54q-10 -2 -22 -18q-53 -55 -86 -78q-20 -14 -31.5 -22.5t-23 -20.5t-19.5 -20q-29 -23 -88 -33q-109 -18 -152 57q-4 4 -10 14.5t-8 12.5q-4 39 -6 45v6q-27 -47 -66 -111q0 -2 -10 -13t-26.5 -23.5t-28.5 -14.5 q-94 -6 -181 49q-49 35 -69 142q-2 8 -7.5 23.5t-7.5 23.5q-10 20 -11 44.5t1 60.5t2 48q-2 66 35 201q31 102 84 182q66 92 156 107q4 0 14 4l8 4q41 10 55 -8q14 -14 17 -15q72 -25 106 -77q25 88 67 251.5t58 227.5q18 4 23.5 4t15.5 -11.5t15 -13.5q4 8 4 9q0 25 6 30.5 t28 3.5q20 -4 31 0q23 10 31 -20q4 -45 4 -139q0 -12 2 -60.5t-4 -60.5q-4 -47 -22.5 -134t-22.5 -122q-12 -76 -29 -125q-18 -59 -24 -115q-4 -45 -13 -84q-10 -47 -8 -78q-4 -70 -12 -94q-6 -27 -6 -78t47 -26q23 12 45 20t35.5 17.5t36.5 33.5q18 18 38.5 33t52 31 t44.5 25q8 4 24 0zM608 72q-8 -10 -8 -27q4 -16 18 -8q10 4 5 18q-5 13 -15 17zM152 68q6 -12 27.5 -34t33.5 -20q-4 10 -26.5 31t-34.5 23z" glyph-name="d" horiz-adv-x="864" unicode="d"/><glyph d="M332 858q31 0 30 -2q-2 -8 -22.5 -12t-24.5 -13q10 -10 27 3q76 39 139 14l29 -12q4 -2 16.5 -8.5t20.5 -12.5l20 -14q20 -14 34.5 -66.5t12.5 -101.5q-6 -70 -36 -131q-2 -2 -8.5 -14.5t-10.5 -17.5t-11 -12t-18 -9q-8 -2 -12 -15q-10 -4 -43 -25.5t-63 -31.5 q-12 -4 -33 -14.5t-33 -14.5q-14 -4 -27.5 -11t-32 -18.5t-32.5 -17.5q4 -14 8 -43t9 -50.5t14 -37.5q6 -12 19 -25.5t20 -23.5q25 -41 73 -25q35 12 84 25.5t82 28t80 43.5q53 33 74 38q10 4 55 31q20 10 27 8q0 -16 -6.5 -27.5t-11.5 -16.5t-17 -13t-19 -12 q-29 -18 -34 -27q-37 -35 -117 -74q-41 -18 -74 -41q-45 -23 -57 -30q-20 -12 -51 -20.5t-37 -14.5q-41 -27 -154 -31q-55 0 -86 37q-70 80 -82 154q0 4 -1 10t-3 10q-4 76 -4 80l12 108q10 106 54 224q57 147 112 209q52 53 109 63zM195 182q-23 -27 -11 -51q33 -76 70 -92 q2 6 8 8q-4 6 -17.5 28.5t-23.5 33.5q-8 12 -15 37.5t-11 35.5zM276 72q4 -23 27 -29q-7 25 -27 29z" glyph-name="e" horiz-adv-x="673" unicode="e"/><glyph d="M596 1331q12 -4 16 -12q-86 -18 -112 -16q-10 2 -31 -9q-8 -4 -16.5 -10t-16.5 -16.5t-12 -14.5q2 -2 22 9q57 35 105 32q8 0 10 2q23 8 29 8.5t19.5 -11t17.5 -13.5q8 -4 13 -18.5t-5 -18.5q-10 -2 -30.5 -13t-31.5 -13q-59 -18 -92 -76q-14 -29 -78 -191 q-8 -23 -18 -102q27 -6 78 7t76 11q-51 -80 -101 -84q-16 0 -61 -18q-18 -6 -25 -25q-4 -31 -24.5 -127t-24.5 -149q0 -6 -8 -98.5t-16 -139.5q-33 -246 -52 -368l-6 -9l-4 -8q-6 -2 -9 6.5t-5 17.5t-6 9q0 -41 -62 -145q-20 27 -49 28q-23 2 -31 37q-2 18 -22 55 q-23 53 -13 125q12 127 21 191q18 143 31 192q4 25 16 72t19.5 87t7.5 75q0 8 10 84q4 29 2 41q-39 0 -59 -13q-25 -16 -41 7q-12 20 12 36q4 4 4 27q-2 18 3 25.5t26 9.5l51 6q20 2 25.5 6t9.5 27q2 18 10 54t10 54q18 109 58 181q25 45 92 102q80 66 192 86q68 10 76 8z " glyph-name="f" horiz-adv-x="485" unicode="f"/><glyph d="M326 836q51 14 77 -17q4 -4 12.5 -7t10.5 -5q78 -25 78 -109q0 -12 2 -18q2 0 4 -2q4 -2 6 -2q23 92 21 125q0 43 34 30q35 -10 66 -45l10 -12q8 0 12.5 10.5t10.5 12.5q51 -41 49 -78l-12 -109q-4 -43 -13.5 -131t-13.5 -133q-2 -33 -21 -158q-8 -29 0 -49q6 0 10.5 2 t9.5 6.5t7 6.5q59 27 174 104q14 8 47 8q-27 -49 -92 -94q-14 -10 -29.5 -21.5t-35.5 -25.5q-23 -16 -66 -41q-18 -8 -35 -25q-27 -23 -20 -45q10 -57 -21 -104q-6 -10 -10 -35q-8 -86 -61 -178q-76 -123 -142 -176q-31 -31 -57 -31q-14 0 -59 -25q-104 -43 -115 -47 q-33 -12 -45.5 -7t-26.5 36q-6 12 -20 12q-43 4 -64 64q-4 16 -4 78q-2 59 55 133q16 20 38 42.5t35 36t43 40t38 34.5q14 12 46 27.5t42 24.5q10 6 88 61q4 4 30.5 17.5t31.5 25.5q2 4 8 68v51q-31 -14 -39 -31q-8 -14 -29.5 -36.5t-30.5 -37.5q-10 -16 -47 -34l-59 -25 q-37 -12 -82 16q-8 4 -30.5 18.5t-35.5 20.5q-18 10 -28 39q-37 98 -35 203q0 197 125 420q47 74 78 100l9 9t10 8.5t9.5 4.5t12.5 2t12 -8z" glyph-name="g" horiz-adv-x="808" unicode="g"/><glyph d="M223 1296q53 10 80 -28q4 4 8 10t8.5 9t10.5 1q12 -2 8 -20q4 -37 20 -41q2 0 9 -17q0 -16 6 -59t6 -68q0 -8 -6 -31.5t-4 -35.5q4 -45 -25 -178q-2 -14 -4 -51t-8 -60q25 14 71 68q51 51 91 75q74 43 139 15q35 -14 86 -78q8 -10 0 -29q-10 -61 -12 -65q0 -6 -1 -27.5 t-4 -34.5q-4 -25 -14 -69.5t-14 -63.5q-10 -47 -15 -174q-12 -86 -12 -90q-4 -12 -8 -42t-10 -46q-6 -25 6 -41q4 -4 18 6q4 2 5 1t3.5 -2t5.5 0t11 6t20 16q25 23 71 48t71 44q68 47 108 63q-2 -2 -6 -21.5t-6 -21.5q-59 -35 -86 -76q-31 -29 -35 -30q-23 -4 -61 -43 q-8 -8 -26.5 -21.5t-27.5 -23.5q-25 -31 -59 -52q-57 -35 -72 -45q-23 -16 -39 -12l-14 2q-4 0 -15.5 -8t-17.5 -2q-4 4 -12 10t-13 10t-10.5 11.5t-7.5 15.5l-6 16q-8 111 2 152q23 90 35 125q12 57 10 84q-2 25 1 52.5t7.5 46t12.5 54t10 48.5q8 45 55 196q12 31 -6 41 q-20 12 -35 6q-10 -4 -28 -18l-41 -33q-2 -2 -5 -3t-6.5 -3t-7.5 -6q-14 -10 -36.5 -31.5t-32.5 -30.5q-6 -4 -17 -18q-43 -70 -53 -146q-12 -72 -8 -149q0 -96 -33 -186q-10 -27 -10 -84q-2 -39 -19 -80q-12 -31 -32 -31q-8 0 -14.5 -12.5t-16.5 -12.5q-31 16 -51 5 q-14 -8 -19 4q-43 51 -37 94q0 31 -4 37q-14 20 -6 71q23 168 41 263q10 68 23 202q2 51 30 252q43 270 50 297q7 47 30 94z" glyph-name="h" horiz-adv-x="796" unicode="h"/><glyph d="M326 1448q18 2 24 -4t4 -23q-6 -16 17 -39q59 -63 -9 -112q-6 -4 -20 -16.5t-26.5 -17.5t-26.5 -3q-6 8 -23.5 7t-29.5 3q-94 53 -7 154q36 41 97 51zM248 860q31 0 44 -13t17 -46q0 -14 6 -19q18 12 23.5 10.5t3.5 -22.5q0 -16 -8 -31q-12 -31 -12 -61q-2 -51 -31 -258 q-6 -53 -10 -158q-2 -18 -3.5 -55t-3.5 -55q0 -10 -2 -27q-4 -23 -1 -29t26 0q84 37 117 58q78 47 86 49q25 12 32 20q43 29 68 8q-23 -25 -57 -49q-51 -35 -76 -67q-14 -20 -41 -23q-4 0 -41 -24q-6 -4 -20.5 -10.5t-20.5 -12.5q-16 -20 -27 -27q-8 -6 -38 -16l-41 -12 q-12 -6 -29 -6q-4 0 -10 1t-9 1q-4 -2 -11 -7.5t-11 -7.5q-16 -4 -35 11l-22 8q-25 8 -33 18q-6 4 -17.5 7t-13.5 5q-23 29 -22 115q4 53 24 164q27 139 41 199q27 92 35 172q0 16 10 58t8 67q2 10 31 39q33 22 74 26z" glyph-name="i" horiz-adv-x="460" unicode="i"/><glyph d="M303 1389q18 4 21 -5q4 -14 -11 -20q-2 -4 -9 -10t-9 -11q2 -6 7 -10t9 -5t12.5 -2t12.5 -3q-4 -8 -13.5 -27.5t-18.5 -35t-23 -27.5q-27 -16 -35 -14q-23 2 -51 -9q-27 -6 -37 17q-12 27 8 73q4 16 21.5 31t21.5 21q12 23 51 26q6 2 20.5 5.5t22.5 5.5zM162 885 q63 16 117 -2q10 -6 12 -9q0 -10 11 -35.5t7 -43.5q-4 -25 -4 -69v-54q-14 -195 -31 -260q-25 -98 -22 -148q2 -18 -7 -46t-12 -42q-6 -29 5 -39q12 4 20 9.5t18.5 14.5t20.5 15q25 18 80 41q20 6 37 27q8 8 18 15t24.5 15.5t20.5 12.5q27 20 45 -8q-39 -20 -88 -68 q-14 -14 -45 -28.5t-43 -22.5q-72 -55 -102 -72q-18 -10 -27 -31q-2 -14 -8 -40.5t-8 -39.5q-14 -66 -27 -106q-4 -33 2 -41q4 -4 -6 -33q-49 -131 -174 -198q-86 -47 -100 -54q-33 -10 -39 -10q-4 0 -11.5 1t-11.5 1t-10 1t-10 4t-7.5 8.5t-5.5 11.5q0 2 -8 10 q-53 41 -12 143l29 62q20 41 28 49q86 106 123 137q6 6 16.5 12.5t22.5 12.5t18 10q10 113 11 117q2 76 16 163t35.5 189t32.5 162l22 219q0 8 9.5 21.5t17.5 15.5z" glyph-name="j" horiz-adv-x="374" unicode="j"/><glyph d="M289 1257q10 -4 24.5 -16t22.5 -14q4 2 10 11t10 11q29 -6 35 -39q18 -109 -18 -215q-6 -31 -4 -49q2 -90 -25 -203q-8 -33 -14 -95t-8 -77q14 -4 24 13q27 27 77 72.5t91 85.5t74 77q18 14 50 41t52 39q51 39 49 25q0 -4 -1 -21.5t-6 -31t-15 -17.5q-18 -8 -35.5 -24.5 t-35 -39t-28.5 -32.5q-20 -23 -76.5 -75t-84.5 -85q25 -14 39 -34.5t31.5 -61.5t21.5 -49q16 -33 46 -113t52 -119q10 -20 25.5 -61t21.5 -54q8 -25 17 -32q20 -27 20 -68q-23 -10 -41 -14q-47 -10 -59 16q-8 16 -31 0q-4 -2 -8 -13t-6 -13t-13 4q-2 4 -7 0t-12 -11.5 t-11 -9.5q-41 33 -49 66q-4 16 -21 49q-53 106 -94 285q-4 25 -22.5 64.5t-24.5 57.5q-18 -12 -17 -26q-2 -16 -6 -45t-7 -52.5t-5 -44.5q-6 -39 -39 -161q-14 -61 -14 -80q-2 -53 -45 -105q-16 -16 -25 -4q-2 2 -9 13.5t-9 11.5h-9q-23 -35 -30 26v11q-2 8 -17 -8 q-8 -8 -12 -9q-6 0 -13 -5t-14 -3q-4 2 -12 22.5t-10 20.5q-23 16 -16 68q16 129 83 512q6 37 23.5 110.5t24.5 110.5q2 27 11 87t11 93q2 23 7 66t7 57q6 16 9 18q10 2 15 8.5t6 10.5t2 14t1 13q13 56 66 40zM381 549q-6 -12 2 -17q2 -2 5 -11t8 -15t10 -4q0 2 -4.5 15 t-8.5 22.5t-12 9.5z" glyph-name="k" horiz-adv-x="751" unicode="k"/><glyph d="M279 1368q33 -10 43 -35q20 -49 18 -92q-4 -55 6 -74q6 16 7 47t7 46q12 2 17.5 -4.5t1.5 -14.5q-2 -23 -1 -33t6 -30.5t7 -30.5q6 -8 2 -67.5t-5 -74t-10 -87t-13 -103.5q-4 -33 -52 -266q-33 -182 -32 -240q2 -25 -4.5 -69.5t-6.5 -59.5q-2 -12 -6 -41.5t-5 -42 t3 -41.5q39 10 57 23h5q4 2 8 2t17 6t34 16q8 4 22.5 10.5t23.5 11.5t11 7q23 18 78 47t62 33q27 12 43 2q-78 -84 -152 -123q-35 -18 -74 -45t-59 -39q-25 -14 -37 -20t-18.5 -7.5t-22.5 -2.5t-39 -5q-80 -16 -130 23t-54 110q-2 127 22 267q6 35 32 144.5t32 168.5 q12 127 67 446q8 45 23 189q0 4 -1 11t0 12.5t7 7.5t20.5 10t20 9t19.5 -1zM213 115q-35 -29 -20 -68q8 -18 24 -4q4 43 -4 72z" glyph-name="l" horiz-adv-x="487" unicode="l"/><glyph d="M819 877q18 18 42 13t40 -30q20 -33 8 -80q-8 -78 -6 -102q4 -20 -6 -86q-27 -131 -59 -404q-20 -115 -39 -172q-4 -2 -10.5 5.5t-12.5 5.5l-6 -19q-23 -31 -45 -31q-6 0 -15.5 -4t-18.5 -4t-17 8q-14 16 -35 -24q-45 18 -53 92q-6 66 8 148q4 27 24.5 164t34.5 208v17 l-6 -7q-63 -143 -172 -321q-25 -35 -24 -72q0 -29 -23 -14q-27 10 -31 10q-4 -10 -5 -33.5t-7 -35.5q-84 -10 -106 71q-8 31 -22.5 91.5t-23.5 88.5q-29 92 -22 185q0 49 -10 71q-14 -125 -68 -354q-25 -119 -35 -176q-6 -31 -45 -135q-14 -6 -20 4q-23 39 -26 53.5t5 65.5 q14 113 60 303q6 27 15 80t15 80q10 45 20.5 125.5t16.5 115.5q2 4 3 14.5t2 15.5t4.5 12t7.5 9q29 16 63 7q25 -8 45 4q45 27 86 14q16 -4 12 -12q-10 -16 9 -35q20 -23 24 -72q2 -39 33 -145q20 -102 39 -156q2 -10 2 -29.5v-31.5q8 8 12 16t8.5 19.5t6.5 15.5l157 328 q35 68 70 108q4 8 14 8q0 -55 29 -104v88q41 15 53 25z" glyph-name="m" horiz-adv-x="980" unicode="m"/><glyph d="M618 858q20 -2 38 -10t37.5 -20.5t31.5 -18.5l6 -8q0 -8 10.5 -52t6.5 -73q-25 -174 -54 -293q-6 -27 -13 -76t-11 -69q-2 -10 4 -107q2 -16 31.5 -27.5t44.5 -3.5q41 25 111.5 67t109.5 66q10 8 18 0q0 -2 -10 -21t-15.5 -27.5t-16.5 -20.5t-23 -17q-72 -37 -105 -77 q-20 -27 -67 -50q-29 -25 -72 -36q-37 -23 -57 -25q-96 -6 -127 70q-33 70 -19 172q8 86 29 200q31 190 72 301q10 25 10 72q0 23 -14.5 30t-36.5 -11q-135 -113 -195 -228q-37 -74 -41 -180q-2 -37 -12 -74q-45 -201 -53 -278q-6 -29 -39 -37q-6 -2 -25 -14q-49 -31 -70 16 q-10 27 -20 31q-6 -4 -8 -13.5t-4 -11.5q-14 6 -23 41q-16 88 -4 145l41 281l57 360q4 20 9.5 24.5t23.5 0.5q20 -4 31 0q27 10 49 -8q8 -8 25.5 -20.5t25.5 -18.5q25 -25 17 -64q-10 -41 -7 -120q14 8 29 32q29 55 113 148q69 69 161 53z" glyph-name="n" horiz-adv-x="860" unicode="n"/><glyph d="M356 872q27 12 47 -2q0 -6 -8 -14t-8 -14q4 0 12.5 -2t12.5 -2t10 4t8 16q2 4 8 4q4 2 6 2q63 6 146 -51q8 0 4 -8q4 -16 51 -88q10 -14 14.5 -31.5t6.5 -43.5t4 -36q0 -41 -2 -61q-4 -29 -4 -129q-4 -80 -31 -115q-12 -16 -21 -51q-4 -57 -55 -125q-37 -51 -74 -100 q-14 -18 -77 -43q-10 18 -7.5 24t18 13.5t17.5 13.5q-12 6 -34.5 -6.5t-61.5 -27.5t-49 -19q-43 -23 -80 2q-51 31 -109 88q-51 59 -63 153q-6 84 29 238q12 90 75 221q66 127 168 166q12 4 47 24zM340 -35q4 8 22 17q16 4 17 -5q2 -14 -12 -18q-15 0 -27 6z" glyph-name="o" horiz-adv-x="735" unicode="o"/><glyph d="M199 877q39 -4 41 -21q0 -14 22 -14q33 -2 37 -41q10 -90 14 -101q68 53 82 68q70 66 144.5 78t138.5 -15q20 -6 37 -34q66 -104 53 -179q-16 -94 -10 -145l-4 -18q-10 -31 -19.5 -90.5t-13.5 -73.5q-8 -45 -39 -92q0 -10 -37 -66q-12 -20 -76 -92q-14 -14 -47 -33 q-4 20 20.5 44t20.5 42q-8 -8 -22.5 -26.5t-27.5 -30.5t-30 -21l-4 -4q-2 -4 -4 -6t-4 -17.5t-14 -17.5q-23 -6 -66 -6q-63 2 -104 62q-10 12 -26.5 37.5t-22.5 33.5q-10 -25 -20.5 -69.5t-16.5 -61.5q-8 -37 -17.5 -104.5t-15.5 -98.5q-16 -80 -35 -112q-4 -8 -7 -24.5 t-5 -22.5q-10 -33 -17 -37q-6 8 -25.5 20.5t-31.5 27.5t-14 40q-16 -31 -25 -55q-33 27 -39 69q-4 31 3.5 88.5t7.5 71.5q4 98 49 299q10 35 23.5 106.5t21.5 108.5q14 59 29.5 166.5t23.5 146.5l20 88q8 45 13 93q0 39 39 39z" glyph-name="p" horiz-adv-x="815" unicode="p"/><glyph d="M303 811q8 -10 33 -2q37 12 115 -14q12 -4 12 -13q-2 -12 2 -20t14 -18.5t13 -14.5q18 -14 16 -35q-2 -16 12 -28q12 16 23 67q6 45 6 47q4 18 18.5 27.5t32.5 1.5q33 -18 33 -21q2 -6 12 -6q25 2 32 -2t9 -24q14 -51 2 -97q-8 -45 -20.5 -126.5t-18.5 -114.5 q-6 -43 -19.5 -144.5t-23.5 -156.5q-2 -8 -10 -71.5t-18 -96.5q-10 -27 -14.5 -75t-8.5 -69q-45 -197 -49 -213q0 -2 -37 -69q-2 4 -7 13t-8 12t-7.5 5.5t-8.5 -5t-10 -21.5q-10 -10 -33.5 -3t-27.5 19q-27 66 -25 111q2 18 2 48v48q-2 35 29 199l12 71q-8 2 -29 -8 q-20 -12 -82 -22q-66 -14 -104 33q-16 16 -33 8q4 -12 23.5 -27.5t25.5 -28.5q-49 -4 -65 29q-2 2 -5 7t-5 7t-5.5 6.5t-8.5 5.5t-11 1q-23 -2 -31 28q-31 70 -18 142q4 37 10 111.5t10 111.5q6 98 66 209q29 53 78 106q8 8 22.5 23.5t26.5 27t26 19.5q19 12 27 2z" glyph-name="q" horiz-adv-x="763" unicode="q"/><glyph d="M244 864q53 -35 61 -57q8 -18 4 -41q0 -10 2 -14v-2q2 -4 2 -7q18 12 50 36t38 28q78 53 162 33q53 -14 82 -58q-20 -29 -49 -14q-18 8 -31 -4q-6 -6 -24.5 -11t-26.5 -18l-14 -10q-94 -33 -148 -117q-6 -10 -14 -33.5t-19 -35.5q-23 -23 -22 -54q-8 -80 -14 -112 q-6 -45 -14.5 -127t-12.5 -115q-4 -29 -16 -102q-2 -12 -22.5 -49t-31.5 -46q-31 45 -80 5q-6 -10 -17 -4t-15 6q-4 -2 -4 -9.5v-9.5h-9q-51 59 -34 150q16 88 28 260q2 47 21 114q18 63 28 154q2 12 8.5 34.5t8.5 33.5q14 68 8 118q-10 14 8 19q6 2 8 0t3.5 -6t3.5 -6 q16 8 20 45q6 4 25.5 11t27.5 15q7 8 19 0zM559 748q27 10 38 5t24 -30q-6 -6 -7 -2q-41 16 -84 -6q-31 -23 -57 -25q6 10 18.5 17.5t14.5 9.5l14 10q6 2 20.5 10.5t18.5 10.5z" glyph-name="r" horiz-adv-x="581" unicode="r"/><glyph d="M440 866q4 10 40 3t42 -7l-10 -8q-39 -29 -12 -29q14 0 -19 -18q-12 -6 -26 -12q-6 -6 -21 -11q-51 -12 -65 -28q-6 -8 -22.5 -18.5t-27 -23t-8.5 -28.5q0 -12 -4 -37q0 -14 25.5 -47t44.5 -47q66 -59 94 -127q16 -37 19.5 -110.5t-11.5 -116.5q-10 -23 -82 -119 q-14 -20 -36.5 -37.5t-41 -25t-47 -17.5t-36.5 -14q-6 -4 -27 -8q-41 -16 -105 4q-59 18 -59 22h8l-2 2q-18 8 -41 23q-23 14 -30 21t-8 17.5t-5 16.5q-8 18 2 18h4h4q0 4 -10 19q-4 10 -2 10q4 -2 7 0t5 2q8 0 24.5 -12t16.5 -4t-8 18t-20.5 22.5t-16.5 18.5q-2 10 4 10 q4 0 19 -10q14 -14 22 -16q4 -2 15.5 -10.5t26 -15.5t30.5 -9q35 -23 84 -8q47 37 57 67q29 100 -10 179q-20 43 -106 143q-57 80 -4 188q37 86 106 101q14 4 25 14q25 16 108 31q61 12 90 24zM221 485l-33 33q-4 -4 0.5 -13t15.5 -28.5t13 -23.5l29 -60q4 -4 9 -11t10 -11 t9 -4q6 23 5 26l-19 27z" glyph-name="s" horiz-adv-x="561" unicode="s"/><glyph d="M276 1276q49 -29 62 -123q2 -18 3 -40.5t2 -51.5t1 -43q16 2 43 2t39 4l61 4q-2 -2 -14 -4q4 -2 19.5 0t39 5t29.5 3q47 0 62 -18q8 -6 -11 -15q-8 -4 11 -10q20 -8 24 -12q-16 -14 -37.5 -21.5t-61.5 -12.5t-44 -5h-28.5t-39.5 -2q-51 -10 -67 -8q-23 2 -28 -3t-9 -30 q-6 -41 -9.5 -114.5t-7.5 -106.5q-14 -147 -22 -189q-6 -33 -9 -69.5t-5.5 -81.5t-4.5 -70q-2 -23 -4 -65.5t-4 -63.5q0 -33 37 -65q8 -8 21 -2l45 20q23 10 56.5 29.5t54 30t32.5 10.5q18 0 0 -31q-14 -23 -35 -33q-18 -10 -39.5 -30.5t-34.5 -28.5q-72 -43 -73 -43 q-12 -2 -31 -15q-53 -39 -135 -32q-4 0 -11.5 2t-12.5 2t-13 -6q-6 -4 -16 10q-8 33 -15 49q-4 20 -18 14q-8 -4 -12 7q-33 57 -35 122q2 74 20 179q8 43 23.5 145t25.5 158q4 18 56 250q6 33 2 43q-23 -6 -65 -5.5t-40 9.5q10 0 42 7t44 9q-23 4 -34 4t-35.5 -4t-30.5 -4 q-35 0 -43 8t-4 41q20 2 79.5 12.5t82.5 12.5q10 0 11 2t3 14q8 35 12 68q0 29 25 94q6 4 8 -6v-19q-2 -31 2 -41q23 41 23 95q3 41 38 59zM201 147q-2 -4 -1 -15t3 -30l2 -16q-2 -4 4 -7t6 -5q4 -14 25 -17q8 -2 8 4q0 2 -6 11q-8 10 -17.5 29.5t-14.5 32.5t-9 13z" glyph-name="t" horiz-adv-x="524" unicode="t"/><glyph d="M752 848q8 -4 4 -39q-2 -8 -8.5 -48t-6.5 -63q-2 0 0 -30v-29q4 -63 -14 -102q-6 -12 -10 -58q-6 -41 -19.5 -118.5t-19.5 -118.5q-4 -23 -13.5 -71t-11.5 -73q-6 -37 5.5 -54t39.5 -3q20 4 25 8q16 10 205 123q33 18 49 18q4 -14 -1 -25t-20.5 -24.5t-17.5 -15.5 q-27 -27 -57.5 -39t-55.5 -35q-4 -2 -13 -8t-16.5 -10t-13.5 -4q-12 0 -16 -6q-14 -18 -59 -35q-16 -8 -29 -19q-18 -14 -80 -14q-18 8 -46 17.5t-42 15.5q-27 14 -39 35q-29 41 -25 92v4q-2 4 -2 6q-8 0 -16 -4t-12 -8t-11.5 -12.5t-11.5 -12.5q-39 -39 -82 -76 q-55 -49 -131 -37q-59 10 -104 60q-14 14 -19 47q-12 152 21 285q6 27 0 51q-2 47 -1 61.5t11 62.5t12 62q4 23 22.5 88.5t18.5 102.5q4 47 33 47q10 0 43 3t47 1q31 -2 60 -43q23 -29 26.5 -71t-0.5 -64.5t-16 -77.5q-27 -125 -29 -146q-2 -25 -13 -75t-13 -68 q-4 -70 -11 -90q-8 -33 29 -70q10 -10 37.5 -5t44.5 22q16 14 45 44.5t35 37.5q8 8 16 39q12 59 25.5 168.5t21.5 152.5q33 180 33 211q4 18 18 18q18 0 51 12.5t46.5 10.5t40.5 -23q4 2 17.5 12.5t23.5 6.5zM246 49q-18 8 -25.5 7t-34.5 -21q25 -9 60 14z" glyph-name="u" horiz-adv-x="847" unicode="u"/><glyph d="M76 889q43 10 64.5 9t60.5 -17q12 -4 18 -21q0 -4 5 -23.5t7 -29.5q6 8 8.5 25.5t6.5 25.5q27 -14 39 -76q2 -10 18 -149q2 -27 9 -74t11.5 -86t4.5 -76q-2 -55 6 -166q10 -2 16 15q49 82 66 143q31 94 131 324q29 61 39 92q6 14 22 39q18 25 43 14q18 -6 6 -31 q-18 -51 -63 -153l-10 -25q-4 -23 -37 -98q-8 -18 -23.5 -54t-23.5 -53q-14 -29 -27.5 -61.5t-29 -72.5t-23.5 -62q-14 -45 -17 -60q-6 -20 -8 -26q-23 -27 -40 -86.5t-33 -81.5q-4 -2 -5 -8q-2 -6 0 -13.5t-1 -13.5t-11 -10q-10 -2 -14 0t-10.5 7t-10.5 7q-39 12 -59 2 q-10 -8 -26.5 3.5t-18.5 27.5q-10 66 -14 82q-2 8 7 22.5t9 22.5q12 -12 20.5 -39t12.5 -33q-8 92 -41 117q-39 31 -39 90q0 96 -19 240q-6 49 -11 141t-9 127q0 39 -19 55q-20 16 -4 53q1 11 17 15z" glyph-name="v" horiz-adv-x="589" unicode="v"/><glyph d="M979 915q14 -4 8 -20q-2 -6 -8 -21.5t-10 -25.5q-23 -49 -54 -168q-18 -66 -88 -219q-51 -113 -75 -193q-12 -33 -41 -93t-35 -73q-6 -16 -25.5 -46.5t-27.5 -49.5q-2 -10 -9.5 -14t-33.5 -19q-47 23 -76 72q-6 -4 -6 -11t-4 -9q-53 27 -62 84q-4 25 2 143 q4 37 12.5 109.5t10.5 109.5q4 20 -4 27q-18 -18 -29 -47q-8 -20 -61.5 -132t-71.5 -176q-6 -23 -27.5 -69.5t-27.5 -73.5q-4 -16 -15 -25q-18 8 -24.5 6.5t-22.5 -18.5q-18 -20 -27.5 -22t-31.5 10q-49 20 -56 90q-2 20 -2 45t1 53.5t1 44.5q4 106 2 127q-8 55 -8 252 q-6 223 -6 225q0 25 2 27q8 -4 10 -21.5t9 -21.5q4 8 1 26.5t1 28.5q14 -6 35.5 5.5t31.5 11.5q6 16 16.5 21t30 4t21.5 -1q25 2 41 -14t16 -43q0 -70 2 -82q6 -43 -2 -104q-4 -29 -4 -84.5t-2 -81.5q-8 -106 -4 -160v-41q10 10 33 53q25 55 77 166q84 166 93 189 q12 23 12 45v53q4 66 61 49q49 -10 82 -31q16 -16 19 -20q37 -61 37 -162q4 -160 -19 -319q-4 -16 4 -21q8 6 19 31q20 39 57 121t59 123q6 12 27 67q10 31 35.5 89.5t36.5 84.5q2 6 9 27.5t13 34.5l2 14q2 12 7.5 16t17.5 4l6 13h2q0 2 5 6t11 8q4 2 9.5 10t11.5 6z" glyph-name="w" horiz-adv-x="907" unicode="w"/><glyph d="M711 852q14 -16 0 -37q-119 -170 -217 -264q-14 -12 -80 -90q-18 -18 -6 -35q6 -27 6 -29q-8 -51 12 -108q10 -27 15 -81t10 -69q4 -35 14 -51q4 -8 9 -25.5t7 -21.5q4 -14 -10 -31.5t-27 -17.5q0 -8 -7 -14.5t-15 -6.5t-16 2q-8 0 -27 17.5t-22 15.5t5 -45q-2 -2 -20 4 q-59 23 -84 96q-4 10 -26.5 74t-30.5 98q-6 2 -25 -12q-16 -16 -56 -54t-68.5 -67.5t-51.5 -58.5q-10 -12 -21.5 -18.5t-34 -9.5t-24.5 -3q14 16 35.5 55t36.5 56q23 29 50.5 57.5t63 64.5t52.5 52q23 23 18 49q-45 156 -51 283l-12 141q0 37 19.5 56.5t53.5 15.5 q96 -12 133 -95q41 -92 46 -112l18 -82l6 -2q41 53 91 102t125 110.5t106 90.5z" glyph-name="x" horiz-adv-x="647" unicode="x"/><glyph d="M129 842q39 -20 55 -17q6 2 9.5 -2t1.5 -10q0 -14 14 -20q57 45 78 -17q49 -158 55 -323q0 -27 14 -113q2 -6 5.5 -37t11.5 -49q8 27 18 51q55 180 113 293q27 47 76 176q12 35 20 41q18 0 18 -12q0 -14 4.5 -40t2.5 -40q-14 -129 -82 -260q-49 -94 -88 -232 q-14 -49 -54 -129q-14 -25 -24 -65q-12 -45 -47 -121q-12 -25 -27.5 -69t-23.5 -62q-4 -20 -13 -29q-29 -33 -47 -94q-27 -72 -67 -108q-2 -4 -7.5 -13.5t-9.5 -15.5q-10 -20 -31 -21q-6 0 -9 3.5t-3 11.5t-2 10q-10 29 6 63q10 23 19.5 47.5t19.5 55.5t17 47q31 86 104 254 q16 37 -10 49q-12 -27 -33 -35q-35 45 -43 92q-4 25 -23.5 114t-30 147.5t-12.5 117.5q-2 25 -12 71t-12 62q-20 139 -17 172q2 4 8.5 2t8.5 0q2 4 0 12.5t0 12.5q6 49 49 29z" glyph-name="y" horiz-adv-x="632" unicode="y"/><glyph d="M559 838q14 2 42 -2.5t40 -4.5q6 0 7 -4t1 -8t4 -6q16 -10 16.5 -24.5t-5 -21.5t-19.5 -28q0 -2 -8 -10q-6 -12 -23.5 -33.5t-29 -42t-17.5 -41t-16 -42t-25.5 -49t-23.5 -42.5q-55 -111 -111 -184q-12 -16 -23.5 -35.5t-22.5 -45.5t-17 -38q-4 -6 -11.5 -20.5 t-11.5 -22.5t-13 -19.5t-22 -19.5q51 -2 154 10q96 14 170 -20q-4 -6 -24.5 -20.5t-22.5 -28.5l-8 -4q-82 -25 -117 -21q-18 4 -82 3t-82 -1q-49 0 -139 -20.5t-131 -22.5q-53 -2 -66 58q10 6 30.5 7t29.5 3q2 4 4 20.5t6 24.5q4 10 -7.5 16t-9.5 17q305 399 441 657 q-8 6 -27 2q-80 -18 -168 -8q-18 4 -31 0q-23 -10 -38 2q-14 12 -51.5 23.5t-51.5 17.5q76 23 105 22q49 -2 149 -2q125 0 189 2q30 1 67 7zM459 772q0 -20 18 -14q8 2 8 12q-10 12 -26 2zM287 203l-8 2q-6 -10 -34 -51t-44 -64q8 -8 16 -4q58 84 70 117z" glyph-name="z" horiz-adv-x="684" unicode="z"/><glyph d="M666 1483q12 2 41 -21q10 -6 -13 -32q-4 -6 -32 -13q-29 -4 -37 -4q-23 0 -27 -22q-4 -16 -15.5 -50t-15.5 -51q-6 -31 -27.5 -94t-25.5 -98q-2 -14 -5 -39t-5 -45.5t-2 -38.5q0 -12 -4 -84q0 -14 -5.5 -42t-5.5 -46q0 -6 -16 -74l-8 -29q-8 -23 -16.5 -29.5t-30.5 -8.5 q-8 -2 -18.5 -15.5t-12.5 -15.5q-10 -4 -30.5 -8.5t-28.5 -6.5q45 -37 59 -41q10 -2 23 -18q57 -84 38 -176q-2 -12 -7 -49t-9 -58q-14 -102 -31 -133q-12 -27 -4 -67q2 -31 -2 -97q-2 -14 1 -36.5t3 -30.5q0 -18 22.5 -31.5t47.5 -9.5q33 2 33 -23q0 -8 -12.5 -19 t-24.5 -15.5t-36 -5.5t-32 -3q-70 -8 -100 2q-51 18 -84 72q-37 74 -23 193l13 88q12 57 41 172q27 98 12 184q-12 61 -59 61l-31 3q-31 4 -31 -3h-6q-4 6 -7 16.5t-5 14.5q-4 6 -4 29q0 8 8 18.5t8 16.5q0 2 6 6q12 2 32.5 11t29.5 11q61 18 94 58q8 8 8 32q-10 74 -6 187 q2 84 31 192l49 136l18 43q27 39 43 51q10 8 28.5 25.5t28.5 25.5q29 18 48 14q12 -4 36 8q10 8 22.5 11.5t22 3.5t26 -1t22.5 -1z" glyph-name="braceleft" horiz-adv-x="657" unicode="{"/><glyph d="M305 1516q18 6 23.5 4t9.5 -17q2 -10 18 -18q4 -2 5 0t1 6q16 25 25 10q2 -4 2 -76q0 -20 -18 -127q-4 -27 -17.5 -99.5t-17.5 -111.5q-8 -55 -2 -118q-2 -20 -7 -58.5t-8 -48.5q-6 -29 -34 -137q-4 -18 -33 -193q-14 -74 -10 -163q0 -14 -9.5 -38t-11.5 -28 q-18 -90 -16 -149q0 -63 -8 -113l-11 -25q-8 -16 -8 -49q8 -92 -2 -131q-4 -20 -35 -65q-2 -4 -12 -39t-14 -41q-14 -16 -19.5 -16.5t-11.5 8.5q0 12 -3 26.5t-3 18.5q-10 -4 -14.5 -18.5t-8.5 -18.5q-14 4 -14 8q-2 2 -2 4q-2 6 -10 4q-6 -2 -11 -14l-2 -4v-4q-12 0 -16 16 q-4 29 8 109q14 86 21 118q2 10 3 26.5t1 21t24 167.5q4 10 4 32v26q2 23 7.5 92t9.5 106q16 135 31 207q2 12 9 39t9 33q14 59 25 125q14 115 41 258q12 57 26 156q2 16 14 53q27 100 29 143q0 10 17 76q-1 19 26 27z" glyph-name="bar" horiz-adv-x="335" unicode="|"/><glyph d="M344 1481q68 8 98 -2q51 -18 84 -72q37 -74 23 -193q0 -4 -12 -88q-4 -29 -41 -172q-27 -100 -11 -184q8 -61 60 -61l28 -4q31 -2 33 4h6q2 -4 5.5 -15.5t5.5 -15.5q4 -4 4 -29q0 -8 -7.5 -18t-7.5 -17q-4 -4 -8 -6q-10 -2 -30.5 -11t-30.5 -11q-61 -18 -94 -58 q-8 -8 -9 -32q12 -80 6 -187q-2 -84 -30 -192q-6 -27 -24.5 -74t-22.5 -61q-4 -6 -10.5 -20.5t-10.5 -22.5q-27 -39 -43 -52q-10 -8 -28.5 -26.5t-28.5 -24.5q-27 -18 -47 -14q-12 4 -35 -8q-10 -8 -23.5 -11.5t-21.5 -3.5t-24.5 1t-22.5 1q-8 0 -16.5 3t-16.5 9.5t-10 8.5 q-10 8 14 33q4 6 33 12q25 4 35 4q20 0 28 23q4 18 15.5 53t15.5 47q6 29 26.5 93.5t24.5 98.5q14 98 13 123q0 12 4 84q0 14 6 42t4 46q0 6 16 74l8 29q8 23 16.5 30t31.5 9q6 2 17 15t15 15q8 4 16.5 6.5t22 4.5t21.5 4q-53 39 -60 41q-8 2 -24 18q-57 84 -39 176 q4 18 8 53t8 54q14 102 31 133q10 23 6 67v97q0 12 -4 67q0 18 -21.5 30.5t-48.5 10.5q-33 -2 -32 23q0 8 12 19t24 16q14 4 38 5t32 3z" glyph-name="braceright" horiz-adv-x="657" unicode="}"/><glyph d="M1026 711q2 -2 4 -6l2 -5q0 -6 -10 -61q-2 -16 -31 -45q-12 -10 -34.5 -33.5t-34.5 -34.5q-14 -10 -23 -8q-2 0 -5 1t-5 1q-2 -2 -4 -2q-53 -39 -88 -47q-59 -23 -88 -16q-18 4 -39 -9q-31 -14 -74 -6q-20 6 -41 19q-16 8 -27 8q-20 2 -38.5 11t-39 23.5t-32.5 20.5 q-39 20 -99.5 28.5t-105.5 -15.5q-37 -33 -49 -39q-10 -10 -19 0q-6 -10 -22 -27q-20 -20 -29 2q-14 35 8 68q10 12 27.5 37.5t30.5 37.5q37 47 112 78q66 29 142 17q16 -4 45.5 -19.5t42.5 -19.5q51 -23 63 -23q18 2 60 -24q63 -39 188 -7q61 16 135 78q12 16 27 8 q6 -2 6 -24q4 4 35 29q8 4 10 4z" glyph-name="asciitilde" horiz-adv-x="1056" unicode="~"/><glyph d="M293 854q8 0 22.5 2t23.5 2t15 -6t6 -15.5t-1 -21.5t-1 -18q-2 -8 2 -29q0 -41 -28 -61q-43 -35 -88 -54q-4 -4 -14.5 -1t-12.5 3q-29 0 -41 13.5t-18 37t-12.5 34t-2.5 16.5q12 18 9 41q-4 25 24 37q8 2 28.5 10t30 11t30 5t28.5 -6zM215 524q10 -6 21 -45l6 -10 q20 8 18 -10v-4q4 -33 12 -47q20 -33 7 -99q0 -8 -5 -14q-6 -74 2 -88q8 -18 -1 -50t-7 -44q6 -53 -16 -215q-2 -14 -7 -41t-6 -40.5t1 -39.5q2 -12 -2 -39q-8 -57 -11 -88q-29 -123 -28 -139q0 -10 -7.5 -20.5t-13.5 -16.5t-19.5 -17.5t-17.5 -15.5q-18 -12 -35 -4 q-31 23 -57 -12q-14 -14 -17 -11.5t-5 17.5q-2 10 -3 16t-5.5 13.5t-10.5 9.5q-55 25 -55 73q0 16 -1 33.5t-2 24t1 18.5t6 24.5t14 34.5q10 31 16.5 66t12.5 77t10 68q4 29 5 82.5t3 73.5q2 6 7.5 19.5t7.5 21.5q27 80 39 160q2 57 49 168q29 63 35 69q8 16 22 11 q4 -2 21 24q4 4 6 8t8 -2h2z" glyph-name="exclamdown" horiz-adv-x="415" unicode="¡"/><glyph d="M492 1004q20 -12 22 -39q0 -12 -2 -20.5t-6 -19t-6 -20.5q-8 -25 -6 -41q39 2 75.5 -25.5t55.5 -64.5q14 -31 2 -112q-4 -18 -33 -113q-4 -18 -12 -25q-20 6 -35 11.5t-27 17.5t-10 29q25 139 10 161q-8 12 -24 11q-4 4 -8.5 5t-9.5 2t-9 3q-8 -8 -5 -31.5t1 -30.5 q-2 -12 -8 -76.5t-19 -99.5q-2 -4 -3 -9t-2 -11t-1 -10q-2 -66 -25.5 -192t-27.5 -185q27 10 190 84q12 -25 11.5 -34t-19.5 -30q-33 -39 -49 -41q-10 -2 -18 -14q-6 -14 -13.5 -23.5t-22 -15.5t-18.5 -8t-26 -6l-21 -4q-31 -8 -33 -33q-2 -6 -6 -24.5t-8 -28.5 q-8 -37 -31 -21q-6 6 -10 -4q-8 -16 -24 -18q-20 63 -11 88q8 31 -18.5 32.5t-56.5 28.5q-152 139 -121 352q18 135 92 275q84 150 248 190q4 57 14 107q4 16 27 28.5t37 4.5zM152 397l18 121q-29 -59 -30.5 -85t12.5 -36z" glyph-name="cent" horiz-adv-x="686" unicode="¢"/><glyph d="M862 1245q2 -4 2 -22q-8 -35 -30 -35l-21 -10q-4 14 -10 25t-18.5 22.5t-18.5 17.5t-24.5 18.5t-22.5 16.5q-16 10 -17 12q-37 49 -131 19q-29 -12 -47 -45q-35 -59 -55 -125q-23 -72 -4 -172q14 -78 33 -142q2 -10 1 -20t1 -20.5t10 -14.5q4 -6 27.5 -1t31.5 5 q84 0 127 2q33 0 39 -22q-12 -23 -45 -39q-27 -12 -53.5 -18.5t-64 -8.5t-54.5 -4q0 -2 -4 -47t-8 -68q-35 -201 -49 -247q-2 -6 -23 -43q-57 -84 -78 -111q-6 -6 -11 -20.5t-9 -18.5q59 -4 90 0q43 0 64.5 -1t58.5 -9t59 -13q8 -4 125 -14q31 -4 49 -20q-12 -6 -25.5 -24.5 t-19.5 -22.5q-43 -23 -75 -19q-29 2 -87 10q-2 0 -6 1t-6 1q-57 -2 -110.5 0t-65.5 2q-18 0 -47 2.5t-47 2.5q-94 0 -217 -62q-43 -20 -60 14q-18 37 27 62l18 12q-4 23 9 41q16 20 54 68.5t58 72.5q39 47 54 117q29 143 30 215q-4 41 -8 66q-4 23 -27 14q-6 -4 -30 -8 q-49 -10 -56 37q0 10 -6 16q-8 25 -3 32t32 7q33 0 59 8q4 10 -4 31q-20 78 -24 219q-2 106 69 211q82 113 215 188q37 25 49 -2q4 -6 29 -6q102 14 168 -8q61 -23 70 -31q49 -49 63 -94zM451 1141l20 53q-20 -20 -22 -27.5t2 -25.5zM354 915q-6 -14 6 -26q4 16 -6 26z M385 752q16 45 -25 131q-2 -63 25 -131zM197 106q23 0 31 3.5t17 18.5t17 52q-32 -25 -65 -74z" glyph-name="sterling" unicode="£"/><glyph d="M381 838q33 0 37 -2q43 -18 74 -21q33 -4 79 -39q16 -12 21.5 -11t21.5 15l56 41q16 12 30 13q20 0 23 -15q6 -16 -8 -28q-33 -33 -70 -64q-20 -18 -23.5 -26.5t7.5 -30.5q16 -29 28 -117q6 -47 -22 -88q-6 -8 -31 -64q12 -6 53 -69q-2 -6 -11 -9.5t-11 -7.5v-8 q-4 -12 -8 -12t-21.5 -3t-19.5 3q-31 23 -51 47l-84 -41q-43 -23 -76 -29q-37 -10 -45 9l-6 6q-27 -12 -57.5 7t-41.5 21q-4 0 -10 -4t-14 -16t-10.5 -14t-6.5 -8.5t-6 -8.5t-6 -4t-8 0t-10.5 6t-17.5 -3t-17 -7q-20 33 -11 55.5t62 69.5q-59 102 -53 168q12 82 86 182 q-27 10 -51 43q-35 45 16 57q18 27 59 -18q4 -4 20.5 -16.5t18.5 -14.5q74 52 115 56zM510 762q-2 0 -2 -2l-2 -4q4 -4 11 -7.5t9 -5.5q4 0 9 5q-17 12 -25 14z" glyph-name="currency" horiz-adv-x="737" unicode="¤"/><glyph d="M854 1442l-8 -49q-8 -12 -6 -15q2 -31 -27 -81t-33 -68q-25 -25 -42 -78t-29 -72q-39 -68 -68 -149q-10 -29 -25.5 -60.5t-36 -68.5t-30.5 -60q-10 -20 -8 -28h21.5h23.5t20.5 -1t21.5 -6.5t15 -11.5t13.5 -17t7.5 -26q-94 -20 -111 -24q-31 -10 -38 -18.5t-9 -45.5 q12 0 79.5 2t80.5 -4q2 0 2 -6q-18 -18 -42 -29.5t-41.5 -15.5t-48 -8t-44.5 -6q-20 -199 -25 -234q-6 -53 -47 -164q-14 -27 -10 -45q4 -31 -23 -30q-10 0 -14 -19q0 -20 -19 -31q-8 27 -55 43q-8 -4 -9 -17t-5 -17q-6 0 -9.5 3t-5.5 8t-4 7q-6 8 -16 32.5t-21 37.5 q-6 8 -7 18t1 25.5t2 21.5q8 57 15 84q12 39 19 113t15 108q-82 -14 -96 -16q-59 -8 -78 29q4 4 14.5 11t15.5 15t3 21q-2 6 5 10t18 6l123 25q4 4 4 8q10 39 6 48t-53 11h-70q-35 4 -27 39q4 23 37 23q31 0 92 4q10 16 0 51q-20 86 -49 258q-6 39 -16 109.5t-13 89.5l-8 92 q-12 47 11 72q6 6 0 22q-8 10 2 33q8 18 16 23.5t29 0.5q45 -4 65 -18q6 -6 24.5 -6t26.5 -4q20 -8 23 -29q2 -23 14.5 -62.5t14.5 -60.5q6 -29 10 -86q4 -29 15 -77t16 -70q16 -106 26 -160q4 -8 12 -12q12 23 44 85t53 95q125 215 145 250q29 45 59 108q15 31 66 64z" glyph-name="yen" horiz-adv-x="716" unicode="¥"/></font>
</defs>
</svg>
