<?xml version="1.0" standalone="no"?>
<!DOCTYPE svg PUBLIC "-//W3C//DTD SVG 1.1//EN" "http://www.w3.org/Graphics/SVG/1.1/DTD/svg11.dtd">
<svg xmlns="http://www.w3.org/2000/svg"><metadata>This SVG WebFont was generated by YouWorkForThem.
Copyright Â© 2016 by Adam Ladd. All rights reserved.</metadata><defs><font horiz-adv-x="441" id="ywftsvg"><font-face ascent="750" bbox="-253 -300.571 1160.8 898.259" cap-height="693" descent="-250" font-family="Active Two" font-stretch="normal" font-weight="400" panose-1="0 0 5 0 0 0 0 0 0 0" underline-position="-50" underline-thickness="50" unicode-range="U+0020-E00C" units-per-em="1000" x-height="409"/><missing-glyph d="M0 0v700h500v-700h-500zM250 395l170 255h-340zM280 350l170 -255v510zM80 50h340l-170 255zM50 605v-510l170 255z" horiz-adv-x="500"/><glyph d="M543 723q9 -7 49 -12q11 -2 13 -4t4 -12q5 -27 26.5 -83t25.5 -69q6 -18 27.5 -70t27.5 -81q4 -16 15.5 -48t15.5 -48q6 -22 23.5 -63t22.5 -54q2 -5 4 -16t2 -12q1 -7 3.5 -15t6 -17t5.5 -15q10 -29 7 -43q0 -1 2 -13q8 -27 11 -48q-9 5 -11 7.5t-5 12.5q-15 41 -17 45 q1 -8 3 -24.5t3 -24.5l1 -8q2 -8 -0.5 -10.5t-11.5 -1.5q-1 0 -2 -2.5t-2.5 -6.5t-2.5 -6q-10 6 -27 27q-21 27 -32 -2q-3 -8 -5 -8t-7 3q-2 2 -3 -2q-1 -1 -1 -2q-7 -15 -25 -7q-12 8 -16 17q-15 31 -18 45t-10 38t-12 43.5t-8 37.5q-5 35 -18 35q-2 0 -39.5 2t-43.5 1 q-4 0 -13.5 1.5t-14.5 1.5q-3 -36 -3 -75q-2 -53 -10 -96q-6 -29 -22 -53q-22 16 -25 42q0 9 5 76l6 95q2 10 0 14q-11 0 -35.5 2.5t-36.5 1.5q-8 0 -12 8q-1 1 0 2q2 1 8.5 1h10.5q8 1 13.5 0.5t8.5 1.5q4 0 5 2t-4 4q-4 1 -10 1q-3 0 -19 -1t-25 -1q-21 2 -32 -1 q3 -8 7.5 -26.5t7.5 -26.5q6 -19 19.5 -55t17.5 -47l9 -31q4 -18 -14 -25q-2 -1 -13 -9q-22 -14 -42 7q-2 2 -5.5 6.5t-6.5 7.5t-7 5q-5 -5 -3 -13q3 -6 3 -13q-21 -4 -31.5 1t-22.5 26q-13 23 -35 93q-25 75 -27 82q-1 5 -2 9.5t-1.5 6.5t-0.5 3.5t-1 2t-1.5 1t-3.5 1 t-5 0.5q-19 4 -71 4q-14 0 -15 -14q-15 -136 -17 -157q-1 -5 -1 -23t-2 -31.5t-6 -19.5q-4 -5 -5 5q-2 15 -4 15q-4 -6 -5.5 -8.5t-4 -4t-4 0.5t-3.5 8q-4 12 -3 18v144v69q-18 2 -28 4t-22.5 10.5t-19.5 23.5q5 2 15 7t19.5 7.5t22.5 2.5q13 2 15.5 4t2.5 14l6 137 q3 56 11 126q2 12 4 40.5t5 43.5q1 2 1.5 8.5t1 8.5t3.5 6.5t7 3.5t11 -1q1 -1 2 0t1 3q7 11 12.5 12t17.5 -6q2 -1 6 -4t7 -5q14 8 22 12q8 3 20.5 -3t15.5 -15q5 -15 22 -56t23 -65q23 -91 26 -117q1 -13 5 -27.5t10.5 -32.5t8.5 -27q4 -11 10 -28t10 -28q5 -13 9 -16 t16 -3q1 0 57 -4q11 0 32 -0.5t31 -1.5q13 0 14 12q3 32 7 95.5t8 95.5q2 24 4 81t5 84q0 7 5 10q5 -4 5 -26t-2 -47.5t1 -51.5q3 17 7.5 69.5t7.5 74.5q0 2 -3 23q-2 11 2.5 16t15.5 3q9 -4 12 1q1 4 6 4t9 -3zM95 609q-13 -71 -11 -148q0 -17 -5.5 -71t-0.5 -83 q11 -1 35.5 -1t36.5 -2q-14 59 -32.5 172t-22.5 133zM529 553q-4 0 -7 -30.5t-6 -74.5t-4 -55q-2 -11 -7 -33.5t-7.5 -41t-2.5 -35.5q12 -2 46.5 -2t45.5 -1q4 -1 5.5 1.5t0.5 6.5q-4 16 -5 25q-3 25 -26 110q-20 71 -33 130zM484 522q-6 -26 -2 -50q7 37 2 50zM706 375 q-6 8 -3 -8q2 -8 74 -225q-6 35 -17.5 73.5t-28.5 87t-25 72.5zM785 126q-2 0 -2.5 -5t1.5 -10.5t6 -6.5q2 9 -5 22z" glyph-name="A_A.liga" horiz-adv-x="869" unicode="AA"/><glyph d="M511 727q47 0 71 -2q30 -3 61 -18q25 -13 36 -10q8 2 28 -12.5t36 -36.5q7 -9 11 -23q7 -24 16 -61q3 -15 -4 -33q-5 -13 -21 -27.5t-19 -22.5q-4 -11 -25 -30.5t-35 -26.5q13 -2 37.5 -14t33.5 -15q2 -1 11.5 -3.5t20 -6t17.5 -7.5q4 -3 11.5 -10.5t12.5 -10.5 q39 -25 44 -77q2 -40 -12 -99q-8 -30 -17 -45q-17 -29 -26 -35q-12 -9 -15.5 -18t-10.5 -16t-42 -30q-11 -7 -28 -7q-15 0 -31 -12q-9 -7 -38 -11q-3 -1 -9 0t-7 4q-1 2 1.5 4t7.5 4q1 1 2 1q11 3 14 4q10 2 8 12q-5 -1 -17 -2t-18 -3t-13 -3t-9 -2q-11 -6 -14 -17t-5 -13 q-5 -4 -13 1t-14 5q-4 0 -8 2t-5.5 4t-3.5 1.5t-3 -4.5q-28 8 -41 32q-5 9 -9 33q-16 124 -19 159q-3 32 -11.5 96.5t-11.5 96.5q-1 16 -11 110q-1 11 -4 92q0 4 -0.5 12.5t-0.5 13.5q2 23 -18 25q-8 2 -9 10q0 7 7 11q50 28 111 31zM-72 689l161 21q59 6 114 -14l30 -10 q59 -21 57 -80q0 -3 -1 -11.5t-1.5 -13t-1.5 -11t-3.5 -11.5t-6.5 -10q-34 -43 -56 -61q-5 -4 -14 -10.5t-14 -9.5q-1 -1 -4 -2t-4 -2t-2.5 -3t-1.5 -5q1 -3 -1.5 -5.5t-5.5 -1.5q-10 1 -21 -8.5t-14 -11.5q-2 -1 -4 -8t-5 -10q60 -4 91 -7q58 -7 74 -14q50 -19 94 -55 q18 -19 15 -43q-1 -19 -15 -55q-6 -16 -15 -30.5t-21.5 -31t-18.5 -25.5q-21 -33 -55 -65q-5 -4 -13.5 -10t-11.5 -8q-66 -59 -83 -70q-8 -5 -23 -16.5t-22 -16.5q-1 4 -3.5 10t-3.5 8q-2 9 -8 10q-15 0 -26 21l-2 2q-1 2 -2 3q-3 -2 -12.5 -15t-21.5 -14l-7 28l-27 100 q0 2 -0.5 6.5t-0.5 6.5q4 21 -6 106q-10 82 -17 128l-17 114q-3 22 -2 41q3 11 -1 33q-1 14 -3.5 39.5t-3.5 37.5q-2 10 -4.5 12.5t-11.5 3.5q-21 0 -28 -3q-10 -4 -17 9q-3 7 -6 18q-3 12 8 15q5 1 13.5 3t12.5 2zM547 680q-37 2 -51 -5q1 -1 2.5 -3.5t2.5 -4t3 -2t4 2.5 q5 6 18 2q12 -4 17 -15q7 -18 7 -39q8 -117 8 -120v-19.5t1 -32.5t4 -24q7 1 21.5 12t17.5 12q15 5 28 16.5t26.5 29t17.5 22.5q11 11 18 70q1 11 -10 39q-3 3 0 4q2 0 4.5 -4.5t6.5 -3.5q0 14 -6 18q-44 33 -77 40q-26 5 -63 5zM81 649q-11 -3 -9 -14q13 -127 14 -146 q0 -23 3 -29q37 15 43 32q0 2 6 5q13 11 24.5 26t17.5 24.5t18 32.5t15 29q12 22 -15 25q-24 0 -57 14q-21 10 -60 1zM702 609q11 -18 5 -42q22 16 -5 42zM642 384q-6 -3 -23 -3q-3 0 -13.5 -4.5t-19.5 -6.5q-12 -2 -12.5 -4.5t-0.5 -8.5q16 -101 21 -167q1 -18 5.5 -56 t6.5 -58q37 17 46 25q14 12 27 16q19 7 32 29q-11 -2 -20.5 -12.5t-11.5 -10.5q-2 1 0 9t9 17t17 19.5t14 15.5q23 34 25 59q0 28 -5 48q-2 11 -7.5 20t-10 14t-14.5 14.5t-16 15.5q-11 11 -27 20q-17 10 -22 9zM155 368q-26 4 -52 -7q2 -2 9.5 -3t8.5 -6q-2 -3 -8.5 -4 t-8.5 -2q-1 -15 9 -68q1 -12 5.5 -35t5.5 -34q2 -13 14 -67q11 -62 13 -67q6 5 15.5 13.5t18 15t16.5 10.5q10 3 12 14q1 3 3 8.5t3 7.5q3 7 20 41.5t23 55.5q3 9 7.5 28t6.5 29q5 11 3 16.5t-15 15.5q-7 8 -24 12q-18 5 -73 5q-9 1 -19 8q8 0 26.5 -1.5t26 -2t26.5 1.5 q-9 13 -23 8q-22 -1 -49 7z" glyph-name="B_B.liga" horiz-adv-x="933" unicode="BB"/><glyph d="M562 732q4 3 18 1.5t18.5 -2t18.5 -3.5t18 -4q8 -2 12 -2q32 0 64 -24q17 -10 24.5 -14.5t17 -13t17.5 -20.5q17 -24 23 -36q6 -19 -2 -24q-6 -4 -4 -10q0 -19 -24 -34q-5 -2 -13 -16l-9 -14q-5 1 -8 6.5t-5.5 14t-3.5 10.5q-3 6 -4.5 21t-2.5 18q-1 4 -3 13.5t-3.5 14 t-5.5 11.5t-9 12q-19 19 -33 25q-17 7 -44 14q-28 7 -44 -6q-6 -4 -14 -102q-1 -13 -1 -38.5v-41.5q-1 -15 6 -80q10 -90 11 -109q0 -9 7 -50.5t12 -56.5q28 -68 54 -94q25 -25 47 -35q4 0 6 1q47 14 123 67q2 1 5.5 7t6.5 7q6 1 13 7.5t11 8.5q4 -41 -22 -70q-8 -8 -12 -16 q-8 -17 -46 -46q-3 -3 -17 -8q-31 -10 -36 -16q-10 -13 -32 -6q-40 11 -66 11q-7 0 -14.5 3t-17 8.5t-13.5 7.5q-30 15 -44 31q-13 13 -23 10l-6 3q-4 5 -15 15t-16 16q-29 42 -40 94q-14 56 -16 178q-2 54 2 93q3 5 2 7q-8 11 -9.5 22t-0.5 27t1 22q0 43 12 81q12 41 27 53 q7 5 25 18t28 21q6 5 14 7.5t19.5 3t15.5 1.5zM140 714q64 12 132 -25q31 -17 38 -55q27 -158 5 -149q-3 1 -6 5q-9 10 -9 2q-1 -19 -1 -20q-2 -2 -3 -8t-3 -9q-10 9 -17.5 21.5t-10.5 21t-7.5 25t-6.5 23.5q-8 26 -20 78q-5 28 -34 42t-55 1q14 -2 15 -2q5 -3 1 -5 q-19 -14 -25 -44q-1 -4 -6.5 -28t-6.5 -38q0 -16 -5 -46t-5 -45q-4 -36 -4 -55q0 -23 7.5 -75t7.5 -58q-2 -12 0 -18q5 -13 7 -48q0 -6 8 -17.5t9 -16.5q13 -54 33 -83q22 -30 51 -26l41 3q7 0 17 8q38 24 53 40q18 12 25 19q5 6 15.5 16t16.5 17q10 12 23 14q3 -4 -1 -15.5 t1 -13.5v-3l-1 -2q-3 -5 -11 -11t-10 -10t-5.5 -13t-6.5 -13q-3 -3 -9.5 -9t-8.5 -8q0 -1 -8 -13q-4 -4 -11.5 -14t-10.5 -13t-8.5 -7.5t-12.5 -8.5q-24 -13 -48 -32q-8 -5 -53 -23q-9 -3 -21.5 -1.5t-19.5 -2.5q-1 0 -10 3q-11 4 -14 0q-1 -3 -5 -3q-9 3 -25.5 8t-26.5 9 q-11 4 -27 22.5t-22 30.5q-32 55 -39 90l-3 21t-4.5 23.5t-8.5 21.5q-2 4 -3.5 15.5t-5.5 17.5q-8 11 -5 27q1 7 -1 33q-10 115 -9 138q0 10 -1.5 33t-0.5 35q6 88 51 176q2 2 4 3q1 0 2 -1l2 -1q11 -10 16 2q8 18 30 36q7 5 10 4q18 -2 21 -3t20.5 3t19.5 4zM540 709 q-6 2 -11 -6l-3 -8l7 3q1 1 4 2t4.5 2.5t1.5 4.5q0 2 -3 2zM611 35q5 -6 11.5 -7t15 0.5t13.5 0.5q-19 19 -40 6z" glyph-name="C_C.liga" horiz-adv-x="917" unicode="CC"/><glyph d="M479 731q13 0 45 -9q18 -5 21 -22q3 -16 21 -16q30 0 71 -9q36 -7 77 -20q7 -3 20 -3q30 3 46 -23q6 -9 17 -16q1 2 2 8t4 8q22 -6 30 -19q1 -2 7 -15t12 -22.5t10 -13.5q43 -39 45 -93q0 -14 2 -39.5t2 -33.5q0 -70 -3 -87l-7 -61q-7 -6 -9 -18q-3 -20 -9 -30t-24 -26 q-10 -7 -11 -8q-14 -6 -15 -18q0 -5 -6 -9q-15 -13 -43.5 -40t-43.5 -40q-4 -4 -16 -10.5t-17 -11.5q-11 -13 -30 -19q-2 -2 -17 -6q-1 0 -5 -1t-5 -1t-4.5 -1.5t-4.5 -3t-2 -4t-1 -6.5q0 -6 -10 -3q-3 2 -9.5 6t-9.5 6q-3 -2 -7.5 -5.5t-7.5 -4.5q-13 -5 -21 1q-13 8 -26 7 q-19 0 -29 20q-12 20 -13 44q-3 71 -16 159q-3 26 -7.5 74t-6.5 63q-3 39 -10 73q-3 11 -5 69q-1 46 -7 138q-2 10 -4 11q-25 5 -30.5 9.5t-9.5 23.5q39 0 48 2q1 9 -9.5 21t-12.5 17q15 0 31 7q2 1 13 1zM5 720q12 -3 35 -5.5t32 -4.5q22 -3 118 -21q4 -1 16.5 -2t18.5 -3 q70 -20 101 -77q12 -22 17 -40q4 -9 10 -9q2 0 4 -1t3 -2.5t2 -4t2 -3.5q27 -60 27 -122q-2 -38 4 -64q0 -1 -0.5 -4t-0.5 -5q-12 -94 -40 -155q-5 -7 -5 -11q0 -19 -19 -42.5t-20 -26.5q-3 -5 -9 -3q-4 1 -4 6t-3 7q-12 -25 -19 -33q-24 -36 -39 -52q-24 -24 -47 -39 q-11 -7 -13 -13t1 -19q-41 0 -52 -4q-23 -11 -36 9q-4 -1 -7 -6l-2 -4q-1 0 -6.5 -5.5t-7 -5t-11.5 0.5q-21 7 -22 26q-1 13 -5.5 45t-4.5 50q-3 58 -14 103q-16 69 -24 140q-1 7 -12 86q-1 11 -4 32t-4.5 34t-2.5 31t-1 33q1 11 -4 32.5t-5 30.5q0 16 4 22q3 3 0 29 q0 3 -2 21h-22q-9 1 -10 3t3 11q7 19 39 17q20 -2 29 1q1 1 1 5q-3 8 -3.5 10.5t3 3.5t11.5 -2zM55 668q-19 -1 -9 -16q7 -10 11.5 -31t8.5 -29q9 -77 24 -158q2 -9 8 -55.5t12 -71.5q0 -2 8 -43t16 -61q1 -1 1 -3q1 -17 8 -48.5t8 -37.5q2 -15 7 -23q8 11 35 63 q-4 1 -9.5 -2t-9.5 -2q0 3 5 8q2 2 13.5 12t15.5 18q44 90 66 189q3 25 2 31q-6 69 -6 73q-2 28 -5 36q-25 62 -69 109q-1 2 -11 9q-45 29 -74 27l-6 2q-4 0 -22 2.5t-28 1.5zM561 649q1 -2 2 -5l1 -2q7 -5 18 -30q4 -10 7.5 -27.5t5.5 -23.5q7 -32 8 -58q1 -3 2 -17t3 -22 q6 -27 5 -52v-35l5 -64q0 -20 4 -30q8 -18 6 -42q3 -37 3 -38q3 -35 11 -105q0 -12 6 -15q6 6 16.5 14t17.5 15.5t12 16.5q7 12 28 40.5t29 48.5q24 52 28 96q7 71 3 125q-5 63 -32 118q-31 57 -55 70q-49 26 -134 22zM229 624q-1 -3 3 -7q0 -1 2.5 -3t3.5 -4q3 14 -9 14z M356 531q-1 -14 8 -39t10 -33q2 22 -18 72zM866 236q-9 -14 -34 -35.5t-33 -42.5q44 33 67 78zM674 36q-7 -1 -9.5 -2t-4 -3t-4.5 -8q17 11 18 13z" glyph-name="D_D.liga" horiz-adv-x="1025" unicode="DD"/><glyph d="M602 711q4 -6 19 -6q4 -1 10.5 -1h10.5q18 -2 26 -8q13 -10 12 -18q-1 -10 -16 -10q-46 -4 -68 -5q-32 -1 -129 -15q-14 -4 -4 -15q7 -8 9 -28q0 -9 10 -69q10 -70 8 -105q0 -11 4 -43h74h34q31 -2 39 -1q6 1 12 0q1 -1 6 -1.5t7 -2t2 -4.5q1 -5 -4 -9.5t-9 -5.5 q-31 -5 -39 -10q-13 -8 -29 -2q-15 4 -24 0q2 -4 13 -4t13 -5q-10 -7 -33 -7q-13 0 -37 -4q-16 -2 -17 -4q-1 -3 -1 -11q2 -20 11 -47q6 -16 10.5 -48t9.5 -47q0 -10 4 -14q5 -5 4 -9q-2 -11 0.5 -31t2.5 -26q2 -40 -2 -52l2 -8q22 1 61 9.5t47 9.5h28q32 3 57 2 q18 -1 25.5 -6.5t15.5 -25.5q-13 -2 -35 -6t-40.5 -6.5t-36.5 -2.5q-15 0 -54 -6.5t-62 -4.5q1 -2 1 -4.5v-3.5q8 -13 0 -19q-11 -7 -26 4q-2 2 -5 5.5t-6 6t-7 3.5v-3q0 -2 0.5 -5.5t0.5 -5.5t-1 -4.5t-3 -3.5q-11 -4 -23 7q-4 4 -12 14q-5 8 -10 8q-4 0 -7.5 1.5t-5.5 2.5 t-5 4.5t-4 4.5t-4 6t-3 6l-6 19q-4 20 -11 60.5t-11 60.5q-3 15 -1 67q1 33 -9 96q-9 0 -18.5 1.5t-14.5 3.5l-6 1q-2 0 -28 2t-47 3t-31 -3q-2 -2 13 -3q8 -1 26 -3l31 -4q-8 -4 -30 -4q-4 0 -24.5 -2.5t-31.5 -1.5q-17 1 -44.5 -2t-37.5 -3q-10 -1 -12 -4t0 -14 q8 -54 8 -98q-1 -50 8 -129q0 -1 1 -4.5t1 -5.5q28 -3 63 4q9 2 14 -2q12 -10 33 -6q12 2 37.5 2.5t37.5 3.5h4q11 -2 12 -8q1 -5 -6 -6q-1 -1 -3 -1q-6 0 -34 -10q-11 -5 -8 -13q1 -4 -5 -6q-58 -10 -89 -12q-115 -6 -175 -26q-18 -4 -26 -4q-10 0 -15 4q-1 1 -3.5 3 t-4 3.5t-3 4t-1.5 4.5q0 4 12 9q9 3 28.5 8.5t29.5 8.5q2 0 18 5q-6 2 -14 6.5t-11 5.5q-17 -2 -24.5 8t-11.5 37q-6 31 -8 75q-5 62 -15 138q0 9 -4 10q-17 4 -24 14q-3 5 -12 4t-15 0q2 5 4.5 9.5t8 8.5t8 6t10.5 6t9 5q7 4 6 12l-5 41q-3 27 1 32q1 2 1 6.5v6.5 q-2 18 -5 55.5t-5 55.5v25t-1 25q-1 4 2.5 10t1.5 10q0 2 -7 5q-11 6 -11 25q-1 10 13 14q99 16 147 19q19 1 129 -1q34 0 38 1q-7 -11 -20 -11q-4 0 -8 -5t-7 -6q8 0 11 -1q3 -2 2 -3q-13 -9 -21 -9q-10 0 -26.5 -4.5t-29.5 -1.5q-10 2 -51 -6t-55 -14q5 -12 10 -32t8 -28 q17 -41 24 -81q3 -13 4.5 -36.5t2.5 -30.5l4 -33q1 -12 14 -11q22 4 77 2q1 0 8 1t9 1q19 2 45.5 -1.5t36.5 -3.5q39 0 60 -1q10 -1 12 1t2 12q-1 19 -11 122l-10 105q-1 5 -1 15q0 4 3 6.5t7 1.5q8 -2 10.5 -2t9.5 3t10 4q-9 11 -19.5 14t-26.5 2t-22 -1q6 22 22 28 q29 10 36 9q3 0 5.5 1t5 2.5t4.5 2.5q17 8 30 -7q6 -6 25 -1q13 2 31.5 3.5t27.5 2.5q5 1 12.5 1t13.5 1t12 4q4 0 12.5 3t13.5 3t13 -6zM90 660q-4 -1 -12.5 -1t-15 -2t-11.5 -7q17 -2 39 10zM695 383q2 -2 2.5 -5.5t-1.5 -4.5q-13 -7 -20 7q8 8 19 3zM648 356q4 0 7 -4 q0 -1 -2 -6q-15 -7 -25 6q5 1 11.5 2.5t8.5 1.5z" glyph-name="E_E.liga" horiz-adv-x="815" unicode="EE"/><glyph d="M-5 712q13 -13 17 -27q9 0 19 1.5t21.5 4t17.5 3.5q14 3 43.5 5.5t43.5 4.5q17 3 51 3.5t48 2.5q8 2 10 -2q3 -6 -5 -10q-19 -13 -23 -31q-4 -11 -17 -14q-44 -8 -67 -6q-19 1 -25.5 0.5t-24 -3.5t-23.5 -4q-19 -3 -29 -1q-8 2 -12 -1q-2 -28 6 -57q3 -15 10 -64t14 -75 q3 -15 20 -11q36 8 73 9q5 0 12 0.5t10.5 0.5h7.5t6.5 -0.5t5.5 -2t5 -3.5q-4 -4 -5.5 -17.5t-3.5 -17.5q-1 -3 -6 -4.5t-8 -3t-1 -3.5q6 -5 7.5 -7t1.5 -4t-1.5 -2.5l-7.5 -2.5q-8 -3 -29.5 -4.5t-29.5 -3.5q-18 -6 -32 -8q-12 -3 -9 -16q17 -90 23 -110q10 -40 14 -61 q2 -9 5 -25.5t6 -30t7 -25.5q5 -11 5 -28q-1 -10 1 -28q2 -9 2 -26.5v-21.5q0 -6 -2 -8.5t-6.5 -4t-6.5 -2.5q-6 -14 -17 5q-1 8 -12 15t-12 13q-2 10 -12 5q-12 -10 -35 -1q-11 5 -15 9t-5 16q-8 57 -11 92q-2 21 -16 101q-3 18 -5 56.5t-6 59.5q-1 8 -6 11t-11 4t-7 2 q-3 2 -6.5 14t-7.5 15q-11 8 5 17q1 1 10.5 3t11.5 4l-18 133q-3 26 -12.5 74t-12.5 68q-2 14 8 18q11 7 16 -5q5 -10 14 -13q-4 7 -0.5 12t5.5 6.5t8.5 4t9.5 3.5zM624 701q13 0 15 -4q6 -10 -2 -18q-3 -3 -7 -5q3 -3 15 -13t14 -19q-1 -2 -13 -2l-2 -1q-3 -1 -3 -2 q1 -5 -0.5 -7.5t-3.5 -2.5t-6 1l-4 2q-56 6 -84 11q-22 4 -50 -5q-27 -8 -64 -13q-11 -1 -12 -2.5t1 -11.5q1 -2 2 -6.5t2 -6.5q3 0 3.5 5t4.5 6q18 -89 27 -178q8 0 26 3.5t29 1.5q4 -6 -2 -12t-6 -8q10 -1 23 2q32 7 56 -13q3 -3 7 -10t7 -10q-7 -7 -15.5 -11t-21 -6 t-17 -2.5t-22.5 -1.5h-18q-18 -2 -27 -5q-11 -3 -8 -13q0 -5 2 -11q15 -48 20 -104q1 -14 4.5 -56t6.5 -79t6 -56q4 -24 0 -85q0 -6 -8 -14q-5 -5 -11 -1q-19 15 -28 12q-33 19 -40 39q-5 15 -17 17q-8 1 -17 13q-21 29 -22 57q-15 155 -23 215q-22 189 -28 233 q-9 46 -7 112v33q0 6 7 9q17 6 38 -5l3 3l1 2q1 1 1 4v4.5t1.5 3.5t3.5 2q17 2 24 -4q7 -8 21 -5q7 2 83 10q43 4 135 8z" glyph-name="F_F.liga" horiz-adv-x="763" unicode="FF"/><glyph d="M-5 712q13 -13 17 -27q9 0 19 1.5t21.5 4t17.5 3.5q14 3 43.5 1.5t43.5 1.5q6 1 47.5 1.5t72.5 3.5t78 5.5t51 3.5q7 2 10 -2q1 -3 0.5 -4t-2.5 -3l-3 -3q-4 -11 -13.5 -16.5t-12 -6t2.5 -8.5q7 -7 -8 -12q-5 -2 -9 -2q-37 -1 -89 5q-25 2 -25 -1l2 -2q0 -4 -5 -5 q-18 0 -50 -2.5t-50 -3.5q-26 -1 -72 -7q-21 -3 -30 -1q-7 2 -12 -1q-1 -27 6 -55q3 -15 10 -64t14 -75q3 -15 20 -11q36 8 73 9q5 0 12 0.5t10.5 0.5h7.5t6.5 -0.5t5.5 -2t5 -3.5q-4 -4 -5.5 -17.5t-3.5 -17.5q-1 -3 -6 -4.5t-8 -3t-1 -3.5q6 -5 7.5 -7t1.5 -4t-1.5 -2.5 l-7.5 -2.5q-8 -3 -29.5 -4.5t-29.5 -3.5q-18 -6 -32 -8q-12 -3 -9 -16q17 -90 23 -110q10 -40 14 -61q2 -9 5 -25.5t6 -30t7 -25.5q5 -11 5 -28q-1 -10 1 -28q2 -9 2 -26.5v-21.5q0 -6 -2 -8.5t-6.5 -4t-6.5 -2.5q-6 -14 -17 5q-1 8 -12 15t-12 13q-2 10 -12 5 q-12 -10 -35 -1q-11 5 -15 9t-5 16q-8 57 -11 92q-2 21 -16 101q-3 18 -5 56.5t-6 59.5q-1 8 -6 11t-11 4t-7 2q-3 2 -6.5 14t-7.5 15q-11 8 5 17q1 1 10.5 3t11.5 4l-18 133q-3 26 -12.5 74t-12.5 68q-2 14 8 18q11 7 16 -5q5 -10 14 -13q-4 7 -0.5 12t5.5 6.5t8.5 4 t9.5 3.5zM324 603q4 -1 13.5 -2t15 -1.5t12.5 -4t13 -8.5q27 -27 35 -66q7 -41 18 -95q16 -78 17 -82q7 -29 10 -37q11 -29 11 -85q-1 -26 5 -99q2 -42 -2 -53q-2 -8 4 -20q4 -13 -1 -17q-4 -2 2 -8q5 -5 1 -17q-4 -10 -6.5 -10.5t-12.5 5.5q-11 6 -21 0q-17 -10 -55 -6 q-10 2 -14 10q-1 4 -4.5 11t-5 12.5t-1.5 11.5l-9 80q-4 27 -18 84q-7 27 -13.5 72.5t-10.5 69.5q-3 17 -6.5 52.5t-6.5 52.5q-3 18 -4.5 34t-3 35.5t-2.5 34.5q-1 11 1 13t14 2q3 1 7 1q1 4 -1 10.5t-2 9.5q2 3 6.5 4t6.5 3q5 5 8 3zM428 325l-10 42q-3 -20 0 -42l3 -23 q0 -2 2 -6l4.5 -9l3.5 -7l4 -22l3 12q1 6 -3 28q0 2 -7 27z" glyph-name="F_I.liga" horiz-adv-x="578" unicode="FI"/><glyph d="M-5 712q13 -13 17 -27q9 0 19 1.5t21.5 4t17.5 3.5q16 3 46 5.5t41 4.5q35 5 76 6.5t52 2.5q8 2 11 -2q1 -4 -2 -10t-6 -8q-2 -1 -5.5 -3.5t-4.5 -3t-3 -2.5t-3 -3.5t-2 -4.5l-2 -6q-2 -11 -18 -14q-8 -2 -36.5 -2t-40.5 -4q-14 -5 -52.5 -7.5t-39.5 -2.5q-19 -3 -29 -1 q-8 2 -12 -1q-2 -28 6 -57q3 -15 10 -64t14 -75q3 -15 20 -11q36 8 73 9q5 0 12 0.5t10.5 0.5h7.5t6.5 -0.5t5.5 -2t5 -3.5q-4 -4 -5.5 -17.5t-3.5 -17.5q-1 -3 -6 -4.5t-8 -3t-1 -3.5q6 -5 7.5 -7t1.5 -4t-1.5 -2.5l-7.5 -2.5q-8 -3 -29.5 -4.5t-29.5 -3.5q-18 -6 -32 -8 q-12 -3 -9 -16q17 -90 23 -110q10 -40 14 -61q2 -9 5 -25.5t6 -30t7 -25.5q5 -11 5 -28q-1 -10 1 -28q2 -9 2 -26.5v-21.5q0 -6 -2 -8.5t-6.5 -4t-6.5 -2.5q-6 -14 -17 5q-1 8 -12 15t-12 13q-2 10 -12 5q-12 -10 -35 -1q-11 5 -15 9t-5 16q-8 57 -11 92q-2 21 -16 101 q-3 18 -5 56.5t-6 59.5q-1 8 -6 11t-11 4t-7 2q-3 2 -6.5 14t-7.5 15q-11 8 5 17q1 1 10.5 3t11.5 4l-18 133q-3 26 -12.5 74t-12.5 68q-2 14 8 18q11 7 16 -5q5 -10 14 -13q-4 7 -0.5 12t5.5 6.5t8.5 4t9.5 3.5zM304 607q17 1 18 -13q0 -8 13 -19q39 -31 12 -55 q-2 -2 -7.5 -8t-10.5 -8.5t-13 -1.5q-4 4 -13 3.5t-14 1.5q-54 26 -24 75q12 20 39 25zM334 420q29 0 39 -29q2 -7 5 -9q7 6 10.5 5t4.5 -11q2 -10 1 -15q-3 -14 2 -30q7 -25 21 -126q4 -23 16 -77q1 -9 6 -27t6 -27q1 -4 2 -11t1.5 -9.5t2.5 -6.5t4.5 -2t8.5 2q36 18 49 28 q30 23 35 24q10 6 14 10q16 14 31 4q-7 -12 -21 -24q-20 -17 -28 -33q-4 -10 -17 -11q-4 0 -16 -12q-3 -3 -9 -6t-8 -5q-7 -11 -9 -13q-5 -4 -17 -8l-18 -6q-6 -3 -14 -3q-1 0 -4 0.5t-5 0.5q-2 -1 -4.5 -3.5t-4.5 -3.5q-5 -1 -13 5q-8 8 -17 9l-7 3.5t-7.5 3t-7.5 -2.5 q-3 -2 -14 6q-16 15 -26 56q-7 32 -11 80q-6 64 -7 97q0 45 -7 84q-2 8 -3 28.5t-5 32.5q-1 6 10 19q11 11 31 13z" glyph-name="F_i.liga" horiz-adv-x="557" unicode="Fi"/><glyph d="M162 722q-3 -8 -16 -12t-17 -8q33 -2 46 3q10 3 29 1q23 -3 41 -15q27 -16 33 -46q4 -19 4 -57l1 -31q-2 -12 -3 -12q-7 -5 -9 -18t-3 -16h-18q-24 -10 -38 19q-4 7 -6 22q-1 7 -12 70l-12 36q-3 12 -15 15q-23 8 -43 0t-27 -29q-2 -6 -7 -19.5t-8.5 -23.5t-4.5 -20 q-10 -68 -2 -104q4 -15 7 -43t4 -34q1 -9 4 -29.5t4 -32.5q3 -33 15.5 -95.5t15.5 -91.5l3 -9q-3 -14 1.5 -30.5t9 -24.5t17.5 -27q7 -12 12.5 -13.5t16.5 4.5q8 4 21.5 13.5t25.5 16t24 10.5q8 3 7 13q-5 32 -9.5 92.5t-8.5 88.5q0 3 -2 5q-49 14 -64 12q-5 0 -7.5 2 t-5 7.5t-3.5 6.5q1 6 9 6q15 0 42 6t36 7h4q8 8 11 6t9 -12q1 -1 3 -1q3 -1 4 -1q2 4 2 14t3 15q4 0 13 -4t14 -4q7 0 7 -11q12 -44 13 -57q2 -8 4.5 -29t5.5 -33q5 -22 10 -65t9 -62q1 -7 4.5 -30t6.5 -36q5 -36 -21 -53q-1 -1 -2.5 -4t-4.5 -4q-9 9 -27.5 32t-31.5 33 q-5 4 -9 15t-5 13q-8 0 -12 -9q-24 -34 -44 -39q-4 -6 -10.5 -9t-15 -4.5t-12.5 -3.5q-17 -7 -48 -3q-10 1 -42 5q-43 6 -57 38q-7 17 -25 49q-11 20 -15 56q-5 39 -17 115q-2 15 -2.5 41.5t-1.5 34.5q0 4 -0.5 15t-1.5 17q-4 13 -4.5 38.5t-2.5 36.5q-2 26 -2.5 34t3 33.5 t4.5 33.5q0 1 1.5 6t1.5 8q1 53 48 107q4 4 9 8.5t11.5 10t9.5 8.5q4 2 5 2q13 0 24.5 5.5t24.5 14t21 11.5q7 2 21 2t19 1zM587 704q6 7 22.5 5t26.5 -11q17 -13 27 -16q4 -1 15 -15q7 -9 21 -42q13 -25 15 -63q2 -8 0 -16q-1 -6 -0.5 -12t-0.5 -12t-5 -9q-3 -2 -7.5 -6 t-9 -6.5t-9.5 -3.5q-2 0 -4 -8q-3 5 -12 12t-11 13q0 3 -3 3q-6 1 -10.5 3.5t-8.5 6.5l-6.5 6.5t-5 8.5t-3.5 8t-3.5 9.5t-2.5 8.5q-3 11 -7.5 31t-6.5 27q-3 13 -14.5 24t-25.5 13q-21 4 -42 3q-6 -37 -6 -96v-33q-1 -31 7 -181q1 -8 1.5 -33t2.5 -38q9 -64 9 -65 q2 -8 4.5 -28.5t5.5 -31.5q2 -6 3 -18.5t3 -18.5q3 -10 10 -27t9 -23q0 -3 5 -6q2 -1 8 -3.5t9 -4t8 -2.5t9 -1t9 2q8 3 16 8.5t12 10t11 14t10 13.5q2 3 0 11q-18 75 -10 152q2 7 -2 12q-5 0 -16.5 -0.5t-18.5 -0.5t-16.5 4.5t-16.5 14.5q4 3 9.5 4t10 0.5t9.5 0.5 q31 2 59 6q17 4 13 16q-3 13 12 15q16 2 28 -5t17 -3q2 3 7 -4q5 -5 8 -5q6 2 9 1t3.5 -3t1.5 -8q2 -32 4 -47q6 -30 10 -88.5t9 -86.5q9 -57 9 -58q2 -15 -1 -23l-14 9q-2 1 -4.5 5t-3.5 3q-2 -4 -10 -2t-11 1q-30 -13 -55 15q-10 11 -15 12t-17 -5q-3 -2 -11.5 -6.5 t-13.5 -7.5q-7 -5 -23 -5.5t-19 -1.5h-5q-4 -1 -6 -3q7 -6 25 -6q5 -3 5 -4q3 -6 -4 -6q-3 0 -18 -2.5t-24.5 -1t-18.5 8.5q-6 3 -11 3q-30 4 -43 22l-6 4q-5 1 -10 3t-8 4t-7.5 7.5t-6 7t-6.5 8.5t-5 8q-1 1 -1 2q-9 16 -25 62.5t-21 68.5q-3 12 -5.5 34t-4.5 31 q-3 20 -3 60q-2 24 -5 31q-9 22 -9 52q4 78 12 129q0 8 2 8q6 3 8.5 7.5t3 12.5t1.5 11q6 26 8 43q2 23 22 48q2 3 5 4t7 2t7 2q13 5 13 -7q0 -8 -5 -24l-2 -8q-5 -40 -1 -65q3 -9 7 -10q1 9 3.5 51t8.5 60q-1 4 2 7t3 7q3 5 20 6q32 2 58 -5q17 -4 24 5zM-12 479 q-8 -5 -6 -14q2 -50 4 -74q0 -6 8 -6q-6 47 -2 89l-2 2q-2 2 -2 3z" glyph-name="G_G.liga" horiz-adv-x="872" unicode="GG"/><glyph d="M199 743q15 -8 26 -30q2 -3 10.5 -25t17.5 -31q6 -6 6 -15q1 -20 10 -52q4 -15 11 -75l13 -111q2 -1 14 -1q46 8 85 5q7 -1 10 2t3 11q3 55 1 165q0 15 -0.5 31.5t-1.5 36.5t-1 32q28 2 41 -18q0 11 5 36q0 9 5 10q6 0 9 -7q4 -5 6 -7q21 -13 35 -55q5 -14 10 -57 q6 -89 6 -91q0 -11 1.5 -24t4 -28.5t3.5 -24.5q2 -10 10 -8q12 1 35.5 -0.5t34.5 -0.5t32 2.5t32 2.5q5 0 5 11q-3 23 -7 64l-17 164l-5 41q2 0 9.5 2.5t10.5 2.5t8.5 -2t10.5 -7q1 -2 9 -2q3 1 9.5 1.5t10.5 0.5q1 -15 18 -21q13 -4 16.5 -9.5t2.5 -20.5q0 -64 13 -125 q6 -33 6 -35q4 -14 9.5 -43t10.5 -44q7 -21 16 -82q3 -21 7 -63q3 -12 5 -56q8 -115 8 -124q-3 -29 3 -57q1 -18 -6 -47q-5 4 -18.5 10.5t-19.5 13.5q0 1 -1 1l-2 1q-24 8 -30.5 15.5t-9.5 29.5q-9 65 -27 109q-17 42 -12 93q0 11 -4 22q-11 25 -11 49q0 5 -5 53 q-2 1 -8.5 2.5t-8.5 4.5q1 4 7.5 6t7.5 8q-13 -5 -27 -7t-32 -3.5t-27 -2.5q1 -2 5 -2.5t5 -2.5q0 -4 -2 -4q-10 0 -27.5 -5t-26.5 -5q-10 -1 -12.5 -4t-1.5 -13q3 -37 16 -86q4 -17 16 -95q10 -86 11 -101q1 -11 1.5 -32.5t1.5 -32.5q-2 -12 -3 -13q-2 -4 -7 -5.5t-6 0.5 q-6 7 -20 10.5t-19 9.5q-7 11 -15 4q-7 -6 -28 -1q-8 2 -12 17q-3 10 -7 30q-3 12 -8 69q-1 21 -21 121q-13 64 -14 105l-1 11q-16 -4 -61.5 -1.5t-59.5 1.5q7 -91 24 -142q16 -48 17 -93q1 -8 0 -17q-11 -35 -3 -75q-21 7 -29 -5q-5 -7 -15 1q-29 27 -34 55 q-5 21 -8.5 58.5t-4.5 46.5q-4 27 -11 80t-11 79l-1 9q-3 2 -14 2q-58 -11 -80 -14q-11 -2 -9 -16q9 -59 9 -65q3 -27 3 -106q0 -7 2 -21.5t2 -21.5q0 -1 1 -6t0 -7q2 -57 7 -86q3 -24 -21 -28q-6 -2 -17.5 3t-16.5 12q-17 28 -19 41q-1 10 -10 14q-22 11 -27 37 q-4 31 -12 44q-6 11 -11 46q-12 124 -12 128q0 20 -15 21q-4 0 -6 4q0 4 -2.5 6t-6 3.5t-4.5 2.5q-23 12 -32 35q8 0 23.5 4t26.5 2q5 -2 7 1.5t1 9.5l-4 60q-8 136 -15 206l-4 32q-1 16 14 16q10 0 21 -7t15 -17q7 -17 34 -52q9 -9 12 -20q29 -83 30 -122q1 -17 10 -75 q1 -12 4 -14t15 -2h15q7 0 31.5 3t38.5 2q10 -2 10 8q-8 66 -8 99l-9 84q-5 37 -11 116q-2 19 -7 28q1 3 7 5t7 6zM577 366q-25 2 -35 -6q4 1 15 2.5t20 3.5z" glyph-name="H_H.liga" horiz-adv-x="912" unicode="HH"/><glyph d="M267 705q3 -4 21.5 -13.5t21.5 -23.5q2 -7 8 -12q1 8 0.5 12t-2 12.5t-1.5 13.5q20 -13 18 -35q-2 -21 10 -53q2 -8 3.5 -18t3 -22t2.5 -18q5 -45 7 -54q12 -46 24 -142q2 -17 6 -32q3 -13 5 -73q4 -50 9 -74q3 -10 3 -22q5 -14 6 -14q8 -6 3 -15q-4 -6 -4 -9 q2 -14 0 -40.5t-1 -38.5q1 -5 -1.5 -12.5t-2.5 -10.5q-6 0 -8.5 -3.5t-3.5 -8t-3 -9.5t-6 -7q-1 6 -3.5 9t-4.5 3.5t-7.5 1t-8.5 1.5q-6 1 -11 -0.5t-6 -1.5q-4 0 -10.5 5.5t-11.5 3.5l-4 3q-28 32 -30 53q-2 16 -5 20q-1 2 -2 8t-4 8t-10 0q-1 0 -2 3l-3 3q-18 25 -14 44 q1 5 -2 11.5t-3 8.5l-9 90l-7 133q-7 112 -7 145q0 24 -8 74q-5 30 -7 41q0 8 2 8q15 3 14 16q0 2 5.5 7.5t4.5 11.5q-1 4 3 5q6 1 15.5 3.5t13.5 3.5q2 2 4 0zM-10 683q4 -1 13.5 -2t15 -1.5t12.5 -4t13 -8.5q27 -27 35 -66q3 -14 10 -61t13 -74q3 -14 9 -48.5t10 -53.5 q1 -2 4 -16t7 -21q12 -34 10 -85q0 -11 8 -119q2 -42 -2 -53q-2 -8 4 -20q4 -13 -1 -17q-4 -2 2 -8q5 -5 1 -17q-4 -10 -6.5 -10.5t-12.5 5.5q-11 6 -21 0q-17 -10 -55 -6q-10 2 -14 10q-1 4 -4.5 11t-5 12.5t-1.5 11.5l-9 80q-2 16 -9 44t-9 40q-8 38 -17 107t-14 95 q-3 19 -7 55t-6 50q-2 12 -13 124q-1 11 1 13t14 2q3 1 7 1q1 4 -1 10.5t-2 9.5q2 3 7 4t7 3q3 5 7 3zM273 250l-4 5q0 -1 -1 -3.5t-2 -6.5t-1 -8l4 -30l3 -32q0 -2 4 -19t4 -20q1 -3 3 2q4 15 3 26l-3.5 17.5t-2.5 16.5q0 2 -1 14t-2 17z" glyph-name="I_I.liga" horiz-adv-x="508" unicode="II"/><glyph d="M52 704q22 -7 27 -12t9 -27q6 -25 20 -55q6 -14 9.5 -29.5t7 -35t5.5 -29.5q7 -24 9 -28q3 -27 12 -69t12 -63q4 -24 0 -40q-3 -12 5 -43t8 -34q7 -63 7 -135q2 -33 -16 -61q-31 -46 -76 -75q-9 -6 -26 -3q6 9 27.5 23.5t29.5 25.5q-16 4 -27 -7q-29 -31 -48 -35 q-4 -8 -20.5 -13t-21.5 -14q-2 -4 -7.5 -3.5t-9.5 4.5q-7 10 -22 8q-8 -2 -10.5 0.5t-5.5 14.5q-3 13 10 23q34 23 58 56q33 47 20 121q-1 3 -18 134q-3 22 -6.5 47.5t-8 56t-6.5 48.5q-3 22 -3 46t-8 76q-2 12 -4 25t-4.5 28.5t-3.5 24.5l-1 2q-1 17 5 20.5t23 -4.5 q1 1 2 3.5t1.5 4t1.5 3.5t2 3l2.5 2.5t3.5 2t4 0.5q3 0 5 4q5 13 27 8zM297 678q5 -2 9.5 -3t6 -1.5t4.5 -2t8 -5.5q5 2 16.5 3.5t14.5 2.5q4 -3 6 -6l47 -136q2 -5 4 -15q1 -21 9.5 -65t10.5 -66q1 -15 8 -49.5t7 -52.5q4 -83 15 -134v-15q-3 -38 0 -77q6 -47 -19 -68 q-4 -3 -5.5 -12t-5.5 -12q-62 -57 -133 -54q-17 0 -26 11h11.5h12h11t11.5 1t10 2t10 3t8.5 5t8.5 7q-19 8 -34 4q-4 -3 -28.5 -2t-28.5 1t-6 1q-6 3 -16.5 8.5t-16 8.5t-13 9t-13.5 13q27 -3 31 -1q62 21 78 37q14 12 17 29q5 22 3 56q0 10 -0.5 32t-1 34.5t-4 31 t-10.5 34.5q-21 51 -30 128q-8 108 -22 162q-6 19 -4 77q1 18 0 35q-2 15 12 33q9 14 27 8zM152 59q-3 -1 -4.5 -3t-3 -5.5t-2.5 -5.5q10 6 10 14z" glyph-name="J_J.liga" horiz-adv-x="549" unicode="JJ"/><glyph d="M689 756q6 -3 10 -21.5t1 -23.5q-2 -3 -6 -8.5t-6.5 -10.5t-2.5 -9q-2 -14 -9.5 -20.5t-10.5 -17.5q-1 -5 -14 -33q-3 -6 -9.5 -15t-10 -16.5t-3.5 -16.5q0 -8 -2.5 -15t-9.5 -20t-7 -14q-25 -51 -30 -74q-1 -5 0.5 -8.5t7.5 -8t7 -5.5q0 2 -1 10t0 12t5 8q11 -6 16 -13 q28 -51 29 -52q18 -26 29 -36q12 -11 33 -52q55 -115 77 -156q36 -70 56 -104q5 -12 12 -20q8 -8 3 -16q-7 -7 -16 -2q-7 5 -21.5 7.5t-21.5 6.5q-8 5 -21 1q-14 -3 -25 8q-13 12 -29 16q-35 13 -53 59q-32 86 -54 136q-6 12 -11.5 27t-11.5 33.5t-10 28.5q-7 23 -19 51 q-15 -20 -10 -52q1 -11 7.5 -73t12.5 -95q0 -2 4 -22t5 -31q3 -26 5 -78q1 -13 -3.5 -15t-16.5 3q-3 1 -13 -1q-15 -4 -34 8q-8 8 -11 2l-7 4q-2 3 -5 19q-1 12 -4.5 33.5t-5.5 39.5t-2 33q3 29 -1 89q-16 -12 -11 -29q4 -20 6 -119q0 -5 2.5 -20t2.5 -23q0 -2 0.5 -6 t1.5 -6q0 -5 -16 3q-13 6 -17 17q-10 26 -11 40q-24 166 -32 229q-3 22 -7 64.5t-6 63.5q-1 9 -4.5 27.5t-4.5 28.5q-6 67 -10 141q-1 9 -2.5 25t-1.5 24q-2 12 4 14q7 1 13 -9q2 -7 5 -8q3 3 14 23t25 25q2 -1 7.5 -8.5t13.5 -5.5q1 1 3 -1.5t3 -4.5q3 -11 14 -28t14 -25 q12 -31 17 -66q2 -12 5.5 -24.5t8.5 -28t7 -24.5q5 -23 11 -62q3 -8 4 -9q8 10 13 28q10 30 28 73t23 55t19.5 33.5t19.5 35.5q5 13 23 40t23 37zM281 701q3 4 10 0.5t9 -10.5q2 -10 -3 -16q-19 -36 -33 -57q-3 -4 -31 -58q-5 -12 -8 -16q-1 -3 -4.5 -7.5t-5.5 -8.5t-2 -8 t-3 -11.5t-3 -11.5q0 -12 -21 -33q-17 -19 -2 -49q9 -17 27 -50.5t20 -37.5q12 -26 12 -28q1 -3 17 -27q26 -56 79 -136q38 -59 46 -78q4 -8 4 -12q5 -20 15 -34q8 -14 7 -18q-26 7 -32 -13q0 -2 -3 -1q-2 1 -3 1q-4 -2 -13 -2.5t-12 -1.5q-17 -5 -42 15q-21 17 -31 21 q-1 -1 0 -6t-2 -7q-16 6 -24 24q-29 64 -46 107q-44 99 -47 106q-37 84 -45 112q0 2 -2.5 6t-3.5 6q-8 -5 -6 -21q13 -59 20 -98q25 -148 26 -157q1 -11 -5 -31q-1 -5 -1 -11v-8q0 -1 -0.5 -4t-0.5 -4.5t-0.5 -3.5t-2 -3t-4 -2t-5.5 -1q-4 0 -5 -3.5t-1 -8.5t-2 -8 q-8 2 -10.5 2.5t-10 -3t-9.5 -4.5q-15 -5 -29 2t-19 22q-10 41 -14 66q-9 48 -29 142q-12 63 -21 124q-3 26 -10 74t-10 68q-13 84 -12 118q0 5 -2 13t-2 11q-5 21 -4 24q15 19 8 34q-1 1 3 3h3q11 -2 22 5q16 9 44 2q17 -3 23 -21q11 -37 15 -71q5 -27 7 -34q2 -6 10 -67 q2 -16 17 -101q10 8 21 30q6 9 43 75q45 79 83 134q1 1 12.5 16t15.5 24q2 3 8.5 7.5t9.5 8.5z" glyph-name="K_K.liga" horiz-adv-x="881" unicode="KK"/><glyph d="M9 726q2 -2 5.5 -6.5t7 -7.5t8.5 -4q4 -1 4 -10q3 -20 3 -39q1 -24 15 -120q5 -46 7 -50q5 -16 9 -19q5 21 -3 60.5t-8 54.5q2 19 -3.5 58.5t-5.5 58.5q14 -10 14 -35q3 -26 11 -78q2 -20 5 -43t7 -50.5t6 -43.5q14 -106 23 -134q16 -46 29 -102q2 -12 5 -91v-10 q-1 -10 0 -10q0 -24 -4 -32q-7 -14 3 -32q5 -1 6 3q2 7 3.5 7.5t8.5 -5.5q4 -3 10 -3q31 0 40 2q3 1 58 6q23 0 30 -5q4 -2 18 -2q11 0 15 -2q11 -7 4 -12q-6 -8 -1 -14q6 -6 -1 -8q-1 -1 -10.5 -6t-15.5 -6.5t-14 -0.5q-12 1 -36 -2t-37 -2q-20 1 -81 -4q-9 -1 -40 -2.5 t-46 -4.5q-25 -4 -43 26q3 3 16 4.5t15 11.5q-1 3 -5 6.5t-5 4.5q-16 20 -19 32q-4 26 -12 86.5t-14 92.5q-5 28 -12 79t-10 71q-4 27 -12.5 79.5t-12.5 78.5q-1 9 -6.5 55.5t-10.5 71.5q-4 13 10 13q9 -1 22 5.5t19 6.5q2 0 6 6q3 14 25 16zM320 696q12 6 29 -6 q14 -10 24 -22l22 -29q1 0 2 1h1l-3 28q12 -10 17 -36q2 -5 3.5 -11t3 -13.5t2.5 -11.5q4 -21 13 -29q1 0 6 -14q7 -20 23 -94q15 -92 17 -111l9 -54q4 -32 1 -47q-3 -14 1 -51q1 -5 -1 -13q-3 -5 1 -13q10 -21 19 -75q2 -12 4.5 -14t14.5 -2q1 0 76 -3q10 -1 23 -7 q23 -10 44 -9q14 1 42 -1q15 -1 38 -20q5 -3 5.5 -7.5t-3.5 -6.5q-18 -10 -23 -9q-17 4 -36.5 4.5t-43 -1t-36.5 -1.5q-61 3 -145 -8q-12 -1 -35 0.5t-30 1.5q-5 0 -9 2t-9.5 7.5t-7.5 6.5q2 8 13.5 12.5t14.5 7.5q-29 20 -37 74q-4 28 -9.5 79.5t-7.5 67.5q-10 89 -16 110 q-10 38 -15 97.5t-9 82.5q-10 81 -14 95q-1 1 -2 5t-3 6q-10 26 17 29q2 0 5 1t4 1zM567 63q-41 0 -48 -2q29 -11 48 2zM484 57q-13 3 -17.5 3t-6.5 -1t-4 -7q21 0 28 5zM63 35q-3 0 -3 -7q-2 -3 2 -3q3 -1 4 0.5t1 4.5q-3 5 -4 5z" glyph-name="L_L.liga" horiz-adv-x="796" unicode="LL"/><glyph d="M55 716q6 1 9 -4q13 -25 29 -42q12 -14 21 -40q16 -42 46.5 -125.5t37.5 -103.5q20 -56 27 -73q2 11 5 63v41.5t2 50.5q5 84 7 101q8 74 13 87q10 25 29 21l25 -5q7 -1 16 -7q10 -9 13 -8t7 14l1 1q1 1 1 2l6 -3t5.5 -2t5.5 2q2 4 14 -1q1 0 4 -2t5 -3q17 -5 27 -17 t13 -22t6 -29v-11q7 -31 10 -90t4 -65q9 -74 20 -124q5 -18 11.5 -53.5t9.5 -50.5q6 -25 11.5 -72t8.5 -63q1 -8 5.5 -26.5t5.5 -29.5q0 -31 -30 -24q-2 -1 -2.5 -3.5t0 -4.5t-0.5 -4q-4 -11 -18 -8q-17 2 -57 27q-26 16 -30 49q-10 58 -11 86q0 18 -8 52q-8 36 -18.5 100.5 t-14.5 87.5q-5 25 -15.5 85t-18.5 92l-4 8q-5 -9 -10 -35l-12 -75q-9 -112 -4 -153v-34q0 -5 -0.5 -16t0 -19t4.5 -16q4 -5 2.5 -11.5t-3 -9.5t-5.5 -8t-5 -8q-1 -4 -10 0q-16 5 -19 5q-2 -13 9 -13q4 0 8 -4t7.5 -9.5t5.5 -7.5q-2 -4 -13 -6q-34 -4 -44 7q-7 7 -23 15 q-23 13 -41 45q-60 118 -87 186q-7 17 -20.5 51.5t-20.5 51.5q-5 15 -15 34q3 -10 2 -29.5t3 -29.5q4 -14 6.5 -40t3.5 -33q3 -16 9 -58t10 -64q16 -81 23 -104q11 -44 11 -60q1 -42 10 -100q4 -9 0 -15q-9 -15 -29 -5q-2 -1 -3.5 -4.5t-4.5 -4.5q0 1 -2.5 2.5t-2.5 3.5 l-10 56l-12 116q-4 42 -18 105q-21 95 -33 217q-3 29 -10.5 87.5t-9.5 76.5q0 1 -3 22q-3 10 9 15q15 6 33 -1q4 2 6.5 7.5t2.5 6.5q9 11 14 12.5t20 -4.5q23 -8 31 -23q2 -5 7 -3q0 3 -1.5 14t1.5 13zM882 691q2 0 6.5 0.5t7 0t6.5 -1t6.5 -2.5t4.5 -6q2 -2 8 -2 q18 3 29 -16q3 0 6 3t6 1q8 -8 28 -8q4 0 7.5 -2.5t7 -7t5.5 -6.5q13 -9 12 -29q0 -3 2 -8t2 -7q7 -22 18 -72q2 -12 6 -34t7.5 -40t7.5 -34q13 -46 14 -75q0 -11 6 -35q1 -10 5.5 -38.5t5.5 -43.5q1 -8 11 -62q4 -39 1 -58q-3 -26 8 -70q4 -14 -1 -23q-8 -12 -22 -6 q-12 6 -17 10q-1 1 -4.5 5t-4.5 3.5t-6 -5.5q-1 1 -15 8.5t-18 14.5l-22 36q-8 16 -11 23q-3 13 -14 23q-11 9 -15 30q-10 42 -14 73q-7 56 -27 134q-13 74 -15 82q-3 14 -8 46t-9 50q-5 -3 -7 -15q0 -9 -3 -27t-4 -27q-1 -16 -12 -59q-14 -64 -19 -96q0 -2 -2 -7t-2 -8 q0 -1 -1.5 -3t-0.5 -4q6 -13 5.5 -20t-4 -19t-3.5 -19q0 -12 -9 -20q-4 -5 -4 -14q-2 -13 -6.5 -38.5t-5.5 -29.5q-3 0 -11.5 3.5t-13.5 1.5q-1 0 -8 2l-9 9t-9.5 10t-7 10t-4.5 13q-2 12 -12 33t-13 30l-4 5q-18 13 -38 53q-36 68 -50 103q-5 10 -6 11q-28 50 -43 94 q-4 -1 -5 -2.5t-1 -5.5l1 -4q3 -16 11.5 -47.5t10.5 -47.5q7 -50 23 -150l16 -82q6 -40 6 -61q-4 -38 1 -52q5 -15 8.5 -34t5.5 -25q2 -9 3 -26.5t2 -24.5q-7 -4 -17 4q-24 26 -27 44q-4 23 -17 105t-20 116q-6 32 -16 90.5t-13 76.5q-12 78 -15 116q-2 32 -8 96 q-2 18 -10 23q-3 2 -5 8q-7 11 -5.5 15t13.5 5q16 2 21 5q16 8 33 -4q7 -5 22.5 -12t20.5 -10q27 -16 43 -37q9 -12 17 -15l-21 40q-2 9 0 10q4 2 10 -2q21 -19 27 -27q12 -16 27.5 -47t20.5 -39q21 -38 49 -93q4 9 7.5 24.5t4.5 18.5q11 43 17 57q17 42 31 91q1 3 3 11 t4 14.5t4 9.5q7 13 1 28q-2 8 1 13t11 4zM372 514q-2 -15 -1.5 -22t5.5 -21.5t6 -21.5q5 15 1.5 35.5t-11.5 29.5z" glyph-name="M_M.liga" horiz-adv-x="1192" unicode="MM"/><glyph d="M752 740q7 -5 5 -14q-3 -9 1 -33q10 -32 7 -48q-1 -4 0 -7.5t3 -8t3 -6.5q4 -15 6 -73q1 -10 2.5 -29t3 -34.5t3.5 -29.5q1 -11 7.5 -45t9.5 -66q1 -12 5 -36q4 -53 24 -161q6 -30 6 -46q2 -24 10 -68.5t10 -55.5l-1 -7q-2 -1 -9 4q-2 1 -5 5t-4.5 5.5t-5.5 2.5t-8 -3 q-3 0 -3 1q-7 8 -25.5 12.5t-25.5 10.5q-11 9 -16 1q-2 -2 -9 0q-3 1 -12 10q-1 2 -7 7t-8 9q-6 10 -21.5 27.5t-23.5 26.5q-11 14 -17 31q-4 12 -25 49q-30 52 -48 94q-4 9 -16 37.5t-18 43.5q-40 95 -49 123q-1 5 -7 15t-7 15q-4 14 -11 30t-17.5 35.5t-15.5 29.5 q-2 8 -8 12q0 -11 2 -16q2 -12 7 -37t6 -41v-6t1 -5q2 -5 7.5 -20t7 -22.5t3.5 -23t2 -34.5q-1 -16 6 -38q6 -13 2 -20q-2 -4 -2 -11q18 -51 30 -104q20 -83 22 -99q6 -36 6 -38q12 -53 10 -105q-4 3 -17.5 9t-18.5 13q-7 8 -13 2q-2 -1 -6 -1.5t-6 -2.5q-6 6 -6 12 q-3 14 -14.5 60t-17.5 77.5t-7 60.5q-1 20 -11 58q-7 27 -11.5 79.5t-5.5 59.5q-6 73 -6 77q0 11 -5 31.5t-6 26.5q-1 4 -10.5 54.5t-12.5 74.5q0 1 -1 4t-1 4q0 13 3 13q4 1 10 6.5t10 6.5q19 4 27 -13q8 1 16 9q2 3 17 8q10 2 16 -8q1 -1 12 -3q14 0 26 -17q25 -41 26 -42 q-2 10 -9 26t-9 24q7 3 11 -4q10 -15 24 -19q5 -1 7 -6q34 -50 47 -88q5 -13 16.5 -37t13.5 -28q15 -37 35 -97q19 -60 50 -136l41 -101q21 -47 23 -68q1 -2 6 -5q6 3 4 13q-38 207 -49 320l-17 188q-1 7 -1.5 42.5t-5.5 55.5q8 -2 13 -0.5t11.5 8t8.5 7.5zM68 696q6 0 6 -3 q3 -7 12 -18t12 -18q8 -18 21 -58t24 -61q15 -30 41.5 -91.5t40.5 -91.5q6 -13 15.5 -37.5t13.5 -32.5l48 -117q5 -5 6 -5q-2 82 -23 149q-3 0 -1 -10l1 -11q0 -3 1.5 -10.5t0.5 -11.5q-7 2 -7 11q-3 25 -13 77q-1 8 -1.5 23.5t-1.5 23.5q-2 20 -10 58q-8 40 -9 60 q-7 82 -17 143q0 4 8 21q1 3 9 3q7 -1 19 -10t14 -16q2 -13 9.5 -43.5t8.5 -47.5t5 -49.5t5 -44.5q1 -5 5 -31.5t5 -41.5q2 -24 8.5 -69t8.5 -64q2 -16 10 -46t9 -37q3 -19 12.5 -53.5t12.5 -50.5q3 -25 0 -27q-5 -4 -6 -8.5t1.5 -10.5t2.5 -8l3 -14q5 -22 -15 -29 q-7 -5 -11 4q-5 6 -22 8q-3 1 -24 1t-32 6q-6 -3 -18 1.5t-15 4.5q-16 1 -23 20q-2 6 -13.5 32.5t-16.5 41.5q-7 20 -23 57t-23 57q-8 24 -64 156q-34 77 -48 123q-4 14 -13.5 39.5t-12.5 35.5q-4 -1 -4 -8q26 -239 27 -248q4 -33 15 -94.5t14 -83.5q3 -19 12 -61.5 t11 -54.5q2 -8 3 -17.5t2.5 -21t2.5 -19.5q-6 3 -18 10.5t-20 9.5q-9 1 -9 14q-1 11 -10 25q-6 7 -8 22q-6 27 -25 159q0 2 -3 17.5t-6 23.5q-1 1 -1 3t-0.5 4t-0.5 4q-2 32 -11.5 91t-11.5 81q-6 57 -23 194q-1 13 -7 41q-1 12 9 15q29 6 41 1q6 -2 16 3t21 7t26 2.5 t22 1.5zM317 44q1 -14 3 -16t16 0q-10 17 -19 16z" glyph-name="N_N.liga" horiz-adv-x="920" unicode="NN"/><glyph d="M106 720q2 0 2.5 -2t0 -5.5t-2.5 -5.5q-4 -5 -2.5 -9.5t-0.5 -8.5q0 -6 -5 -14q-11 -37 -9 -109q-1 -23 8 -134t15 -129q14 -43 17 -69q5 -47 18 -77q6 -13 19.5 -47t20.5 -47q10 -17 27 -17q8 0 10 -7q8 -4 18 8t27 42q7 12 3 44q-2 1 -2.5 5t-1.5 5q-8 31 -12 93 q-1 13 -14 94.5t-14 92.5q-3 39 -13 71q-25 -4 -30 -2q-4 1 -17.5 3t-18.5 4q-9 4 -21 35q-2 4 -1.5 15.5t0.5 12.5l-2 20q0 1 -1.5 7.5t-2.5 10.5q-2 7 4 31q3 23 7 32q4 11 16 24q1 0 7.5 3.5t11.5 3.5q4 0 15.5 -4t16.5 -4q3 0 12.5 -5.5t12.5 -6.5q2 -1 5 -4.5t6 -4.5 l21 -35q2 -3 7 -8t6 -7q13 -19 31 -59q8 1 15 5q5 2 20 12.5t20 11.5q4 1 9 4t9 6t8 6.5t5 4.5q7 8 15 14t17 11.5t13 8.5q32 22 53 28q5 1 12 4.5t10 4.5t6.5 -0.5t7 -5t6.5 -4.5q7 0 16 6q6 4 3 10q-1 8 -0.5 8t7.5 5q30 9 43.5 6.5t43.5 -14.5q13 -7 22 -24q5 -13 6 -14 q4 0 6 1.5t1 4.5q0 3 -1 7.5t-1 7t3 2.5q5 1 13.5 -4t11.5 -9q11 -13 32 -29q7 -5 18 -23q0 -1 3 -6t4 -6t4.5 -2.5t8.5 -1.5q3 1 7 -2.5t4 -7.5q-1 -15 17 -68q23 -86 23 -153q0 -121 -2 -156q-1 -5 -4 -16.5t-4 -17.5q-2 -45 -5 -67q-1 -12 0 -23q-2 -20 -18 -28 q-1 0 -14 -19q-5 -6 -12.5 -11t-19 -10.5t-15.5 -7.5q-2 -3 -10 0q-4 3 -10 0q-4 -3 -7.5 -4t-5 -0.5t-6 3t-8.5 3.5q-9 3 -11.5 2t-6.5 -9q-7 -16 -11.5 -17.5t-21.5 8.5q-58 30 -73 40l-7 2q-7 -3 -9 -3.5t-7.5 5l-6.5 6.5l-9 9l-9 9q-36 36 -46 91q-3 17 -10 50t-10 48 q-3 10 -5 44q-1 12 -6.5 44t-3.5 53q1 1 -0.5 27t-2 57t2.5 60q1 9 7 25t8 23q6 18 7 32l-18 -13q-6 -7 -24 -21l-31 -22l-4 -4q-4 -4 -11 -9.5t-18 -11.5q-4 -2 -13.5 -7t-13.5 -7q7 -16 28 -99q0 -2 6 -56q5 -27 5 -77t3 -74q5 -34 3 -80q0 -14 -11 -16q-3 0 -3 -3 q-2 -11 -12.5 -26t-13.5 -24q-3 -14 -19.5 -24t-20.5 -15q-18 -24 -45 -24q-39 0 -42 -8q-5 -11 -23 -5q-47 12 -80 39q-27 22 -46 44q-5 8 -4 12q6 -3 18.5 -15.5t21.5 -15.5q-4 6 -14 20t-14 22q-2 3 -12 1q-18 -1 -25.5 4t-16.5 23q-6 18 -6 25q-4 32 -14 72q-6 20 -8 78 q-4 57 -8 76q-15 90 -12 168q3 80 44 138q7 11 38 33q11 10 23 3q9 -5 21 0q20 6 29 6zM51 701q-15 -5 -18 -9q10 0 18 9zM602 657q-33 18 -48 -24q-4 -15 -8.5 -42.5t-7.5 -40.5v-12q3 -52 2 -88q0 -17 2 -51q4 -38 19 -127.5t21 -108.5q1 -5 19 -40q4 -7 14 -15.5 t14 -14.5q13 -24 32 -37q15 0 32 15q3 3 6 37q1 11 1 60q1 36 -6 115t-7 111q0 43 -2 56q-1 4 -1 20q-2 47 -12 71q-8 22 -9 26q-1 7 -3 14t-3.5 12t-6 14t-6.5 12t-8 13.5t-7 12.5l-7 9q-6 4 -7 2q-1 -6 -8 -2q-3 2 -5 3zM179 648q-3 5 -13 -7l-3 -16q-1 -5 -1 -25 q0 -1 5.5 -20.5t7.5 -28.5q1 -5 9 -9t12 -4h10l-1 10q-2 32 -26 100zM676 638q-1 -7 -1 -9.5t2.5 -7.5l3.5 -7q2 16 -5 24zM531 218q-1 -9 6 -18q1 9 -6 18zM564 121q0 -20 25 -39q-15 30 -25 39zM89 43q2 -8 13 -7q-8 8 -13 7z" glyph-name="O_O.liga" horiz-adv-x="934" unicode="OO"/><glyph d="M402 737q4 0 9 -9q9 -21 9 -22q4 -2 5 -2q26 5 68 1q13 -1 39 3q19 1 37 -3q32 -7 43 -8q14 -3 27 -10q35 -22 40 -25q19 -12 23 -29q1 -5 16 -32q1 7 -0.5 14.5t-4 17t-3.5 14.5l6 -2q5 -9 18 -27.5t18 -29.5q2 -8 1 -11q1 -44 -10 -93q-2 -7 -5 -13t-8 -12.5t-8 -9.5 l-10.5 -10.5l-9.5 -9.5q-24 -26 -65 -42q-18 -8 -32 -18q-9 -6 -15 2q-4 4 3 11l2.5 2.5t3 2t3 2t3.5 2.5q-12 4 -18 -4q-3 -6 -12 -13t-12 -12q-9 -14 -20 -14q-3 -12 3 -32t6 -26q6 -38 10 -58q9 -53 6 -85v-13q4 -14 6 -39.5t4 -35.5q1 -9 -3 -18q-4 -7 -4 -19 q-1 -12 -9 -23q-3 1 -6 5t-6 5l-4 -4q1 -4 -2.5 -11t-3.5 -11q0 -5 -4 -5.5t-7 2.5q-11 15 -29 15q-9 0 -16 11q-6 13 -16 13q-16 2 -25 21q-13 24 -14 41q-6 54 -8 81q-9 87 -27 174q-5 27 -5 47q0 26 -4 47q-3 18 -3 47.5t-1 47.5l-18 120q0 2 -3 5q-30 -6 -38 35 q20 3 36 7q0 15 -6 23q-7 8 4 16q18 9 46 6zM-56 707q3 -2 14.5 -3t16.5 -7q4 -4 7 -4q5 3 23.5 1t24.5 -2q72 2 89 0q71 -6 100 -26q24 -16 46 -39q8 -8 15.5 -25t8.5 -18q3 -4 3 -10q0 -10 1.5 -20.5t6 -24.5t5.5 -20q8 -47 3 -70q-3 -11 -5 -13q-11 -8 -24 -44 q-4 -10 -9 -13q-9 -5 -45 -33q-8 -6 -10 -6q-13 -6 -26 -14t-29 -19t-25 -17q-12 -7 -13 -7l-6 -2t-4.5 -2t-3 -3.5t-2 -3.5t-1 -5t-0.5 -4.5v-5.5v-5q0 -9 1 -13q5 -20 7.5 -57t6.5 -53q2 -8 1.5 -22t0.5 -22q5 -41 14 -70q3 -8 2 -13q0 -13 -11 -8q-12 4 -34.5 8t-34.5 8 q-4 1 -11 1q-27 0 -31 25q-5 22 -5 38t-4.5 47t-5.5 37l-7 53q-2 12 -14 10q-7 -2 -10 1t-1 10q5 14 10 14q4 1 6 2t2.5 3t0.5 3.5t-0.5 5t-0.5 4.5q-3 17 -12 67.5t-13 78.5q-11 74 -18 143q0 1 -3 80q-2 26 -4 37q-3 14 -6 16.5t-19 7.5q2 1 7.5 3.5t7.5 5t2 6.5 q1 4 6 6.5t9 1.5zM563 677q-20 -7 -62 -3q-14 2 -22 1q-20 -2 -27 -10q18 -8 20 -16q7 -20 17 -58t14 -51q11 -38 19 -89q4 -28 9 -41q23 4 47 24q25 22 69 74q17 22 13 49q-2 13 -6 26q-2 13 -11.5 28t-14.5 21t-21 24q-4 4 -8.5 7t-10.5 6t-9 5q-8 5 -16 3zM613 668 q5 -3 12.5 -14t14.5 -14q2 7 -6 14.5t-8 11.5q0 1 -2 2t-5 1t-6 -1zM35 666q-2 0 -2 -3q1 -4 5.5 -18t5.5 -22q0 -6 5 -41q8 -86 18 -127q3 -10 7 -39.5t10 -45.5q1 -5 3 -14t3.5 -16.5t2.5 -14.5q3 -13 6 -18q6 4 7 7q13 22 41 40q14 8 19 22q19 54 21 90q0 9 8 11 q0 -2 -1.5 -25.5t-1.5 -35.5h4q5 8 7 17t2 20.5v17.5t-2.5 22t-2.5 19q-2 2 -3 2q-1 -1 -1 -5t-2 -6q-7 7 -5 18q3 12 -2 32q-2 16 -1 24q2 12 -3 20q-26 40 -36 50q-12 12 -26 16q-8 5 -43.5 4t-42.5 -1z" glyph-name="P_P.liga" horiz-adv-x="874" unicode="PP"/><glyph d="M109 709q33 3 73 -31q12 -10 15 -23q0 -2 8 -15q14 -23 16 -33q6 -19 20 -27q1 4 -2 10t-2 9q6 0 11 -10q21 -60 20 -79q-1 -17 10 -45q14 -36 17 -79q1 -17 3.5 -46.5t4 -54t1.5 -45.5q2 -70 -21 -125q0 -1 -5 -14.5t-10 -19.5q-2 -2 1 -12q6 -21 35 -84q5 -11 18.5 -16 t23.5 0l6 3q9 2 12 -5q5 -5 2 -10l-6 -9q-6 -7 -11 -17q-5 -18 -24 -18q-34 0 -52 22q-14 18 -41 63l-6 9q-4 -1 -12 -6q-14 -10 -31.5 -10.5t-28.5 3t-33 12.5q-7 2 -10 9q-4 19 -27 17q-27 -2 -51 28q-53 66 -63 155q-19 139 -22 176q-7 99 0 176q6 46 28 91q12 22 45 39 q6 2 18 -1q2 0 8 -2t10 -2q24 -2 30 9q3 6 22 8zM543 700q4 -1 10 -3t8 -3q13 -4 18 2q4 4 25 2q15 -2 18 -15q1 -2 2.5 -3t4.5 -2.5t4 -2.5q29 -23 40 -37q4 -6 20 -45q7 -18 16 -51t16 -63.5t9 -36.5q12 -40 14 -88q0 -7 1.5 -21t1.5 -22q0 -65 -3 -77q-2 -10 -4 -36 t-7 -39q-5 -14 -8 -16q-5 -4 0.5 -16t2.5 -17q-5 -16 -17 -21q-5 -2 -9 -8q-8 -13 -7 -18.5t13 -19.5q7 -10 22.5 -27.5t19.5 -22.5q12 -12 19 -23q3 -4 3.5 -7t-0.5 -8t-1 -7q2 -16 -3 -20q-4 -3 -0.5 -9t1.5 -9q-2 0 -9.5 4t-12.5 3q-4 -2 -9 8l-1 2q-18 25 -41 58 q-6 9 -18 24.5t-17 23.5l-24 -18l-15 -10q-12 -6 -25 7l-9 6q-8 6 1.5 21.5t18.5 17.5q7 2 19 10q6 8 2 17q-13 21 -47 84q-13 21 -14 24q-1 7 -8 25q10 0 18.5 -5.5t16.5 -14t13 -11.5q16 -11 33 -47q2 0 3 1q6 25 9 53q9 46 -2 90q-10 47 -16 124q-2 26 -8.5 73t-8.5 62 q-1 17 -8 41q-3 15 -11 25q-8 8 -16 24q-13 26 -43 37q-27 8 -29 9q-9 2 -10 10q15 18 38 12zM596 686q-4 6 -15 0q1 -1 4.5 -3.5t4.5 -2.5t5 1q1 1 1 5zM456 682q3 6 20.5 3t23.5 -13q8 -10 0 -16q-15 -14 -15 -54q0 -8 -3 -34t-1 -41q11 -67 12 -85q1 -16 8 -50.5t8 -50.5 q3 -66 12.5 -110.5t24.5 -80.5l16 -35l27 -50l-4 -20l-3 -1q-3 -1 -6.5 -3t-4.5 -6q2 -3 5.5 -9t6 -11t2.5 -9q2 -13 8 -23q-7 -1 -8 -1.5t-5 2t-7 3.5q-14 4 -21 3q-16 0 -41 21q-24 22 -51 66q-6 8 -15.5 24t-15.5 24q-9 13 -17 32.5t-14 29.5q-3 6 -8.5 26.5t-6.5 27.5 q0 21 -5.5 50t-6.5 44q-1 11 -4 33t-4 39t0 32v22q-2 20 -1.5 28.5t2 28.5t1.5 28q0 6 4 10q8 11 10 28q3 21 17 37q2 3 9.5 14.5t14.5 15.5q26 18 36 31zM99 661q-3 -1 -7.5 -5.5l-6.5 -6.5q16 -14 1 -29q-11 -13 -17 -52v-49q0 -18 2.5 -51t2.5 -46q2 -36 4 -43 q4 -14 5.5 -39t2.5 -30q2 -17 7 -49t7 -44l3 -11q1 4 5 7.5t7 5.5t9.5 5t7.5 4q17 8 36 4.5t31 -17.5q27 -34 30 -52q1 -6 13 -20q3 12 4 27t0.5 27t0.5 26q-2 75 -15 135q-7 34 -23.5 103t-23.5 104q-8 37 -42 81q-20 25 -44 15zM225 530q-2 -4 6 -22v6t-1 9t-5 7zM139 194 q-14 0 -32 -4q1 -19 18 -82q11 -48 13 -53q5 -16 22 -20q13 -5 23 8q2 3 9 13q10 11 3 25q-11 22 -14 44q-3 18 -25 59q-5 10 -17 10zM512 189q-1 -36 23 -67q-8 37 -23 67z" glyph-name="Q_Q.liga" horiz-adv-x="842" unicode="QQ"/><glyph d="M443 722q16 2 22 -1t13 -16q6 -9 10 -12q9 -6 15 -35.5t8 -33.5q18 -38 26 -115q0 -19 7 -45q4 -12 6 -37q1 -34 14 -89q9 0 14 10q7 9 20 28.5t25 31.5q24 24 37 46q11 18 7 56q-5 58 -41 113q-3 4 -7 6.5t-7 3.5t-11.5 3.5t-12.5 3.5q-44 13 -66 13q-5 0 8 9q5 2 11 6 q3 2 -3 3t-6 4q15 4 41 3q10 -1 22.5 -2.5t18.5 -2.5q14 -1 22 -2.5t10.5 -2.5t9 -3.5t15.5 -4.5q37 -4 62 -31q47 -53 36 -115q-2 -6 -2 -20q-3 -50 -32 -74q-5 -4 -13.5 -16t-12.5 -16q-6 -6 -14 -21t-19 -21q-1 -1 -3.5 -2.5t-3.5 -2.5q17 -10 41 -50q63 -104 83 -132 q12 -16 31 -44t29 -41q2 -2 5 -5.5t5 -6t4 -6t3 -6.5q0 -1 2.5 -7t-1.5 -7q-4 -3 2 -9q6 -9 4 -25.5t-16 -11.5q-5 -27 -4 -30q1 -5 -2 -6.5t-7 0.5t-7 5q-7 9 -36 25q-47 28 -74 67q-21 28 -34 40q-27 26 -55 90q-7 16 -37 96q-2 5 -7 22q-5 0 -11.5 -7t-12.5 -5 q-3 1 -3 -3q0 -2 1 -5q-1 -5 2 -52q8 -82 15 -125q2 -11 3 -31t2 -29q1 -5 0.5 -9t0 -9t3.5 -9q4 -6 -2 -19q-5 -17 -5 -27h-8q-3 0 -8.5 5t-8.5 6.5t-9 -5.5q-4 1 -15 3t-17 4q-15 7 -32 9q-13 0 -18 12q-26 43 -31 78q-11 62 -17 163q0 12 -11 108q-12 79 -34 235 q-1 10 0 48.5t-2 48.5q-2 15 8 16q3 0 4 1q7 14 21.5 14.5t28.5 -5.5h2q0 8 -1 12zM20 697q13 -2 27 -3t31.5 -1.5t26.5 -1.5q63 -4 86 -19q18 -12 49 -24q20 -9 31 -30q31 -58 33 -94q0 -6 4 -16t4 -15q9 -56 -36 -103q-5 -6 -12.5 -11t-17 -11t-14.5 -10q-8 -8 -16 -10 q0 4 5 9.5t4 10.5q-10 -2 -28 -20q-5 -6 7 -13q7 -5 14.5 -11.5t16.5 -15t14 -12.5q37 -32 66 -90q7 -14 16.5 -35t17.5 -36.5t19 -33.5q1 -2 20.5 -35t20.5 -38q10 -26 98 -126q9 -11 8 -22q0 -3 -3 -1q-13 9 -13 4q1 -3 7 -14q10 -18 6 -18l-4 3q-4 2 -7.5 4t-3.5 1 q-5 -10 -13 -2q-3 2 -12 11q-28 29 -27 17q0 -7 7 -23l-16 3q-2 1 -3 1q-6 3 -26 19t-48.5 44.5t-43.5 52.5q-3 5 -27 37.5t-26 35.5q-10 16 -21.5 49.5t-25.5 48.5q-12 14 -58 103q-14 23 -18 29q-21 -12 -15 -32l1 -8q-2 -16 0.5 -34.5t7 -42t6.5 -35.5q12 -84 12 -106v-7 t-0.5 -7t-3.5 -4.5t-9 -0.5q-2 1 -3.5 -1.5t-0.5 -4.5q-2 -5 -2 -15q-10 4 -42 29q-16 -20 -39 -6q-26 14 -30 41q-1 8 -1 23.5t-2 23.5q-4 22 -10.5 68t-10.5 68q-1 5 -3.5 14.5t-2.5 11.5q-22 71 -27 155q-2 29 -7 83t-7 75q-5 62 -8 75q0 10 -3 15q-5 0 -15.5 -3.5 t-16.5 -2.5q-1 2 1 6t-1 6q-11 10 3 15q58 20 110 13zM63 652q23 -120 39 -295q8 4 9 5q64 73 81 102q16 28 18 86q0 5 -4 13q-8 13 -8 25q0 10 -11 15q-2 1 -4.5 2.5t-5.5 3.5t-5 3q-45 32 -65 37q-11 3 -44 3zM674 600l18 -71q7 44 -18 71z" glyph-name="R_R.liga" horiz-adv-x="923" unicode="RR"/><glyph d="M124 717q33 0 48 -6q6 -2 7 -2q6 1 12 -1t8.5 -3.5t10 -6.5t8.5 -6q12 -9 31 -69q10 -32 3 -29q-17 8 -17 0q1 -5 -6 -27q0 -3 -4 0t-9.5 7t-8.5 1q-4 -4 -10 7.5t-11 26t-6 15.5q-3 2 -14.5 19.5t-23.5 26.5q-18 14 -40 -3q-17 -13 -22 -23q-1 -2 -4 -7.5t-4 -7.5 t-3 -7.5t-2.5 -10t-0.5 -12t1 -16.5q0 -3 1.5 -11t2 -12t2 -10t4.5 -11t7 -10q1 -1 2 -3q3 -4 4 -6q20 -33 63 -74q50 -46 82 -85q7 -9 24 -27.5t25 -29.5q4 -8 13 -1q51 41 92 102q6 9 -1 17q-10 11 -19 24t-18.5 30.5t-15.5 26.5q-3 3 -1 7q4 5 4 12t-2.5 20t-2.5 15 q-1 12 15 58q10 26 37 49q3 2 13 7.5t12 7.5q4 1 7.5 4t7 4.5t8.5 0.5q1 1 9 2t12 4q28 23 98 6q7 -1 24 -17t20 -23v-7q20 -23 9 -40q0 -6 -1.5 -11t-3 -7t-4.5 -6.5t-4 -6.5q-19 -15 -24 -22q-5 -9 -17 -24t-15 -19q-2 -2 -15.5 -18.5t-21.5 -22.5q13 -8 40 -35 q14 -14 35.5 -43t33.5 -42q4 -4 10.5 -13.5t9.5 -12.5q41 -45 63 -113q8 -26 9 -48t-2 -33t-11 -33q-6 -18 -21 -39.5t-29 -28.5q-6 -3 -25.5 -11t-27.5 -13q-1 -1 -9 -5t-13.5 -6t-14 -4.5t-11.5 0.5q-29 -14 -67 0q-9 4 -20.5 10.5t-26.5 16.5l-21 14q-3 2 -2 13t-5 12 q-6 3 -13 22q-3 6 -1 7q1 0 3 -1q13 -8 22 -10l9 -2q10 -5 19 -7.5t11 4.5q-43 19 -47 31q11 0 37 -8q2 -1 8.5 -3t9.5 -3t9.5 -2.5t10 -2.5t9.5 -1.5t9.5 -0.5t8.5 1t8.5 2.5t6.5 4.5q8 8 20 23t15 19q2 3 6 14q1 6 2.5 13t2 8.5t0.5 6.5t-1 10t-4 14q-2 7 -4.5 12.5t-8 14 t-8.5 13t-13.5 18t-15.5 19.5q-6 7 -50 54q-8 8 -19 21.5t-17 20.5q-3 -2 -14 -15q-32 -36 -49 -53q-13 -13 -14 -16q-1 -2 -27 -19q-16 -11 -12 -19q6 -9 7.5 -22t1 -21.5t-3 -25.5t-2.5 -22q0 -10 -7.5 -26.5t-8.5 -19.5t-5 -11l-6 -12q-5 -12 -15 -12q-11 -1 -16 -11 q-4 -4 -7.5 -12.5t-4.5 -10.5q-3 -3 -6 -7.5t-5 -6.5t-6 -4t-10 -3q-11 -1 -18 -6q-38 -22 -40 -23q-10 -6 -29 -9t-25 -5q-36 -11 -56 -9q-23 4 -44 22.5t-22 41.5q0 6 4 38q0 2 2 5q3 5 -2 7q-2 1 -2 2.5t1 3.5t1 3q13 25 52 56q93 69 121 86q-8 15 -24.5 34.5t-21.5 31.5 q-4 8 -16 22t-14 16q-5 9 -25 26q-32 28 -81 105q-9 13 -17 40q-3 9 -3.5 32t1.5 35q4 35 15 47q6 7 14 23t16.5 27t20.5 16q29 12 30 8q0 -2 -4 -7q-4 -6 0 -5l36 15q5 5 21 9.5t24 3.5zM477 679q-6 -5 -16 -15.5t-19 -15.5q-6 -5 -14 -15t-8 -16q0 -8 -2.5 -20t-2.5 -17.5 t4 -15t14 -20.5q6 -6 17.5 -22.5t16.5 -19.5q2 1 6 9.5t10 19t12 16.5q16 15 31 45q14 24 9 53q-3 13 -7.5 19t-11 9.5t-7.5 4.5q-13 10 -32 1zM-8 504q0 -22 12 -36t33 -13q-11 7 -24 24.5t-21 24.5zM494 434q26 -32 64 -78l2 -1q3 -1 5 -2q-11 27 -15 33q-3 3 -12.5 12 t-15.5 14l-6 7q-6 7 -10.5 10t-11.5 5zM583 316q1 -1 5 -9t10 -10q-2 10 -4 12.5t-11 6.5zM168 197q-1 -1 -2.5 -1h-2.5q-4 -3 -13.5 -8t-26 -12.5t-27.5 -13.5t-52 -35q-19 -14 -26 -32q-4 -13 -2 -30q1 -6 3 -11.5t4 -8.5t6.5 -8.5t6.5 -8.5q11 -15 36 -8q11 4 21 9 t21.5 12.5t18.5 11.5q18 9 34 34q32 55 4 104q-1 1 -1.5 3t-1.5 3z" glyph-name="S_S.liga" horiz-adv-x="774" unicode="SS"/><glyph d="M394 726q2 2 6 1t11 -7t13 -15q7 -4 18 -3.5t31.5 2.5t28.5 2q53 -2 79 2q40 5 90 -3q3 -3 3.5 -7.5t-4.5 -9.5t-13 -7q-29 -6 -31 -7q-3 -2 -28 1q-12 2 -32 -4q-4 -1 -35 -1q-15 0 -17 -5q-1 -2 8 -3q5 -1 15.5 -1.5t18 -1t7.5 -1.5q-1 -6 -7 -10t-9 -2q-4 5 -25.5 2.5 t-26.5 -2.5q-8 0 -14.5 -2.5t-12.5 -2.5q-14 2 -15 -1q0 -2 1.5 -4.5t4 -5.5t3.5 -4q9 -15 12.5 -6t8.5 4q4 -5 12 -19q4 -4 8.5 -16t10 -30t5.5 -19q7 -20 10 -58.5t7 -54.5q8 -34 49 -235q7 -35 -2 -86q-1 -2 3 -21.5t4 -20.5q2 -14 2.5 -23.5t-0.5 -14.5t-2.5 -7.5 t-3 -2.5h-3.5h-3.5t-2.5 -3t-1 -8q2 -4 -1 -7q-5 -3 -7.5 -8t-3.5 -13t-2 -12q-1 -1 -7.5 6t-11.5 1l-10 7q-7 3 -15.5 11.5t-15.5 13t-15 1.5q-4 -2 -8 0.5t-8 10t-6 12t-5.5 15.5t-3.5 12q-4 13 -6 39q-3 57 -17 171q-6 52 -7 79q-1 21 -8.5 60t-8.5 50q-10 101 -13 118 q-2 9 -3 27.5t-3 28.5q-1 3 0 7t0 8q-58 0 -71 1q-43 5 -77 1q-23 -3 -47 3q-5 4 -35.5 1t-35.5 -3l-52 -4q-24 -7 -60 -7q-2 0 -7.5 -1.5t-6.5 -1.5q-9 -4 -19 -4t-23 1.5t-20 1.5q-27 12 -43 17q-9 2 -17 14q2 3 7.5 6.5t7.5 6.5q4 8 20 12q20 6 45 6q14 0 31 -0.5 t24 -0.5q10 0 24.5 1.5t22.5 1.5q11 0 26 -1t24.5 -0.5t15.5 4.5q4 3 12 3.5t30 0.5t44 1q12 1 36 0.5t35 -0.5q66 3 69 3q7 1 25 -3q13 -5 14 1q0 3 1 8.5t2 9.5zM578 659q17 4 23 -2q-1 -4 -4 -5.5t-7.5 -2.5t-6.5 -2q-1 2 -4 4q-5 4 -1 8zM91 622q12 -4 31 -26 q3 2 1.5 8.5t-1.5 7.5q-2 6 2 7q8 2 8 -2q4 -11 22 -16q19 -3 29 -24q12 -29 18 -80q5 -43 12 -86q8 -62 11 -94q1 -21 7 -65q14 -100 15 -104q11 -54 19 -118q4 -24 11 -61q3 -15 -5 -24q-3 -2 -6 -11t-9 -12q-3 9 -8.5 14.5t-15.5 11.5t-14 9l-20 20q-3 3 -4.5 4t-3.5 -1 q-2 -6 -5.5 -4t-6.5 6q-4 7 -9 18.5t-8 17t-7 5.5q-1 0 -1.5 -9.5t0.5 -22.5t3 -22q-10 2 -14 16q-28 84 -29 119q-1 22 -7 62t-7 57q-12 122 -13 155q0 10 -2.5 34t-2.5 37l-1 4q-8 18 -10.5 38t-3 45t-1.5 36q3 -2 5 -9.5t4 -18t6 -17.5q2 4 2 12l1 8q1 22 -6 56q0 1 -1 4 t-1 5q1 14 16 10z" glyph-name="T_T.liga" horiz-adv-x="791" unicode="TT"/><glyph d="M287 711h11q7 0 14 -10q7 -8 -2 -14q-4 -3 -9 -11t-9 -11q-4 -1 -1 -4.5t3 -4.5q-11 -7 -25 -5q-34 2 -62 2q-24 2 -49 -2q-15 -1 -18 -15q-3 1 -6.5 2t-6.5 2t-7 1.5t-7 0.5q3 -4 5.5 -12.5t6.5 -14.5t12 -10q5 -3 5 -14q1 -13 6.5 -36.5t6.5 -28.5q7 -30 13 -90 q3 -20 8 -65t9 -69q3 -18 11 -52q4 -14 14 -87q0 -1 1 -14.5t2 -20.5q2 -14 3.5 -41t2.5 -38q1 -10 -4 -26.5t-5 -24.5v-4q-4 -2 -13.5 -3.5t-13.5 -4.5q-3 -2 -12 2q-3 2 -11.5 6.5t-10.5 5.5q-9 4 -17 -1q-10 -6 -22.5 2.5t-13.5 21.5q0 2 -12 76q-7 39 -3 67q0 40 -9 60 q-5 15 -7 33q0 10 -3.5 27t-4.5 22q-2 18 -7 54t-7 54q-12 78 -9 116q0 5 -5 47q-3 31 -1 37q2 3 -3 20q-3 7 -12 9q-44 2 -58 0q-12 -2 -33.5 -2h-26.5q-9 -1 -18 6q3 4 9 6q8 3 5 12q-3 8 9 11q8 2 55 5q5 0 102 15q11 1 39 5.5t48.5 6t40.5 0.5q44 -3 102 1zM35 642 q0 2 -3 -1q-1 -2 4 -19l6 -1q-1 3 -1.5 10.5t-5.5 10.5zM357 617q15 1 18 -13q0 -9 13 -19q39 -31 12 -55q-2 -2 -7.5 -8t-10.5 -8.5t-13 -1.5q-4 4 -13 3.5t-14 1.5q-54 26 -25 75q13 20 40 25zM388 420q29 0 39 -29q2 -7 5 -9q7 6 10.5 5t4.5 -11q2 -10 1 -15 q-3 -14 2 -30q7 -25 21 -126q4 -23 16 -77q1 -9 6 -27t6 -27q1 -4 2 -11t1.5 -9.5t2.5 -6.5t4.5 -2t8.5 2q36 18 49 28q30 23 35 24q10 6 14 10q16 14 31 4q-7 -12 -21 -24q-20 -17 -28 -33q-4 -10 -17 -11q-4 0 -16 -12q-3 -3 -9 -6t-8 -5q-7 -11 -9 -13q-5 -4 -17 -8 l-18 -6q-6 -3 -14 -3q-1 0 -4 0.5t-5 0.5q-2 -1 -4.5 -3.5t-4.5 -3.5q-5 -1 -13 5q-8 8 -17 9l-7 3.5t-7.5 3t-7.5 -2.5q-3 -2 -14 6q-16 15 -26 56q-7 32 -11 80q-6 64 -7 97q0 45 -7 84q-2 8 -3 28.5t-5 32.5q-1 6 10 19q11 11 31 13z" glyph-name="T_i.liga" horiz-adv-x="611" unicode="Ti"/><glyph d="M655 742q11 -8 27 -40q1 -2 2 -6.5t2 -7t3.5 -5.5t6.5 -5q1 -1 2 -4q1 -4 2 -5q22 -89 23 -145q0 -15 2.5 -32t6.5 -37t6 -32l9 -66q2 -23 9.5 -68.5t9.5 -67.5q7 -95 -12 -154q-4 -15 -16 -14q-2 0 -3.5 -0.5t-3 -3t-2.5 -3.5q-4 -4 -9 -8t-9 -6.5t-11 -6t-11 -5 l-12 -4.5t-11 -4q-11 -3 -33 2q-1 0 -3.5 1t-3.5 1.5t-2.5 2.5t-1.5 5q-2 5 -7 6t-8 -3q-13 -20 -48 -9q-47 15 -80 53q-9 9 -12 10q-18 5 -30 32q-6 18 -7 28q-2 18 -9 52.5t-9 50.5q-9 52 -9 88q0 8 -14 102q-8 52 -10 109q-1 23 -3.5 66t-3.5 57q0 4 -5 14q-7 12 -4 22 q4 10 14 9q40 -4 57 -20q7 -5 12 -6q22 -4 30 -29t14 -75q2 -15 4 -42t4.5 -49.5t6.5 -42.5q3 -11 5 -12q14 0 9 15q-6 17 -9.5 37t-5 32t-3 38t-2.5 34q1 2 0.5 4t0 3.5t3.5 1.5q4 1 6 -1.5t2 -6.5q2 -8 4 -24l7 -83q1 -11 6.5 -31t6.5 -30q6 -44 9 -85q1 -6 2.5 -23.5 t3 -26t4.5 -22.5t8 -25q13 -32 15 -74q2 -24 15 -35q1 -1 4 -6q11 -33 35 -51q-5 -2 -12 1t-10 2q11 -13 29.5 -19t32.5 -1q17 5 27.5 20t9.5 31q0 7 2 19.5t2 16.5q12 75 -10 173q-11 59 -12 77q-1 31 -10.5 89.5t-11.5 81.5q-1 16 -4.5 50.5t-6 64t-3.5 51.5q0 5 1 9z M30 717q10 2 13 -8q14 -37 17 -69q1 -24 15 -74q4 -18 7 -51t4 -39l6 -87q5 -54 3 -89q-1 -16 8 -60l10 -57q4 -22 10 -35q4 -9 15 -33t17 -36q4 -7 14 -18t13 -16q10 -15 31 -15q25 0 34 7q37 28 31 79q-6 49 -5 91q0 12 -2 17q-3 14 -8 124q0 25 -11 65q-13 51 -16 109 q-1 16 -6.5 44.5t-6.5 35.5q0 2 -1 7.5t-1.5 8t-0.5 6.5t1 8t4 7q1 2 -2 20q-2 13 7 14q17 1 23 -11q5 -15 5 -20l4 -30q7 9 1 35t-4 36q7 1 9 -5q2 -12 2 -13q0 -15 5 -44.5t6 -44.5q2 -10 2 -29q0 -7 5 -45q18 -74 21 -100q5 -95 9 -118q3 -17 5 -36t4 -42t3 -36 q1 -6 -2 -47q-3 -17 4 -32q13 -36 -12 -73q-7 -10 -22 -12q-10 -2 -35 -10q-10 -5 -21 -5q-8 3 -10 -2q-3 -9 -22 -7q-15 3 -29 -1q-29 -5 -64 14q-11 5 -31 17.5t-30 17.5q-34 18 -50 70l-12 40q-2 5 -1 13t0 13q-8 39 -17 137q-8 85 -22 159q-9 51 -11 152q-1 10 0 29 t0 28q-1 16 3.5 22.5t19.5 10.5q4 2 9 0q6 -6 24 -4q11 0 13 3q1 2 1 5q2 7 17 9zM491 662q7 -3 8 -19l-6 2q-10 8 -7 17h5zM513 424q-7 -18 6 -27q4 16 -6 27z" glyph-name="U_U.liga" horiz-adv-x="858" unicode="UU"/><glyph d="M307 748q0 -4 -0.5 -8t-2 -8t-1.5 -6q-1 -6 -5 -24t-4.5 -24t0.5 -24q1 -16 0.5 -24t-3 -23t-3.5 -23q-1 -14 -1.5 -44.5t-2.5 -46.5q-6 -74 -10 -107q-3 -20 -3 -79q0 -39 -3 -52q-1 -7 0 -23.5t0 -24.5q-1 -5 -1 -33q0 -36 -4 -53q-6 -24 -6 -50q0 -7 -2 -14t-5.5 -15 t-4.5 -13v-6v-9.5v-6.5q3 -1 5.5 2t4.5 3q3 -11 -2 -27q-9 4 -19 0q-3 4 -2 14t-3 14q-6 -3 -7 -8q-3 -30 -31 -35q-4 -1 -15 5q-7 4 -14 0q-10 11 -17 25t-13.5 33t-10.5 28q-27 50 -40 87q-6 15 -17 46t-20.5 55.5t-20.5 45.5q-7 15 -11 36q-5 22 -22 62t-22 56l-29 94 q-1 9 -6 18l-3 13q2 3 0 9t-3.5 9t-4.5 8.5t-5 8.5q-6 15 -12 44q-2 8 4 10q6 -7 12.5 -25.5t12.5 -26.5q-2 38 -12 64q-6 17 10 18q22 3 34 -12l4 -6q4 0 8 7.5t6.5 13.5t9.5 0t19 -29q9 -14 15 -32q4 -11 16 -38t17 -43q12 -34 34 -104q7 -21 28 -54q3 -4 3 -9 q6 -22 23 -65t24 -65q7 -24 24 -68.5t21 -56.5q5 39 7 88q0 31 2 46q2 10 2.5 22t-0.5 27.5t-1 22.5q0 26 1 31q3 15 3 45t2 44q2 15 1 46t0 46q9 70 16 113q7 40 9 43q2 14 8 15q1 1 2 -1t1 -9q0 -9 2 -9q1 0 4 4q1 1 3.5 8t4.5 11l5 10t7.5 9t9.5 4zM275 743q7 -16 -2 -16 q-2 -1 -4 1q-2 7 -0.5 10t4 4.5t2.5 0.5zM743 699q6 -3 7 -9t2 -7q5 -1 9 1q2 2 4 -2v-42q1 -21 -11 -66q-4 -14 -3.5 -17t-2.5 -17q-4 -15 -5.5 -29t-2 -29.5t-1.5 -21.5q-3 -27 -9 -47q-4 -22 -9 -88q0 -18 -5.5 -53.5t-5.5 -54.5t-6.5 -58t-4.5 -62q0 -36 -2 -43 q-2 -9 -2.5 -17t0.5 -12.5t4.5 -14t4.5 -14.5q6 -15 2 -28q-2 -7 -4 -8t-10 4q-10 8 -14 2q-5 -3 -9 0q-9 8 -28 10.5t-26 6.5q-34 21 -43 62q-3 13 -8 27t-12 31.5l-11 27.5q-31 73 -70 140q-5 8 -12 26t-8 21q-35 76 -75 186q-7 27 -22 57q-5 13 -7 20q-3 13 -1.5 15.5 t13.5 5.5q-20 43 -25 62q-1 9 6 11q27 10 44 -5q13 -8 30 -4q8 2 15 -8q5 -8 40 -59q13 -16 37 -61q33 -57 48 -114q5 -18 13 -36.5t21.5 -44.5t17.5 -34q17 -30 33 -112q5 4 5 16q1 15 9 57t5 69q-2 19 6 53.5t8 36.5q1 6 4 36t8 48q2 8 4 15t2.5 10t2 7.5t4 10.5t7.5 16 q2 5 5 17.5t6 19.5q6 12 10 35.5t7 31.5q3 12 11 23zM230 103q0 -2 -3 -27t-4 -26q-1 -2 1.5 -9.5t4.5 -9.5q6 12 6 13q0 2 0.5 11t0.5 16.5t-0.5 16t-2 13t-3.5 2.5z" glyph-name="V_V.liga" horiz-adv-x="889" unicode="VV"/><glyph d="M474 744q7 4 13 -1q11 -10 41 -16q26 -4 40 -30q27 -50 40 -102q28 -112 61 -192q10 -25 13 -57q0 -14 7 -33q9 -33 10 -42q-1 -2 2 -9l37 -129q2 -11 8 -17q0 7 -0.5 29t-1.5 34q-2 67 3 133q0 8 -1 26t-1 26q-3 88 5 184q0 12 -3 22q0 2 -1 6.5t-1.5 8t-0.5 6.5 q4 9 10 9q34 -3 50 -27q2 -3 15 -32l4 -10q2 -6 5 -4q5 2 3 6l-2.5 5t-2.5 5.5t-1 4.5q-1 4 5 6q3 2 6 -3l3 -5q52 -115 69 -197q12 -51 24 -94q4 -18 11 -29q3 -4 7.5 -14t6.5 -13q9 37 -1 61q-7 19 -5 42q0 5 2.5 29t1.5 37q-1 19 1.5 53.5t2.5 43.5q4 119 15 177 q2 8 2 38q16 0 22 -14l2 -8q2 -7 4.5 -10t7.5 -5q3 -1 0 -11q-5 -13 -7 -56q-1 -12 -1 -59t-3 -72q-1 -4 0 -14t0 -15q2 -47 -1 -63q-2 -15 -1.5 -23t2.5 -23t2 -23q5 -113 0 -197q0 -9 -1.5 -28t-1.5 -29q0 -20 -8 -41q-2 -7 -8 -6q-9 2 -7 10q1 0 1 9l-1 9q-4 16 -15 8 q-5 -5 -10 1q-6 5 -12 16t-8 13q-1 2 -3 6.5t-3.5 7t-3.5 2.5q0 -2 2 -7.5t2 -7.5q-1 -4 3.5 -12.5t1.5 -12.5q-35 31 -41 54q-16 61 -34 112q-2 5 -31 122q-25 85 -30 100q0 6 -6 8q-3 -78 -2 -85q5 -47 -3 -102q-2 -28 -1 -35q5 -52 -20 -120q-2 -7 1 -15q10 -19 17 -47 q2 -10 -1.5 -13.5t-12.5 -0.5q-38 14 -55 42q-5 10 -7.5 12t-13.5 4q-1 -2 2.5 -9t-0.5 -10q-9 4 -19 20q-6 13 -12 16q-23 15 -43 61q-15 35 -28 92q-39 149 -41 162q-6 24 -35 127q-7 24 -25 81t-24 79q-1 2 -2 5t-2 4q-6 16 -5.5 21t12.5 15q4 3 4.5 10.5t0.5 8.5z M402 710q8 0 14 -13q9 -15 7 -43q-5 -100 -5 -121q-2 -120 -5 -180q-1 -6 0 -41t1 -42q0 -27 -1 -40q-1 -14 7 -105l6 -60q2 -16 -1 -21q-2 -4 0 -15q4 -13 1 -20q-17 -3 -47 3q-26 5 -38 29q-51 110 -68 163q-7 23 -22.5 66t-20.5 57q-4 11 -11 31.5t-11 31.5 q-2 -82 2 -108q1 -10 0.5 -31t1.5 -31q4 -27 4 -100q0 -10 0.5 -29.5t0.5 -35t-1 -28.5q-2 -8 -8 -22.5t-7 -17.5q-9 5 -35 14q-13 3 -15 -4q-1 -4 -8 0l-10 10q-3 -1 -3.5 -6.5t-5.5 -5.5q-2 3 -8.5 9t-9.5 9.5t-6.5 10t-4.5 12.5q-3 9 -13 11q-19 4 -26 28l-36 149 q-26 110 -36 165q-1 5 -17 59q-12 32 -33 118l-12 29q-8 17 -19 69q2 3 7 3t7 1q3 2 0 7q-5 15 0 20.5t20 2.5q13 -2 23 -9q1 -1 4.5 -4t5 -3.5t5.5 0.5q1 1 12.5 3t13.5 10l2 -1q1 0 1 -1q34 -49 45 -97q6 -30 18.5 -83.5t15.5 -67.5q3 -12 7 -34t6 -31l28 -104 q9 -34 23 -79q4 -12 7 -19q10 28 11 36t-2 28q-2 18 1 33q7 22 2 30q-2 2 0 7q2 28 3 80.5t2 75.5q3 91 4 101q1 6 -2 36q-2 8 6.5 13t14.5 -1q5 -5 9.5 -6t11.5 0t8 1q13 -1 15 -5q1 -2 2 -8q4 -12 12 -35t9 -27q4 -12 14 -47t17 -54q2 -6 52 -152q12 -38 23 -62q3 1 3 7 q0 9 1.5 34t-0.5 35q-2 22 0 87q0 7 -0.5 15.5t-1.5 18.5t-1 16q-3 26 5 53q4 15 8 67q4 85 10 115q2 14 0 26q-3 12 11 14z" glyph-name="W_W.liga" horiz-adv-x="1132" unicode="WW"/><glyph d="M206 710q15 -35 1 -88q-7 -21 -18 -64.5t-15 -57.5q-26 -85 -22 -92q6 -11 13 -34t11 -29q5 -9 9 -23t8 -22q38 -74 51 -113q3 -9 15 -37.5t15 -45.5q2 -8 7.5 -21.5t7.5 -18.5q3 -8 4 -9q6 -8 4.5 -12.5t-6.5 -14t-5 -14.5v-4q1 -10 -7 -9q-1 0 0 -6q1 -10 -2 -9 q-2 0 -6 3q-10 0 -15 5q-4 3 -9 3.5t-8 0t-10 -3t-9 -2.5q-18 -5 -29 15q-4 10 -26.5 52.5t-30.5 67.5q-3 13 -28 70l-6 15l-6 15q-4 -4 -5.5 -8t-3 -10t-2.5 -8q-4 -12 -7 -25.5t-6 -30t-5 -25.5q-2 -10 -10 -30q-11 -32 -22 -59q-8 -20 -30 -20q-14 0 -10 11 q10 27 20.5 80.5t13.5 63.5l25 107l9 22q4 9 1 15q-9 19 -23 55.5t-21 52.5q-15 31 -35 68q-26 49 -45 106q-16 52 -29 65v6q2 2 7 0.5t7 -0.5q1 1 1 2q1 2 1 3q-1 10 12 17q13 6 33 -3.5t37 -33.5q2 -2 1 2q-1 3 -4 11q-9 23 -7 24q3 2 22 -16.5t39 -43.5t24 -38 q5 -19 36 -88q0 -7 4 -9q3 1 4.5 4t2 7.5t1.5 6.5q4 15 10.5 49.5t17.5 57.5q3 5 8.5 14.5t9 17t5.5 14.5q2 9 7.5 21.5t6.5 18.5t11 9zM283 670q12 1 34 -7q17 -6 34 -9q2 2 0 7t1 7q13 12 26 -2q20 -21 33 -45q9 -17 20 -50t20 -49q5 -9 11.5 -27.5t11.5 -27.5 q0 -2 2 -5.5t3 -5.5q3 0 4.5 1t2.5 4t1 4q15 31 18 69q1 6 17 41.5t20 53.5q6 27 22 36q13 6 23 0q1 -4 -2.5 -9.5t-3.5 -8.5q-3 -6 0 -8q12 -10 1 -27q-18 -32 -31.5 -86t-18.5 -67q-3 -9 -8.5 -27.5t-8.5 -27.5q0 -11 1 -12q20 -36 27 -64q6 -35 27 -69q7 -10 11 -28.5 t9 -28.5q1 -1 13.5 -25.5t17.5 -32.5q23 -42 37 -82l13 -28q7 -14 1 -26t-20 -17q-19 -5 -20 -6q-18 -11 -33 6q-12 10 -21 11q-5 -2 -3 -10t1 -10q-8 0 -13 1t-9.5 5.5t-6 6.5t-5.5 10t-5 11l-9 18l-8 18q-9 20 -22.5 56.5t-26.5 64.5q-12 22 -20 35q-10 -14 -14 -43 q-2 -10 -10 -33.5t-10 -37.5q-1 -13 -13 -55q-6 -23 -15.5 -43t-13 -29.5t-1.5 -16.5q-6 -3 -23 -17.5t-27 -13.5q-8 0 -5 8q3 25 17 70.5t32 97t23 69.5q7 22 32 98q2 6 -18 61t-35 87q-54 114 -71 158q-5 13 -12.5 39t-12.5 39q-1 2 -1.5 5.5t-1.5 5.5q-4 11 12 13z" glyph-name="X_X.liga" horiz-adv-x="732" unicode="XX"/><glyph d="M379 718q15 -3 20 -16q9 -32 34 -87q21 -46 35 -89q2 -6 20 -64.5t27 -75.5q6 -22 7 -23q3 6 4.5 16t2.5 13q3 9 6 50.5t4 47.5q3 21 11 55t11 55q6 49 12 69q3 17 11 16q21 -3 24 -19q4 -36 0 -52q-4 -13 -5 -22.5t-1.5 -23t-1.5 -23.5q-1 -12 -7.5 -32t-7.5 -22 q-8 -32 -10 -97t-6 -82q-3 -11 -2 -30.5t5 -29.5q10 -26 9.5 -40t2.5 -40q2 -14 6.5 -34t7 -36.5t4.5 -34.5q4 -36 1 -43q-4 -7 -7 -6q-9 3 -11 -0.5t-2 -12.5q1 -3 -11 -9q-4 0 -8 1t-4 0.5v-2.5q0 -7 -2 -15q-2 -4 -14 -4t-20 4q-21 13 -26 15q-9 4 -7 13q3 17 -9 55 q-10 46 -19 115q-1 5 -3.5 19.5t-4.5 22.5q-14 55 -14 61t-2 12t-7.5 14t-6.5 10q-50 88 -71 134q-7 14 -4 22q8 -8 15 -17.5t14.5 -22.5t12.5 -20q-6 25 -28 65q-23 42 -59 128q-18 42 -36 105q-1 3 0 6q8 3 26 -4q12 -3 25 4q35 20 55 -13q1 3 4 14zM221 705 q24 -11 19 -35q-3 -11 -8.5 -39t-9.5 -42q-2 -5 -1 -8q2 -18 -1.5 -37t-9.5 -41.5t-8 -35.5q-15 -77 -19 -87q-7 -22 -3 -53q1 -13 6.5 -38t6.5 -37q20 -169 21 -182l2 -13q9 -40 -1 -62q-11 6 -14 5.5t-11 -7.5q-7 -7 -10 -7.5t-12 4.5q-1 1 -6.5 4.5t-7.5 5.5q-11 9 -17 7 q-2 0 -3 1q-1 0 -5.5 5.5t-9.5 3.5q-3 -2 -4 -8t-2 -8q-2 -2 -4 -3q-3 2 -10 17q-13 43 -22 167q-1 49 -15 97q-12 48 -29 67q-8 8 -23 48q-28 69 -64 177q-28 74 -41 95q-5 8 2 30q0 4 5 2q56 -2 92 -48q2 -3 12.5 -16.5t18.5 -21.5q0 16 -9 30q-4 6 2 17q17 -11 19 -24 q3 -13 13 -23q8 -10 16 -32q7 -22 23.5 -63t19.5 -51q7 -18 28 -56q40 200 74 295zM6 678q7 0 7 -6q6 -8 1 -9q-1 -1 -4 1q-6 2 -8 9q-2 5 4 5z" glyph-name="Y_Y.liga" horiz-adv-x="735" unicode="YY"/><glyph d="M676 739q8 5 15 1t8 -14q0 -14 9 -23q1 -1 1 -4v-5q1 -9 -1 -21t-5.5 -28.5t-4.5 -23.5q0 -4 -1 -5q-14 -80 -39 -145q-25 -63 -31 -81l1 -6q4 -2 32 2q24 4 38 0q4 -1 6 -0.5t6.5 2t6.5 1.5q20 6 36 1q10 -3 11 -9q2 -4 -4 -11.5t-11 -7.5q-27 0 -60 -11q-16 -4 -34 -7 l-30 -5q-9 -1 -10 -10q-1 -2 -1 -3q-7 -37 -19 -77q-15 -56 -45 -141q-3 -9 -12 -27q13 1 69 -2q83 -7 101 -10q29 -5 30 -6q0 -2 -5 -4q-3 -2 7 -2h8q9 -1 11 -1q20 -5 22 -5q22 0 29 -6t16 -31q-68 0 -87 2t-37 0q-14 -2 -42 0q-52 6 -105 -5q-6 -1 -34 -3.5t-41 -8.5h-7 q-14 -1 -18 2t-9 17l-4 7l-2 2q-2 -1 -10 -7.5t-17 -4.5q0 2 3 43q2 36 15 79q13 44 13 51q0 15 9.5 42.5t11.5 41.5q3 29 12 54q3 10 4 14l-20 -1q-4 0 -32 -4q-51 -8 -88 -8q-17 0 -34 -1l-17 -1q-13 0 -38.5 -3.5t-38.5 -3.5q-6 0 -10 -11q-6 -35 -29 -77 q-5 -9 -10.5 -26.5t-6.5 -21.5q-5 -15 -17 -45t-18 -49q-3 -17 -13 -30q15 -2 51 5q18 3 38.5 4t47.5 0.5t40 -0.5q10 1 30 5l10 2q3 1 7 -1t9 -4l22 -2q8 0 8 -5q1 -5 -6 -7q-13 -2 -19 -8t-19 -9q-4 -1 -9 -1t-12 0.5t-10 0.5q-11 -1 -67.5 -1t-91.5 -6l-8 -1 q-9 -1 -13 -5q9 -2 31 0q26 3 166 7h29q-6 -4 -12.5 -6t-15 -3t-13.5 -2q-4 -1 -15 -2t-17 -3q-12 -6 -37 -6q-9 0 -21.5 -2t-15.5 -2q-35 -4 -67.5 -10.5t-46.5 -8.5q-3 0 -15 -3q-28 -7 -29 -4q0 2 4 6q3 3 -3 4h-11q-12 1 -17 2q-9 2 -13 8.5t-6 24.5q-3 24 6 61 q37 124 47 182q3 14 11 42q-13 0 -33 -4q-2 0 -6 -1.5t-7 -2.5t-10 3.5t-8 4.5q-4 2 -5.5 7.5t-2.5 7.5q-16 21 14 27q11 2 34 2.5t37 4.5q3 1 9 15q17 49 46 122q23 57 31 78q1 6 8.5 12.5t9.5 4.5q2 -6 -2.5 -18.5t-4.5 -18.5q9 17 17.5 46t13.5 41q-3 1 -25 -0.5t-40 1.5 h-8h-13.5h-8.5q-55 -4 -65 -4q-8 0 -28 3.5t-33 3.5q-6 0 -19 -1.5t-19 -2t-12 1.5q-5 3 5 7q4 2 0 3q-3 1 -12 5q-6 3 -3.5 7.5t9.5 5.5q64 8 74 8q46 -1 171 8q6 0 18.5 -0.5t19.5 0.5q23 2 28 9q6 10 20 -2q2 -2 7 -7.5t7.5 -8t5 -8t1.5 -11.5q-1 -2 4 -12q7 -14 0 -29 q-2 -6 -2 -9q5 -17 5 -24t-3.5 -22.5t-4.5 -22.5q-2 -14 -11 -36.5t-11 -31.5q-23 -78 -31 -107q13 3 32.5 3t34.5 4q4 1 55 1q19 0 52 3q11 1 37 3.5t42 3.5q16 2 19 14q5 16 11.5 49t13.5 54q8 29 10 41q6 32 27 87q4 15 -1 25q-12 0 -32.5 2t-33.5 3q-10 0 -26.5 4 t-31.5 1q-5 0 -15 2q-4 0 -13.5 -1t-14.5 0q-28 6 -38 14q-7 5 -6 9q0 4 7 6q15 2 22 9q1 3 11 2t12 -1q10 1 29.5 2t29.5 2q15 1 44 -0.5t38 -1.5q11 0 36.5 2.5t39.5 2.5t19 11q1 3 3 5.5t5 5t4 4.5q9 11 19 3q8 -3 12 0zM741 352q-2 -5 -7.5 -7.5t-10.5 -3t-11.5 -0.5 h-8.5q0 4 1.5 5.5t5 3t5.5 2.5h26zM517 126q-6 -4 -11 -20q-1 -4 -4.5 -17t-5.5 -19q-5 -10 -5 -17q3 0 5.5 1t6 3.5t5.5 3.5q-3 15 11 49q6 8 -2 16zM598 66q-6 0 -18 0.5t-18.5 0.5t-16 -1.5t-16.5 -6.5q12 2 35 3.5t34 3.5z" glyph-name="Z_Z.liga" horiz-adv-x="883" unicode="ZZ"/><glyph d="M785 119q10 -1 8 -10v-2q-4 -4 -13 -15.5t-16.5 -19t-17.5 -15.5q-12 -6 -25 -20q-1 -1 -11 -6q-10 -3 -16.5 -11t-15.5 -12q-15 -7 -26 -8t-15.5 2t-9 8t-5.5 6q-6 3 -6 0q0 -4 8 -13q1 -1 -2.5 -2t-6.5 -1q-11 1 -26 12q-2 1 -7 0l-4 -1q-4 0 -6.5 1.5t-4 3l-5 5 l-6.5 6.5q-8 5 -17 23q-13 -15 -18 -17q-11 -13 -39 -26q-6 -10 -17 -10q-7 0 -20 -1.5t-16 -1.5q-11 0 -25 10t-18 15t-19 22q-15 18 -20 35q-24 -33 -27 -36q-23 -23 -39 -33q-23 -17 -64 -16q-8 0 -22 16q-8 12 -18 22q-5 0 -9 -6q-3 -8 -7 -8q-7 -1 -14.5 -7.5 t-13.5 -9.5q-3 -4 -17.5 -2.5t-18.5 1.5q-5 0 -6 -2l4 -2h2l9 -2q-7 -6 -42 -4q-40 3 -55 19q-20 23 -26 32.5t-9 26.5l-7 39q-8 45 19 88q24 38 72 50q44 14 46 15q5 3 16 0.5t16 -0.5q1 23 -14 103q-3 22 -22 14q-36 -15 -93 -17q-1 0 -4.5 -0.5t-4.5 -1.5 q-11 -6 -17 -4.5t-16 6.5t-16 5q-2 7 3 7q65 18 76 19q10 1 20 4t22 8.5t18 7.5q4 1 8 2.5t7.5 2.5t7.5 2q17 1 33 -7q25 -12 32 -11q1 4 -4 7.5t-5 4.5t-5 4q-5 2 -1 2q24 0 48 -20q28 -27 24 -58v-6q11 -28 9 -72q-1 -5 2 -13t3 -11q13 -90 14 -103q1 -7 0 -24t0 -24 q0 -12 9 -34q17 -2 34 13q12 5 38 37q-4 26 0 85q0 22 22 44q26 26 60 33q2 1 18 3.5t24 5.5l12 -1q11 0 21.5 0.5t10.5 4.5q0 47 -3 63q0 15 2 17q7 7 -3 18q-8 9 -2 20q-9 -1 -23.5 -2.5t-25.5 -3.5t-20 -5q-40 -14 -67 -17q-1 0 -14 -2.5t-14 -2.5q-15 0 -17 8 q-2 5 0 6.5t6.5 2t6.5 1.5t8 2t10 3.5t8 6.5q2 3 13.5 6t15.5 5q15 7 45 16q27 8 71 10q12 1 35 -3t26 -4q15 -2 18 -17q1 -4 3.5 -12.5t3 -13t-0.5 -13.5q5 -1 7 1.5t1 6.5q0 8 -3 16q-2 10 2 11q7 1 13 -4q8 -16 8 -20q0 -14 3 -33.5t2 -34.5q1 -5 1 -15t1 -15 q4 -28 7 -82t4 -63q1 -6 4 -17t4 -19q1 -18 7 -28q13 -25 20 -20q11 0 19 6q40 27 54 41q13 13 28 21q8 4 11 3zM532 382q-3 10 -5.5 11t-12.5 -3q10 -2 18 -8zM529 72q6 5 4 11q-14 62 -21 156q-1 4 -2 5.5t-3 0t-4.5 -3t-5.5 -2t-7 1.5q-1 1 -25 -6l-7 -2q-5 -1 -8.5 -4.5 t-7.5 -9.5t-5 -8q-2 -3 -7.5 -6.5t-8.5 -8t-3 -11.5q5 4 19 17t23 17q5 -7 2 -12q-14 -17 -19 -42q-1 -3 -4 -14t-3 -14.5v-15.5q0 -2 16 -47q10 -31 31 -23q7 3 16.5 5t15.5 5t14 11zM155 61q5 2 5 16q-3 15 -3 18q0 7 -5 27t-5 37q0 6 -2 19.5t-1 20.5t-1 17t-2 14 q-12 -3 -13 -7q-6 -8 -9 -8q-7 0 -11 -4q-4 -3 -9 -8.5t-10 -9.5q-15 -12 -18 -27q-9 -34 -4 -66.5t18 -43.5q2 -1 5 -4t4.5 -4t4 -3t4.5 -3t4 -1.5t4.5 0t5.5 1.5q4 1 18.5 9t19.5 10zM422 165q1 6 -4 8q-4 -2 0 -14q2 4 4 6zM20 21l8 -7q9 -7 17 -6q-27 27 -34 38 q-5 11 -9 10q-2 0 -1 -6q0 -1 -0.5 -3.5t-1 -4t0.5 -3t3 -2.5q4 -2 9.5 -8t7.5 -8z" glyph-name="a_a.liga" horiz-adv-x="777" unicode="aa"/><glyph d="M-33 620q10 4 15 -4q16 -19 24 -24q2 -1 7 -11q2 -9 6.5 -23.5t7.5 -27t4 -23.5q2 -26 9 -76.5t9 -73.5q0 -3 5 -6q33 34 99 54q35 10 52 -18q4 0 5 4t5 3q7 -3 8 -8q0 -11 6 -20q7 -10 9 -10q13 -2 15 -18q19 -68 20 -133v-5q8 -18 6 -65q-2 -48 -8 -67q-9 -26 -29 -54 q-13 -18 -39 -26q-8 -3 -12 -1q-9 5 -25 8t-24 7q-3 1 -15 11q-2 2 -10 12.5t-14 14.5q-3 -8 0 -26.5t-3 -24.5q-5 -1 -9 5t-6 7q0 -13 -4 -17q-4 3 -24 17.5t-32 19.5q-2 -2 -1.5 -8t-3.5 -8q-17 9 -18 28q0 10 -5 29t-6 27q-14 86 -18 144q-1 11 -3.5 32t-3.5 28 q-1 15 -24 206q-10 77 -11 88q-1 13 0.5 16t13.5 7q8 2 22 10zM286 613q23 16 38 -5q3 -3 5.5 -7t3 -3.5t4 -1t6.5 0.5q11 2 15.5 -1t9.5 -13q29 -49 38 -101q3 -17 7 -47.5t6 -42.5q0 -3 10 -42q36 34 50 49q2 2 7 5.5t8 7.5t2 10q0 2 2 2.5t4 -0.5q8 0 13 5q4 6 12 2 q4 -2 12.5 -4.5t12.5 -4.5q15 -7 20 -1q4 4 14 -2q21 -11 31 -32l24 -40q14 -20 17 -43q7 -42 5 -95v-26v-31v-26q1 -49 -23 -89q-19 -33 -56 -37q-2 0 -20 5q-6 2 -32 4q-17 1 -37 14q-7 4 -13.5 10t-14.5 14l-12 12q-5 5 -9 6q-7 -12 -4 -25q2 -12 -5 -19q-2 -3 -12 -6.5 t-14 -2.5q-9 3 -24 25q-13 20 -20 26q-14 13 -18 37q-9 35 -12 67q-7 78 -12 98q-6 25 -4 55q0 68 -10 131q-3 20 -7 57t-6 51zM499 366q-4 -2 -15.5 -8t-17.5 -10q-41 -22 -32 -56q2 -8 2 -24q0 -58 8 -117l6 -46q2 -11 8 -15q3 -3 16 -13.5t21 -15.5q15 -12 31 0 q20 13 28 43q0 1 3.5 8t2.5 12q-3 15 0.5 60.5t-5.5 57.5q-2 6 -2 8q1 2 4 5t4 5t-2 10q-4 10 -11 30t-11 30q-5 18 -11 29q-11 19 -27 7zM150 368q-36 -4 -45 -12q-22 -19 -36 -38q-12 -14 -10 -37q2 -12 9.5 -47t8.5 -54q1 -11 6.5 -32.5t6.5 -32.5q1 -9 3.5 -27.5 t2.5 -21.5q10 -3 28 -12t24 -11q15 28 18 44q10 36 10 100q0 73 -10 140q-1 6 -4 17t-4 16q-4 8 -8 8zM575 204q-2 -8 -8 -42l3 -11q2 -5 2 -18t1 -16q0 -9 7 -13q0 10 1 32t0 38.5t-6 29.5z" glyph-name="b_b.liga" horiz-adv-x="760" unicode="bb"/><glyph d="M686 157q3 -7 -2 -10q-6 -5 -13 -10q-18 -11 -41 -36l-7 -7l-6 -6l-5 -5t-5 -4.5t-5.5 -4t-6.5 -4l-7 -3.5t-9 -4q-4 -1 -11 -6q-19 -15 -48 -31q-28 -14 -43 -15q-5 0 -9 -4q-11 -14 -27 -1q-7 5 -12 1q-8 -7 -26 1t-38 20q-3 2 -9 4t-10 5q-31 27 -43 59l-4 9 q-4 -5 -8.5 -14t-9.5 -12q-3 -2 -6 -5.5t-7 -8.5t-5 -7q-12 -13 -14 -18q-1 -1 -6 -4q-2 -2 -4 -3q-19 -13 -25 -15q-8 -3 -24 -5.5t-25 -9.5q-36 -26 -67 -5q-10 7 -20 3t-18 0q-56 29 -72 91q-9 29 -12 56q-14 104 -12 155q2 45 8 66q7 30 32 31q1 0 20 11q37 23 79 3 q3 -1 10 -3.5t10 -4.5q4 -3 8 1q9 9 21 -2q1 0 2.5 -1t3 -1.5t2.5 -1.5q39 -22 46 -67q6 -33 -1 -47q-3 -6 -11.5 -15t-11.5 -13q-3 -3 -7 -2q-6 1 -8 0.5t-6 -5t-6 -5.5q-13 13 -15 32q-1 10 -2.5 29t-2.5 28q-2 16 -15.5 28t-28.5 12q-15 2 -19 -10q-2 -4 -6.5 -11.5 t-6.5 -11.5q-7 -12 -3 -24q0 -2 1 -7t0 -8q-4 -14 1 -67q2 -20 10 -37q2 -2 2 -3q-1 -11 5.5 -31t7.5 -28q4 -43 19 -69q11 -18 16 -22q15 -14 33 -8q37 10 72 27q24 12 55 55l9 11q-5 9 -7 23q-6 70 -6 106q0 14 1.5 29.5t4 34.5t3.5 29q-1 5 0 14t1 12q1 11 9.5 16t18.5 1 q22 -9 26 -16q5 6 -2 13q-8 5 -8.5 8t5.5 8q35 35 79 17q8 -4 12 -2q8 3 35 -4q28 -5 41 -38q5 -10 11 -44q4 -13 -6 -14q-9 0 -6 -14q2 -14 -7 -15h-1l-1 -1q-1 -2 -2 -5t-1 -5t-2 -3.5t-6 0.5l-7 3.5l-8 4t-6.5 5t-5.5 8.5q-7 14 -14 37.5t-9 28.5q-8 17 -24.5 25.5 t-31.5 1.5q-5 -3 -6 -8q0 -22 1 -24q12 -29 6 -72q-5 -45 14 -102q7 -25 38 -91q6 -18 22 -16q10 0 10 -12q2 -7 6 -8q5 -2 17 -1t14 -4q2 -2 12 3q7 3 20.5 8t30.5 13q14 6 29.5 19.5t23.5 18.5q11 6 26.5 16.5t25.5 17.5q1 1 6 2.5t6 2.5q6 2 11 -2zM22 300q3 3 3 14.5 t-4 15.5q-2 -4 -1.5 -15t2.5 -15zM400 84q1 -2 3.5 -10.5t4.5 -11.5t5.5 -8.5t9 -9t13.5 -5.5q-28 31 -36 45z" glyph-name="c_c.liga" horiz-adv-x="651" unicode="cc"/><glyph d="M875 129q3 10 13 9.5t19 -9.5q-15 -17 -38.5 -39.5t-25.5 -24.5q-6 -5 -2 -6q2 -1 -4 -5q-33 -25 -36 -29q-5 -7 -11 -8q-5 -1 -7.5 -0.5t-3.5 -1t-1 -7.5l-4 -2q-4 -3 -7 -5.5t-2 -4.5q-31 6 -36 5q-12 -1 -52 11q-24 6 -36 30l-9 15q-13 -19 -21 -42q-2 -7 -22.5 -19.5 t-26.5 -10.5q-26 6 -40 0q-6 -2 -16 2q-29 9 -62 30q-20 13 -30 30q-5 8 -13 26q-12 -18 -26 -30q-9 -7 -27 -31q-10 -10 -39 -16q-27 -5 -45 1t-37 27l-13 13q-8 21 -8 22q-7 18 -24 96q-17 81 -18 114q-2 33 -16 59q-12 22 -43 43q-2 -7 -3.5 -10.5t-5.5 -6t-10 -2.5 q-7 0 -7 -9q0 -3 -1 -5.5t-2.5 -6t-2.5 -5.5q-12 -42 -4 -66q10 -25 10 -47q-1 -9 2 -55q4 -59 17 -87q4 -8 8 -24q10 -33 39 -23q18 6 34 27q1 3 8 5l2 4q3 -4 2.5 -22.5t-3.5 -29.5q0 -1 -3.5 -6.5t-10 -11.5t-11.5 -7q-45 -3 -95 24q-29 17 -53 69q-1 3 -14 23 q-7 10 -11.5 22t-8 29.5t-5.5 23.5q-10 33 -10 98q0 52 16 89q18 45 61 52q2 0 5.5 2t4.5 2q17 6 28 -4q9 -7 10 -7q38 -12 63 -38q0 78 -6 133q-3 16 -1.5 63.5t1.5 59.5q8 2 10.5 2t9 -5.5t9.5 -6.5q0 1 1 2v2q-4 12 -1.5 15t13.5 2q10 -2 15 0q10 4 17 -10q12 -29 22 -68 q1 -4 8 -36.5t9 -44.5q4 -24 7 -66.5t5 -58.5q5 -36 3 -61q0 -31 4 -56q5 -23 5 -41q2 -25 7 -38q8 -30 8 -46q0 -8 7 -38q7 -25 27 -13q9 6 19 10t15 8.5t13 16.5q6 8 9 11q-2 10 -4 26l-11 123q-3 30 7 61q15 46 24 60q5 8 8 10.5t7.5 1.5t14.5 -6q9 15 30 8q9 -4 37 1 q35 3 54 -17q5 -5 12.5 -17t13.5 -17q-3 27 -7.5 77.5t-9 91.5t-10.5 76q18 7 20 10q5 9 8.5 9t13.5 -7q4 -2 5 -3q4 1 7.5 6.5t6.5 7.5q1 1 2.5 4t4 4t6.5 0l7 -3.5l8 -4t5 -5t2 -7.5q0 -11 7.5 -33.5t6.5 -34.5q0 -5 1 -8q6 -19 10.5 -41t6.5 -38t4.5 -41.5t4.5 -38.5 q9 -67 14 -88q10 -50 11 -75q0 -14 4 -42t5 -42l3 -24q0 -12 3 -17q13 -21 17 -24q4 -7 11 -4q3 1 4 2q17 4 41 26q19 17 54 42q13 9 15 16zM614 91q7 9 4 15q-2 7 -7 59q-1 22 -9 62.5t-10 57.5q0 11 -15 26q-9 7 -24.5 23t-24.5 23q-5 5 -6 4q-2 -1 -24 -3q-3 -1 -5 -8 q-6 -28 -12 -43q-3 -7 1 -18t8 -49q-2 -6 -1 -11q15 -70 20 -118q3 -26 32 -63q14 -18 24 -14q3 1 10.5 4t12.5 6t8 7q3 5 7.5 19t10.5 21zM297 18q4 2 0 9q-7 7 -10 8q-2 -4 0 -13q4 -7 10 -4zM102 7q-4 5 -17.5 15t-19.5 11q5 -7 18 -17t19 -9zM526 24q11 -11 34 -16 q0 8 -4 13t-9 2q-3 -2 -10.5 -0.5t-10.5 1.5z" glyph-name="d_d.liga" horiz-adv-x="882" unicode="dd"/><glyph d="M435 424q11 9 23 -3q5 -6 16 -8q27 -6 46 -38q1 -2 3 -4q10 -17 10 -27q0 -1 -1 -2v-16q0 -2 -6 -34q-1 -8 -15 -18t-16 -12l-12 -12q-12 -12 -17 -14q-13 -6 -25 -19t-18 -18q-22 -13 -32 -23q9 -9 21 -38q16 -35 43 -59q24 -21 82 -23q9 0 19 7q2 1 15.5 13t24.5 19 q7 3 26 20q17 14 38 17q6 0 7 -4q3 -6 -2 -8l-29 -25q-4 -4 -11 -11.5t-13.5 -14t-11.5 -10.5q-10 -7 -31 -32q-5 -5 -21.5 -12t-21.5 -12q-9 -8 -28 -4q-6 1 -17 1.5t-15 0.5q-57 2 -87 33q-6 6 -9 7q-36 19 -52 72l-2 5l-1 3q-1 3 -1 4q-4 1 -7 -4l-3 -5q-31 -25 -38 -45 q-1 -4 -5.5 -8t-11 -8t-8.5 -6t-5 -5.5t-5.5 -6t-6 -4.5t-6.5 -1q-8 0 -10 -7q-4 -9 -13 -15t-26 -11.5t-20 -6.5q-8 -3 -15.5 -4.5t-16.5 0.5t-12.5 3t-16.5 6t-16 6q-7 2 -12 7q-45 37 -68 96q-4 8 -4 11l-3 13q-3 13 -4 18q0 19 -4 45q-7 63 -8 89q-2 54 28 100 q7 11 13 12t23 -6l5 11q4 12 14 5q7 -5 25 1q47 19 84 -3q7 -4 27 -8q11 -3 19 -11q11 -8 9 -18q-1 -4 4 -20q12 -29 0 -77q-4 -25 -23 -41q-9 -7 -13 -14q-3 -4 -13 -9.5t-14 -8.5l-24 -17q-24 -16 -35 -24q-8 -6 -4 -13q19 -37 24 -42l6 -9q7 -4 19.5 -12.5t21.5 -12.5 q13 -5 30 3q13 5 61 41q12 10 24.5 26t19.5 22q6 5 6 15q0 14 -5 49t-4 54q1 10 5 28.5t5 24.5q2 23 7 34q15 42 49 61q16 8 53 9q21 1 -6 -9q-4 -1 0 -5q2 -1 3 -1q4 2 11.5 1t10.5 6zM427 399q-19 2 -22 -12q0 -3 -5 -13q-2 -5 -6 -13.5t-6.5 -16.5t-3.5 -15l-7 -72 q0 -32 3 -41q40 40 47 53t14 38q1 3 4 24q3 18 -10 52q-5 16 -8 16zM117 382q-4 -1 -11 -2l-10.5 -1.5t-8.5 -3t-9 -7.5q-16 -16 -12 -41q0 -2 -0.5 -7.5t-0.5 -8.5q-9 -59 13 -126q7 8 26 21.5t27 24.5q1 2 5 4q2 2 3 5.5t2 5.5q5 9 4.5 30.5t1.5 28.5q3 7 1 21q-1 9 -5 18 t-10.5 19t-9.5 16q-2 5 -6 3zM169 345l3 -25q9 12 -3 25z" glyph-name="e_e.liga" horiz-adv-x="643" unicode="ee"/><glyph d="M382 671q9 -6 36 -4q17 0 31 -9q5 -4 -3 -4q-4 0 -9 1q-24 0 -47 -11q60 4 66 -3q2 -5 -8 -8q-8 -1 -3 -3q1 -1 4 -2q4 -2 -6 -6l-15 -5q-31 -11 -41 -18q-17 -14 -26 -38q-13 -35 -13 -38q0 -9 -1.5 -28.5t-0.5 -36.5q0 -2 3 -38q4 -1 13 1q40 6 50 6q38 0 46 2h2 q2 -1 7 -1t7.5 -1t2.5 -5q1 -3 0 -4.5t-2.5 -2t-3.5 -0.5t-4.5 0.5t-4.5 0.5t-5 -1t-4 -1q0 -1 2 -2t4.5 -1.5t4 -1.5t0.5 -3q-1 -4 -8.5 -9t-10.5 -4q-7 3 -9.5 2.5t-7.5 -3l-7 -3.5q-1 0 -12 -1t-16 -2q-16 -4 -37 -4q-1 -15 11 -59q2 -6 10 -72q3 -22 6 -47t6.5 -54.5 t5.5 -46.5q1 -10 2 -33.5t1 -26.5q0 -6 3 -40t1 -52q-2 -27 -13 -32q-4 -2 -9.5 -8.5t-8.5 -8.5q-3 -1 -7 5.5t-8 15.5t-7 11q-1 1 -3 -4q-5 -20 -7 -20q-5 0 -8 5q-3 8 -7.5 15.5t-10.5 16t-9 13.5q-5 9 -7 21q-5 40 -4 69q3 39 -12 78q-8 22 -17 92q-12 85 -14 131 q0 11 -4 22q-4 1 -13 -1.5t-12 -2.5q-10 0 -15 -1.5t-7 -1.5l-18 -2q-13 -2 -25.5 -4t-22.5 -3.5t-26 -1.5q-8 0 -10 -5q1 -7 5 -29.5t7 -46.5q1 -8 2 -18t2 -22t2 -18q5 -30 4 -50q-1 -9 1 -24t5.5 -33.5t4.5 -24.5q4 -41 12 -73q4 -22 -3 -31q-2 -3 0 -8.5t1 -8.5 q-8 5 -8 21q0 5 -2.5 12t-2.5 10q0 4 -1 8t-2 9.5t-2 9.5q-1 -12 3 -35.5t1 -35.5q-7 4 -11 14.5t-8 14.5v-31q-1 -7 -10.5 -14.5t-16.5 -5.5q-4 1 -6 5q-43 54 -47 79q-2 11 -4.5 27.5t-4 26.5t-1.5 14q0 1 -9 56q-18 84 -20 124q-2 16 -2.5 25.5t-1.5 21.5t-2 25 q-9 1 -31 -2q-19 -3 -19 0q0 2 3 5t-5 8t-16 12t-4 13q42 19 66 22q3 7 -2 26q-12 52 18 129q10 25 36 62q6 11 17 11q10 1 32 9q6 2 21 2q1 0 13.5 2t13.5 0q28 -10 35 -9q8 1 24 -19q8 -11 3 -11q-14 0 -3 -16q3 -4 5 -7t3.5 -7t1 -7.5t-2.5 -6.5q-6 -3 -33 7t-42 3 q-31 -15 -36 -31q-2 -4 -3 -15t1 -15q4 -3 2 -21.5t-2 -22.5q0 -5 1.5 -15.5t2.5 -16.5q0 -5 1 -10t2.5 -11l2.5 -10q34 -2 87 3q52 5 66 7q0 19 -2 53q-1 47 11 95q6 24 26 41q8 6 11 18q6 20 34 31q7 3 20 9.5t22 9.5q12 4 19 2zM61 456h-3q-3 -11 -1.5 -28.5t7.5 -18.5h2 q1 8 -2 26.5t-3 20.5z" glyph-name="f_f.liga" horiz-adv-x="556" unicode="ff"/><glyph d="M467 109q16 14 31 4q-7 -12 -21 -24q-20 -17 -28 -33q-4 -10 -17 -11q-4 0 -16 -12q-2 -3 -8 -6t-9 -5q-7 -11 -9 -13q-5 -4 -17 -8l-18 -6q-6 -3 -14 -3q-1 0 -4 0.5t-5 0.5q-2 -1 -4.5 -3.5t-4.5 -3.5q-5 -1 -13 5q-8 8 -17 9l-7 3.5t-7.5 3t-7.5 -2.5q-3 -2 -14 6 q-16 15 -26 56q-7 32 -11 80q-6 64 -7 97q0 45 -7 84q-2 9 -2.5 26t-2.5 26q-113 -9 -118 -11q-12 -5 -12 -7q1 -13 4.5 -61t8.5 -74q20 -109 21 -116q18 -120 26 -180l-1 -2l-2 -4v-2q-3 -1 -7.5 7.5t-6.5 8.5q7 -23 -11 -71q-13 13 -27 14q-13 1 -21 18q-3 8 -18 27 q-18 27 -23 61q-12 62 -17 93q-8 52 -11 94q-1 11 -1.5 35t-2.5 43t-7 36q-4 10 -6 41q-3 15 -5 20q-19 0 -27 -6q-11 -8 -21 3q-9 10 0 18q2 2 -1 13q-4 9 -2 12t12 5l23 3q10 1 12 3t1 13q-1 9 -2.5 26.5t-2.5 26.5q-4 30 5 68q6 21 31 50q23 24 83 42q33 9 47 7.5 t38 -11.5q1 -1 6 -3t9.5 -4.5t6.5 -4.5q-7 -2 -26 5t-31 1q-7 -4 -2 -6q2 0 8 1q11 4 21 -1q11 -4 19 -7t13.5 -5t9.5 -3q6 -3 11 -16v-2.5t-2 0.5q-12 4 -34 3t-33 -3q-18 -4 -35 -18t-22 -29q-10 -41 -12 -66q-2 -17 2 -54q58 -1 107 5t64 5q28 0 38 -29q2 -7 5 -9 q7 6 10.5 5t4.5 -11q2 -10 1 -15q-3 -14 2 -30q7 -25 21 -126q4 -23 16 -77l6 -27l6 -27q1 -4 2 -11t1.5 -9.5t2.5 -6.5t4.5 -2t8.5 2q36 18 49 28q30 23 35 24q10 6 14 10z" glyph-name="f_i.liga" horiz-adv-x="462" unicode="fi"/><glyph d="M465 76q3 1 3 -3q2 -19 -17 -42q-9 -12 -20 -16q-7 -3 -13 -10t-14 -10q-7 -2 -14 -7q-19 -18 -64 -15q-2 0 -5.5 1t-6.5 1t-6 -3q-2 -3 -8 5l-14 24q-5 8 -8 8q-1 0 -3 -1q-4 -2 -7 3q-24 27 -34 60q-9 36 -14 87q-2 18 -9 69t-9 79q-2 40 -6 83q-34 -2 -68 -9 q-1 0 -8.5 -1.5t-14 -3t-13.5 -4t-11.5 -5t-3.5 -5.5q4 -56 14 -112q4 -22 9.5 -75.5t6.5 -63.5q18 -120 26 -180l-1 -2l-2 -4v-2q-3 -1 -7.5 7.5t-6.5 8.5q7 -23 -11 -71q-13 13 -27 14q-13 1 -21 18q-3 8 -18 27q-18 27 -23 61q-12 62 -17 93q-8 52 -11 94q-1 11 -1.5 35 t-2.5 43t-7 36q-4 10 -6 41q-3 15 -5 20q-20 0 -27 -3q-12 -5 -21 -5q-6 0 -5.5 9.5t5.5 13.5q9 8 5 10q-13 0 -8 8q3 6 12 8q4 1 11.5 3.5t11.5 3.5q10 1 12 3t1 13q-1 9 -2.5 26.5t-2.5 26.5q-6 49 3 88q5 20 31 50q31 33 83 42q29 5 35 4q7 -2 10 -6q-39 -9 -53 -8 q-4 1 -14 -4q-3 -1 -16 -20q3 -2 9 4q24 17 47 16q4 0 5 1q9 4 12.5 4t11.5 -5.5t10 -6.5q8 -3 11 -13q2 -4 -2 -5t-13 -6.5t-13 -6.5q-27 -9 -34 -37q-5 -18 -12 -93q-1 -8 4 -50q67 3 118 12l-4 25q-2 22 -4 33q-3 12 -1 46q4 -5 7 -16t7 -16q6 18 -2 46q-3 20 11 29 q27 -14 47 -60q4 -10 22 -76q8 1 39 7q36 5 34 2q-1 -1 -9 -3q0 -1 8 0.5t18.5 4t13.5 2.5q32 0 34 -8q0 -2 -5 -4q-3 -2 4 -4q14 -5 16 -7q-6 -7 -16.5 -10t-27 -4.5t-21.5 -2.5q-3 0 -14 -1t-18 -2q-3 -1 -32 -4q-9 -1 -10.5 -1.5t-4 -4t0.5 -10.5q3 -19 9.5 -40.5 t9.5 -39.5q11 -58 12 -70q2 -22 11.5 -62t10.5 -46q4 -21 14 -63q5 -17 27 -32q4 -4 10 -1l12 3q12 3 16 7q9 9 18.5 15.5t18.5 11t12 6.5zM330 24q2 -1 3 0.5t1 3.5q0 1 -4.5 9.5t-9 15.5t-6.5 7q-1 0 1.5 -7t5 -14.5t2.5 -8.5q1 -6 7 -6z" glyph-name="f_t.liga" horiz-adv-x="493" unicode="ft"/><glyph d="M766 155q14 13 37 -1q-8 -11 -29 -26.5t-29 -24.5q0 -1 -6 -5t-6 -5q-6 -9 -9.5 -12t-8.5 -7t-10 -9q-7 -4 -16 -14t-14 -13q-2 -2 0 -11q5 -39 1 -98q-2 -19 2 -32q3 -19 -10 -59q-3 -1 -7.5 1.5t-6.5 2.5q-6 -10 -3 -18q1 -8 -2 -16l-23 -33q-9 -9 -16 -10 q-7 -2 -16.5 -9t-12.5 -9q-44 -17 -84 4q-5 2 -32 17q-9 5 -19 17q-20 23 -26 56.5t6 58.5l10 21q2 6 6 11.5t7 8.5t9 8.5t8 7.5q16 12 49 31t41 24q5 5 9 6q15 4 9 38l-2 17q-4 -2 -8 -5t-8 -8t-5 -6q-4 -4 -7.5 -12.5t-9.5 -12.5q-15 -11 -33 -4q-24 0 -29 5 q-1 -4 -6.5 -2t-6.5 2t-6.5 4t-6.5 4q-26 16 -58 59l-13 -13l-26 -23q-7 -6 -12 -10t-8.5 -6.5t-5.5 -3.5q-5 -2 -15 -12q-9 -11 -3 -22q13 -27 4 -51v-5v-6.5v-5.5q6 -30 -6 -87q-11 -65 -43 -99q-11 -15 -24 -15q-6 0 -25 -12q-6 -3 -18.5 -11.5t-22.5 -11.5 q-14 -5 -21 -3t-17 17q-6 6 -12 6q-23 2 -40 31q-6 12 -12 38q-14 38 7 78q16 37 50 75q4 5 9.5 9t11.5 8.5l10 7.5t34 30q2 2 12.5 8.5t11.5 12.5t-6 33q-1 6 -7 25q-12 -8 -14 -15q-2 -6 -9 -17.5t-9 -18.5q-3 -8 -19 -17l-26 -12q-16 -6 -42 8q-6 3 -18.5 9.5t-18.5 9.5 q-11 5 -20 19q-30 47 -45 99q-27 99 4 205q13 36 24 49q1 1 3.5 4.5t3.5 4l4 2t6 1t7 -3.5q1 -1 12 2q24 7 41 -8q1 -1 13 -6q42 -12 52 -53q0 -2 2 -6q1 -2 1 -3l6 -2q-2 45 -7 61q-6 21 13 15q20 -6 38 -22l7 -6q3 0 4 2t1 5t2 4q27 -17 33 -32l2 -6l9 -53q5 -25 12.5 -70 t10.5 -59q6 -27 12 -77q2 -16 7 -24q3 0 4.5 1t3.5 3l3 3q27 15 61 43q-15 30 -15 63q-1 15 -3.5 43.5t-3.5 47.5q-4 55 11 89q3 10 15 28l3 4q3 4 4 6q5 23 26 12q4 -3 9 2l10 5q27 12 39 8.5t37 -22.5q21 -17 33 -21q2 8 -3 37q0 10 9 12q15 4 19 13q6 16 22 2 q21 -21 25 -24q10 -8 11 -21q1 -18 11 -54q13 -45 11 -89q0 -39 8 -82q4 -17 7.5 -47.5t5.5 -40.5l1 -5q1 -5 5 -7q8 7 19.5 18t21.5 18q22 16 53 42zM560 99l8 14q-3 13 -12 127q-7 55 -11 109q0 5 -16 13q-2 1 -11.5 6.5t-13.5 10.5q-3 6 -11 9q-10 6 -12 1 q-2 -9 -7.5 -27t-8.5 -29t-6 -27t-4 -30q0 -7 -2 -19t-2 -18t2 -15.5t7 -20.5q2 -6 2 -11q3 -21 34 -100q3 -8 10 -16.5t18 -8.5t19 17q2 4 9 9t8 6zM447 384q-3 -6 4 -7l3 10q-4 1 -6 0t-1 -3zM188 113q8 9 5 20l-15 92q0 11 -5 14q-8 4 -17 23q-5 9 -21.5 34t-22.5 40 q-7 16 -23 22q-14 6 -16 -6q-5 -37 -1 -49q10 -38 11 -73q3 -41 4 -47q3 -24 -6 -39q-8 -10 -6 -25q2 -29 17 -44q0 4 -1.5 12t-2.5 12q-2 12 0 18q2 7 7 7q4 -1 6 -9q2 -21 11 -34q10 -14 16 -15.5t17 7.5q25 16 43 40zM584 -137q2 26 1.5 37.5t-4 38.5t-4.5 40 q-3 -2 -10 -7.5t-11 -7.5q-5 -4 -6.5 -13t-7.5 -12q-77 -40 -91 -80q-8 -23 1 -42t32 -29q6 -2 16 -4h16.5t16.5 -1q22 0 29 11q10 13 13 26v5t1 5q4 6 5.5 18.5t2.5 14.5zM229 -109q2 14 -1 41t-3 32q-11 -2 -12 -3q-2 -1 -15.5 -12t-23.5 -13q-1 0 -2 -2l-1 -2 q-2 -4 -9 -8q-12 -6 -23.5 -23t-15.5 -21q-24 -24 -28 -49q-8 -41 8 -63q7 -10 26 -17.5t24 -2.5q4 2 5 4t7.5 10.5t8.5 13.5q3 6 16.5 25.5t19.5 35.5q18 46 19 54z" glyph-name="g_g.liga" horiz-adv-x="795" unicode="gg"/><glyph d="M860 132q1 0 2 -1.5t1 -4t-2 -5.5q-3 -4 -11 -10t-11 -9q-22 -29 -32 -38q-5 -3 -18 -21q-18 -19 -43 -37q-23 -17 -45 -25q-23 -8 -40 7q-5 5 -15 10q-45 30 -56 95q-5 22 -8 46.5t-6 56.5t-5 47q-1 6 -1 18q1 25 0 35t-5 35t-5 35q0 2 -1.5 5t-1.5 4q-12 30 -33 16 q-27 -18 -46 -42q-16 -20 -10 -54q12 -95 13 -115q0 -21 7 -51q14 -58 10 -137q0 -1 -3 -4q-2 -1 -6 2.5t-7 2.5q-4 -4 -6 -19q-4 -16 -19 -12q-9 1 -13 -4q-30 25 -44 74q-1 6 -3 16t-4.5 23.5t-3.5 21.5v-1q-11 -15 -12 -15q-5 -1 -9 -3.5t-5.5 -4t-5.5 -7t-5 -6.5 q-2 -3 -9 -10t-10 -12q-9 -15 -22 -25q-22 -15 -29 -22q-10 -8 -18 -6l-7 1q-2 0 -6.5 -4t-7.5 -1q-25 17 -28 23q-1 2 -3 4t-2 4q-20 53 -20 74q-1 20 -1 61q0 25 -6 41q-6 17 -13 98q-1 15 1 96q2 15 -9 20q-13 6 -18 3q-6 -2 -11 -9l-16 -16q-1 0 -3 -2l-4 -4 q-4 -4 -12.5 -14.5t-13.5 -15.5q-3 -3 -5 -9q-10 -32 -6 -71q4 -31 16 -73q14 -48 10 -91q-1 -10 6 -41q4 -16 2 -39q0 -15 -11 -15q-4 0 -5.5 -6t-6.5 -6q-17 9 -26 2q-5 -4 -9 2q-28 24 -31 46q-6 17 -7 18q-11 11 -13 35q-12 88 -16 128q-5 44 -17 99q-8 33 -19 123 q-14 113 -18 153q-3 22 2 46q24 5 43 -14q1 1 2 3.5t1.5 4t2.5 2.5t4 0q7 -1 7 -10q6 -17 15 -20q4 -1 6 -8q22 -56 24 -62q1 -4 2 -19.5t3 -21.5q9 -23 13 -87q1 -5 5 -24t4 -30q10 8 26 33q19 26 34 37q30 21 66 7q17 -7 53 -38q5 -6 3 -14q3 -16 3 -32q0 -5 3 -15t4 -15 q1 -11 1.5 -32.5t2.5 -32.5q1 -15 16 -85q6 -30 7 -44q0 -6 2 -20.5t1 -22.5q0 -12 9 -20q2 -1 8 3q2 1 3 0.5l2 -1t4.5 2t9.5 8.5q9 11 28 23.5t28 21.5l9 8q-3 40 -28 168q-7 28 -11 85q-1 10 -4 28t-4 25q-1 10 -1 47t-5 57q-4 14 -6 16q-6 15 -4 19.5t17 5.5 q-3 15 -1 18q1 1 14 8q8 3 9 4q8 11 21 0h2q24 -3 39 -39q23 -58 26 -117q2 -60 9 -85q15 11 39 31q34 28 75 14q7 -3 8 1q-1 5 -7 6.5t-7 3.5q0 5 5 4q31 -6 44 -19q40 -44 51 -105q15 -83 14 -116q0 -49 6 -74q12 -55 32 -78q6 0 18 12t19 16q24 16 30 26q32 31 75 43z M665 95q-6 -28 22 -53q-7 9 -14 41l-5 43q-3 -6 -2.5 -15.5t-0.5 -15.5z" glyph-name="h_h.liga" horiz-adv-x="828" unicode="hh"/><glyph d="M3 620q-2 -2 -7.5 -8t-11 -8.5t-12.5 -1.5q-4 4 -13 3.5t-15 1.5q-53 26 -24 75q13 20 40 25q15 1 18 -13q0 -9 13 -19q38 -31 12 -55zM212 577q-12 -1 -18 9q-8 17 -5 37t15 31q8 6 12 10q20 17 43 -6q1 -1 13 -8q-10 -16 -4 -24q4 -4 0 -9q-3 -4 -4 -13.5t-8 -11.5 q-39 -14 -44 -15zM496 124q5 -5 2 -12.5t-7 -12t-11.5 -11t-10.5 -10.5q-1 -1 -4.5 -2.5t-4.5 -2.5l-7 -5q0 -10 -12 -18.5t-14 -13.5q-1 -4 -7 -6l-6 -3q-6 -3 -8 -5.5t-3 -6t-3 -5.5q-3 -4 -11.5 -7t-11.5 -6q-5 -3 -33 -11q-34 -14 -68 7q-5 3 -10 10q-10 11 -12 11 q-19 9 -27 44l-2 17q-7 -7 -13 -19q-4 -10 -17 -11q-4 0 -16 -12q-3 -3 -9 -6t-8 -5q-7 -11 -9 -13q-5 -4 -17 -8l-18 -6q-6 -3 -14 -3q-2 0 -5 0.5t-4 0.5q-2 -1 -4.5 -3.5t-4.5 -3.5q-5 -1 -13 5q-8 8 -17 9l-7 3.5t-7.5 3t-7.5 -2.5q-3 -2 -14 6q-16 15 -26 56 q-7 32 -11 80q-6 64 -7 97q0 45 -7 84q-2 8 -3 28.5t-5 32.5q-1 6 10 19q11 11 31 13q29 0 39 -29q2 -7 5 -9q7 6 10.5 5t4.5 -11q2 -10 1 -15q-3 -14 2 -30q7 -25 21 -126q4 -23 16 -77q1 -9 6 -27t6 -27q1 -4 2 -11t1.5 -9.5t2.5 -6.5t4.5 -2t8.5 2q36 18 49 28 q30 23 35 24l5 3q-2 10 -5 29.5t-4 29.5q-2 23 -4 69t-4 69q-5 87 -9 109q-4 20 14 25q14 4 26 -10q8 -7 16.5 -24t9.5 -18q3 10 -2.5 26t-4.5 20q23 -10 26 -25l5 -18q2 -9 8 -45t12 -51q4 -16 4 -37q1 -56 20 -150q8 -51 6 -70q-1 -5 6 -14q10 0 17 6q27 18 35 24 q7 5 11.5 9.5t7 8t7.5 9t11 11.5q2 2 10 6q10 6 28.5 17t27.5 16z" glyph-name="i_i.liga" horiz-adv-x="463" unicode="ii"/><glyph d="M175 642q-6 0 -9 5q-10 10 -12 26.5t5 26.5q4 4 8 4q6 -1 27 8h1l1 1q14 2 20 -4q5 -1 3 -8.5t-2 -9.5q13 -2 16 -6.5t0 -14.5q-2 -6 -10.5 -16t-10.5 -16q-6 -8 -10 -2q-4 4 -8 5t-10.5 1h-8.5zM-47 593q-14 1 -25 -5q-13 -3 -21 9q-11 12 -7 38q-1 8 6.5 16t8.5 11 q3 11 22 13q9 2 21 6q9 2 12 -2q3 -8 -2 -11l-8 -11q4 -4 7.5 -5.5t9 -2.5t9.5 -2q-1 -2 -5.5 -20t-11.5 -27q-10 -8 -16 -7zM454 192q4 -17 2.5 -21.5t-14.5 -10.5q-17 -8 -25.5 -16t-18 -20t-21.5 -22q-9 -9 -38 -29q-10 -10 -9 -26q1 -4 3 -21.5t5 -27.5q8 -38 -8 -66 q-10 -20 -10 -38q0 -8 -2 -11q-8 -8 -23 -31t-28 -32q-20 -17 -62 -15q-11 0 -19.5 4.5t-22 16t-14.5 12.5q-6 4 -8 13q0 4 -0.5 19t1.5 25t7 19q30 56 77 99q5 4 8 14q4 33 -1 47q-2 5 -3.5 11t-3 13.5t-2.5 11.5l-5 28q-22 -18 -26 -23q-5 -7 -24 -20.5t-22 -16.5 l-10.5 -10.5t-6 -6.5t-4.5 -4.5t-7 -5.5t-12 -8t-8 -15q1 -6 1 -19t1 -20q2 -18 2 -52q2 -17 6 -20q2 -2 2 -16q-8 -64 -58 -97q-38 -25 -42 -26q-14 -5 -17 -5q-26 2 -31 13l-5 5q-33 20 -26 70l5 30q5 21 7 24q27 51 42 67q2 3 11.5 9.5t11.5 7.5q-9 50 -11 57 q-12 49 -20 142t-10 109q-5 33 -19 107q0 16 9 18q28 8 57 -1q6 -3 7 -4q2 -5 10.5 -17.5t9.5 -21.5t3.5 -19t6 -22t5.5 -19q19 -89 20 -127q2 -48 10 -72q3 -6 2 -21.5t0 -21.5q3 -15 8 -19q6 2 9 4.5t7 7t7 7.5q8 7 13.5 10.5t12 6t8.5 3.5q11 4 21 19q3 6 21 17.5 t19 12.5q-4 39 -5 56q-1 7 -2.5 18t-1.5 17q-8 45 -12 90l-16 102q-2 11 7 12q1 0 4 1t5 0q10 -1 27 -5.5t22 -5.5q4 -1 12 -9q45 -60 52 -124q1 -7 0.5 -27.5t1.5 -28.5q1 -8 5 -23t5 -22q4 -45 5 -65q-2 -15 4 -36q39 36 63.5 53.5t62.5 33.5zM222 -89q6 32 5 61 q-46 -25 -63 -76q-5 -6 1 -16q3 -5 7 -15.5t6 -13.5q10 -5 14 -4t11 8.5t11 9.5q8 7 6 15q-2 11 2 31zM34 -141l2 12t0.5 13t-0.5 11.5t-1.5 13t-2.5 12t-3.5 13t-3.5 11.5t-4.5 13t-3.5 12q-14 -5 -24 -15q-9 -7 -21 -36q-16 -32 -17 -57q-2 -25 5 -38.5t28 -27.5 q4 -4 7 -2q21 6 24 17q2 5 5.5 14.5t6 17.5t3.5 16z" glyph-name="j_j.liga" horiz-adv-x="429" unicode="jj"/><glyph d="M276 662q10 6 20 -1q10 -9 18 -18q4 -6 16 -13q0 1 1 8t4 9q10 -8 31 -8q7 0 10 -1.5t4 -4.5t2 -10q0 -11 3 -32.5t3 -32.5q12 -79 12 -99q1 -39 15 -117q1 -6 1.5 -16t1.5 -18.5t3 -16.5q7 0 12 10q10 14 26.5 41.5t24.5 38.5q3 5 27.5 37.5t32.5 46.5q0 1 2 2.5t2 2.5 q13 10 20 3q9 -11 1 -19q-10 -11 -29 -46t-23 -41q-5 -7 -32 -49q5 -2 9.5 -4t9 -6t7 -6t7 -7.5t6 -7.5t6.5 -9t6 -8q4 -6 20 -31t23 -35.5t21 -28.5t27 -31q6 -6 14 -20q15 -32 36 -53q7 -7 8 -14q-1 -1 -4.5 -2.5t-2.5 -4.5q0 -1 5.5 -7.5t1.5 -11.5q-2 -2 -5 -9t-7 -9.5 t-12 -1.5q-37 2 -50 15q-5 3 -11 5q-31 7 -47 37q-10 17 -41 69t-46 81q-4 10 -19 29q-15 -19 -13 -36q1 -9 6.5 -48t10.5 -60q3 -11 4 -32t3 -32q0 -6 -1 -6q-5 0 -9 -7t-9 -7q-17 -2 -30 5q-9 5 -23 7q-19 4 -30 30q-10 21 -17 53q-12 67 -13 82q-1 33 -15 95 q-10 61 -12 88q-1 11 -5 58.5t-5 73.5q0 39 -12 125l-3 11q-2 13 2 15zM-31 614q5 -2 13.5 -8t12.5 -7q3 1 4 5.5t3 5.5q16 -3 22 -19q24 -50 21 -105q0 -12 5 -24q12 -41 16 -99q1 -19 13 -84q5 -1 10 6t38 49t48 66q7 7 18.5 20t19.5 19q21 16 22 12q0 -2 1.5 -10t1 -15 t-4.5 -9q-8 -4 -14 -12t-11.5 -19t-9.5 -16q-8 -12 -28 -37.5t-29 -40.5q14 -7 23.5 -16.5t25 -31.5t16.5 -23q12 -15 37.5 -54t42.5 -59q7 -9 19.5 -28.5t19.5 -27.5q2 -4 23.5 -30t25.5 -29q9 -8 29 -34.5t23 -35.5q-9 -5 -18 -7q-21 -5 -32 8q-6 9 -15 0q-1 -1 -1 -6.5 t-1 -6.5t-7 2q-2 2 -4 0t-4 -5.5t-4 -4.5q-9 6 -36 33.5t-43 47.5l-41 55q-44 57 -85 139q-6 12 -20.5 31.5t-19.5 28.5q-7 -5 -5 -13q2 -12 5.5 -35t5.5 -34q1 -9 4 -79q0 -26 3 -39q7 -26 -7 -51q-7 -9 -12 -2q-15 13 -17 12q-6 -18 -18 16q-1 1 -1 2q-2 3 -3.5 1t-4 -5.5 t-4.5 -3.5q-3 0 -5.5 -2.5t-5.5 -1.5q-2 1 -9.5 11t-8.5 10q-12 8 -17 33q-1 6 -30 250q-1 14 -3 51t-4 57q-1 6 -5.5 38.5t-8.5 49.5q-2 9 -3.5 19t-3 22t-2.5 19q0 8 1 9q5 1 6.5 4t1.5 5t-1 7t-1 6q-1 13 6 18.5t21 1.5zM111 268q-1 -6 3 -8l4 -5q3 -5 6 -8t5 -2 q-1 1 -4 7.5t-6.5 11t-7.5 4.5z" glyph-name="k_k.liga" horiz-adv-x="702" unicode="kk"/><glyph d="M265 697q10 2 20.5 -3t14.5 -13q3 -7 12.5 -22t12.5 -23q21 -50 21 -102q0 -34 -1 -51v-13t-2 -12q-3 -8 -6 -43q-1 -5 -6 -27t-4 -35q0 -8 -7.5 -24t-8.5 -23q0 -20 3 -26q1 -7 4 -16t3 -12q-1 -16 3 -44t4 -38q3 -52 35 -130q2 -5 3 -7t3.5 -6t5 -3t8.5 0q3 0 13 -6 q18 -12 33 -1q23 12 34 25q6 7 43 41q19 15 38 21q6 -6 2 -13l-7 -7q-10 -6 -18.5 -18t-17.5 -18q-3 -3 -11.5 -13.5t-17 -19t-14.5 -11.5q-6 -2 -12 -7q-4 -14 -31 -14q-8 -9 -24 -6q-26 6 -51 22q-46 29 -61 47q-19 22 -32 62q-10 30 -15 38l-9 -17q-3 -8 -10.5 -31 t-11.5 -30q-6 -10 -14.5 -28t-16.5 -28l-3 -3q-4 -3 -3 -6q0 -3 -8 -6l-7 -3q-20 -8 -31.5 -8t-28.5 12l-16 12q-11 9 -23 10q5 -4 15.5 -15.5t17.5 -15.5q-9 -9 -19 -1q-20 16 -28 25q-32 37 -42 94q-10 49 -24 154q-2 17 -13 90.5t-15 113.5q-12 90 -13 109v24q-2 13 1 18 q3 2 8 1.5t8 0.5t23 13q12 10 25 6t20 -20q1 -2 4 -7t3.5 -7.5t-0.5 -8.5q-2 -3 3 -8q15 -18 25 -64q22 -126 27 -169q0 -5 0.5 -13.5t1 -15.5t1.5 -14q7 -55 16 -98q1 -4 4 -39q0 -7 3 -35.5t2 -43.5q0 -10 19 -39q3 -5 15 -3q9 1 15.5 6.5t9.5 10t8 15.5q11 21 24.5 56.5 t18.5 43.5q8 9 4 26q-3 12 -5.5 29t-3.5 24q-14 58 -14 87q-1 29 -7.5 80.5t-8.5 73.5q-3 52 -15 105q0 4 1 12t0 12q-1 11 7 18q5 4 9 13.5t8 13.5q26 21 57 18q3 0 8.5 0.5t8.5 0.5zM238 683q-19 0 -24 -6q8 -5 24 6zM273 661q-6 -2 -11 -1.5t-11 -2.5q-7 -4 -5 -10t6 -40 l4 -19q5 -16 22 -101q9 -42 8 -68q-2 -38 8 -53q6 12 9 27.5t4 36.5t2 29q6 51 5 90q-1 10 -11 71q-3 15 -25 39q-4 3 -5 2zM295 233q-1 -18 5.5 -50.5t10.5 -39.5q1 19 -4.5 50.5t-11.5 39.5z" glyph-name="l_l.liga" horiz-adv-x="510" unicode="ll"/><glyph d="M429 448q2 1 7 -4l8 -8q8 13 30 7q8 -2 13 -2q33 -1 56 -38q10 -18 22 -33q37 -46 79 -132q2 1 8 16q7 23 21.5 54.5t21.5 53.5l13 35q3 8 24 27q6 5 13 2q12 -6 25 -1q9 5 17 -13q3 -5 6 -5.5t7 -6.5q1 8 -2.5 11t-3.5 10q8 4 16 -1q33 -20 36 -55v-2q-1 -25 10 -66 q2 -9 2 -19.5t1 -15.5q1 -13 4 -39t4 -39q3 -19 11 -53.5t11 -50.5q7 -39 5 -48q-1 -2 1 -8q4 -13 -5 -16l-4 -5q-5 -5 -11 -2q-4 1 -5 -0.5t-1.5 -6t-1.5 -5.5q-8 2 -9 3q-14 13 -44 17q-4 0 -8 3t-6 5.5l-6 7.5t-5 7q-1 1 -1 4q-3 13 -12.5 39.5t-14.5 47.5t-4 41 q0 6 -5 49q-3 22 -9.5 54t-9.5 52q-2 4 -3 9q-8 -12 -11 -21q-5 -15 -20 -49t-19 -61q-2 -10 -10 -41t-10 -49q-1 -10 -10 -13.5t-16 2.5q-6 8 -6 10q-4 12 -16 16q-16 8 -26 29q-6 16 -31 67q-1 4 -5 8q-8 7 -14 16t-13.5 21t-11.5 18q-14 23 -20 52q-2 16 -19 34l27 -219 q1 -9 5 -27.5t5 -28.5q0 -4 1.5 -11t2 -12t-0.5 -11t-4 -11q-1 -1 2 -15q9 -25 5 -44q-3 -11 -10 -12q-10 -1 -16 12q-7 16 -9 35q-1 21 -8.5 60t-9.5 50q-2 2 -2 7q-2 37 -12.5 104.5t-12.5 88.5q-1 9 -2 27t-2 27q0 7 -3.5 23t-2.5 24l-1 5q-1 7 5 9zM279 428q7 9 19 6.5 t23 -14.5q16 -16 16 -39q4 -33 11 -50q4 -9 9 -42q3 -38 13.5 -107.5t12.5 -89.5q9 -75 8 -112q-2 -1 -5.5 2.5t-6.5 2.5q-1 -2 -1 -4.5v-4.5q-6 -15 -17 -15q-3 0 -7 -2t-8.5 -2t-9.5 4q-5 5 -9 0t-5 -12q-25 9 -38 45q-12 32 -21 100q-2 17 -10.5 82t-11.5 100q0 2 -1 4 t-1 4l-3 -3q-11 -72 -39 -157q-7 -17 -2 -35q1 -6 -1.5 -8t-7.5 1q-14 5 -17 5q0 -4 3 -16t1 -18q-40 -5 -62 35q-6 11 -21.5 41.5t-25.5 46.5q-27 48 -36 90q-7 24 -15 35q10 -53 16 -173q4 -58 7 -86q2 -18 -3 -69q-6 -3 -11 2q-15 18 -18.5 26.5t-7.5 34.5q-7 50 -13 148 l-3 39l-3 39q-1 21 -8 60.5t-8 57.5q-3 23 1 25q12 8 30 3q13 -4 22 2q18 13 40 7q8 -2 8 -6q-3 -9 9 -17q12 -10 21 -35q4 -11 36 -71q31 -62 40 -76q3 -5 5.5 -15t4.5 -15q3 4 4 8t1 9t1 8l32 160q8 35 18 53q2 4 7 4q8 -29 28 -51q-1 6 -12 43q16 5 22 12z" glyph-name="m_m.liga" horiz-adv-x="986" unicode="mm"/><glyph d="M856 125l12 4q-3 -9 -10.5 -21.5t-9.5 -16.5q-4 -6 -7 -7q-11 -5 -17.5 -13.5t-12.5 -13.5q-30 -21 -41 -27q-6 -4 -12.5 -9.5t-10.5 -8.5t-9 -5.5t-9 -2.5q-4 -3 -7 -2q-4 0 -5 1q-4 2 -11.5 -4t-11.5 1q-3 3 -18 8.5t-18 7.5q-31 27 -37 43q-11 23 -12 30l-9 60 q-3 18 -4 36.5t-1 41t-1 36.5q-6 103 -6 104q-2 14 -4 21q0 10 -12 17q-13 7 -18 0q-4 -4 -20.5 -19t-21.5 -28q-3 -6 -22 -59q-8 -27 -5 -40q5 -20 9.5 -55.5t8.5 -55.5q8 -42 8 -78q3 -39 16 -75q1 -2 -2 -3.5t-7 -3t-7.5 -3t-4.5 -3.5t2 -5q6 -6 -1 -9.5t-15 -3.5 q-14 0 -30 12.5t-25 26.5q-13 22 -22 59q-17 -13 -24 -28q-7 -13 -27 -24q-10 -11 -30 -18q-13 -11 -25 -12q-46 -3 -71 34q-24 33 -33 84q-8 45 -13 98q-11 97 -7 151q2 13 -6 41q-2 11 -10 14.5t-17 -5.5q-46 -49 -63 -121q-7 -37 5 -88q4 -24 4 -36q7 -107 13 -140 q1 -14 -14 -18q-5 -2 -10 -7q-19 -15 -36 8q-11 13 -14 15q-3 -2 -2.5 -6t-0.5 -6q-8 3 -16 20q-20 43 -23 75q-1 5 -8 57.5t-10 79.5l-22 176q-1 10 0.5 12t12.5 0q10 -2 15 0q12 6 24 -4q5 -4 15.5 -9.5t15.5 -9.5q16 -13 16 -31q2 -23 15 -59q4 3 9 16q7 31 35 72 q24 34 72 26q10 -1 19.5 -5t21 -10t17.5 -9l4 -4q2 -6 12.5 -27t12.5 -34q12 -96 14 -143q1 -13 4.5 -37.5t4.5 -33.5q0 -8 16 -52q2 -7 19 -13.5t22 -1.5q30 23 57 41q-5 28 -9 61q-4 36 -9 103.5t-9 103.5q0 4 -6 56q-2 18 9 20q22 5 29 -7q8 -13 28 -15q13 -1 17 -16 q2 -7 4.5 -27.5t5.5 -29.5q13 21 15 27q12 35 54 64q30 22 65 -2q6 -4 9 -5h3q1 2 0 6t0 6q10 5 16 -6q3 -5 14 -17t15 -20q9 -5 15 -14t7.5 -14t3.5 -18.5t2 -15.5q11 -37 13 -78q2 -31 4.5 -83.5t3.5 -67.5q0 -8 5 -21.5t6 -16.5q1 -1 9 -7q18 -5 32 4q8 5 20.5 15.5 t24.5 17.5q19 15 50 32z" glyph-name="n_n.liga" horiz-adv-x="839" unicode="nn"/><glyph d="M40 422l24 7q10 4 17 -2q-3 -7 -10 -11q-2 -1 -5.5 -1t-5.5 -1t-3 -4q2 -2 6 -1.5t6 1.5t5.5 2.5t5.5 2.5q9 2 12 -2q4 -2 1 -10q-11 -33 -11 -103v-3.5t-1 -3.5q-6 -16 1 -58q15 -68 24 -133q6 -38 35 -64q7 -6 16.5 -6.5t14.5 6.5q6 7 14 10q28 12 28 37l3 24 q7 42 -3 128q-1 10 -12 13q-11 4 -20 5q-23 5 -43 28t-20 46q-2 32 -2 48q0 4 11 34q1 4 7.5 5t10.5 -3q22 -13 28 -21q34 -37 51 -80q1 -4 6.5 -11.5t6.5 -12.5q0 -2 6 -4q10 0 27 5t40 36q29 37 47 64q4 5 6 9q17 21 44 6q12 -7 4 -14l-4 -6q4 -5 8.5 -16.5t9.5 -16.5 q1 -1 1 -7l-2 -156q0 -54 22 -114q7 -20 37 -39q18 -13 45 6q25 16 32 52q8 41 2 90q-2 14 -8.5 57t-11.5 66q-2 12 -8 36q-3 20 -20 32q-10 9 -18 7q-25 -5 -30 -11q-2 -2 -7.5 -2t-7.5 -1q-2 2 -2 5l-1 4q-4 12 -3 16t11 9q36 21 76 0q45 -24 62 -84l13 -39t15 -51 q8 -40 7 -60q0 -5 2 -19q3 -43 -19 -91q-5 -9 -12 -24t-11 -24q-2 -3 -8 -8t-9 -5q-4 0 -8 -2t-6 1q-13 4 -15.5 5t-10.5 -5t-11 -7q-30 -13 -49 -1q-48 25 -56 31q-67 47 -73 103q-1 7 -14 55q0 1 -1.5 7t-1.5 10q0 7 -2 52.5t3 52.5q-5 -1 -8.5 -6t-7.5 -7q-1 -1 -16 -13 q-13 -12 -27 -13l-6 -2q1 -2 -1 -2q-1 -1 -5 -1t-6.5 -2t-1.5 -5q0 -9 1 -13q6 -24 4 -69v-13q4 -18 -6 -54t-10 -43q1 -17 -13 -30q-13 -11 -18 -18q-14 -16 -38 -14q-7 0 -18 7t-13 8q-4 2 -16 12q-4 -10 -6.5 -11.5t-11.5 2.5q-58 19 -85 65q-31 51 -30 75q-5 6 -13 39 q-6 6 -7 19t-3 18q3 4 2 23.5t-1 24.5q4 47 24 102q11 32 49 45zM62 389q-21 -51 -20 -94q18 41 20 94zM162 378q-3 3 -8 4t-8 -1t-3 -5l-2 -9q-2 -9 2 -9q4 -5 6 -27q2 -21 8 -27.5t28 -11.5q7 0 10 2q-2 29 -5 42q-6 20 -28 42zM603 198q-6 -15 3 -36q4 19 -3 36z" glyph-name="o_o.liga" horiz-adv-x="718" unicode="oo"/><glyph d="M552 436q8 0 10 -1q5 -4 11 -6t13 -3.5t11 -2.5q28 -11 42 -32q7 -11 24 -24q11 -10 15 -28q14 -74 15 -111q0 -4 0.5 -12t1 -14.5t1.5 -12.5q3 -15 -2 -25q-2 -5 -2 -24q0 -22 -11 -33q-3 -2 -5 -9q-3 -13 -13 -35t-12 -29q-4 -9 -6 -11t-5 -1q-3 3 -3 5v7.5t-2 8.5 q-11 -3 -15 -19q-6 -14 -22 -11q-48 7 -80 37q-7 8 -29 28q4 -24 4 -30q1 -8 3.5 -34.5t3.5 -40.5q4 -42 16 -95q2 -12 0 -24q-4 -16 -1 -25q3 -6 0.5 -8.5t-9.5 -0.5q-17 3 -27 15q-8 8 -13 2q-2 -2 -9 2q-4 2 -13.5 9t-16.5 9t-9 15q-2 7 -10 37t-11.5 50t-3.5 38 q1 26 -9 78q-2 12 -4 36t-4 36q-5 26 -11 75.5t-10 72.5q-7 42 -12 84q0 11 -5 24q-4 12 8 15q6 2 9 1q30 -4 44 -12q15 -10 20 -24q9 -20 17 -26q6 2 21 19q24 27 28 30q26 23 67 30zM-24 428q20 -2 24 -10q1 -7 13 -7q16 -1 23 -20q1 -2 8 -20.5t13 -28.5q25 25 31 33 q41 55 129 31q10 -3 22 -17q46 -50 51 -87q6 -48 15 -71l1 -9q-1 -10 7 -80q1 -17 -7 -45v-4q-12 -11 -25 -40t-15 -33q-1 -1 -4.5 -7.5t-7.5 -8.5q-5 10 4 21.5t4 20.5q-3 -4 -7.5 -13t-9 -15t-11.5 -10q-2 -2 -2 -5q-1 -2 -0.5 -9.5t-4.5 -7.5q-10 -3 -31 -3q-31 1 -60 30 l-34 35q-2 -6 -0.5 -32.5t1.5 -31.5q1 -18 5.5 -51t5.5 -48q2 -43 -1 -55q-1 -1 0 -11t1 -12q-3 -17 -4 -18q-5 4 -16 10t-18.5 13.5t-11.5 19.5q-3 -13 -5 -27q-20 13 -29 34q-6 15 -11 44.5t-6 33.5q-11 44 -17 146q-1 19 -4 55t-4 50q-1 29 -8 81.5t-8 71.5l-3 43 q-2 30 -6 45q-6 19 13 19zM523 403q3 -2 17 -15t18 -16q-13 40 -35 31zM522 389q-9 7 -13 7t-12 -7q-10 -12 -32 -34q-24 -25 -11 -53l9 -24q19 -55 26 -141q1 -5 1 -15q0 -14 12 -24q2 -2 7 -6.5t8.5 -8t6.5 -7.5q8 -13 30 -28q22 19 24 21q4 4 4.5 14.5t0.5 11.5 q0 2 3.5 13t3.5 17q-2 7 -1 28t1 28q-5 88 -11 101q-1 6 -3 18.5t-4 18.5q-5 20 -8 24t-11.5 14.5t-15.5 18t-15 13.5zM146 374q-22 -4 -34 -11q-22 -12 -45 -61q-1 -1 -1 -7q9 -39 20 -107q11 -77 11 -86q2 -13 9 -20q30 -34 48 -47q9 -7 25 -11q6 -1 10 4q24 55 20 110 l-5 45q-1 21 -10.5 60.5t-11.5 55.5q-1 10 -16 57q-2 9 -8.5 14.5t-11.5 3.5z" glyph-name="p_p.liga" horiz-adv-x="788" unicode="pp"/><glyph d="M571 434l7 -3q22 -6 26.5 -10.5t10.5 -25.5q8 -30 8 -77q0 -8 0.5 -28.5t-0.5 -28.5q0 -5 5 -7q1 1 4.5 8.5t10.5 6.5q-1 -36 7 -79q10 -94 14 -142q1 -22 5 -62t5 -54q1 -5 2.5 -15t2.5 -18t1 -15q1 -17 -3 -33q-1 -7 -9.5 -15.5t-9.5 -10.5q-1 -4 -12 0q-3 1 -8.5 6 t-8.5 6l-2 -1q-1 0 -1 -1q0 -6 -2.5 -9.5t-7.5 -2.5q-3 0 -11 14q-2 3 -4 9t-2 7q-4 11 -9 13q-24 18 -31 58q-10 72 -11 121q0 10 -2 13q-18 -20 -33 -39q-8 -8 -29 -11q-8 -2 -8 -6q-2 -11 -15 -7q-2 1 -3 1l-8 4l-47 29q-50 32 -65 84q-23 69 -23 119q0 10 -1.5 29.5 t-2 29.5t0.5 29q0 18 9 30q6 8 6 13q2 8 5.5 14.5t10.5 11.5t11.5 7.5t14.5 7t13 6.5q4 3 22 0q17 -2 26 1q30 10 55 -20q4 -4 7.5 -8.5t7.5 -10t6 -8.5q11 -11 15 -12l-4 30q0 5 -0.5 14t-0.5 13q3 3 14 3h5q1 8 11.5 10.5t11.5 8.5q3 6 13 3zM36 396q6 -5 17 -1 q17 6 58 -7q7 -2 7 -6q1 -5 3.5 -9t5 -6t7 -5.5t6.5 -5.5q11 -7 12 -17q1 -7 11 -14q4 8 1 33q0 1 -1.5 9.5t-1.5 13.5q-1 9 5 13.5t16 0.5q18 -9 19 -10q1 -3 6 -3q12 1 16 -1t9 -12q11 -21 13 -47q2 -21 7.5 -61t7.5 -57q2 -24 9.5 -73t10.5 -74q1 -9 5.5 -37.5t3.5 -44.5 q-1 -13 4 -37t5 -33q4 -71 5 -104q1 -6 -3 -18.5t-5 -15.5l-7 7q-7 8 -9.5 8.5t-4.5 -13.5q-4 -5 -16.5 -1.5t-16.5 9.5q-22 34 -26 54q-2 9 -7 25t-6 22q-6 19 -13 97l-4 35q-4 1 -13 -4q-7 -5 -36 -11q-31 -7 -56 16q-10 8 -17 4q4 -6 15.5 -13.5t15.5 -13.5 q-23 -2 -35 14q-13 13 -21 13q-9 -1 -20 14q-24 36 -28 69q-3 20 -10 56.5t-10 52.5q-11 50 3 102q7 26 24 52q22 30 27 34q7 6 12 1zM442 374h-2q-1 -1 -2 -1q-5 0 -9 -2t-6.5 -4t-5 -6.5t-3.5 -6.5t-3 -8.5t-3 -7.5q-2 -14 -1.5 -20.5t3 -20.5t3.5 -20q1 -7 4.5 -39 t8.5 -49q7 -27 6 -43q-1 -10 4.5 -27.5t6.5 -22.5q1 -1 2 -4.5t2 -4.5q6 -4 11.5 -10t11 -13.5t9.5 -11.5q7 -10 16 -6q19 10 29 34q3 7 8 11q13 8 10 28q-15 111 -16 202q-2 16 -5 19q-5 0 -6.5 -3t-2 -7.5t-2.5 -7.5q-12 16 -47 49q-10 9 -12 8q-2 0 -9 -5zM86 352 q-10 3 -15 -9q-4 -7 -6 -41q-5 -40 7 -77q12 -39 8 -69q-2 -12 0 -18q17 -59 22 -74q7 -25 30 -13q2 1 11 4.5t12 5.5q10 12 25 8q-12 123 -13 176q-2 32 -17 52q-18 20 -22 33q-6 17 -42 22zM626 243q1 -5 1 -15t2 -16q3 9 -3 31z" glyph-name="q_q.liga" horiz-adv-x="761" unicode="qq"/><glyph d="M490 437q-12 -3 -3 -6q19 -4 19 -8q0 -1 -1 -3q-2 -3 -2 -10t-4 -10.5t-17 -4.5q-13 0 -17 -12q-2 -4 -6 -7t-11 -5.5t-9 -3.5q-8 -5 -13.5 -11t-12 -16.5t-9.5 -14.5q-2 -3 -6.5 -11t-8.5 -15q-4 -6 -7 -16q-1 -3 -2 -13t-4 -13q-8 -10 -9.5 -21.5t1 -28t2.5 -22.5 q0 -4 2 -10q-1 -24 2.5 -70t3.5 -68q2 -12 2 -14t0.5 -7t0 -7.5t-1 -6.5t-2.5 -7t-6 -5q-3 -2 -3 -16q-2 -14 -4.5 -16t-18.5 3q-12 5 -49 28q-14 8 -14 28q-2 35 -25 261q-3 18 -6 55.5t-6 55.5q0 7 -5 15q-7 21 14 21q2 0 7.5 -0.5t8.5 -1t7 0t7.5 1.5t6.5 4q7 3 17 -5 q2 -2 7 -6l7.5 -6t6.5 -6t6 -7t4.5 -7.5t3.5 -8.5q3 -7 10 -10q5 8 10.5 14.5t13.5 13.5t13 12q16 17 43 23q51 12 61 4q1 -1 -1 -2q-1 -1 -3 -1zM0 422q15 -8 21.5 -12t14.5 -13.5t10 -22.5q0 -1 3 -7l2 -4q6 5 17.5 15.5t17.5 15.5q30 26 74 16q27 -7 47 -28 q-6 -15 -21 -7q-10 4 -15 -2q-3 -3 -11 -5.5t-10 -8.5l-5 -5q-43 -17 -56 -57q-2 -5 -3 -16.5t-4 -17.5q-7 -10 -4 -26l9 -55q3 -21 10 -60t10 -58q0 -2 6 -50q1 -6 -4.5 -24t-8.5 -22q-21 23 -39 2q-2 -5 -8.5 -2t-7.5 3q-3 0 -1 -5l1 -4h-4q-33 29 -38 73q-2 33 -22 127 q-4 19 -6 56q1 30 -6 75q-1 5 -1 16t-1 17q-1 29 -12 58q-2 2 -2 5t4 4q2 1 3.5 0t2.5 -3t2 -3q3 2 4.5 5t1.5 4.5t-1 6.5t-1 6q3 2 11 5.5t11 7.5t9 0zM325 377q-3 -43 13 -100q-2 42 -2 63q0 22 -11 37zM170 365q19 8 34 -12q-3 -3 -3 -1q-23 8 -40 -3q-11 -11 -24 -12 q1 5 6 8.5t6 4.5l5 5q1 0 16 10z" glyph-name="r_r.liga" horiz-adv-x="588" unicode="rr"/><glyph d="M316 431q10 -2 16 -1q11 0 41 -6q2 -2 -4 -4h-8q-9 -2 -9 -3q0 -2 2 -2q23 -2 30 -5q3 -1 4 1q1 4 -4 8l15 -5h1q12 -6 17 -10q19 -11 21 -26t-15 -25q-4 -2 -18.5 -13t-26.5 -13q-4 0 -8 -3t-9 -7t-9 -6q39 -26 90 -73q7 -7 58 -63q7 -9 10 -17q2 -5 5.5 -14.5t4 -12.5 t2 -13t-0.5 -15q-1 -6 -1.5 -21.5t-2.5 -22.5q-10 -39 -79 -60q-51 -19 -102 0q-39 15 -69 55q-5 9 2 20q11 -4 32 -20q3 1 3 5.5t2 5.5q7 -3 18 -12t18 -12q2 -1 8.5 -3.5t9.5 -3.5q17 -3 28 8q26 26 31 44q4 11 1 20q-6 16 -22 38q-2 3 -15 23t-23 29l-11 11 q-34 17 -65 51q-8 -6 -45 -34t-57 -46q21 -38 26 -59q19 -66 -13 -97q-2 -1 -4 -5q-6 -23 -39 -31q-14 -3 -38 -12.5t-34 -12.5q-49 -13 -96 17q-9 5 -12 22q-1 3 -3 14t-2.5 16.5t-1.5 14.5t1 16t5 13q10 21 24 32q24 22 48 33q2 1 9 4t12.5 6t9.5 7q-5 6 -13.5 17 t-16.5 19.5t-18 13.5q-3 1 -21 22q-6 6 -10.5 12t-10 14t-8.5 12q-18 24 -24.5 40.5t-4.5 42.5q2 37 31 49q7 3 21 13t30 16q12 4 15.5 5t5 1t7 -1t15.5 -1q15 5 41 -1q12 -2 21 -11q3 -2 0 -3q-9 -4 -4 -7.5t11 -10.5t1 -12q-12 3 -18.5 3t-15.5 -2.5t-12 -2.5 q-15 0 -35 -15q-21 -14 -19 -25q2 -18 25 -41q7 -7 13 -13.5t7 -7.5q4 -3 7.5 -7t5.5 -6q10 -8 32 -28.5t25 -22.5q4 -3 15 1q3 1 10.5 4t11 4.5t8.5 5t8 8.5q18 22 52 37q-26 28 -30 37q-14 30 -7 54q8 31 27 41q5 3 15.5 9t12.5 7t11 4.5t11.5 1.5t13.5 -1zM357 402 q-26 -2 -34 -12q-4 -5 -12 -7q-18 -8 -13 -21q6 -20 21 -26q9 -4 16 -1q28 18 44 38q8 10 4 17.5t-16 9.5q-8 2 -10 2zM403 397q2 -8 4 -9q3 -2 5 2q0 5 -9 7zM-22 355q1 -3 -1 -10t-1 -13.5t9 -14.5q-1 4 0 19.5t-7 18.5zM326 276q-1 1 -2.5 0.5t-2.5 -1.5q-2 -3 3 -8 q8 -5 28 -25q5 -4 14.5 -11.5t14.5 -11.5q6 -6 10 -1q2 3 -2 9q-8 9 -17.5 17t-25 18t-20.5 14zM94 124q-7 -6 -26 -18q-15 -9 -26 -13q-14 -4 -39 -32q-4 -4 -6 -12t-3 -20t-1 -15q0 -6 5 -10q15 -14 33 -5q5 3 15 1q1 -1 0.5 -4t0.5 -5q1 0 6 1t7 2.5t3 6.5q1 2 10 7 q10 6 32 16q13 6 14 11t-4 30q-3 11 -3 21q0 20 -18 38zM269 95q4 4 11 -2q7 -7 5 -14q-8 -1 -12 4q-8 8 -4 12z" glyph-name="s_s.liga" horiz-adv-x="591" unicode="ss"/><glyph d="M179 607q-53 26 -24 75q13 20 40 25q15 1 18 -13q0 -9 13 -19q38 -31 12 -55q-2 -2 -7.5 -8t-11 -8.5t-12.5 -1.5q-4 4 -13 3.5t-15 1.5zM465 109q16 14 31 4q-7 -12 -21 -24q-20 -17 -28 -33q-4 -10 -17 -11q-4 0 -16 -12q-2 -3 -8 -6t-9 -5q-7 -11 -9 -13q-5 -4 -17 -8 l-18 -6q-6 -3 -14 -3q-1 0 -4 0.5t-5 0.5q-2 -1 -4.5 -3.5t-4.5 -3.5q-5 -1 -13 5q-8 8 -17 9l-7 3.5t-7.5 3t-7.5 -2.5q-3 -2 -14 6q-17 15 -24 49q-11 -11 -39 -44q-4 -5 -7.5 -7.5t-5.5 -3.5t-8 -2.5t-10 -3.5q-5 -1 -13 -7q-23 -21 -61 -18q-2 0 -5.5 1t-6.5 1t-6 -3 q-2 -4 -8 5l-14 24q-5 8 -8 8q-1 0 -3 -1q-4 -2 -7 3q-24 27 -34 60q-9 36 -14 87q-2 18 -9 69t-9 79q-3 59 -8 129q-3 18 -5 21q-14 -3 -31.5 -3t-19.5 5q5 0 19 3.5t20 4.5q-12 2 -17 2t-16.5 -2t-14.5 -2q-16 0 -22 4t-8 17q10 1 37.5 6t38.5 6q5 0 5.5 1.5t-0.5 6.5 q0 12 -4 34q-3 12 -1 46q3 2 4.5 -3.5t4 -15t5.5 -13.5q6 18 -2 46q-3 20 11 29q27 -14 47 -60q7 -15 21 -67q12 1 29 2t21 1q24 3 54 3q9 0 40.5 4.5t39.5 4.5q3 0 21.5 2.5t23.5 0.5t24.5 1t20.5 3q19 0 35 -10q9 -6 0 -10q-3 -1 0.5 -3.5t10.5 -5.5t9 -5q-29 0 -37 -9 q-2 -2 2 -5q3 -2 -7 -3q-4 -1 -18 -2q-9 -1 -13 -1q-1 0 -11.5 1t-27.5 1.5t-45 -1.5q-26 -2 -48 -2q-41 -2 -57 -4q-28 -6 -42 -4q-11 1 -13.5 -1.5t-0.5 -14.5q3 -21 12.5 -61.5t11.5 -53.5q13 -83 14 -92q2 -22 11.5 -62t10.5 -46q4 -21 14 -63q5 -17 27 -32q4 -4 10 -1 l19 10q12 7 18.5 12t13.5 12.5t11 11.5q6 6 14 9q-5 25 -7 58q-6 64 -7 97q0 45 -7 84q-2 8 -3 28.5t-5 32.5q-1 8 10 19t31 13q28 3 39 -29q2 -7 5 -9q7 6 10.5 5t4.5 -11q2 -10 1 -15q-3 -14 2 -30q7 -25 21 -126q4 -23 16 -77l6 -27l6 -27q1 -4 2 -11t1.5 -9.5t2.5 -6.5 t4.5 -2t8.5 2q36 18 49 28q30 23 35 24q10 6 14 10zM95 36q3 -7 14 -8q3 -1 3 1q1 1 -4 6t-12 14.5t-11.5 16t-6.5 6.5q-1 0 1.5 -7t5.5 -14.5t3 -8.5q0 -2 3 -3.5t4 -2.5z" glyph-name="t_i.liga" horiz-adv-x="460" unicode="ti"/><glyph d="M189 607q-53 26 -24 75q13 20 40 25q15 1 18 -13q0 -9 13 -19q38 -31 12 -55q-2 -2 -7.5 -8t-11 -8.5t-12.5 -1.5q-4 4 -13 3.5t-15 1.5zM706 67q3 2 4 -4q2 -20 -16 -41q-4 -4 -8 -7q-10 -7 -29 -15q-8 -2 -13 -7q-37 -13 -79 -10q-2 0 -5.5 1t-6.5 1t-6 -3q-2 -4 -8 5 q-3 4 -7 7t-6 7q-5 8 -8 8q-1 0 -3 -1q-4 -2 -7 3q-13 14 -29 73q-3 -3 -9.5 -12.5t-13.5 -14.5q-4 -3 -8 -7.5t-7 -7t-7 -2.5q-2 -2 -9 -7t-9 -7l-18 -17q-5 -4 -17 -8l-18 -6q-6 -3 -14 -3q-1 0 -4 0.5t-5 0.5q-2 -1 -4.5 -3.5t-4.5 -3.5q-5 -1 -13 5q-8 8 -17 9l-7 3.5 t-7.5 3t-7.5 -2.5q-3 -2 -14 6q-17 15 -24 49q-14 -9 -26.5 -23.5t-22.5 -20.5q-20 -13 -31 -17q-5 -1 -13 -7q-23 -21 -61 -18q-2 0 -5.5 1t-6.5 1t-6 -3q-2 -4 -8 5l-14 24q-5 8 -8 8q-1 0 -3 -1q-4 -2 -7 3q-24 27 -34 60q-9 36 -14 87q-2 18 -9 69t-9 79q-3 59 -8 129 q-3 18 -5 21q-26 -6 -48 -1q-4 1 -3 3q5 0 19 3.5t20 4.5q-12 2 -17 2t-16.5 -2t-14.5 -2q-16 0 -22 4t-8 17q10 1 37.5 6t38.5 6q5 0 5.5 1.5t-0.5 6.5q0 12 -4 34q-3 12 -1 46q4 -5 7 -16t7 -16q6 18 -2 46q-3 20 11 29q27 -14 47 -60q7 -15 21 -67q9 1 26.5 1t23.5 2 q17 8 64 3q9 -1 41.5 4t38.5 5q3 0 21.5 2.5t23.5 0.5q4 -1 40.5 1t74 4.5t39.5 2.5h1v4q0 5 0.5 16.5t-0.5 16.5q-3 13 -1 51l12 20q-1 3 0.5 3.5t7.5 -3.5q15 -10 21 -6q18 -10 22.5 -14.5t12.5 -22.5q5 -11 7 -33.5t4 -31.5q8 1 19 1t17 2l29 2q-1 -1 -6 -2q2 -1 9 0 t18 2.5t14 1.5q24 0 33 -9q4 -4 -3 -7q-3 -2 4 -4q14 -5 16 -7q-3 -7 -8.5 -11.5t-13 -7t-13 -4t-16 -2.5t-13.5 -2h-14t-18 -1q-25 -5 -32 -4q-11 1 -13.5 -0.5t-0.5 -7.5q5 -21 15 -77.5t11 -60.5q13 -83 14 -92q2 -22 11.5 -62t10.5 -46q2 -10 6.5 -29t6.5 -30 q5 -17 27 -32q1 -1 10 -1q2 0 20.5 -1t19.5 3q13 8 20.5 15.5t18.5 12.5zM460 99q1 1 6 4t7 5l-5 18q-4 13 -5.5 25.5t-2 29t-1.5 25.5q-1 14 -3.5 47t-5.5 57.5t-8 46.5q-5 25 -11 101q0 1 -0.5 7.5t-2.5 10.5l-33 -3q-145 0 -186 -3q-26 -2 -48 -2q-4 0 -26 -2.5t-41 -1.5 q-1 0 -19 -2.5t-23 -1.5q-11 1 -13.5 -1.5t-0.5 -14.5q3 -21 12.5 -61.5t11.5 -53.5q13 -83 14 -92q2 -22 11.5 -62t10.5 -46q4 -21 14 -63q5 -17 27 -32q4 -4 10 -1l19 10q13 8 27.5 19t25.5 17q3 2 7 4t7 4q-5 27 -7 59q-6 64 -7 97q0 45 -7 84q-2 8 -3 28.5t-5 32.5 q-1 8 10 19t31 13q28 3 39 -29q2 -7 5 -9q7 6 10.5 5t4.5 -11q2 -10 1 -15q-3 -14 2 -30q7 -25 21 -126q4 -23 16 -77l6 -27l6 -27q1 -4 2 -11t1.5 -9.5t2.5 -6.5t4.5 -2t8.5 2q33 16 48 28q30 23 35 24zM557 135q3 0 2.5 11t-1.5 14q-17 52 -18 52t1 -12t4.5 -24.5 t2.5 -13.5q7 -27 9 -27zM91 24q2 -1 3 0.5t1 3.5q0 1 -4.5 9.5t-9 15.5t-6.5 7q-1 0 1.5 -7t5 -14.5t2.5 -8.5q2 -6 7 -6z" glyph-name="t_i_t.liga" horiz-adv-x="733" unicode="tit"/><glyph d="M240 660q22 -3 31 -23q28 -68 36 -97q3 -13 6.5 -15t16.5 1q16 2 24 2q64 2 91 -3q19 -5 23 -16q-36 -6 -40 -5q-18 4 -33 -7q-11 -8 -23 -8t-34 -4q-18 -4 -15 -24q4 -18 16 -151q2 -40 5 -58q2 -12 3.5 -37.5t4.5 -38.5q1 -3 2.5 -9.5t2.5 -9.5q14 -45 15 -78 q0 -9 3 -16t6 -11t10.5 -11.5t11.5 -12.5q7 -8 23 -3q3 1 11.5 3.5t15 5.5t10.5 6q3 2 23 14.5t27 17.5q5 3 6 -6q4 -22 -10 -35q-1 -1 -3 -2q-11 -5 -21 -13l-13.5 -9t-15.5 -11q-11 -11 -19.5 -13.5t-29.5 -2.5q-14 2 -21 1q-21 -2 -55 20q-25 17 -30 22q-12 10 -22 44 q-6 22 -9 46q-2 16 -6.5 48t-7.5 48q0 12 -5 18q-2 2 -2 5q-2 9 -9.5 42t-12 58.5t-3.5 42.5q1 12 -3.5 44t-4.5 40q0 12 -11 10q-39 0 -42 4q2 4 19.5 6.5t19.5 4.5q-8 6 -27 2q-46 -12 -55 -12q-7 0 -17.5 -4t-18.5 -3q-14 0 -11 -14q8 -37 21 -160q3 -31 13 -89.5 t13 -84.5q3 -16 10 -45t9 -37q11 -35 -7 -53q-8 -8 -13 -24q-9 4 -12.5 0.5t-2.5 -9.5t0 -11q-13 10 -22 25.5t-11 23t-8 30.5q-16 54 -23 81q-5 -20 3 -45q15 -48 16 -80q-12 2 -12 11q0 8 -15 45q-8 24 -17 89q0 8 -3.5 24.5t-4.5 25.5q-3 21 -14.5 67t-13.5 71 q0 6 -1.5 26t-2.5 37.5t-1 25.5q0 24 -5 54q-11 1 -27.5 -2.5t-21.5 -3.5t-10.5 -0.5t-8 -1t-6.5 0t-8.5 1.5t-10.5 4q-2 1 -8.5 12t-5.5 13q7 11 16 11t20 2t21 1q16 -1 31 4q10 3 12 5.5t1 12.5q-4 56 -5 59q-1 9 2.5 22.5t3.5 17.5q2 12 15 4l7 -7q11 -24 22 -27 q22 -6 28.5 -12.5t10.5 -23.5q1 -1 3.5 -10t4.5 -11q7 -12 10 -13t11 0q31 3 55 3q11 0 25 2.5t25 1.5q13 0 25 4q3 10 -3 27q-3 11 -2.5 17t3 8t7 -3t9.5 -16q0 17 -2 26q-3 13 3 22q11 17 6 48q-1 10 0.5 11.5t12.5 -0.5zM440 498q-8 -5 -11 -5.5t-15 3.5q10 6 26 2z M466 496q-6 -5 -15 -1q0 7 15 1zM346 125q-3 -6 -3.5 -13.5t-1 -12t2 -14t3 -12t5 -14t4.5 -12.5q-2 11 -4 37.5t-6 40.5z" glyph-name="t_t.liga" horiz-adv-x="544" unicode="tt"/><glyph d="M878 111q2 -6 2 -8t-4.5 -6.5l-5.5 -5.5q-16 -21 -18 -22q-10 -7 -19.5 -17t-18.5 -16q-25 -23 -47 -32q-43 -14 -63 -8h-2q-11 -8 -27 10q-17 17 -21 26t-11 12q-3 -6 -13.5 -12t-15.5 -10q-2 -2 -6 -4t-5 -3q-11 -15 -36 -31q-21 -10 -66 1q-1 0 -3 1t-3.5 1.5t-3 0.5 h-2.5q-6 -2 -12.5 1t-15 11t-10.5 9q-12 8 -18 32l-3 8l-14 -7t-20 -17q-2 -1 -5.5 -4t-6.5 -5t-6 -2q-6 0 -7 -3q-4 -8 -24 -17q-7 -4 -12 -9q-6 -7 -37 -7q-10 4 -24.5 8.5t-22.5 7.5q-13 6 -24 17q-18 18 -25 46q0 2 -3 5q-5 0 -8.5 -2.5t-6.5 -8.5t-4 -7 q-25 -33 -30 -38q-20 -24 -59 -18q-28 5 -59 29q-10 7 -15 23q-28 70 -29 139q-2 14 -7 25q-6 14 -9 27.5t-4.5 36.5t-1.5 27q-2 12 -2 44t-4 49q-4 23 10 23q5 0 20 1.5t23 0.5q15 -1 35 -21q15 -14 22.5 -34.5t8.5 -31.5t3 -38q6 -69 6 -71q2 -12 3.5 -34.5t2.5 -31.5 q7 -34 8 -44q1 -16 23 -34q6 -5 18.5 -2.5t19.5 10.5q10 11 28 37q4 5 2 19q-2 29 -10 81.5t-10 74.5q-1 9 -3 31.5t-4.5 39t-6.5 32.5q0 9 7 9q8 0 24 6q15 6 21.5 5t21.5 -11q2 1 7 6t10 3q6 -2 8 -19q1 -4 3 -23.5t5 -30.5q3 -13 9 -29q10 -34 7 -50q-1 -3 2 -28 q3 -20 7 -58.5t7 -57.5q2 -12 4 -35.5t3 -34.5q2 -18 10.5 -26t20.5 -2q9 3 10 4q19 16 75 54l-1 1v2q3 2 3.5 5.5t0 6t-2.5 7t-3 6.5q0 1 -2 11.5t-4 16.5q-8 26 -8 51q0 13 -19 185q-1 7 -5.5 20t-4.5 20q-1 12 2.5 14.5t15.5 1.5q25 -3 44 -24q0 1 0.5 3.5t1.5 3.5 q14 14 25 -2q3 -3 5.5 -9t5.5 -9q4 -3 6 -15q5 -38 6 -40q1 -4 1 -16q4 -17 7 -57t6 -55q3 -12 8.5 -53t14.5 -67t27 -46q12 -11 22 -7q7 3 14 8t12 8q12 8 27 27q9 14 -2 51q-8 31 -12 80l-6 55q-8 47 -9 92q-1 9 -5 27q-4 7 2 17q7 5 20 -3q2 -1 6 -4t6 -4q9 6 23.5 4 t21.5 -11q23 -25 24 -42q2 -25 10 -68q4 -17 11 -99q2 -26 14 -69q2 -8 6.5 -15.5t11.5 -18t10 -15.5q4 -5 14 -3q16 4 35 16q11 13 47 42q15 12 24 3zM621 71l5 5zM474 20q9 -16 28 -10q-6 7 -26 20t-27 26q-4 -11 8 -20q1 -1 7.5 -7t9.5 -9zM86 17q14 -4 27 7 q-10 4 -13.5 3.5t-13.5 -10.5z" glyph-name="u_u.liga" horiz-adv-x="843" unicode="uu"/><glyph d="M525 459q6 -1 6 -9q0 -4 -1.5 -11.5t-1.5 -8.5q-2 -11 -1 -31t0 -31q-6 -46 -10 -73q-3 -19 -1 -35q2 -13 -6 -74q0 -3 -0.5 -8t-1.5 -8q-1 -59 -14 -122q0 -4 -1 -12t-1 -12v-4q-1 -4 -1.5 -5.5t-1.5 -3.5t-3.5 -3t-6.5 0q-2 0 -3.5 -3t-1.5 -4q-3 -5 -23.5 -9t-25.5 -1 q-14 9 -18 17q-4 6 -10 18t-11.5 21.5t-11.5 17.5q-4 6 -5 10q-8 23 -30 73.5t-31 79.5q-5 16 -19 43t-17 35q-4 10 -30 80q-2 6 -3.5 17.5t-1.5 13.5q13 -3 37 -1q16 0 34 -18q24 -21 30 -46q3 -13 11.5 -40t11.5 -41q0 -5 3 -7q10 -14 31 -53q4 3 2 12l-57 158l-5 15 q-2 9 5 10q8 3 12 -6q7 -12 11 -23q6 -16 14.5 -47.5t14.5 -47.5q3 -8 23.5 -55t28.5 -73q5 -12 5 -20q-2 -12 16 -30q1 12 5 44t4 50q1 26 7 73t7 67q1 13 6 38.5t6 38.5q0 8 7 20.5t8 20.5q1 5 10 3zM-85 434q19 5 30 4.5t32 -8.5q8 -3 11 -10q10 -16 15 -26q1 4 -0.5 12 t0.5 13q13 -6 28 -37q6 -14 30 -73q41 -103 44 -115q3 -14 26 -81q6 -1 6 7q13 36 13 70q1 39 19 158q6 30 7 45q0 3 9 29q5 12 19 7q10 -3 3 -25q-3 -38 -9 -75l-2 -12q1 -16 -5 -48q-1 -9 -4 -26.5t-4 -25.5q-3 -14 -5 -30t-4 -35.5t-3 -30.5q-2 -19 0 -29q0 -11 -1 -13 q-8 -13 -8.5 -41.5t-4.5 -40.5v-4q0 -2 1.5 -6t1.5 -7t-4 -5q-4 -1 -6.5 -0.5t-6.5 3.5t-6 4q-21 6 -29 1q-4 -4 -14 1.5t-13 13.5q-9 26 -18 40q-2 4 0.5 11t1.5 11q7 -6 15 -18.5t11 -16.5q-16 45 -36 57q-23 15 -31 44q-12 44 -42 117q-10 24 -25.5 69t-21.5 62 q-5 20 -17 27q-11 7 -9 26q-1 5 6 7zM327 430q8 2 11 -5q1 -3 -2 -6q-9 -2 -11 6q-3 5 2 5z" glyph-name="v_v.liga" horiz-adv-x="616" unicode="vv"/><glyph d="M352 453q8 -2 8 -10q-1 -5 -2 -14.5t-2 -14.5q-3 -16 -3 -82q1 -37 -13 -107q-9 -54 -10 -94q-1 -9 -14 -81q-1 -8 -6 -23t-6 -24q-1 -7 -17 -16q-27 12 -47 35q-3 -2 -2 -5t0 -5q-29 13 -42 41q-6 16 -18 70q-5 21 -19 107q-3 11 -6 13q-6 -7 -8 -23q-1 -11 -11.5 -65 t-11.5 -85q0 -11 -4 -34t-3 -36q1 -7 -4 -12q-10 4 -12.5 3t-8.5 -9q-6 -10 -10 -11t-17 5q-28 11 -39 44q-5 13 -20 70q-1 3 -6.5 26.5t-10.5 35.5q-10 23 -39 123q-16 58 -33 110q-5 9 -3 13q5 -2 8 -10.5t7 -10.5q1 5 -3 13.5t-4 13.5q8 -3 17 2.5t14 5.5q1 8 5 10.5 t14 2t11 -0.5q12 1 22 -7t13 -21q7 -24 13 -40q6 -17 14 -51q2 -15 9.5 -42t9.5 -39q14 -61 20 -78l6 -20q2 2 8 26l15 81q18 78 20 92q2 11 -1 22q-3 8 -7 26q-3 14 3 21t20 3q23 -5 44 -15q10 -8 12 -10q25 -27 41 -79q24 -82 34 -156q2 -9 5 -10q2 2 3 4.5t1.5 5.5t1.5 5 q11 48 29 119l3 33q0 14 5 42t6 43q0 3 0.5 9.5t1 11.5t1.5 9q0 1 -0.5 5t-0.5 6t2.5 4t7.5 2q1 4 1 6v13l1.5 4.5t2.5 2.5t4 1zM413 423q19 -2 26 -15l9 -15q20 19 33 -9q7 -13 18 -53q5 -18 21 -63t22 -71q2 -10 17 -63q2 -7 4 -8q4 0 5.5 2t1.5 7v6q0 42 -1 63 q0 16 5 44.5t6 40.5q0 12 5 35t5 35q0 7 5 11.5t12 2.5q11 -3 24 3q14 9 36 -2q7 -4 15 -4q13 -1 20 -16q5 -13 17 -43.5t18 -47.5q12 -41 28 -80q4 -13 10 -37t9 -33q5 -15 8 -18q0 10 0.5 28.5t0.5 27.5l8 211q0 15 4.5 19t21.5 4q-1 -9 -1 -26t-1 -25q-4 -78 -2 -186 q0 -8 -1 -23t-1 -22q1 -10 0 -28t0 -27q4 -25 -9 -57q-2 -4 -7 -7t-6 -6q-13 11 -22 10q-15 -3 -28 14l-7 9q-5 5 -13 16t-13 16q-11 8 -18 28q-2 8 -14 34q-8 16 -13 36q-10 41 -19 71q-2 6 -4 31q-1 5 -8.5 13.5t-8.5 13.5q-1 3 -3.5 9.5t-3.5 10.5q-2 14 -9 18 q-3 -2 -3 -17q2 -26 -10 -126q-4 -41 -5 -59q-1 -11 -2.5 -23.5t-3.5 -27t-3 -23.5q-1 -5 -2 -7t-4.5 -3t-10.5 0q-2 -2 0.5 -5t2.5 -5q-6 -13 -12 -11q-2 1 -7.5 2t-9.5 3.5t-6 7.5q-7 20 -13 23q-6 -4 -4.5 -12.5t-0.5 -13.5q-8 0 -17 13q-41 70 -56 113q-7 20 -15.5 57.5 t-10.5 46.5l-32 140q0 2 -1.5 7t-2.5 8q0 4 0.5 7t3 4.5t6.5 1.5q5 -1 7.5 0.5t1.5 7.5q-1 4 1 5t7 1zM819 417q2 -1 3 -4t2 -4q7 -9 1 -12q-10 -5 -19 4q-5 5 1 7q7 3 12 9zM633 351q-1 -2 -1 -3l2 -4q1 -5 2.5 -8.5t2.5 -3.5t0.5 2.5t-1 6.5t-0.5 5q-2 5 -5 5zM487 146 q-1 0 -5 -2q4 -3 0.5 -7.5t-2.5 -6.5q7 -19 25 -46q2 11 -4 30t-6 26q-1 4 -8 6z" glyph-name="w_w.liga" horiz-adv-x="908" unicode="ww"/><glyph d="M260 455q1 4 7 3.5t8 -4.5q2 -2 13 -20q1 1 3 4l3 4.5t4 3t5 -0.5q2 -1 16 -2.5t20 -7.5q2 -3 7 -7.5t7 -6.5t6.5 -8t9 -10t9.5 -6q4 -1 15 -20l44 -75q17 29 45 68q3 5 7 10t9 11t8 9q7 9 19 5q-1 -1 3 -11.5t-14 -28.5q-11 -12 -19.5 -27t-17.5 -33.5t-15 -28.5t0 -21 q3 -5 6.5 -11.5t7 -14.5t5.5 -12q20 -38 29 -57q6 -14 21 -38t20 -33t12.5 -25t10.5 -22q-12 -4 -13.5 -7t1.5 -13q1 -3 1 -9v-11q-19 10 -38 19q-16 8 -20 4q-3 -2 -13 4q-25 16 -39 43l-34 63q-3 8 -12 17q-7 -7 -16 -21.5t-14 -19.5q-29 -35 -49 -93q-3 -7 -4 -9.5 t-6.5 -5.5t-12.5 2q-3 1 -4.5 0t-4 -4.5t-2.5 -4.5q-4 -9 -13 -6q-3 2 -6.5 11t-1.5 11l7 11q6 5 5 7q0 8 3 14.5t10 15t8 10.5l11 16q19 36 57 106q4 8 -1 21q-13 29 -77 133q-8 12 -14.5 26t-13.5 32t-11 27q-2 5 0.5 12.5t2.5 11.5zM230 416q9 -8 5 -18q-34 -82 -70 -129 q-4 -6 -13 -21t-14 -23t2 -17t7 -14q4 -25 22 -53q8 -13 18 -38.5t14 -34.5q8 -18 14 -25q2 -3 15 -23q4 -7 -1 -15.5t-11 -8.5q1 -4 -1.5 -7t-6.5 -3t-8 1q-3 0 -20 11q-8 5 -8 0q1 -4 8 -17q-1 -1 -10 2q-32 10 -55 47q-6 11 -24.5 39.5t-26.5 44.5q-5 1 -10 -6 q-50 -66 -61 -88q-3 -5 -7.5 -8t-8 -3.5l-10.5 -1.5t-10 -2q5 9 11 27.5t10 26.5q9 18 31 49t25 36q9 12 2 24q-44 78 -63 138q-3 13 -13 38t-12 31q-5 18 1.5 27.5t24.5 7.5q48 -6 77 -46q30 -39 38 -55l20 -40l4 -1q12 26 30 50t46 54t39 44zM349 290l13 -26q0 -1 1 -2.5 t2.5 -2.5t3 -2.5t2.5 -3.5l7 -17q0 2 1.5 7.5t0.5 9.5q-2 11 -8 15q-3 2 -8 8.5t-9 11t-6 2.5z" glyph-name="x_x.liga" horiz-adv-x="609" unicode="xx"/><glyph d="M192 392q1 -7 7 -19.5t7 -19.5q10 -64 -5 -127q-11 -51 -11 -113q1 -19 -8 -63q-4 -16 -3 -32q0 -26 -7 -59q-1 -9 -2 -20t-2 -24t-2 -20q0 -10 -2 -14q-9 -14 -11 -46q-2 -34 -17 -53q-2 -2 -3 -7t-2 -7q-2 -10 -12 -10q-3 0 -5 1.5t-3.5 5t-2.5 5.5q-8 15 -5 31 q2 11 3 23t1.5 27t1.5 23q2 29 16 124q4 17 -11 24q-2 -13 -12 -17q-22 22 -33 45q-70 142 -84 185q-5 13 -16.5 35.5t-14.5 29.5q-3 8 -11 26t-13 31.5t-7 26.5q1 2 4 1t4 0q-1 2 -2 6t-2 6q-1 11 4.5 15t16.5 -1q21 -10 29 -8q2 1 4 -1t2 -5q3 -7 10 -10q22 22 40 -8 q44 -72 72 -158q5 -19 23 -55q2 -4 5 -12.5t6 -15.5t8 -14q2 20 2 25q4 96 15 143q6 23 13 86q2 18 4 20q8 0 11 -6zM502 336q1 -44 -8 -198l-3 -92q0 -8 -5 -36q-3 -10 -4.5 -33t-5.5 -34q-2 -1 -2 -15.5v-16.5q-1 -9 -3 -25.5t-3 -30t0 -25.5v-16q-2 -8 -6 -8h-2 q-2 0 -3.5 -1t-2.5 -3.5t-2 -3.5q-12 -10 -22 -6q-11 4 -14 14q-2 13 -2 56q0 10 4.5 31.5t3.5 33.5q0 1 0.5 18.5t-3.5 18.5v9q0 9 -5 12l-12 18q-5 7 -13.5 18.5t-13.5 20t-8 17.5q-26 77 -68 148q-19 31 -47 95q-7 16 -7 60q-12 17 0 20.5t27 -0.5q1 3 -2 9t-1 10 q18 -2 29 -1q6 0 10 -4q39 -46 48 -69q5 -15 17 -41t15 -34q27 -65 39 -104q4 -14 7 -21q5 0 13 -46q0 6 3.5 62t7 93t8.5 61q4 26 2 40q-2 4 1 7q5 4 11 31q2 -2 6 -7t6 -8t4.5 -7t4 -8t1.5 -9z" glyph-name="y_y.liga" horiz-adv-x="603" unicode="yy"/><glyph d="M497 424q12 2 17 1.5t18 -4t18 -4.5q9 -2 7 -12q0 -11 -3 -22q-13 -30 -32.5 -87.5t-25.5 -73.5q-10 -25 -38 -71q-14 -27 -20 -45q-10 -32 -19 -48l25 5q45 5 83 -8q14 -5 33 -5q25 -3 38 -26q-25 -7 -69 -5q-29 0 -39 -3q-8 -3 -19 -1q-8 2 -34.5 1.5t-34.5 -0.5 q-14 0 -17 -12q-10 -27 -27 -31q-23 34 -22 50q-3 4 -7 1.5t-6 -2.5q-18 12 -11 33q3 9 9.5 32t12 39t13.5 30q1 1 2.5 5t2.5 5q6 17 58 140q7 10 8 20q2 7 10 17t10 15q0 1 2.5 6t1.5 9q-11 7 -25 2q-12 -3 -24.5 -4t-32 0t-25.5 1h-2q-45 11 -66 7q-2 8 -1.5 11t2.5 9.5 t3 9.5q0 2 6 2q36 2 56 1q27 -1 103 6q7 1 19 1.5t22.5 1.5t19.5 3zM158 409q7 1 21 -1t20 -2q4 0 5.5 -4t2.5 -5q3 -2 5.5 -3.5t4 -3t2.5 -3.5t1.5 -3.5t0 -4t-0.5 -3.5t-1 -3.5t-1.5 -3.5l-2 -4t-1.5 -4t-1.5 -2.5t-1.5 -2.5q-2 -5 -5.5 -13t-6 -13.5t-4.5 -14t-2 -16.5 q0 -10 -2 -20.5t-6 -24t-6 -20.5q-12 -57 -29 -90q-4 -8 -6.5 -18t-4.5 -22t-4 -18q0 -2 -1.5 -10t-2.5 -11.5t-4 -9t-8 -9.5q24 -1 74 5q45 7 86 -10q-2 -3 -10.5 -10t-6.5 -14l-3 -2q-36 -12 -55 -10q-9 2 -40 1.5t-40 -0.5q-24 0 -65 -10t-61 -11q-26 -1 -40 28 q5 3 14.5 3.5t13.5 1.5q0 2 -1 11t0 11q1 4 -6 7.5t-7 8.5q93 193 125 321q-5 3 -13 1q-38 -9 -81 -4q-10 2 -15 0q-11 -5 -19 1q-9 6 -28.5 11.5t-27.5 8.5q33 11 48 11q24 -1 73 -1q61 0 92 1q16 0 32 3zM494 396h-6t-8 -1t-4 -4q-13 -22 -22 -63q8 9 14.5 20t14 26 t11.5 22zM118 377q2 -10 11 -7q1 1 2 3t0 3q-7 6 -13 1zM112 99l-4 1q-3 -7 -22 -56q6 -4 8 -2q16 39 18 57z" glyph-name="z_z.liga" horiz-adv-x="657" unicode="zz"/><glyph d="M0 0v700h500v-700h-500zM250 395l170 255h-340zM280 350l170 -255v510zM80 50h340l-170 255zM50 605v-510l170 255z" glyph-name=".notdef" horiz-adv-x="500"/><glyph glyph-name=".null" horiz-adv-x="0"/><glyph glyph-name="nonmarkingreturn" horiz-adv-x="333"/><glyph glyph-name="space" horiz-adv-x="210" unicode=" "/><glyph d="M-1 720q34 -6 44 -34q19 -62 17 -106q-4 -60 4 -113q1 -7 4.5 -34.5t6.5 -41.5v-21q-1 -39 6 -78q5 -22 1 -82q0 -23 -6 -34q-2 -8 -9 -6q-2 1 -3 -1t-2 -5t-3 -5q-5 -6 -11 10q-2 5 -2 8q0 2 -1.5 4t-2.5 1q-8 -5 -11 6q-4 11 -13 22q-11 14 -15 47v8q-4 31 -15 43 q-4 5 -6 11t-2.5 11.5t-0.5 11.5v12q-3 16 -10 51t-10 53q-1 7 -2.5 19t-3.5 22t-6 18q-3 5 -5 19l-9 53q-2 9 -3.5 32t-4.5 36q-2 8 7.5 17.5t10.5 15.5q1 5 4.5 7t7 0.5t4.5 -5.5q7 -22 14 -21q8 0 -1 31q-4 14 3.5 17t23.5 1zM67 91q5 4 14 -1q18 -9 43 -34q5 -5 4 -8 q-2 -8 3 -20q4 -12 -8 -18q-6 -2 -15.5 -8.5t-18 -9.5t-17.5 0q-4 0 -10.5 -1t-10.5 -1t-8 3t-5.5 7.5t-2.5 10t-2 8.5l-2.5 5t-2.5 5.5t-1 4.5q-8 19 5 30q18 18 35 27z" glyph-name="exclam" horiz-adv-x="200" unicode="!"/><glyph d="M-47 714q7 -3 20 -4t15 -1q29 -4 34 -36q2 -14 2 -20t-2 -19t-2 -19l-1 -67v-6q6 -21 -7 -36q-7 -9 -13 0q-2 3 -10 8q-39 34 -44 80q-5 28 -14 63q-1 3 -5 9t-4 11q0 14 7 17q4 2 5 8.5t2 7.5q6 7 7 7.5t10 -3.5zM114 713q12 -2 15 -7q7 -6 15 -7q12 -2 19.5 -9.5 t6.5 -19.5q0 -7 -2 -29t-2 -34q2 -37 0 -56q0 -12 -8 -18q-6 -6 -6 -14q2 -6 -4 -18q-5 -8 -15 -2q-6 3 -10.5 7t-8 9t-5.5 8.5t-4.5 9.5t-3.5 9t-3 10t-2 9q-3 19 -21 95q-1 4 -2 10t-2 11l-2 10q-1 4 3 7.5t4 6.5t1.5 4.5t3 1l4.5 -1.5t4 -1q11 -4 11 6q0 7 7 3h7z" glyph-name="quotedbl" horiz-adv-x="318" unicode="&quot;"/><glyph d="M94 719q24 -3 32 -29l1 -2q1 -3 2 -5q2 3 0.5 9.5t0.5 8.5q32 -12 29 -45q-1 -12 -1.5 -34t-1.5 -40t-3 -34q-2 -18 1 -29q9 -1 19 0q9 1 83 1q11 1 10 10q-1 8 1.5 21.5t2.5 16.5q1 14 1.5 39.5t2.5 45.5t8 37q6 -12 10 -47q4 0 4 5q6 63 6 64q-1 6 3 7.5t9 -2.5 q16 -11 22 -14q6 -4 10 -19q3 -13 3 -77l2 -35q0 -7 -2 -24t-1 -27q7 1 21 -1t20 -1q4 0 20 -2q3 -1 4 -5t3 -6q1 -1 -5 -4q-13 -5 -10 -18q0 -5 -4 -6q-3 -1 -12.5 -4t-15.5 -4q-19 -6 -21 -6q-4 0 -4 -8q1 -4 -2 -31q-6 -44 -7 -68q-3 -41 -2 -52q2 1 30 4q11 0 25 -6 q4 -1 6 -9q-2 -7 -5 -9q-2 0 -10 -2q3 -2 14 -2q16 -1 11 -15q0 -1 -1 -2.5t0 -3.5q4 -5 0.5 -7.5t-4.5 -2.5h-7q-9 0 -12 -5q-2 -3 -10 -3q-10 2 -38 -3q-4 -1 -4 -4q1 -10 -1.5 -28.5t-2.5 -26.5q1 -24 -2 -53q-2 -6 -1 -26t1 -26q0 -16 -6 -46q-2 -8 -6.5 -22t-5.5 -16 q-2 -4 -19 -24q-1 1 -1.5 3t-2.5 3q-5 -5 -7.5 -6t-4.5 1.5t-6 9.5q-2 3 -14 15q-4 -11 -5 -14q-4 -6 -8 -5q-6 1 -3 9q3 15 4 18q-12 0 -14 15q-3 23 -3 29.5t2.5 29t2.5 28.5q10 78 10 90q0 4 2 17.5t-1 17.5q-37 -9 -64 -8q-7 0 -21 -2t-18 -2q-9 0 -6 -10q2 -10 -2 -35 q-1 -5 -1 -34q0 -50 1 -60q2 -36 2 -54q0 -32 -19 -52q-4 -3 -9 2q-7 10 -8 21q-10 -4 -12 -3t-6 11q-2 4 -6.5 11.5t-7 13.5t-3.5 12q-4 34 -3 50l3 48q0 24 4 70q-9 3 -18 -1q-8 -3 -39 -3q-8 0 -16.5 8t-9.5 16q-2 14 11 14q11 1 11 12q1 5 7 11q-1 1 -3.5 2t-3.5 2.5 t0 3.5q0 4 8 4q1 0 5 1t6 0t4 -0.5t0 5.5q-1 1 0.5 1.5t4.5 0.5q20 0 30 -2q6 0 6 5q1 13 4 37.5t4.5 44.5t0.5 38q0 20 1 29q1 6 -5 6q-20 1 -41 -5q-9 -2 -24 7q-5 5 -1 9q6 5 2 13q-13 20 -1 34q1 1 -1 9q24 4 39 2q5 0 14 1t14 1q4 -1 5.5 1.5t1.5 6.5q3 53 9 105 q1 11 1.5 33t1.5 33q0 3 -0.5 7.5t-0.5 8.5t1 7q1 5 6 4zM254 398l4 66q-8 2 -15 -1q-6 -3 -19.5 -6.5t-17.5 -4.5q-18 -6 -56 -8q-5 0 -7 -7q2 -23 -1 -33q-3 -20 -7 -60q-1 -6 -1 -17t-1 -20.5t-4 -17.5q-2 -3 0 -4.5t5 -0.5t7 2.5t6 1.5q53 8 85 11q6 0 10 2.5t3 9.5 q-1 3 0 8.5t1 7.5q6 44 8 71zM230 282q-7 0 -22 -4t-24 -4q-36 0 -46 -3q20 -2 54.5 1t39.5 3q9 0 8 5q-2 5 -7 3q-2 -1 -3 -1z" glyph-name="numbersign" horiz-adv-x="543" unicode="#"/><glyph d="M34 734q4 1 12 -7q1 -2 5 -5t5 -5q14 -18 10 -31q0 -16 4 -22q8 -6 14 -8l10 -3q31 -4 75 -39q20 -16 17 -42v-17q-23 8 -34 22q-4 6 -14.5 14.5t-13.5 12.5q-4 4 -9 4q-13 -4 -39 8q-1 -8 0.5 -21.5t1.5 -17.5q3 -69 3 -70q0 -3 4 -28.5t5 -39.5q0 -14 13 -22 q16 -10 73 -55q5 -4 15 -11.5t13 -9.5q61 -48 74 -111q2 -12 2 -42t2 -41q3 -6 1 -17t-2.5 -13.5t-5 -13t-6.5 -15.5q-8 -19 -33 -31l-4 -3q-4 -3 -5 -3q-7 4 -7.5 2.5t-2 -7t-5.5 -7.5q-31 -11 -46 -10q-10 1 -15 -4t-3 -16q0 -14 3 -35q-4 2 -11.5 0t-11.5 1 q-16 11 -15 29q0 12 -2.5 14.5t-14.5 4.5q-29 7 -59 33q-5 5 -33 28q-9 7 -31 41q-1 2 1 13t3 13q13 8 26 -7q6 -6 19.5 -17.5t20.5 -18.5q20 -24 54 -26q0 66 -2 80q-2 10 -8.5 30.5t-8.5 30.5q-9 38 -16 89q-3 15 -14 20q-39 18 -86 72q-6 8 -16 25t-16 25q-14 21 -7 30 q2 -1 8.5 -8.5t12 -12.5t9.5 -5q1 6 -7 17q-43 69 -30 118q11 42 73 61q6 2 13 4.5t16.5 6t15.5 5.5q-6 17 -8 50q-2 11 8 14zM43 593q-13 -3 -19.5 -11t-8 -14.5t-2 -17.5t-0.5 -13q-1 -11 3 -23t11.5 -26.5t10.5 -21.5q6 -19 21 -19q-4 20 -8.5 74t-7.5 72zM117 325 q23 -23 38 -30q-17 24 -38 30zM105 291l-1 -4q18 -106 25 -159q1 -4 2 -18t3 -21q1 -5 3 -7.5t6 -1.5q23 4 29 15q15 27 10 53q-15 63 -24 91q-5 13 -14.5 23t-16.5 15t-22 14z" glyph-name="dollar" horiz-adv-x="358" unicode="$"/><glyph d="M253 705q15 -13 17 -36q1 -15 -8 -50q-1 -5 -6.5 -34.5t-10.5 -44.5q-1 -4 -1.5 -11.5t-1.5 -10.5q-1 -7 -23 -81q-6 -36 -10 -53q-1 -8 -5.5 -26.5t-5.5 -28.5q-4 -25 -22 -93q-4 -18 -9.5 -60t-11.5 -63q-4 -14 -8 -45.5t-9 -47.5q-8 -14 -12 -16q-7 -4 -14 -4 q-8 1 -8 12q-4 13 -3 26q2 12 5.5 35.5t5.5 37.5t6.5 34t10.5 36q1 3 4 34q7 75 26 153q43 186 49 207q4 14 31 115q3 12 14 15zM32 691l25 -6q44 -11 58 -58q2 -7 5.5 -18t6 -20.5t3.5 -17.5q12 -72 0 -127q-5 -28 -34 -47q-8 -5 -12.5 -5t-17.5 3q-2 -3 1.5 -6t2.5 -6 q-32 0 -43 11q-6 5 -21 13.5t-22 15.5q-22 24 -27 39q-30 89 -16 161q4 19 14 39q8 17 30.5 26t46.5 3zM38 662q-14 11 -19 -2q-8 -26 -6 -41q9 -104 9 -106q5 -27 1 -43q0 -5 1 -8q5 -6 10 -18.5t9 -17.5q12 -21 27 -6q16 14 14 40q-2 13 -4 45t-5 49q-2 20 -4 32 q-1 4 -3 13.5t-3 14t-3.5 12.5t-5.5 13t-7.5 11.5t-10.5 11.5zM298 332q14 5 26 -6q13 -11 22 -14q21 -8 31 -27q43 -73 37 -144q-1 -7 0 -35.5t-3 -35.5q-18 -74 -89 -61q-19 4 -24 11q-1 2 -7 3t-9 4q-20 17 -31 41q-18 29 -21 67q-9 86 11 146q14 38 57 51zM315 286 q-2 -2 -6.5 -6t-7 -7.5t-3.5 -7.5q-9 -42 -10 -55q-1 -19 17 -112q0 -1 3 -10l15 -21q9 1 11 -3t3 -14q16 7 24.5 23.5t4.5 31.5l-2 15q-1 8 -2 32t-3 37q-4 29 -37 92q-2 5 -7 5zM268 221q-5 -5 -6.5 -9.5t-0.5 -12.5t1 -9q0 -2 -1 -9t-0.5 -12.5t4.5 -11.5q3 13 3 64z M359 39l-9 -6q2 -2 7 0t2 6z" glyph-name="percent" horiz-adv-x="500" unicode="%"/><glyph d="M136 702q18 -7 18 -21q0 -3 4 -10.5t2 -11.5q-2 -2 -8 -2q-18 1 -30 -13q-9 -14 -6 -31q1 -10 -6 -31q-12 -29 12 -74q8 -16 34 -39q15 25 16 28q6 19 25 47q15 23 19 46q6 39 -29 70q-3 3 -8.5 7.5t-8.5 7t-6 7.5t-4 11q7 3 21 -9q9 9 22 2q50 -27 65 -62q9 -23 6 -50 q-4 -44 -9 -65q-4 -17 -17 -31q-7 -9 -19 -33t-25 -39q-4 -6 2 -12q38 -55 51 -69q15 -17 20 -27q18 -30 40 -53q2 2 4.5 7t4.5 11.5t3 8.5q1 5 18 42q3 9 8.5 9t10.5 -10q8 14 18 19q2 -2 2.5 -4.5t-0.5 -5t-1 -4.5q-3 -19 -20 -62q-3 -7 -7.5 -24.5t-7.5 -24.5 q-2 -2 -0.5 -4.5t3 -4t4 -3.5t3.5 -3q12 -11 34.5 -29.5t29.5 -24.5q29 -22 58 -60q4 -4 12.5 -11t12.5 -12q1 -1 3.5 -3t4 -3.5t2.5 -3.5q-1 -3 -6.5 -3t-6.5 -5v-15q2 -5 -1 -7t-9 1l-8 5l-9 5q6 -14 -3 -29q-43 1 -80 28q-4 3 -12 8t-14 9.5t-10 10.5q-5 5 -7 6 q-7 1 -12.5 4.5t-12 11t-8.5 9.5l-4.5 4.5t-6.5 4.5q-1 -3 -6 -11t-6 -13q-6 -23 -23 -39q-35 -29 -64 -36q-33 -8 -85 8q-3 1 -8.5 3t-9 2.5t-9 0.5t-10.5 -2q-6 -4 -19 7q-37 30 -48 41q-22 21 -27 57q-8 62 -7 71q0 43 23 78q5 8 13.5 23.5t16 27.5t16.5 21q6 5 22 26 q2 2 4.5 7.5t4.5 7.5q-8 6 -12 11.5t-8 13t-8 12.5q-10 14 -23.5 30.5t-21.5 28t-14 23.5q-7 15 -9 32q-6 51 5 84q25 78 86 84q12 2 22 8q18 9 34 2zM116 308l-13 -17q-5 -5 -9 -39.5t0 -39.5q0 6 11 49t11 47zM144 301q-9 -12 -12 -25.5t-3 -34.5t-1 -27v-2l7 -46 q2 -23 14 -65q2 -8 11.5 -18t15.5 -9q9 2 30 -10q15 -12 28 -1q17 14 31 47q6 14 5 19t-13 16q-6 5 -33 45q-9 14 -29.5 43t-30.5 45q-8 12 -20 23zM199 47q7 -7 9.5 -8t11.5 4q-15 7 -21 4z" glyph-name="ampersand" horiz-adv-x="588" unicode="&amp;"/><glyph d="M-34 713q12 -2 15 -7q7 -6 15 -7q12 -2 19.5 -9.5t6.5 -19.5q0 -7 -2 -29t-2 -34q2 -37 0 -56q0 -12 -8 -18q-6 -6 -6 -14q2 -6 -4 -18q-5 -8 -15 -2q-6 3 -10.5 7t-8 9t-5.5 8.5t-4.5 9.5t-3.5 9t-3 10t-2 9q-3 19 -21 95q-1 4 -2 10t-2 11l-2 10q-1 4 3 7.5t4 6.5 t1.5 4.5t3 1l4.5 -1.5t4 -1q11 -4 11 6q0 7 7 3h7z" glyph-name="quotesingle" horiz-adv-x="170" unicode="'"/><glyph d="M94 732q2 1 13 -6q6 -8 1 -15q-6 -4 -15 -28q-13 -28 -12 -57v-3q-5 -6 -7 -14t-2.5 -20t-0.5 -16q-4 -44 1 -59q1 -2 0.5 -8t-0.5 -9q0 -5 3.5 -17t3.5 -19q1 -6 1.5 -18t1.5 -18v-3l1 -3q-6 -4 -3 -19t2 -19q-1 -7 1 -20.5t2 -19.5q0 -12 2 -34t2 -29q-1 -16 11 -38 q5 -10 0 -47q-1 -4 0 -7.5t3 -7.5l3 -6q9 -30 10 -39q0 -7 3.5 -20t4.5 -17q6 -28 7 -43q3 -34 26 -60q20 -24 31 -34q3 -3 6 -9l4 -8v-5q-6 -6 -2 -13q2 -4 -1 -7.5t-7 -3.5q-17 2 -23 7q-32 26 -45 39l-15.5 15.5t-17 17.5t-13.5 16t-13.5 19.5t-8.5 19.5q0 3 -2 5 q-13 9 -28 43q-2 4 -6 9.5t-5 8.5q-18 40 -25 73v4t-1 4q-5 15 -8 42t-5 35q-12 65 -10 135q0 70 7 97q2 8 8 34t11 40q15 39 24 51l9 24q5 15 10 16q-2 4 2.5 7.5t4.5 6.5q3 16 20 19q4 0 4 4q2 3 8 9.5t8 11.5q0 2 3 2.5t7 1.5t6 2z" glyph-name="parenleft" horiz-adv-x="264" unicode="("/><glyph d="M-51 739q5 -2 34 -26q9 -7 17.5 -16t18 -21.5t14.5 -17.5q11 -12 28 -48q3 -6 9 -17t9 -16q15 -30 25 -60q1 -3 5.5 -14t5.5 -17q12 -40 17 -73q1 -7 2 -29t4 -33q2 -11 6 -32.5t7 -32.5q7 -40 5 -55q-5 -30 -5 -35v-9v-11v-9q-1 -4 -0.5 -8t0 -8.5t-2.5 -7.5 q-5 -9 -4 -17q2 -14 -3 -67q-2 -16 -14 -48q-4 -9 -6 -28q-4 -28 -17 -43q0 -1 -1.5 -4.5t-3.5 -4.5q-4 -2 -8 0q-2 1 -1 3l2 2q0 8 2 11q2 1 -2 5q-4 1 -6 -2q-1 -6 -4 -11.5t-7.5 -12t-6.5 -10.5q-3 -9 -19 -17q-10 -4 -12 7q-7 28 2 44q13 26 16 58q2 18 3 52.5t2 45.5 q2 20 1 32q-7 26 -9 51q-2 12 -6 35.5t-5 35.5q-1 10 -5 31t-5 32q-2 19 -4 53q-1 10 -4.5 30t-4.5 28t-11 62q-4 25 -18 73q-4 24 -8 35q-18 40 -28 61q0 4 -4 3q-5 -2 -5 3q-11 17 -23 38q-4 7 -6 24q-1 4 1.5 4.5t7.5 -1.5q8 -5 12 2q4 5 13 1zM94 496q0 -17 4 -24 q9 -17 13 -43q2 -12 6 -15q-5 50 -23 82zM127 293q-8 -15 1 -34q0 30 -1 34z" glyph-name="parenright" horiz-adv-x="252" unicode=")"/><glyph d="M5 713q9 2 12 -5q10 -10 14 -22q11 -40 12 -44q0 -10 5 -15q4 3 16.5 15t23 18.5t22.5 6.5q4 -2 2 -5l-1 -4q7 -16 3.5 -23t-14.5 -17.5t-13 -16.5q0 -2 -6 -6q-9 -11 3 -19l35 -23q12 -7 25 -20q11 -12 -5 -14q-5 -1 -6 -7q-2 -19 -20 -14q-7 2 -28 16q-1 1 -6.5 5.5 t-9.5 5.5q-5 -8 2 -28q1 -3 3.5 -11t3.5 -13q2 -11 -5 -14q-3 -2 -6 1.5t-5 3.5q-3 0 -3 -2q0 -11 -8 -11q-9 0 -14 12q-9 21 -9 42q0 1 -1 12t0 15l-7 -6q-21 -33 -61 -48q-10 12 -12 41q0 8 8 16q3 3 18.5 18t23.5 23q-32 29 -34 30q-14 7 -18 20q-1 4 -4 8t-8.5 9t-7.5 8 q7 7 19 1q25 -9 63 -31l-4 58q0 3 -2 10.5t-2 12.5q-1 7 6 11z" glyph-name="asterisk" horiz-adv-x="277" unicode="*"/><glyph d="M123 438q3 -2 19 -2t30 -17q0 -1 0.5 -1t0.5 -1q-2 -9 3 -24.5t5 -20.5q0 -7 2 -15t5.5 -17.5t4.5 -14.5q1 -3 3 -10t2 -11q1 -10 13 -10q6 0 17 -1t20 -1.5t17 -0.5q8 -1 28 3q12 1 28 -4q8 -4 4 -11q-1 -1 -4.5 -4t-5.5 -5q3 -1 8.5 -1t6.5 -2q15 -9 -3 -16 q-2 -1 -4 -7q0 -12 -15 -12h-23q-10 0 -9 -6q0 -1 -5 -1q-9 1 -25.5 1h-25.5q-7 0 -7 -3q1 -1 1 -2q1 -5 1.5 -17t2.5 -18q4 -11 11 -44q1 -6 1 -57v-9.5t-1 -9.5l-3 -6q-5 0 -7 6q-5 9 -12 6q-4 0 -3 -4.5t0 -5.5q-4 2 -5.5 0.5t-1.5 -3t1 -4.5l2 -6q2 -6 4 -9 q-20 9 -33 -11q-25 28 -31 53q-5 17 -7 78l-3 39l-1 7q1 11 -2 13.5t-13 0.5q-7 -1 -23.5 -0.5t-23.5 -1.5q-5 -1 -13 2t-12 3q-8 -2 -23 1t-19 3q-7 1 -14 8l-6 6q-12 10 -2 20q1 0 5.5 2t4 3.5t-1.5 7.5q2 2 6 6.5t7.5 7t8.5 2.5q8 0 22 2l70 3q1 0 5 -0.5t6 -0.5 q-2 7 -10 46q-5 32 -5 58q0 6 5 7q3 0 4 -4t3 -4q3 9 -3 20q-6 10 -1 15q9 12 19 6z" glyph-name="plus" horiz-adv-x="432" unicode="+"/><glyph d="M64 88q4 0 4 -2q28 -6 37 -42q4 -27 -9 -56q-25 -59 -35 -69q-5 -5 -8 0q-2 5 -5 -1q-1 -5 -9 -2q-11 8 -9 17q1 2 -1 9q-3 5 -0.5 16t1.5 19q0 2 1 4t2.5 4.5t2.5 4.5q4 4 2 6q-1 1 -2 -1t-2 -2q-5 4 -13 14.5t-13 14.5q-7 7 -7 18q0 13 5 18q2 2 5 9t6 10q10 11 24 4h5 q5 13 18 7z" glyph-name="comma" horiz-adv-x="175" unicode=","/><glyph d="M61 285q22 -2 63 -3.5t59 -2.5q10 -2 12 -4.5t-2 -11.5q-1 -3 1 -10t0 -10q-9 -6 -22 -6q-64 1 -129 -3q-3 0 -15 -2t-19 -2q-19 0 -33 21q-8 13 4 18q50 19 81 16z" glyph-name="hyphen" horiz-adv-x="294" unicode="-"/><glyph d="M43 99q4 5 16 0t14 -12q7 -21 26 -21q7 0 7 -10q-1 -6 -1 -17v-18q0 -12 -8.5 -19.5t-20.5 -6.5q-8 1 -20 -2t-18 -1h-5t-6 2q-2 3 -7.5 9.5t-8.5 10t-6 9.5t-4 12q-3 25 15 42q3 2 13 9.5t14 12.5z" glyph-name="period" horiz-adv-x="178" unicode="."/><glyph d="M164 732q11 5 20 -0.5t8 -18.5q0 -4 4 -1.5t7.5 0.5t1.5 -12q0 -8 -1 -12q-9 -35 -10 -60q-2 -28 -22 -106q-21 -89 -23 -101q-1 -8 -5.5 -23t-5.5 -22q-2 -16 -7.5 -49t-8.5 -49l-18 -114q-4 -20 -9.5 -66t-10.5 -70q-1 -3 -2.5 -8t-2.5 -8q-10 -24 -11 -47 q-1 -17 -19 -57q-6 6 -15.5 17.5t-15.5 16.5q-9 7 -7 29q5 41 13 69q6 23 15 92q0 6 1 9q8 31 16.5 90t13.5 82q6 29 26 113q4 14 6 41.5t3 36.5q2 22 15 72t16 64q4 16 14.5 46.5t13.5 45.5z" glyph-name="slash" horiz-adv-x="358" unicode="/"/><glyph d="M110 716q1 1 18 -4q35 -15 49 -24q12 -9 24 -11q23 -3 37 -29q25 -42 39 -83q8 -22 12 -62.5t9 -58.5q4 -15 17 -97q2 -13 3 -40.5t4 -42.5q1 -3 1 -8q-2 -9 -2.5 -18.5t1 -20.5t2.5 -18t3 -20.5t3 -18.5q2 -9 -8 -36q-3 -9 -8.5 -29.5t-9.5 -31.5q-6 -20 -29 -39 q-7 -7 -8 -9q-10 -25 -40 -25h-5q-21 -14 -60 10q1 5 12 5h12q-9 13 -13 14t-18 -5q-17 -8 -42 -0.5t-43 25.5q-7 7 -20 22.5t-20 22.5q-10 9 -21 40q-11 28 -19 86q-2 15 -13 59q-12 44 -16.5 127t-7.5 103q-2 18 3.5 51.5t5.5 40.5q2 6 4 6h6t3 2t1 3.5t-0.5 4.5t-0.5 4 q2 46 27 74q5 6 14 3q8 -4 15 1q40 23 83 16q1 3 -2 6t-2 5zM77 673q-4 -1 -9 -4.5t-7 -4.5q-8 -4 0 -14q1 -2 2 -3q1 5 7 13t7 13zM89 664q-4 -3 -10.5 -11t-10.5 -11q-8 -8 -5 -15q3 -8 8 -45q2 -15 1 -48.5t3 -48.5q4 0 2 -31l-2 -32q0 -14 2.5 -30t6.5 -35.5t6 -29.5 q1 -6 2 -33t7 -42v-5q0 -10 3 -27.5t4 -22.5q1 -12 5.5 -33.5t5.5 -27.5q4 -23 17 -47q15 -27 33 -36q41 -19 53 11q8 24 7 29q-3 0 -8 -4t-10 -5q-2 8 6 21q13 28 12 47q0 24 -7 56q-4 26 -6 80.5t-7 82.5q-17 104 -20 131q-7 74 -28 125q-7 16 -22 33q-9 10 -23.5 11 t-24.5 -7z" glyph-name="zero" horiz-adv-x="423" unicode="0"/><glyph d="M74 702q8 -6 9 -12q4 -10 3 -16q0 -15 6.5 -42.5t7.5 -33.5q4 -20 18 -76.5t17 -87.5q4 -36 16 -82q1 -6 2.5 -18.5t2.5 -18.5l12 -88q5 -31 7 -67q5 -62 9 -78q4 -10 6 -45q2 -6 -4 -10l-18 -6q-2 -2 -0.5 -11t1.5 -11q0 -13 -13 -8q-20 10 -41 6q-10 -2 -20 6t-15 22 q-15 44 -20 111q-2 36 -5 52q-17 82 -21 144q-1 8 -3.5 22t-3.5 19q-3 39 -15 112l-9 62q-3 11 -5 13q-12 -4 -29 -15q-14 -11 -40 -7q-17 3 -14 19q0 1 1 4t1 5q0 9 3.5 13t13.5 3q16 -2 31 17q28 30 36 61q9 44 54 36q6 -1 8 2l2 2q4 5 9 2z" glyph-name="one" horiz-adv-x="281" unicode="1"/><glyph d="M122 698q14 -4 16 -8q3 -5 27 -19q1 5 -7 10q-6 8 -6 10l1 1h1q9 5 14 1q4 -5 18 -8.5t18 -13.5q12 -28 16 -48q1 -6 3.5 -18t4.5 -21.5t4 -17.5q7 -44 -4 -87q-6 -24 -14 -72q-8 -36 -18 -72q-29 -86 -54 -119q-5 -8 -6 -15q0 -30 -17 -62q-14 -31 -33 -87q0 -3 -1 -7 q5 0 21.5 -3t25.5 -2q28 2 53 -4q11 -2 31.5 1t23.5 3q23 2 38 -5q4 -2 23 -2q1 0 6 1.5t6 -0.5q13 -5 14 -9q1 -3 -0.5 -4.5t-4 -3t-3.5 -2.5q-6 -6 -13 -8t-19.5 -1.5t-15.5 0.5q-11 0 -30.5 0.5t-36 0t-30.5 -3.5q-33 -5 -58 1q-27 5 -48 -1q-53 -9 -70 -6q-5 0 -7 1 q-5 1 -7 9q0 5 4 6q2 1 6 2.5t6 2.5q10 7 1 12q-17 14 -15 43q7 55 26 91q15 28 43 106q9 25 23 56q29 75 39 144q8 57 -18 148q-4 14 -9 17.5t-20 2.5q-4 0 -11 0.5t-11 0.5q-53 -7 -84 -46q-7 -8 -16 -7q-11 2 -15 10t3 15l24 29q-8 -1 -15 -9.5t-11 -10.5q0 31 37 46 q8 3 22 11q55 39 129 21zM174 664q3 -7 10 -22t10 -23q-1 4 -2 12t-2 12.5t-5 10.5t-11 10zM-17 658q-12 -4 -18 -14q9 4 18 14zM111 627q0 -8 5 -20q16 -25 18 -53q1 -12 11 -24q4 41 -11 87q-3 11 -23 10z" glyph-name="two" horiz-adv-x="375" unicode="2"/><glyph d="M44 708q51 4 75 -5q5 5 12 3.5t10.5 -3.5t10 -6.5t10.5 -6.5q27 -14 41 -50q1 -1 2 -5.5t3 -6.5q29 -60 24 -133q0 -45 -12 -85q-2 -7 -3 -9t-4 -7t-6.5 -7t-9.5 -2q-5 -1 -17 -13q2 -4 5.5 -7t8 -5t6.5 -4q47 -29 67 -80q16 -42 21 -93q1 -20 1 -59q-2 -72 -36 -111 q-5 -6 -19 -10q-4 0 -6 1t-3 3.5t-2 3.5q-3 0 -5 -2q-21 -30 -58 -15q-6 2 -17 0q-84 -9 -147 51q-3 5 -8 8q-10 10 -11.5 13.5t2.5 17.5q5 17 19 5q4 -3 8.5 -6.5t10 -8t8.5 -6.5q19 -17 61 -34q24 -10 54 6q46 26 48 92q5 77 -17 135q-15 42 -48 61q-3 1 -6 3t-7 4.5 t-6 3.5q-9 5 -16 4q-2 -4 -23.5 -1.5t-23.5 2.5q-8 0 -9 2t2 10q-2 2 -7 3.5t-7 2.5q-9 5 -8 12q3 10 9 8q5 -2 14 -0.5t12.5 3t12 5t12.5 4.5q30 11 37 39q1 5 5 14.5t5 13.5q9 24 7 67q-1 23 -11 48.5t-17 38.5t-26 43q-4 6 -9 7q-2 0 -13.5 2.5t-16 2.5t-12.5 -1t-14 -5 q-4 -2 -15 -8t-17.5 -11.5t-9.5 -14.5q-10 -4 -15.5 -18.5t-6.5 -16.5q-4 2 -11.5 11.5t-15.5 10.5q15 28 32 45q16 18 22 23q24 17 74 23zM163 319q20 -35 44 -133q-4 38 -8 58q-2 11 -16 51q-3 16 -20 24z" glyph-name="three" horiz-adv-x="375" unicode="3"/><glyph d="M128 701q1 0 16 -3q15 -2 19.5 -3t9.5 -6t7 -16q21 -96 22 -111q5 -58 19 -139q2 -15 5 -50.5t6 -53.5l3 -14q3 -12 13 -6q19 8 34 -10q5 -8 -2 -11t-14.5 -12.5t-12.5 -12.5t-3 -14q19 -93 22 -105l12 -56q5 -19 -1 -33q-1 -2 -1 -6.5v-7.5q2 -12 -4 -19q-5 1 -11 7 t-8 7q-4 -13 -7 -27q-1 -3 -2 -5.5t-3 -4t-4 -2.5l-5 -2.5t-6 -3.5q-15 -10 -28 7l-17 23q-8 10 -11 27q-15 94 -20 131q-1 11 -2 34.5t-3 36.5q-6 4 -14 4.5t-17.5 -1t-13.5 -1.5q-10 0 -46.5 0.5t-54.5 1.5q-18 2 -31 -4q-10 -4 -14 -5q-7 -1 -12 4q-7 6 -1 12 q7 4 9.5 25.5t-0.5 29.5q-3 17 1 38l10 89q1 10 -1 40.5t2 39.5q4 20 8 58q0 6 -0.5 13t-1.5 16t-1 14q-1 3 4.5 5.5t9.5 2.5q2 0 7 -5t7.5 -10.5t4.5 -16t2 -11.5q10 -47 1 -111q-2 -11 -3 -34t-3 -34q-1 -2 1 -7q5 -11 6.5 -21.5t0.5 -29t-1 -20.5q3 -10 1 -12 q-3 -5 -2 -10t5 -5h35h48h35q6 0 9 2q-2 9 -3.5 25t-3.5 25q-10 43 -16 90.5t-11.5 108t-9.5 91.5l-1 6q-2 12 -1 16t9 13q6 6 6 13q-1 10 3 14t15 2z" glyph-name="four" horiz-adv-x="369" unicode="4"/><glyph d="M277 288q5 -27 8 -56t5.5 -67.5t3.5 -55.5q0 -2 -0.5 -8t-1.5 -9q-9 -16 -9 -46q-1 -20 -24 -30l-37 -18q-7 -4 -27 -6q-6 0 -17.5 -3.5t-17.5 -4.5q-24 -3 -38.5 -1t-37.5 13q-28 14 -64 38q-6 4 -11 9.5t-10.5 15t-7.5 12.5q-2 4 -2 7q2 11 10 7q2 -1 6 -4l4 -3 q1 -1 4.5 -3.5t4.5 -2t5 3.5q0 1 8 -3q7 -5 28 -26q42 -40 78 -20q4 3 6 10q14 20 21 27q11 8 15 29q8 57 -11 153q-8 34 -7 52q2 28 -9 49q-19 39 -53 50q-12 4 -26 -4q-8 -5 -12.5 -9t-9.5 -11.5l-7 -10.5l-5.5 -5.5t-5.5 -5t-4.5 -5t-4 -6t-2 -6.5t-0.5 -8q2 -9 -4 -15 q-26 11 -37 4q-4 -4 -12 9q-8 16 -8 25t-2 36t-2 42q-1 19 -5 56t-5 46q-4 41 -5 65q0 4 -12 54q0 9 -12 18q-2 1 -5.5 3.5t-5.5 3.5q3 7 15 11q7 2 8 5q2 6 12 6q23 1 56 2.5t55 1.5q6 1 36 -2q12 -1 17.5 -0.5t16.5 2t17 1.5q22 1 60 -9q11 -4 10 -12q-1 -9 8 -15 q8 -7 5 -18q-7 -10 8 -16q-59 -19 -75 -20q-42 -3 -96 -1q-26 -8 -92 0q-2 1 -7 -1q-1 -3 7 -8q7 -3 4 -7q-7 -11 6 -12h4q14 -2 16 -6q1 -3 2 -9q30 -142 30 -145q1 -8 7 -18q7 6 13 14t11.5 12t15.5 7q15 5 27 5q11 -2 12 5q0 6 5 3q5 -2 34 -2q49 -3 78 -38 q35 -41 36 -74q0 -7 8 -47zM178 295q-5 -18 2 -51.5t7 -38.5q0 7 -1 27.5t-2.5 34.5t-5.5 28z" glyph-name="five" horiz-adv-x="379" unicode="5"/><glyph d="M130 703q36 -6 76 -23q13 -6 14 -19q1 -7 -3 -11t-12 -2q-9 2 -25 11q-20 11 -43 16q-7 1 -13 -3q-6 -7 -17.5 -18.5t-17.5 -18.5q-25 -30 -27 -74q0 -92 -2 -117q0 -9 2 -30.5t1 -32.5q41 37 57 46q27 17 57 3q11 -4 18 -2q18 5 28 1t20 -21q5 -9 17 -27.5t19.5 -34 t11.5 -31.5q23 -92 16 -141q-1 -6 -1 -37q2 -51 -6 -80q-2 -9 -4.5 -11.5t-14.5 -8.5l-2 -2q-2 -5 -5.5 -9t-8.5 -8t-8 -5.5t-10.5 -5t-9.5 -4.5q-1 0 -2 -1q-3 0 -4.5 -6.5t-5.5 -4.5q-5 3 -18 -2q-4 -1 -10 -0.5t-9 0.5q-19 -6 -45 9q-3 2 -17 16q-6 4 -8 2q-5 -5 -1 -8 q5 -5 2 -9q-7 -5 -12 -2q-42 24 -56 40q-8 10 -23 31.5t-22 30.5q-9 11 -20 52q-14 62 -14 93q1 33 -8 84q-9 34 -5 82q2 18 4.5 65t5.5 73q4 45 37 94q0 1 2 4t3 3.5t3.5 3t4.5 2t6 -0.5q4 -1 4 4q1 1 1 2q10 22 16 29q8 8 15 2q8 -7 16 1q16 16 53 11zM101 681 q-10 0 -17 -8q13 0 17 8zM142 401q-18 -7 -21 -10q-23 -18 -40 -35q-15 -15 -16 -24q0 -7 0.5 -21t0.5 -21q1 -5 4.5 -32t4.5 -41q1 -7 4 -38.5t7 -47.5q10 -43 38 -70q16 -16 15 -19q0 -4 1 -6.5t2 -3.5t4.5 -2.5t4.5 -1.5q10 -5 46 -7q-3 4 -13 4q-2 1 -6 1h-7 q-4 1 -6 4.5t0 6.5q7 6 15 9q17 4 28 29q3 8 3 28q2 46 1 55q-3 18 3 54q1 11 -2 25q-2 7 -8.5 30.5t-9.5 36.5q-13 51 -39 91q-7 8 -14 6z" glyph-name="six" horiz-adv-x="399" unicode="6"/><glyph d="M245 719q13 -28 2 -62q-9 -31 -19 -95q-22 -135 -25 -152q-3 -15 -13 -43q-4 -12 -7 -34.5t-4 -26.5q-10 -63 -18 -133q-9 -56 -11 -73q-3 -15 -7 -52q0 -9 -8 -19q-2 -4 -17 -35q-7 5 -20.5 6t-18.5 3q-13 5 -17 15q-1 3 -5 8.5t-5 8.5q-5 -2 -6 -10t-4 -10 q-28 31 -20 69q3 16 8 45.5t10 53.5t12 44q6 19 20 57q4 8 3 12q6 8 11 38q-12 -17 -11 -38q-9 6 -5 18q3 8 9 30t12 33q5 9 14 47q7 23 16.5 67t13.5 60q9 33 5 45q0 1 0.5 2l1.5 3t1 3q13 31 14 45q-10 3 -14 -2q-5 -8 -25 -12q-12 -4 -87 -11q-6 0 -22 2q-50 3 -66 1h-10 q-10 1 -15.5 1.5t-9.5 5t-5 6.5t-4 12.5t-5 15.5q-10 26 7 26l145 -4q46 -1 134 9l9 3q19 7 23 7t26 -6q2 2 3 8t4 8zM180 652q-13 5 -13 -7q0 -15 -2 -49q9 15 15 56z" glyph-name="seven" horiz-adv-x="383" unicode="7"/><glyph d="M91 710q19 1 40 -11q43 -21 59 -44q2 -4 9.5 -6.5t9.5 -7.5q12 19 17 42q1 1 2 4q3 6 7 5t7 -12q0 -2 -1.5 -12t-1.5 -16q-2 -46 -15 -65q-5 -5 -6.5 -12t-2.5 -17.5t-1 -13.5q-19 -86 -38 -115q-6 -9 -5.5 -12.5t9.5 -11.5q51 -48 56 -52q68 -48 82 -133q7 -49 7 -63 q-3 -29 -6 -35q-1 -3 -1 -21q0 -28 -13 -48q0 -1 -1.5 -4t-0.5 -5q1 -6 -0.5 -11t-5.5 -9t-7 -6t-9 -5.5t-8 -4.5t-40 -16q-24 -4 -37 -2q-6 2 -27 -3q-18 -3 -57 8q-8 3 -13 13q1 2 11 2q6 -2 16 -4q8 0 9 4q0 7 -8 8q-8 2 -13 2q-55 4 -101 53q-34 35 -34 97q0 68 47 133 q7 10 21.5 31.5t23.5 32.5q-2 7 -11 11q-9 5 -24 15t-22 14q-50 27 -74 86q-27 80 7 156q12 28 40 42q18 10 53 1q3 -2 9 -3v8t0.5 5.5t0 3t1 1.5t2.5 0.5t4.5 0.5h6.5q9 0 27 2zM83 674q-12 -2 -17 -2q-36 -4 -30 -41v-17q-1 -18 3 -58q0 -10 9 -24q5 -7 18.5 -23.5 t19.5 -27.5q1 -2 10 -11l30 -21q18 25 35 68q22 60 24 64q7 17 -7 34q-26 33 -53 49q-1 1 -4 3t-5 3t-5 0.5t-6 -3.5q-2 -1 -6 3q-6 8 -16 4zM8 609q-1 -7 -2.5 -21t-3.5 -21q-1 -9 2 -10.5t12 -2.5q-5 45 -8 55zM4 549q2 -20 8 -24q0 15 -8 24zM158 337l-13 14 q3 -12 13 -14zM132 336q-9 9 -16 -1q-4 -6 -13.5 -22.5t-15.5 -24.5q-7 -7 -11 -23q-3 -20 -12 -33q-3 -4 -5 -13q-6 -70 11 -112q10 -25 30 -42q19 -15 48 -20q7 -1 13.5 6t8.5 8q4 0 4 3q14 6 28 24q9 18 15 23q6 7 6 18q0 79 -17 122q-2 9 -16 42q-3 -2 -3.5 -6t-2.5 -5 q-6 5 -16 16.5t-14 15.5q-7 9 -22 24zM41 131q-2 -16 8 -24q-1 10 -8 24z" glyph-name="eight" horiz-adv-x="401" unicode="8"/><glyph d="M65 706q21 -2 35 -8q16 -3 37 -14q5 -3 9 -2t8 1.5t7 0t7.5 -2.5t6.5 -2.5t6.5 -4t5.5 -4.5t6 -5.5t6 -5.5q10 -8 36 -51q30 -45 41 -88q1 -4 5.5 -18.5t5.5 -18t5 -18t4 -18.5t2 -18.5t-1 -18.5q0 -4 0.5 -11.5t0.5 -11.5q8 -59 -7 -111q-14 -65 -20 -81 q-26 -70 -32 -80q-9 -11 -4 -17q3 -5 -5 -10q-11 -8 -22 -27q-26 -35 -50 -49q-2 -1 -9 -8q-21 -19 -55 -21q-8 -1 -33 13q-22 11 -24 11q-4 1 -9 6.5t-8 7.5q3 5 4 5q16 0 59 16q14 5 26 24q11 15 20 30t18.5 37.5t12.5 30.5t14.5 40t11.5 33q14 38 1 88q-13 -4 -14 -17 q0 -16 -12 -23q-7 -5 -17 -19q-7 -11 -15 -11q-9 -1 -23 -5t-18 -5q-18 -4 -39 12q-14 12 -39 29q-43 27 -57 78q-23 73 -25 98q-1 12 -0.5 36t-0.5 37q-3 59 32 118q18 25 21 29q4 4 7 2q13 -5 23 7q15 9 20 7h5q3 7 7 9t12.5 0.5t10.5 -1.5zM104 659q-17 0 -19 -2 q-3 -4 -12 -13t-14.5 -17t-8.5 -17t-14.5 -33.5t-12.5 -40.5q-2 -59 -1 -71q2 -20 11.5 -55.5t10.5 -40.5q6 -26 25 -56q1 -1 1 -2.5v-2.5q-2 -1 -5 0t-4 0q6 -20 20 -19q31 3 55.5 27t30.5 48q4 15 6 32t3 37.5t2 32.5q2 17 -4 51q-7 28 -11 36t-9.5 24t-12 28.5 t-15.5 22.5q-7 6 -11 19q-1 1 -2.5 5t-3 5.5t-5.5 1.5zM124 653l8 -16q1 -1 2 -5t2.5 -6t5.5 -3q-1 18 -4.5 23t-13.5 7z" glyph-name="nine" horiz-adv-x="416" unicode="9"/><glyph d="M33 416q2 -2 12 -10t14.5 -13.5t6.5 -12.5q8 -25 -6 -45q-2 -3 -10.5 -12.5t-11.5 -15.5q-3 -5 -15.5 -2.5t-16.5 9.5q-10 19 -29 16q-3 -1 -5 1.5t-3 7.5q0 5 -1 11t-2.5 13t-2.5 11q-2 12 5 21t18 11q8 0 18.5 5.5t17.5 4.5q1 0 5.5 0.5t5.5 -0.5zM43 99q4 5 16 0 t14 -12q7 -21 26 -21q7 0 7 -10q-1 -6 -1 -17v-18q0 -12 -8.5 -19.5t-20.5 -6.5q-8 1 -20 -2t-18 -1h-5t-6 2q-2 3 -7.5 9.5t-8.5 10t-6 9.5t-4 12q-3 25 15 42q3 2 13 9.5t14 12.5z" glyph-name="colon" horiz-adv-x="179" unicode=":"/><glyph d="M29 416q2 -2 12 -10t14.5 -13.5t6.5 -12.5q8 -25 -6 -45q-2 -3 -10.5 -12.5t-11.5 -15.5q-3 -5 -15.5 -2.5t-16.5 9.5q-10 19 -29 16q-3 -1 -5 1.5t-3 7.5q0 5 -1 11t-2.5 13t-2.5 11q-2 12 5 21t18 11q8 0 18.5 5.5t17.5 4.5q1 0 5.5 0.5t5.5 -0.5zM68 88q4 0 4 -2 q28 -6 37 -42q4 -27 -9 -56q-1 -3 -6 -15.5t-8 -19.5t-8.5 -16t-10.5 -14q-4 -8 -8 0q-1 2 -2.5 1.5t-1.5 -2.5q-2 -5 -9 -2q-3 2 -6.5 8t-2.5 9q1 5 -1 9q-2 2 -2 7.5t0.5 11t-0.5 12.5q0 2 1 4t2.5 4.5t2.5 4.5q4 4 2 6q-1 1 -2 -1t-2 -2q-5 4 -13 14.5t-13 14.5 q-7 7 -7 18q0 13 5 18q2 2 5 9t6 10q10 11 24 4h5q5 13 18 7z" glyph-name="semicolon" horiz-adv-x="179" unicode=";"/><glyph d="M318 430q-4 -5 -9 -19q-3 -4 0 -13.5t2 -13.5q-1 0 -1 -2v-3q-4 -2 -9.5 -9.5t-9.5 -9.5q-4 -1 -8.5 -6t-5.5 -6q-4 -4 -15.5 -12t-16.5 -15q-5 -8 -19 -17t-19 -14q-6 -6 -18 -6q-6 0 -11.5 -3t-8.5 -5.5t-8.5 -8.5t-7.5 -8q-15 -16 -47 -27q-16 -7 -19 -13 q29 -13 57 -24q76 -29 88 -32q67 -17 118 -41q3 -2 15.5 -6.5t18.5 -9.5q8 -8 1 -16q-1 -2 -12 -10q-6 -4 -20 -1q2 -16 -8 -16q-3 0 -9 0.5t-9 0.5q-19 -1 -61 18q-54 26 -94 35q-10 2 -27 9.5t-25 9.5q-5 1 -22 7t-26 7q-4 1 -15 6q-5 4 -33 11q-23 7 -37 22q-15 16 0 29 q9 7 5 17q-3 8 8 21q12 17 32 24q8 3 19 11t17 11q17 8 48 24.5t38 20.5q15 7 42 22.5t31 17.5q28 15 49 33q14 12 28 6q3 -1 7 1.5t7 2.5z" glyph-name="less" horiz-adv-x="465" unicode="&lt;"/><glyph d="M181 363q26 4 76 -1l27 -3q4 0 15 -9.5t13 -14.5q1 -2 -6 -16.5t-10 -15.5q-21 -3 -43 -3q-93 -2 -106 -3q-3 0 -42.5 -2t-48.5 -5q-18 -5 -33 -2q-4 1 -13 0.5t-13 1.5q-19 10 -24 13q-11 10 0 14q5 1 7 2.5t1.5 3t-2 3t-4.5 4t-4 3.5q7 0 14.5 7t10.5 8q22 8 53 6 q5 0 12.5 1t24 3t38.5 3q7 1 20.5 1h21.5q5 0 15 1zM295 241q4 -1 12.5 -1t12.5 -2q18 -9 24 -14q12 -10 0 -13q-13 -3 -2 -13l3 -3q-7 0 -14 -7t-11 -8q-20 -6 -54 -4q-4 0 -12 -1t-24.5 -2t-38.5 -2q-8 -1 -22.5 0t-19.5 1q-26 2 -46 -1q-15 -2 -58 3q-3 0 -13 2t-15 2 q-4 0 -14.5 10t-12.5 15q-1 2 6.5 16t10.5 15q14 2 43 2h120q5 0 26 0.5t39.5 1t26.5 2.5q16 4 33 1z" glyph-name="equal" unicode="="/><glyph d="M1 427q3 0 9 -0.5t9 -0.5q19 1 61 -18q55 -27 94 -35q10 -2 27 -9.5t25 -9.5q5 -1 22 -7t26 -7q5 -1 15 -6q4 -3 32 -11q24 -6 38 -22q15 -16 0 -29q-9 -7 -5 -17q3 -8 -8 -21q-14 -18 -32 -24q-8 -3 -19 -11t-17 -11q-16 -8 -45 -23t-42 -22q-13 -6 -37.5 -20t-35.5 -20 q-24 -13 -49 -33q-12 -12 -27 -6q-3 1 -7 -1.5t-7 -2.5q4 5 9 19q3 4 0 13.5t-2 13.5q1 0 0 2t0 3q4 2 9.5 9.5t10.5 9.5q4 1 8.5 6t5.5 6q4 4 16 12t16 15q5 8 18.5 17t18.5 14q8 6 19 6q6 0 11.5 3t8.5 5.5t8.5 8.5t7.5 8q15 16 47 27q16 7 19 13q-29 13 -57 24 q-85 31 -88 32q-67 17 -118 41q-3 2 -15.5 6.5t-18.5 9.5q-8 8 -1 16q1 2 12 10q6 4 20 1q-2 16 8 16z" glyph-name="greater" horiz-adv-x="466" unicode=">"/><glyph d="M97 702q4 -1 38 -13q46 -15 69 -63q17 -35 19 -75q2 -50 5 -75q0 -25 -9 -59q-13 -40 -35 -77q-2 -4 -13 -13q-39 -24 -36 -50q2 -15 -1 -27q-2 -12 5 -35q1 -4 -0.5 -14t-0.5 -15q-6 -2 -21 -11.5t-24 -11.5q-6 -1 -16 11.5t-14 23.5q-12 29 -15 47q-8 33 -9 35 q-7 14 -2 35l9 32q9 25 34 50q29 26 29 82q1 31 -15 78q-17 45 -21 53q-2 6 -10 14q-1 2 -5.5 6t-5.5 6q-1 1 0 1q2 1 3 1q3 2 5 0q3 -3 10 -9t10 -9.5t7 -10t6 -13.5q1 -7 4 -10.5t5 -9.5q5 -10 7 -11q-2 13 -6 24.5t-6 19.5t-7 15t-9 10t-13.5 9t-12.5 8h-4q-4 0 -13.5 1 t-15 0.5t-13 -3t-13.5 -8.5q-25 -25 -9 -76q2 -6 5 -17t4.5 -17t3 -13t1 -10.5t-3.5 -4.5q-9 16 -26 18q-2 0 1 -3t-2 -2q-3 0 -8 1q-11 2 -21.5 36t-8.5 58q4 43 13 52q17 27 59 35q1 0 8.5 1.5t11.5 1.5q8 -2 13 1q6 5 14.5 6.5t14.5 0.5t16 -3.5t15 -3.5zM110 98 q3 5 15 0t14 -12q7 -21 27 -21q8 0 6 -10q0 -23 1 -35q-1 -12 -10 -19.5t-20 -6.5q-8 1 -20 -2t-19 -1h-5t-5 2q-26 30 -27 41q-3 26 16 42q4 4 13.5 10.5t13.5 11.5z" glyph-name="question" horiz-adv-x="357" unicode="?"/><glyph d="M287 697q32 2 59 -5q12 -2 17 -5q18 -13 54 -21q11 -2 59 -29q5 -3 16.5 -11t18.5 -12q9 -4 31 -31q36 -43 46 -73q2 -7 8 -22t9 -24t5.5 -21.5t1.5 -23.5q-3 -35 -19 -65q-2 10 1.5 27t-0.5 24q0 1 -2 1q-2 1 -3 2q-6 -65 -20 -95q6 -1 12 7.5t8 8.5q10 -11 -7 -37 q-22 -33 -46.5 -54.5t-33.5 -26t-33 -15.5q-8 -4 -13 -5.5t-7.5 -2t-11 1t-14.5 2.5q-29 3 -39 12q-4 4 -9 8.5t-10.5 10.5t-8.5 9q-4 -1 -6 -7q-3 -25 -33 -32q-32 -9 -60 2q-7 3 -15 5q-36 13 -50 45q-31 64 -25 98q1 7 -0.5 54t4.5 69q14 55 63 59q6 4 13.5 5t12 -0.5 t15.5 -5t14 -4.5q29 -8 54 -33q3 3 4 6.5t2 7.5t2 7q2 13 12 11q9 -2 15.5 -8t7 -9t4.5 0q8 12 14 7q7 -7 11.5 -16t6 -14.5t3 -18t1.5 -14.5q7 -36 3 -74q0 -8 2.5 -33t2.5 -33q0 -23 5 -33q7 -10 17 -10q7 0 29.5 13.5t27.5 28.5q15 49 14 69q4 0 4.5 4.5t-1 11t0.5 13.5 q-1 1 -1 14q1 49 -28 112l-5 12q-2 0 -13 17q-3 5 -12.5 13.5t-12.5 12.5q-20 31 -77 45q-3 1 -27 10t-36 8q-9 0 -27 2q-8 1 -16 -0.5t-19 -5t-16 -4.5q-4 -1 -15.5 1t-16.5 0q-42 -17 -88 -59q-19 -17 -44 -67q-2 -3 -2 -13q5 -25 -8 -31q-8 -5 -10 -23q-3 -53 -2 -63 q1 -59 33 -140l4 -9q15 -48 57 -81q8 -5 20 -19q13 -14 37 -25q9 -4 29.5 -18t32.5 -18q13 -4 28 -6l83 -10q24 -3 54 -1q7 1 21 9l66 40q2 1 8 4.5t8 5t7.5 5t8 5.5t7.5 5.5t7.5 6t6.5 6t6.5 7t5.5 7.5t5 8q4 8 15.5 21.5t16.5 22.5q8 -19 12 -23q12 -12 3 -23q-4 -6 1 -6 h5q2 -1 -3 -6t-11 -11.5t-6 -12.5q0 -2 -3 -4q-14 -11 -33 -36t-26 -33q-7 -7 -31 -16t-29 -12q-35 -19 -72 -27q-53 -13 -98 -1q-55 13 -73 11q-3 -1 -9 1q-81 29 -136 65q-42 28 -73 70t-45 83q-2 3 -4 13.5t-3 12.5q-24 56 -24 98q0 70 10 117q19 82 81 133q0 1 -1 1.5 l-3 1.5t-3 2q35 35 92 57q22 9 49 18q22 7 98 14zM192 462v-50q2 -7 2.5 -22.5t-0.5 -18.5l1 -1q4 4 7 28q2 5 0 29t-1 29l2 23zM290 474q-5 -2 -5 -6q-9 -18 -9 -53q-2 -83 12 -127q5 -19 18 -23q4 -1 9.5 -4.5t8.5 -4.5l10 9q17 10 12 31q-5 20 -5 60q1 26 -5 90q1 3 -4 8 t-6 7q-4 8 -16 12t-20 1zM533 257q-20 -10 -21 -20q19 12 21 20zM102 137q-4 -25 39 -43q-7 14 -26 27q-2 2 -5.5 8t-7.5 8z" glyph-name="at" horiz-adv-x="730" unicode="@"/><glyph d="M57 713q12 -5 33 -1q2 1 7 -6t8.5 -15t5.5 -13q-1 10 -1 16.5t1.5 9.5t5.5 -2t11 -19q1 -2 12.5 -23t15.5 -32q2 -6 12 -29t13 -36q1 -6 2.5 -9.5t2.5 -4.5t4 -5l6 -8q8 -11 13 -24.5t9.5 -30.5t7.5 -26q22 -54 61 -131q9 -16 38 -102q2 -5 3 -14.5t2 -14.5 q27 -67 51 -110q22 -41 24 -71q0 -9 -0.5 -12.5t-4 -8.5t-11.5 -6q0 -10 -8 -11q-1 1 -8 5.5t-11 10.5q-1 2 -5.5 3t-5.5 4q-6 13 -16 10q-4 -1 -4 -5q-1 -8 -6.5 -9.5t-14.5 -0.5t-13 0q-11 -4 -16 8q-32 71 -42 97q-4 12 -17.5 38.5t-18.5 41.5q-4 13 -19 13 q-11 -1 -48.5 -1t-60.5 -3q-3 0 -10.5 0.5t-13 -0.5t-7.5 -4q-3 -3 -3.5 -7t-0.5 -10t-1 -9q-5 -50 -5 -55v-69q0 -17 -1 -25q0 -16 -21 -11q-1 0 -5 6q-9 12 -10 1q-1 -6 -6.5 6t-6.5 20q0 74 8 131l2 15q0 10 -1.5 12t-12.5 5q-16 5 -20 11q2 6 19 8q18 5 19 7t1 17 t4.5 54t4.5 57q-1 55 9 138q5 45 6 88l3 89q0 15 -4 22q-7 16 5 21q2 1 9 5.5t10 5t11 -1.5zM65 555q-7 -5 -5 -11q5 -24 -1 -62q-2 -11 -1.5 -38.5t-2.5 -38.5q-7 -37 -6 -77q0 -34 -4 -102q16 1 50.5 2.5t50.5 2.5q5 0 17 4q11 2 12.5 5t-3.5 14q-7 13 -16 38.5t-12 33.5 t-9.5 29.5t-12.5 33.5q-15 32 -26 78q-12 50 -31 88zM219 431q-3 -2 -0.5 -10t5.5 -14t8 -13.5t5 -8.5q1 5 -6.5 24.5t-11.5 21.5z" glyph-name="A" unicode="A"/><glyph d="M-72 689l161 21q59 6 114 -14l30 -10q59 -21 57 -80q0 -3 -1 -11.5t-1.5 -13t-1.5 -11t-3.5 -11.5t-6.5 -10q-34 -43 -56 -61q-5 -4 -14 -10.5t-14 -9.5q-1 -1 -4 -2t-4 -2t-2.5 -3t-1.5 -5q1 -3 -1.5 -5.5t-5.5 -1.5q-10 1 -21 -8.5t-14 -11.5q-2 -1 -4 -8t-5 -10 q60 -4 91 -7q58 -7 74 -14q50 -19 94 -55q18 -19 15 -43q-1 -19 -15 -55q-6 -16 -15 -30.5t-21.5 -31t-18.5 -25.5q-21 -33 -55 -65q-5 -4 -13.5 -10t-11.5 -8q-66 -59 -83 -70q-8 -5 -23 -16.5t-22 -16.5q-1 4 -3.5 10t-3.5 8q-2 9 -8 10q-15 0 -26 21l-2 2q-1 2 -2 3 q-3 -2 -12.5 -15t-21.5 -14l-7 28l-27 100q0 2 -0.5 6.5t-0.5 6.5q4 21 -6 106q-10 82 -17 128l-17 114q-3 22 -2 41q3 11 -1 33q-1 14 -3.5 39.5t-3.5 37.5q-2 10 -4.5 12.5t-11.5 3.5q-21 0 -28 -3q-10 -4 -17 9q-3 7 -6 18q-3 12 8 15q5 1 13.5 3t12.5 2zM81 649 q-11 -3 -9 -14q13 -127 14 -146q0 -23 3 -29q37 15 43 32q0 2 6 5q13 11 24.5 26t17.5 24.5t18 32.5t15 29q12 22 -15 25q-24 0 -57 14q-21 10 -60 1zM155 368q-26 4 -52 -7q2 -2 9.5 -3t8.5 -6q-2 -3 -8.5 -4t-8.5 -2q-1 -15 9 -68q1 -12 5.5 -35t5.5 -34q2 -13 14 -67 q11 -62 13 -67q6 5 15.5 13.5t18 15t16.5 10.5q10 3 12 14q1 3 3 8.5t3 7.5q3 7 20 41.5t23 55.5q3 9 7.5 28t6.5 29q5 11 3 16.5t-15 15.5q-7 8 -24 12q-18 5 -73 5q-9 1 -19 8q8 0 26.5 -1.5t26 -2t26.5 1.5q-9 13 -23 8q-22 -1 -49 7z" glyph-name="B" horiz-adv-x="486" unicode="B"/><glyph d="M140 714q64 12 132 -25q31 -17 38 -55q27 -158 5 -149q-3 1 -6 5q-9 10 -9 2q-1 -19 -1 -20q-2 -2 -3 -8t-3 -9q-10 9 -17.5 21.5t-10.5 21t-7.5 25t-6.5 23.5q-8 26 -20 78q-5 28 -34 42t-55 1q14 -2 15 -2q5 -3 1 -5q-19 -14 -25 -44q-1 -4 -6.5 -28t-6.5 -38 q0 -16 -5 -46t-5 -45q-4 -36 -4 -55q0 -23 7.5 -75t7.5 -58q-2 -12 0 -18q5 -13 7 -48q0 -6 8 -17.5t9 -16.5q13 -54 33 -83q22 -30 51 -26l41 3q7 0 17 8q38 24 53 40q18 12 25 19q5 6 15.5 16t16.5 17q10 12 23 14q3 -4 -1 -15.5t1 -13.5v-3l-1 -2q-3 -5 -11 -11t-10 -10 t-5.5 -13t-6.5 -13q-3 -3 -9.5 -9t-8.5 -8q0 -1 -8 -13q-4 -4 -11.5 -14t-10.5 -13t-8.5 -7.5t-12.5 -8.5q-24 -13 -48 -32q-8 -5 -53 -23q-9 -3 -21.5 -1.5t-19.5 -2.5q-1 0 -10 3q-11 4 -14 0q-1 -3 -5 -3q-9 3 -25.5 8t-26.5 9q-11 4 -27 22.5t-22 30.5q-32 55 -39 90 l-3 21t-4.5 23.5t-8.5 21.5q-2 4 -3.5 15.5t-5.5 17.5q-8 11 -5 27q1 7 -1 33q-10 115 -9 138q0 10 -1.5 33t-0.5 35q6 88 51 176q2 2 4 3q1 0 2 -1l2 -1q11 -10 16 2q8 18 30 36q7 5 10 4q18 -2 21 -3t20.5 3t19.5 4zM-5 497q-3 0 -3 -65q-2 -3 0 -18.5t3 -19.5 q-2 -6 7 -14q5 -4 6 0q0 2 -1 6q-2 6 -2.5 34.5t-2 52.5t-7.5 24z" glyph-name="C" horiz-adv-x="478" unicode="C"/><glyph d="M5 720q12 -3 35 -5.5t32 -4.5q22 -3 118 -21q4 -1 16.5 -2t18.5 -3q70 -20 101 -77q12 -22 17 -40q4 -9 10 -9q2 0 4 -1t3 -2.5t2 -4t2 -3.5q27 -60 27 -122q-2 -38 4 -64q0 -1 -0.5 -4t-0.5 -5q-12 -94 -40 -155q-5 -7 -5 -11q0 -19 -19 -42.5t-20 -26.5q-3 -5 -9 -3 q-4 1 -4 6t-3 7q-12 -25 -19 -33q-24 -36 -39 -52q-24 -24 -47 -39q-11 -7 -13 -13t1 -19q-41 0 -52 -4q-23 -11 -36 9q-4 -1 -7 -6l-2 -4q-1 0 -6.5 -5.5t-7 -5t-11.5 0.5q-21 7 -22 26q-1 13 -5.5 45t-4.5 50q-3 58 -14 103q-16 69 -24 140q-1 7 -12 86q-1 11 -4 32 t-4.5 34t-2.5 31t-1 33q1 11 -4 32.5t-5 30.5q0 16 4 22q3 3 0 29q0 3 -2 21h-22q-9 1 -10 3t3 11q7 19 39 17q20 -2 29 1q1 1 1 5q-3 8 -3.5 10.5t3 3.5t11.5 -2zM55 668q-19 -1 -9 -16q7 -10 11.5 -31t8.5 -29q9 -77 24 -158q2 -9 8 -55.5t12 -71.5q0 -2 8 -43t16 -61 q1 -1 1 -3q1 -17 8 -48.5t8 -37.5q2 -15 7 -23q8 11 35 63q-4 1 -9.5 -2t-9.5 -2q0 3 5 8q2 2 13.5 12t15.5 18q44 90 66 189q3 25 2 31q-6 69 -6 73q-2 28 -5 36q-25 62 -69 109q-1 2 -11 9q-45 29 -74 27l-6 2q-4 0 -22 2.5t-28 1.5zM229 624q-1 -3 3 -7q0 -1 2.5 -3 t3.5 -4q3 14 -9 14zM356 531q-1 -14 8 -39t10 -33q2 22 -18 72z" glyph-name="D" horiz-adv-x="505" unicode="D"/><glyph d="M26 706q28 -10 36 -20q2 -2 7 0q21 4 62.5 7t62.5 6q4 0 15.5 2t17.5 2q33 2 56 -35q-40 -11 -68 -11q-46 2 -68 1q-11 0 -31 -3.5t-31 -4.5q-7 0 -10 -10q-3 -26 14 -86q1 -5 2 -15.5t2 -15.5q6 -86 16 -130q16 3 48.5 0.5t48.5 0.5q7 1 13 -1.5t15 -9.5t12 -9 q-11 -11 -20 -12q-15 -2 -29 -7q-22 -8 -70 -10q-10 -1 -11.5 -2.5t0.5 -11.5q6 -36 9 -73q1 -9 2.5 -37t4.5 -43q1 -4 1 -28q-5 -38 4 -74q4 -13 16 -12q2 0 11 1t11 0q5 -3 6 -7q-4 -4 -20 -5t-21 -9q7 -4 19 1q15 4 50 11.5t53 12.5q9 3 27.5 3.5t26.5 2.5q7 1 14 -4 q4 -3 10.5 -8.5t9.5 -7.5q-3 -4 -11.5 -5.5t-11.5 -3.5q0 -3 1 -5t3.5 -4.5t3.5 -4.5q11 -13 -4 -13q-7 0 -44 -10q-27 -5 -32 -5q-61 0 -91 -6l-4 -1q-3 -1 -3.5 -1t-3 -1t-3 -2.5t-1 -3.5t-0.5 -5q0 -14 -14 -3q-6 4 -23 2q-60 -9 -116 -8q-4 0 -10 3.5t-8 3.5q-7 3 -7 10 q-1 7 7 9q5 2 14.5 4.5t17.5 5t16 6.5q-9 67 -9 70q-2 37 -9 109t-9 109q-4 74 -18 217q-2 18 -7.5 54t-7.5 53q-1 13 -14 13q-7 0 -13 4t-12 5q-10 2 -15 10q9 3 46 11q1 6 1 16q-2 9 0 13t12 3h2t0 1q4 4 8.5 6t8 3t9.5 0t8.5 -1.5t10 -3.5t8.5 -3zM41 63q-4 -4 -5 -12 t0.5 -18.5t1.5 -13.5q11 1 12.5 3t-0.5 10q-1 2 -1.5 9t-2.5 13t-5 9z" glyph-name="E" horiz-adv-x="400" unicode="E"/><glyph d="M-11 712q3 -3 16.5 -10.5t15.5 -13.5q14 -1 49 3q11 1 41 2t46 4q18 3 52 3.5t48 2.5q6 2 10 -2q5 -5 -5 -10q-13 -9 -18 -31q-4 -10 -22 -14q-16 -3 -68 -3q-11 0 -22 -0.5t-23.5 -1.5t-21.5 -1q-36 -2 -46 -7q4 -11 6.5 -28t4.5 -24q3 -18 10.5 -68.5t13.5 -76.5 q4 -14 21 -12q15 2 38.5 2h29.5t14.5 0.5t11.5 0.5h7.5t7 -1.5t5.5 -4.5q-7 -8 -30 -18q-17 -7 -17 -9q-1 -1 2 -2q19 -8 0 -14q-17 -5 -36 -5q-5 0 -16 -2.5t-14 -3.5l-11 -3q11 -83 26 -133q3 -11 4.5 -31.5t3.5 -29.5t5 -25.5t6 -30t7 -25.5q5 -11 5 -28q-1 -10 1 -28 q2 -9 2 -26.5v-21.5q0 -6 -2.5 -8t-7.5 -2.5t-7 -1.5q-6 -16 -16 5q3 5 -3 33t-12 28q-2 0 -1.5 -8.5t2 -18t-0.5 -16.5q-6 -8 -23.5 -7t-29.5 6t-15.5 11t-6.5 26q-8 57 -11 92q-2 21 -16 101q-3 19 -6 64t-6 65q-2 8 -7 11t-11 4t-7 2q-3 2 -5.5 11t-6.5 12q-10 6 5 14 q1 0 10 2.5t11 4.5q-16 121 -17 129q-4 24 -13 69.5t-12 68.5q-2 14 8 18q12 6 17 -5q1 -3 12 -7q-4 7 -1.5 12t3.5 6t7 3zM205 397q-3 1 -13 1q-12 -5 -10 -11q1 -3 15 0q5 2 8 10z" glyph-name="F" horiz-adv-x="379" unicode="F"/><glyph d="M162 722q-3 -8 -16 -12t-17 -8q33 -2 46 3q10 3 29 1q23 -3 41 -15q27 -16 33 -46q4 -19 4 -57l1 -31q-2 -12 -3 -12q-7 -5 -9 -18t-3 -16h-18q-24 -10 -38 19q-4 7 -6 22q-1 7 -12 70l-12 36q-3 12 -15 15q-23 8 -43 0t-27 -29q-2 -6 -7 -19.5t-8.5 -23.5t-4.5 -20 q-10 -68 -2 -104q4 -15 7 -43t4 -34q1 -9 4 -29.5t4 -32.5q3 -32 18.5 -94.5t18.5 -92.5l3 -9q-3 -14 1.5 -30.5t9 -24.5t17.5 -27q7 -12 12.5 -13.5t16.5 4.5q6 3 27.5 19t37.5 21q8 3 7 13q-5 32 -9.5 92.5t-8.5 88.5q0 3 -2 5q-49 14 -64 12q-5 0 -7.5 2t-5 7.5t-3.5 6.5 q1 6 9 6q15 0 42 6t36 7h4q8 8 11 6t9 -12q1 -1 3 -1q3 -1 4 -1q2 4 2 14t3 15q4 0 13 -4t14 -4q7 0 7 -11q12 -44 13 -57q2 -8 4.5 -29t5.5 -33q5 -22 10 -65t9 -62q1 -7 4.5 -30t6.5 -36q5 -36 -21 -53q-1 -1 -2.5 -4t-4.5 -4q-9 9 -27.5 32t-31.5 33q-5 4 -9 15t-5 13 q-8 0 -12 -9q-24 -34 -44 -39q-4 -6 -9 -9t-12.5 -5t-10.5 -3q-17 -7 -48 -3q-10 1 -42 5q-46 7 -59 38q-20 50 -24 56q-11 20 -15 56q-3 21 -11 56t-11 52q-2 15 -2.5 41.5t-1.5 34.5q0 4 -0.5 15t-1.5 17q-4 13 -4.5 38.5t-2.5 36.5q-2 26 -2.5 34t3 33.5t4.5 33.5 q0 1 1.5 6t1.5 8q1 53 48 107q4 4 9 8.5t11.5 10t9.5 8.5q4 2 5 2q13 0 24.5 5.5t24.5 14t21 11.5q7 2 21 2t19 1zM-16 479q-8 -5 -6 -14q2 -50 4 -74q0 -6 8 -6q-6 47 -2 89l-2 2q-2 2 -2 3z" glyph-name="G" unicode="G"/><glyph d="M-60 701q31 2 45 -11q3 -3 7 -3q5 1 10.5 -0.5t9 -3t9.5 -5.5t8 -5q14 -6 17 -23q4 -21 8 -61v-6q3 -14 8 -51.5t11 -58.5q21 -72 31 -136q0 -7 5 -12q17 2 67 11q2 0 2 1q4 7 11.5 9.5t18 2t14.5 0.5h8q13 1 15 3.5t4 12.5q1 3 1 5q2 12 -3 34t-5 31q-1 40 -11 115.5 t-12 92.5q-1 5 -3.5 14.5t-2.5 11.5q-4 12 3 15q4 1 9 6.5t11 5.5q10 -1 12 -14q6 -14 12 -48q2 -14 4 -20q1 -8 6 -32t7 -37q11 -66 12 -70q0 -4 7 -5q-3 33 -13.5 103t-10.5 71q-2 12 5 1q16 -24 18 -45q19 -103 21 -109q0 -1 1.5 -18.5t2.5 -22.5q14 -96 16 -105 q8 -46 7 -68q0 -3 1 -6t2.5 -6.5t2.5 -5.5q14 -47 14 -82l2 -11q4 -11 14 -65q1 -6 1.5 -19t1.5 -19q1 -12 -9 -22q-7 -9 -9 -21q-1 -2 3 -5t1 -6q-16 -16 -23 -18t-19 -9q-21 10 -21 37v9q-5 13 -15 85q0 8 -4 25t-5 26q-3 28 -10 53q-5 20 3 28v5q-6 4 -8 9t-2 12t-1 10 q-2 8 -8 8q-18 0 -27 -1q-93 -3 -101 -4q-3 0 -9 -2q-2 -7 4 -26q0 -2 2.5 -14t1.5 -19q-1 -4 2 -9q4 -11 4 -33q-1 -29 3 -56q1 -7 3 -20t3 -20q0 -25 2 -29q4 -7 4.5 -19t2.5 -17q2 -9 -8 -9q-4 0 -21 -4t-26.5 -3t-12.5 8q-1 1 -2.5 1.5t-3.5 -2t-3 -6.5q-1 -6 -7 -8 t-18.5 -1.5t-15.5 0.5q-7 10 -8 20q-2 16 -7 44t-7 38q-2 12 -4 34t-2 25q0 2 -13 103q-1 7 -3 9t-11 4q-3 1 -10.5 2.5t-12.5 4t-9 7.5q6 4 25 9q16 5 12 22q-14 63 -20 131q-1 7 -10 82t-14 114q-2 16 -5 20q-6 10 -2 27q3 8 9 9z" glyph-name="H" horiz-adv-x="456" unicode="H"/><glyph d="M-11 693q4 -1 13.5 -2t15 -1.5t12.5 -4t13 -8.5q27 -27 35 -66q20 -128 24 -145q3 -14 9 -48.5t10 -53.5q1 -2 4 -16t7 -21q12 -34 10 -85q0 -11 8 -119q2 -42 -2 -53q-2 -8 4 -20q4 -13 -1 -17q-4 -2 2 -8q5 -5 1 -17q-4 -10 -6.5 -10.5t-12.5 5.5q-16 9 -21 0 q-8 -15 -15.5 -16t-19 5t-20.5 5q-8 -1 -14 10q-1 4 -4.5 11t-5 12.5t-1.5 11.5l-9 80q-2 16 -9 44t-9 40q-8 38 -17 107t-14 95q-3 19 -7 55t-6 50q-2 13 -14 134q-1 11 1 13t14 2q3 1 7 1q1 4 -1 10.5t-2 9.5q2 3 6.5 4t6.5 3q5 5 8 3zM100 355l-10 42q-2 -13 0 -42l3 -23 q1 -2 5 -11t5 -11l5 -22q0 2 0.5 2.5t1 2.5t0.5 7q1 7 -0.5 17t-1.5 11q0 3 -1.5 8t-3.5 11t-3 8z" glyph-name="I" horiz-adv-x="251" unicode="I"/><glyph d="M59 704q22 -7 27 -12t9 -27q6 -25 20 -55q6 -14 9.5 -29.5t7 -35t5.5 -29.5q7 -24 9 -28q3 -27 12 -69t12 -63q4 -24 0 -40q-3 -12 5 -43t8 -34q7 -63 7 -135q2 -33 -16 -61q-31 -46 -76 -75q-9 -6 -26 -3q6 9 27.5 23.5t29.5 25.5q-16 4 -27 -7q-26 -27 -47 -40 q-4 -4 -6.5 -5.5t-5 -2t-8.5 -2.5t-13 -5q-13 -6 -20 0q-3 2 0 4q8 4 -3 6h-7q-33 -8 -35 9q-1 2 -5 8.5t-5.5 11t2.5 10t16 8.5q34 9 59 44q33 47 21 116q-1 3 -18 134q-3 22 -6.5 47.5t-8 56t-6.5 48.5q-3 23 -3 46q0 24 -8 76q-2 12 -4 25t-4.5 28.5t-3.5 24.5l-1 2 q-1 17 5 20.5t23 -4.5q1 1 2 3.5t1.5 4t1.5 3.5t2 3l2.5 2.5t3.5 2t4 0.5q3 0 5 4q5 13 27 8zM159 59q-3 -1 -4.5 -3t-3 -5.5t-2.5 -5.5q10 6 10 14z" glyph-name="J" horiz-adv-x="279" unicode="J"/><glyph d="M281 701q3 4 10 0.5t9 -10.5q2 -10 -3 -16q-19 -36 -33 -57q-3 -4 -31 -58q-5 -12 -8 -16q-1 -3 -4.5 -7.5t-5.5 -8.5t-2 -8t-3 -11.5t-3 -11.5q0 -12 -21 -33q-17 -19 -2 -49q9 -17 27 -50.5t20 -37.5q12 -26 12 -28q1 -3 17 -27q26 -56 79 -136q38 -59 46 -78 q4 -8 4 -12q5 -20 15 -34q8 -14 7 -18q-26 7 -32 -13q0 -2 -3 -1q-2 1 -3 1q-4 -2 -13 -2.5t-12 -1.5q-17 -5 -42 15q-21 17 -31 21q-1 -1 0 -6t-2 -7q-16 6 -24 24q-29 64 -46 107q-44 99 -47 106q-37 84 -45 112q0 2 -2.5 6t-3.5 6q-8 -5 -6 -21q13 -59 20 -98 q25 -148 26 -157q2 -22 -5 -31q-1 -2 -1.5 -7t-0.5 -7q0 -1 -0.5 -4t-0.5 -4.5t-0.5 -3.5t-2 -3t-4 -2t-5.5 -1q-4 0 -5 -3.5t-0.5 -8.5t-1.5 -8q-9 2 -11.5 2.5t-10 -3t-9.5 -4.5q-15 -5 -29 2t-19 22q-10 39 -13 61q-9 48 -29 142q-12 63 -21 124q-3 26 -10 74t-10 68 q-13 84 -12 118q0 5 -2 13t-2 11q-5 21 -4 24q15 19 8 34q-1 1 3 3h3q11 -2 22 5q16 9 44 2q17 -3 23 -21q11 -37 15 -71q5 -27 7 -34q2 -6 10 -67q2 -16 17 -101q10 8 21 30q6 9 43 75q45 79 83 134q1 1 12.5 16t15.5 24q2 3 8.5 7.5t9.5 8.5z" glyph-name="K" horiz-adv-x="436" unicode="K"/><glyph d="M9 726q2 -2 5.5 -6.5t7 -7.5t8.5 -4q4 -1 4 -10q3 -20 3 -39q1 -24 15 -120q5 -46 7 -50q5 -16 9 -19q5 21 -3 60.5t-8 54.5q2 19 -3.5 58.5t-5.5 58.5q14 -10 14 -35q3 -26 11 -78q2 -20 5 -43t7 -50.5t6 -43.5q14 -106 23 -134q16 -46 29 -102q2 -12 5 -91v-10 q-1 -10 0 -10q0 -24 -4 -32q-7 -14 3 -32q5 -1 6 3q2 7 3.5 7.5t8.5 -5.5q4 -3 10 -3q31 0 40 2q3 1 58 6q23 0 30 -5q4 -2 18 -2q11 0 15 -2q11 -7 4 -12q-6 -8 -1 -14q6 -6 -1 -8q-1 -1 -10.5 -6t-15.5 -6.5t-14 -0.5q-12 1 -36 -2t-37 -2q-20 1 -81 -4q-9 -1 -40 -2.5 t-46 -4.5q-25 -4 -43 26q3 3 16 4.5t15 11.5q-1 3 -5 6.5t-5 4.5q-16 20 -19 32q-4 26 -12 86.5t-14 92.5q-5 28 -12 79t-10 71q-4 27 -12.5 79.5t-12.5 78.5q-1 9 -6.5 55.5t-10.5 71.5q-4 13 10 13q9 -1 22 5.5t19 6.5q2 0 6 6q3 14 25 16zM63 35q-3 0 -3 -7q-2 -3 2 -3 q3 -1 4 0.5t1 4.5q-3 5 -4 5z" glyph-name="L" horiz-adv-x="382" unicode="L"/><glyph d="M55 716q6 1 9 -4q13 -25 29 -42q12 -14 21 -40q16 -42 46.5 -125.5t37.5 -103.5q20 -56 27 -73q2 11 5 63v41.5t2 50.5q5 84 7 101q8 74 13 87q10 25 29 21l25 -5q7 -1 16 -7q10 -9 13 -8t7 14l1 1q1 1 1 2l6 -3t5.5 -2t5.5 2q2 4 14 -1q1 0 4 -2t5 -3q17 -5 27 -17 t13 -22t6 -29v-11q7 -31 10 -90t4 -65q9 -74 20 -124q5 -18 11.5 -53.5t9.5 -50.5q6 -25 11.5 -72t8.5 -63q1 -8 5.5 -26.5t5.5 -29.5q0 -31 -30 -24q-2 -1 -2.5 -3.5t0 -4.5t-0.5 -4q-4 -11 -18 -8q-17 2 -57 27q-26 16 -30 49q-10 58 -11 86q0 18 -8 52q-8 36 -18.5 100.5 t-14.5 87.5q-5 25 -15.5 85t-18.5 92l-4 8q-5 -9 -10 -35l-12 -75q-9 -112 -4 -153v-34q0 -5 -0.5 -16t0 -19t4.5 -16q4 -5 2.5 -11.5t-3 -9.5t-5.5 -8t-5 -8q-1 -4 -10 0q-16 5 -19 5q-2 -13 9 -13q4 0 8 -4t7.5 -9.5t5.5 -7.5q-2 -4 -13 -6q-34 -4 -44 7q-7 7 -23 15 q-23 13 -41 45q-60 118 -87 186q-7 17 -20.5 51.5t-20.5 51.5q-5 15 -15 34q3 -10 2 -29.5t3 -29.5q4 -14 6.5 -40t3.5 -33q3 -16 9 -58t10 -64q16 -81 23 -104q11 -44 11 -60q1 -42 10 -100q4 -9 0 -15q-9 -15 -29 -5q-2 -1 -3.5 -4.5t-4.5 -4.5q0 1 -2.5 2.5t-2.5 3.5 l-10 56l-12 116q-4 42 -18 105q-21 95 -33 217q-3 29 -10.5 87.5t-9.5 76.5q0 1 -3 22q-3 10 9 15q15 6 33 -1q4 2 6.5 7.5t2.5 6.5q9 11 14 12.5t20 -4.5q23 -8 31 -23q2 -5 7 -3q0 3 -1.5 14t1.5 13zM372 514q-2 -15 -1.5 -22t5.5 -21.5t6 -21.5q5 15 1.5 35.5t-11.5 29.5 z" glyph-name="M" horiz-adv-x="584" unicode="M"/><glyph d="M68 696q6 0 6 -3q3 -7 12 -18t12 -18q8 -18 21 -58t24 -61q15 -30 41.5 -91.5t40.5 -91.5q6 -13 15.5 -37.5t13.5 -32.5l48 -117q5 -5 6 -5q-2 82 -23 149q-3 0 -1 -10l1 -11q0 -3 1.5 -10.5t0.5 -11.5q-7 2 -7 11q-3 25 -13 77q-1 8 -1.5 23.5t-1.5 23.5q-2 20 -10 58 q-8 40 -9 60q-7 82 -17 143q0 4 8 21q1 3 9 3q7 -1 19 -10t14 -16q2 -13 9.5 -43.5t8.5 -47.5t5 -49.5t5 -44.5q1 -5 5 -31.5t5 -41.5q2 -24 8.5 -69t8.5 -64q2 -16 10 -46t9 -37q3 -19 12.5 -53.5t12.5 -50.5q3 -25 0 -27q-5 -4 -6 -8.5t1.5 -10.5t2.5 -8l3 -14 q5 -22 -15 -29q-7 -5 -11 4q-5 6 -22 8q-3 1 -24 1t-32 6q-6 -3 -18 1.5t-15 4.5q-16 1 -23 20q-2 6 -13.5 32.5t-16.5 41.5q-7 20 -23 57t-23 57q-8 24 -64 156q-34 77 -48 123q-4 14 -13.5 39.5t-12.5 35.5q-4 -1 -4 -8q26 -239 27 -248q4 -33 15 -94.5t14 -83.5 q3 -18 10.5 -51.5t10.5 -47.5q2 -8 3 -17.5t2.5 -21t2.5 -19.5q-6 3 -18 10.5t-20 9.5q-9 2 -9 14q-1 11 -10 25q-6 7 -8 22q-7 34 -23 142q0 2 -3 17.5t-6 23.5q-1 1 -1 3t-0.5 4t-0.5 4q-2 32 -11.5 91t-11.5 81q-6 57 -23 194q-1 13 -7 41q-1 12 9 15q29 6 41 1 q6 -2 16 3t21 7t26 2.5t22 1.5zM317 44q1 -14 3 -16t16 0q-10 17 -19 16z" glyph-name="N" horiz-adv-x="453" unicode="N"/><glyph d="M94 724q15 4 21 -5q3 -4 -2 -8.5t-5 -7.5q41 7 70 -3q63 -26 87 -73q6 -12 21 -29q39 -55 48 -113q12 -70 15 -105q9 -86 10 -113q2 -26 -6 -74q-2 -12 -9 -44t-9 -51q-3 -44 -26 -75q-3 -4 -10.5 -9t-8.5 -6q-21 -21 -45 -21q-12 1 -19 -6q-7 -8 -22 -1q-13 9 -11 18 q1 3 -9 15q-4 -9 -19 -9t-22 -1q-24 -5 -49 18q-11 11 -16 18q-1 1 -5 7t-6 8l-6 6t-8.5 5.5t-10.5 1.5q9 10 1 17q-36 26 -49 91q-8 39 -28 145q-5 23 -6 43l-7 103q-3 87 16 148q10 40 41 69q4 3 34 21q20 15 30 12q2 -1 11 4q7 4 9 4zM118 665q-22 0 -33 -12 q-21 -23 -25 -46q-9 -38 -2 -70q8 -24 8 -35q1 -19 5 -53.5t5 -45.5q1 -23 15 -114q2 -12 21 -113q11 -45 22 -57q4 -5 15 -19.5t17 -20.5q-11 1 -24 13.5t-17 14.5q2 -3 13 -22q6 -10 10 -14q11 -11 14 -10q11 1 23 -15q9 -11 16 -10q12 0 23 11.5t10 23.5q-1 15 1.5 43 t2.5 34q3 95 2 106q-6 80 -7 120q0 11 -0.5 38.5t-1.5 42.5t-4 38t-8 42q-19 70 -36 101q-11 21 -33 26q-22 4 -32 3z" glyph-name="O" horiz-adv-x="461" unicode="O"/><glyph d="M-56 707q3 -2 14.5 -3t16.5 -7q4 -4 7 -4q5 3 23.5 1t24.5 -2q72 2 89 0q71 -6 100 -26q24 -16 46 -39q8 -8 15.5 -25t8.5 -18q1 -2 1.5 -5t1.5 -5q3 -10 7 -33.5t6 -31.5q8 -47 3 -70q0 -1 -5 -13q-3 -7 -8 -19t-7.5 -17.5t-7 -11.5t-10.5 -9q-9 -5 -45 -33 q-8 -6 -10 -6q-13 -6 -26 -14t-29 -19t-25 -17l-13 -7q-18 -10 -18 -24q0 -2 1 -10t1 -10q5 -20 7.5 -57t6.5 -53q2 -3 2 -24.5v-24.5q5 -42 15 -70q3 -8 2 -13q-2 -12 -11 -8q-5 2 -20 1.5t-26.5 4.5t-18.5 19q-2 4 -5 20t-5 18q-2 1 -3 -7q-1 -5 -1 -19q0 -20 -2 -20 q-25 0 -31 25q-5 30 -4 38q-1 16 -5.5 48.5t-5.5 40.5l-7 53q-2 12 -14 10q-7 -2 -10 1t-1 10q5 14 10 14q4 1 6 2t2.5 3t0.5 3.5t-0.5 5t-0.5 4.5q-3 17 -12 67.5t-13 78.5q-11 74 -18 143q0 1 -3 80q0 2 -6 37q-1 3 -1.5 7.5t-1.5 6.5t-10 5t-10 5q0 3 8 6.5t9 8.5 q1 4 6 6.5t9 1.5zM35 666q-2 0 -2 -3q1 -4 5.5 -18t5.5 -22q0 -6 5 -41q8 -86 18 -127q3 -10 7 -39.5t10 -45.5q1 -5 3 -14t3.5 -16.5t2.5 -14.5q3 -13 6 -18q6 4 7 7q5 9 21.5 20t22.5 18q1 1 10.5 9.5t11.5 14.5q19 54 21 90q0 9 8 11q3 -20 -6 -55q0 -2 0.5 -3.5 t0.5 -2.5q5 0 11 18t7.5 39.5t-4.5 38.5q0 2 -3 2q-1 -1 -2.5 -5t-3.5 -6q-5 5 -5 18q1 6 1 27q0 13 -6 29q-5 16 -8 20q-26 40 -36 50q-12 12 -26 16q-8 5 -43.5 4t-42.5 -1z" glyph-name="P" horiz-adv-x="418" unicode="P"/><glyph d="M109 709q33 3 73 -31q12 -10 15 -23q0 -2 8 -15q14 -23 16 -33q6 -19 20 -27q1 4 -2 10t-2 9q6 0 11 -10q21 -60 20 -79q-1 -17 10 -45q14 -36 17 -79q1 -17 3.5 -46.5t4 -54t1.5 -45.5q2 -70 -21 -125q0 -1 -5 -14.5t-10 -19.5q-2 -2 1 -12q6 -21 35 -84q5 -11 18.5 -16 t23.5 0l6 3q9 2 12 -5q5 -5 2 -10l-6 -9q-6 -7 -11 -17q-5 -18 -24 -18q-34 0 -52 22q-14 18 -41 63l-6 9q-4 -1 -12 -6q-14 -10 -31.5 -10.5t-28.5 3t-33 12.5q-7 2 -10 9q-4 19 -27 17q-27 -2 -51 28q-53 66 -63 155q-19 139 -22 176q-7 99 0 176q6 46 28 91q12 22 45 39 q6 2 18 -1q2 0 8 -2t10 -2q24 -2 30 9q3 6 22 8zM99 661q-3 -1 -7.5 -5.5l-6.5 -6.5q16 -14 1 -29q-11 -13 -17 -52v-49q0 -18 2.5 -51t2.5 -46q2 -36 4 -43q4 -14 5.5 -39t2.5 -30q2 -17 7 -49t7 -44l3 -12q2 8 29 23q17 8 36 4.5t31 -17.5q22 -27 26 -41q3 -18 14 -31 q6 22 8 80q-2 75 -15 135q-7 34 -23.5 103t-23.5 104q-8 37 -42 81q-20 25 -44 15zM225 530q-2 -4 6 -22v6t-1 9t-5 7zM139 194q-23 0 -33 -3q0 -14 2.5 -26t9 -32t7.5 -25q11 -48 13 -53q5 -16 22 -20q13 -5 23 8q2 3 9 13q10 11 3 25q-11 22 -14 44q-3 18 -25 59 q-5 10 -17 10z" glyph-name="Q" horiz-adv-x="411" unicode="Q"/><glyph d="M20 697q13 -2 27 -3t31.5 -1.5t26.5 -1.5q63 -4 86 -19q18 -12 49 -24q20 -9 31 -30q31 -58 33 -94q0 -6 4 -16t4 -15q9 -56 -36 -103q-5 -6 -12.5 -11t-17 -11t-14.5 -10q-8 -8 -16 -10q0 4 5 9.5t4 10.5q-10 -2 -28 -20q-5 -6 7 -13q7 -5 14.5 -11.5t16.5 -15t14 -12.5 q27 -24 51 -71q44 -84 68 -124q8 -20 9 -22q10 -24 23 -45q5 -7 5 -23q0 -14 -12 -15q-1 0 -3 -5q-5 -10 -14 -2q-19 15 -31 5q-4 -4 -11 0q-3 2 -12.5 7t-14.5 8t-11.5 9t-10.5 12q-5 9 -17 25q-50 83 -111 201q-14 23 -18 29q-21 -12 -15 -32l1 -8q-2 -16 0.5 -34.5t7 -42 t6.5 -35.5q12 -84 12 -106v-7t-0.5 -7t-3.5 -4.5t-9 -0.5q-2 1 -3.5 -1.5t-0.5 -4.5q-2 -5 -2 -15q-10 4 -42 29q-16 -20 -39 -6q-26 14 -30 41q-1 8 -1 23.5t-2 23.5q-4 22 -10.5 68t-10.5 68q-1 5 -3.5 14.5t-2.5 11.5q-22 71 -27 155q-2 29 -7 83t-7 75q-5 62 -8 75 q0 10 -3 15q-5 0 -15.5 -3.5t-16.5 -2.5q-1 2 1 6t-1 6q-11 10 3 15q58 20 110 13zM63 652q23 -120 39 -295q8 4 9 5q64 73 81 102q16 28 18 86q0 5 -4 13q-8 13 -8 25q0 10 -11 15q-2 1 -4.5 2.5t-5.5 3.5t-5 3q-45 32 -65 37q-11 3 -44 3z" glyph-name="R" horiz-adv-x="452" unicode="R"/><glyph d="M104 711q35 4 60 -1q36 -10 50 -42l25 -57q4 -7 5 -14t0 -18.5t-1 -13.5q-1 -4 -7 -7.5t-7 -6.5q-1 -6 -6 -16.5t-6 -12.5q-3 1 -6 6t-5 6q-3 -1 -3.5 -7t-3.5 -7q-2 -2 -3 1q-30 34 -29 71q2 17 -8 41q-6 15 -23.5 27.5t-29.5 7.5q-6 -2 -16.5 -6.5t-12.5 -5.5 q-12 -6 -18 -26q-2 -4 -5 -18t-6 -19q-6 -8 -3.5 -25t11.5 -24q15 -11 28.5 -25t31 -34l24.5 -28q23 -26 70 -62q33 -28 55 -57q6 -8 22 -24q12 -10 19 -23.5t14 -33.5t10 -28q2 -6 13 -65q2 -20 -9 -27q-4 -2 -4 -13q-3 -35 -21 -72q-9 -17 -23 -18q-6 -1 -10 -7 q-10 -14 -36 -28q-9 -4 -12 -3q-13 5 -31 -5q-41 -25 -126 22q-4 3 -37.5 31.5t-34.5 30.5q-8 9 -6 9q1 0 10 -5q11 -8 12 -7q2 1 -5 10q-11 15 -12 28q0 5 -3 9.5t-8 9.5t-7 8q-1 1 -4.5 5t-4.5 7q11 11 19 2q6 -5 11 -5.5t6 -1.5q4 -2 8.5 -5.5t8.5 -6.5q7 -5 14 -14.5 t9 -11.5q10 -11 39 -24q7 -3 26.5 -12t29 -12t23.5 -1t23 13q20 24 15 66q-5 31 -21 74q-3 9 -9 15q-82 99 -134 140q-57 42 -74 86q-3 7 -11.5 22t-10.5 24q-4 18 -2 26q0 1 4 35t8 50q15 53 65 90q13 10 33 7q12 -1 18 -0.5t17.5 3t17.5 3.5zM12 433q27 -37 89 -81 q1 0 -2 6t-8 13t-9 11q-6 7 -15 14t-11 11q-5 3 -13.5 9.5t-16 10.5t-14.5 6zM-35 124q7 0 11 -3.5t8.5 -9.5t6.5 -8q-3 -3 -6.5 -1t-5 2t-4.5 4t-4 5t-3.5 5.5t-2.5 5.5z" glyph-name="S" horiz-adv-x="415" unicode="S"/><glyph d="M267 711h11q7 0 14 -10q7 -8 -2 -14q-4 -3 -9 -11t-9 -11q-4 -1 -1 -4.5t3 -4.5q-11 -7 -25 -5q-34 2 -52 2q-17 1 -39 -2q-15 -1 -18 -15q-3 1 -6.5 2t-6.5 2t-7 1.5t-7 0.5q3 -4 5.5 -12.5t6.5 -14.5t12 -10q5 -3 5 -14q1 -13 6.5 -36.5t6.5 -28.5q7 -30 13 -90 q3 -20 8 -65t9 -69q3 -18 11 -52q4 -14 14 -87q0 -1 1 -14.5t2 -20.5q2 -14 3.5 -41t2.5 -38q1 -10 -4 -26.5t-5 -24.5v-4q-4 -2 -13.5 -3.5t-13.5 -4.5q-3 -2 -12 2q-3 2 -11.5 6.5t-10.5 5.5q-9 4 -17 -1q-10 -6 -22.5 2.5t-13.5 21.5q0 2 -12 76q-7 39 -3 67q0 40 -9 60 q-5 15 -7 33q0 10 -3.5 27t-4.5 22q-2 18 -7 54t-7 54q-12 78 -9 116q0 5 -5 47q-3 31 -1 37q2 3 -3 20q-3 7 -12 9q-44 2 -58 0q-12 -2 -33.5 -2h-26.5q-9 -1 -18 6q3 4 9 6q8 3 5 12q-3 8 9 11q8 2 55 5q5 0 102 15q11 1 39 5.5t48.5 6t40.5 0.5q34 -3 82 1zM44 642 q0 2 -3 -1q-3 -4 -0.5 -16t7.5 -13l6 -1q-1 2 -3 15t-7 16z" glyph-name="T" horiz-adv-x="410" unicode="T"/><glyph d="M30 717q10 2 13 -8q14 -37 17 -69q1 -24 15 -74q4 -18 7 -51t4 -39l6 -87q5 -54 3 -89q-1 -16 8 -60l10 -57q4 -22 10 -35q4 -9 15 -33t17 -36q4 -7 14 -18t13 -16q10 -15 31 -15q25 0 34 7q37 28 31 79q-6 49 -5 91q0 12 -2 17q-3 14 -8 124q0 25 -11 65q-13 51 -16 109 q-1 16 -6.5 44.5t-6.5 35.5q0 2 -1 7.5t-1.5 8t-0.5 6.5t1 8t4 7q1 2 -2 20q-2 13 7 14q17 1 23 -11q5 -15 5 -20l4 -30q7 9 1 35t-4 36q7 1 9 -5q2 -12 2 -13q0 -15 5 -44.5t6 -44.5q2 -10 2 -29q0 -7 5 -45q18 -74 21 -100q5 -95 9 -118q3 -17 5 -36t4 -42t3 -36 q1 -6 -2 -47q-3 -17 4 -32q13 -36 -12 -73q-7 -10 -22 -12q-10 -2 -35 -10q-10 -5 -21 -5q-8 3 -10 -2q-3 -9 -22 -7q-15 3 -29 -1q-29 -5 -64 14q-11 5 -31 17.5t-30 17.5q-34 18 -50 70l-12 40q-2 5 -1 13t0 13q-8 39 -17 137q-8 85 -22 159q-9 51 -11 152q-1 10 0 29 t0 28q-1 16 3.5 22.5t19.5 10.5q4 2 9 0q6 -6 24 -4q11 0 13 3q1 2 1 5q2 7 17 9z" glyph-name="U" horiz-adv-x="423" unicode="U"/><glyph d="M300 750l-4 -24q-1 -6 -5 -24t-4.5 -24t0.5 -24q1 -16 0.5 -24t-3 -23t-3.5 -23q-1 -14 -1.5 -44.5t-2.5 -46.5q-6 -74 -10 -107q-3 -20 -3 -79q0 -39 -3 -52q-1 -7 0 -23.5t0 -24.5q-1 -5 -1 -33q0 -36 -4 -53q-6 -24 -6 -50q0 -28 -4 -42q0 -2 -1.5 -10.5t-0.5 -11.5 q0 -9 -3 -13t-4.5 -5t-9.5 -4q-3 4 -2 14t-3 14q-6 -3 -7 -8q-3 -30 -31 -35q-4 -1 -15 5q-7 4 -14 0q-10 11 -17 25t-13.5 33t-10.5 28q-27 50 -40 87q-7 17 -22 68.5t-29 78.5q-7 15 -11 36q-5 22 -22 62t-22 56l-29 94q-1 9 -6 18l-3 13q2 3 0 9t-3.5 9t-4.5 8.5t-5 8.5 q-6 15 -12 44q-2 8 4 10q6 -7 12.5 -25.5t12.5 -26.5q-2 38 -12 64q-6 17 10 18q22 3 34 -12l4 -6q4 0 8 7.5t6.5 13.5t9.5 0t19 -29q9 -14 15 -32q4 -11 16 -38t17 -43q12 -34 34 -104q7 -21 28 -54q3 -4 3 -9q6 -22 23 -65t24 -65q29 -100 38 -125q5 39 7 88q0 31 2 46 q2 10 2.5 22t-0.5 27.5t-1 22.5q0 26 1 31q3 15 3 45t2 44q1 15 0 46t1 46q9 70 16 113q7 40 9 43q2 14 8 15q1 1 2 -1t1 -9q0 -9 2 -9q1 0 4 4q1 1 4 11t5.5 15t8 11t12.5 7zM270 746q2 -5 2.5 -8.5t-0.5 -5.5t-3 -3t-4 -1t-4 1q-1 6 1 10.5t5 6t3 0.5zM223 105 q-1 -1 -4 -26t-3 -27q-1 -2 1.5 -9.5t4.5 -9.5q6 11 5 13q3 52 -4 59z" glyph-name="V" horiz-adv-x="432" unicode="V"/><glyph d="M402 710q8 0 14 -13q9 -15 7 -43q-5 -100 -5 -121q-2 -120 -5 -180q-1 -6 0 -41t1 -42q0 -27 -1 -40q-1 -14 7 -105l6 -60q2 -16 -1 -21q-2 -4 0 -15q4 -13 1 -20q-17 -3 -47 3q-26 5 -38 29q-51 110 -68 163q-7 23 -22.5 66t-20.5 57q-4 11 -11 31.5t-11 31.5 q-2 -82 2 -108q1 -10 0.5 -31t1.5 -31q4 -27 4 -100q0 -10 0.5 -29.5t0.5 -35t-1 -28.5q-2 -8 -8 -22.5t-7 -17.5q-9 5 -35 14q-13 3 -15 -4q-1 -4 -8 0l-10 10q-3 -1 -3.5 -6.5t-5.5 -5.5q-2 3 -8.5 9t-9.5 9.5t-6.5 10t-4.5 12.5q-3 9 -13 11q-19 4 -26 28l-36 149 q-26 110 -36 165q-1 5 -17 59q-12 32 -33 118l-12 29q-8 17 -19 69q2 3 7 3t7 1q3 2 0 7q-5 15 0 20.5t20 2.5q13 -2 23 -9q1 -1 4.5 -4t5 -3.5t5.5 0.5q1 1 12.5 3t13.5 10l2 -1q1 0 1 -1q34 -49 45 -97q6 -30 18.5 -83.5t15.5 -67.5q3 -12 7 -34t6 -31l28 -104 q9 -34 23 -79q4 -12 7 -19q10 28 11 36t-2 28q-2 18 1 33q7 22 2 30q-2 2 0 7q2 28 3 80.5t2 75.5q3 91 4 101q1 6 -2 36q-2 8 6.5 13t14.5 -1q5 -5 9.5 -6t11.5 0t8 1q13 -1 15 -5q1 -2 2 -8q4 -12 12 -35t9 -27q4 -12 14 -47t17 -54q2 -6 52 -152q12 -38 23 -62q3 1 3 7 q0 9 1.5 34t-0.5 35q-2 22 0 87q0 7 -0.5 15.5t-1.5 18.5t-1 16q-3 26 5 53q4 15 8 67q4 85 10 115q2 14 0 26q-3 12 11 14z" glyph-name="W" horiz-adv-x="546" unicode="W"/><glyph d="M206 710q15 -35 1 -88q-7 -21 -18 -64.5t-15 -57.5q-26 -85 -22 -92q6 -11 13 -34t11 -29q5 -9 9 -23t8 -22q38 -74 51 -113q3 -9 15 -37.5t15 -45.5q2 -8 7.5 -21.5t7.5 -18.5q3 -8 4 -9q6 -8 4.5 -12.5t-6.5 -14t-5 -14.5v-4q1 -10 -7 -9q-1 0 0 -6q1 -10 -2 -9 q-2 0 -6 3q-10 0 -15 5q-4 3 -9 3.5t-8 0t-10 -3t-9 -2.5q-18 -5 -29 15q-4 10 -26.5 52.5t-30.5 67.5q-3 13 -28 70l-6 15l-6 15q-4 -4 -5.5 -8t-3 -10t-2.5 -8q-4 -12 -7 -25.5t-6 -30t-5 -25.5q-2 -10 -10 -30q-11 -32 -22 -59q-8 -20 -30 -20q-14 0 -10 11 q10 27 20.5 80.5t13.5 63.5l25 107l9 22q4 9 1 15q-9 19 -23 55.5t-21 52.5q-15 31 -35 68q-26 49 -45 106q-16 52 -29 65v6q2 2 7 0.5t7 -0.5q1 1 1 2q1 2 1 3q-1 10 12 17q13 6 33 -3.5t37 -33.5q2 -2 1 2q-1 3 -4 11q-9 23 -7 24q3 2 22 -16.5t39 -43.5t24 -38 q5 -19 36 -88q0 -7 4 -9q3 1 4.5 4t2 7.5t1.5 6.5q4 15 10.5 49.5t17.5 57.5q3 5 8.5 14.5t9 17t5.5 14.5q2 9 7.5 21.5t6.5 18.5t11 9z" glyph-name="X" horiz-adv-x="359" unicode="X"/><glyph d="M221 705q24 -11 19 -35q-3 -11 -8.5 -39t-9.5 -42q-2 -5 -1 -8q2 -18 -1.5 -37t-9.5 -41.5t-8 -35.5q-15 -77 -19 -87q-7 -22 -3 -53q1 -13 6.5 -38t6.5 -37q20 -169 21 -182l2 -13q9 -40 -1 -62q-11 6 -14 5.5t-11 -7.5q-7 -7 -10 -7.5t-12 4.5q-1 1 -6.5 4.5t-7.5 5.5 q-11 9 -17 7q-2 0 -3 1q-1 0 -5.5 5.5t-9.5 3.5q-3 -2 -4 -8t-2 -8q-2 -2 -4 -3q-3 2 -10 17q-13 43 -22 167q-1 49 -15 97q-12 48 -29 67q-8 8 -23 48q-28 69 -64 177q-28 74 -41 95q-5 8 2 30q0 4 5 2q56 -2 92 -48q2 -3 12.5 -16.5t18.5 -21.5q0 16 -9 30q-4 6 2 17 q17 -11 19 -24q3 -13 13 -23q8 -10 16 -32q7 -22 23.5 -63t19.5 -51q7 -18 28 -56q40 200 74 295zM6 678q7 0 7 -6q6 -8 1 -9q-1 -1 -4 1q-6 2 -8 9q-2 5 4 5z" glyph-name="Y" horiz-adv-x="369" unicode="Y"/><glyph d="M249 700q26 -5 46 -1q1 0 5 -2q1 -4 -3.5 -10t-2.5 -11q0 -4 -10 -7q-4 -1 -5 -2.5t-0.5 -5.5t-1.5 -9q1 -3 1 -11.5t2 -12.5q4 1 5.5 3t2.5 6l2 4l9 15q3 3 10 1q4 -2 4 -8q0 -7 -3 -10q-15 -19 -18 -48q-1 -8 -7.5 -18.5t-7.5 -15.5q-3 -9 -4.5 -26.5t-2.5 -22.5 q-12 -55 -17 -65q-5 -8 -8 -19t-4.5 -18t-3 -21t-2.5 -19q-4 -24 -9 -33q-5 -12 -16 -56q-4 -15 -11 -43.5t-11 -41.5q-1 -4 -2 -9t-2 -11.5t-2 -9.5q-2 -15 -9.5 -51.5t-9.5 -58.5q31 3 91 1q14 0 43 2t44 1l19 -3q13 -2 15 -11q0 -2 -1.5 -4.5t-4 -3.5t-5.5 -2 q-9 -3 -29.5 -15.5t-32.5 -13.5t-31 1q-9 2 -23 1.5t-23 0.5q-8 2 -15 -1q-9 -2 -41 -2q-29 0 -38 -3q-7 -1 -10.5 -0.5t-11 2t-11.5 1.5q-30 0 -49 -6q-4 -1 -12 -2.5t-12 -2.5q-3 -1 -9 -1q-16 5 -21 16q-2 6 -0.5 7.5t4.5 5t4 6.5q-18 36 -2 69q21 43 31 96q1 11 8 24 q0 -2 0.5 -3.5t1.5 -3t1 -2.5q2 2 2 3q14 92 21 120q1 10 20 79q5 18 15 57t16 59q8 35 28 90q7 24 14 42q-38 4 -49 4q-3 0 -9.5 -4t-9.5 -3q-3 0 -10.5 1.5t-10 1.5t-9.5 -2q-3 -1 -9 1q-19 6 -84 8q-18 0 -27 10q-9 11 0 19q9 6 21 5q29 -4 79.5 -3t80.5 -1q8 -1 34 4 q29 6 59 -1q15 -4 20 2q3 4 14 2zM217 343q-8 -8 -10 -38q0 2 5.5 15.5t4.5 22.5zM194 278q-10 -13 -21 -73q-8 -33 -22 -78q-2 -11 -9 -37t-9 -41h4h5h4t3 1.5t1 4.5q1 10 8.5 37t5.5 43q0 8 3 12q2 3 7 21l15 64q1 8 4.5 22.5t5.5 21.5q-4 2 -5 2z" glyph-name="Z" horiz-adv-x="448" unicode="Z"/><glyph d="M87 734q1 -1 12 -1q2 0 7 -0.5t8 -1.5q6 -2 7.5 -7t-2.5 -8q-10 -10 -14 -16q-2 -5 -16 -5q-7 0 -9 -3q-4 -8 -15 -6q-8 1 -25 -2t-27 -1q-4 1 -2 -4q1 -1 1 -2q2 -6 8 -25t8 -29q4 -23 6 -63q1 -12 6.5 -36t6.5 -35q1 -5 2.5 -14.5t2.5 -17.5t1 -15q-1 -6 1.5 -19 t2.5 -15q3 -30 9 -60q4 -21 6 -42q2 -12 11 -50q4 -20 4 -43q0 -5 2.5 -13t2.5 -12q0 -22 7 -54q15 -92 18 -100q5 -15 -3 -45q-2 -11 1 -13.5t12 -1.5q6 0 18 0.5t18 0.5q27 2 43 -5q5 -2 14 1t11 3q11 1 20 -8q3 -3 1 -6.5t0 -6.5q4 -9 -1 -16q-2 -2 -5.5 -4.5t-5.5 -5 t-3 -5.5q-1 -1 -7 -1q-6 3 -9.5 2t-1.5 -9q1 -2 -5 -2q-11 -2 -35 2q-26 4 -57 -3q-30 -7 -63 2q-8 2 -10 5.5t-1 11.5q0 4 -1.5 6.5t-5 5t-4.5 3.5q-4 4 -5 7q-12 35 -18 73q-3 13 -7.5 41.5t-5.5 35.5q-7 47 -7 61q0 26 -7 63l-13 80q-14 86 -20 129q-5 18 -5 34 q1 8 -6 33q-3 22 -6 67t-5 60q-1 6 -1.5 22t-2.5 25q-2 7 4 22q1 -5 4.5 -4t5.5 -3q0 15 -6 18q-3 1 -3.5 3.5t0 5t-0.5 4.5q0 3 1.5 3.5t3 0t2.5 0.5q10 2 22 2t26.5 -1t22.5 -1q5 0 10 1t11.5 2.5t10.5 2.5t14 4.5t14.5 3t16.5 -5.5z" glyph-name="bracketleft" horiz-adv-x="313" unicode="["/><glyph d="M-47 732q7 -15 24.5 -45t25.5 -47q5 -12 31 -63t34 -73q2 -5 11.5 -34t17.5 -44q10 -22 30 -63t24 -50q10 -23 33 -82t39 -90l1 -3q1 -4 2 -6q32 -83 37 -92q14 -26 31 -69q6 -22 -1 -29q-5 -5 -11.5 -16.5t-11.5 -17.5q-28 43 -33 57q-5 17 -21 47q-5 7 -9 16 q-9 19 -18 42t-19.5 51t-16.5 43q-8 19 -23 57t-23 57q-7 16 -20.5 48.5t-19.5 49.5q-3 8 -11.5 22.5t-11.5 22.5q-3 7 -47 101q-41 86 -48 106q-11 30 -24 60q-2 2 -3 6.5t-2 5.5q-3 8 -2.5 11t4 1.5t5.5 -1.5t2 2q-4 13 3.5 18.5t20.5 0.5z" glyph-name="backslash" horiz-adv-x="357" unicode="\"/><glyph d="M-20 734q10 5 14.5 5.5t15.5 -3t15 -4.5q33 -6 34 -6q62 3 71 1q1 -1 2 -0.5t2.5 0t2.5 -3.5q3 -11 0 -13q-2 -1 -3 -3t-1 -3.5t1.5 -5.5t1.5 -6q0 4 4 3t4 4q10 -16 10 -22q1 -9 4 -25.5t4 -21.5q2 -17 10 -61.5t10 -65.5v-15t2 -18q5 -15 5 -34q2 -19 4 -40.5t4.5 -48 t3.5 -40.5l7 -80q8 -56 10 -63q5 -26 7 -61q8 -56 9 -87q3 -37 0 -73q0 -5 -2 -7q-9 -9 -7 -15q5 -13 -7 -17q-30 -9 -63 -3q-33 7 -57 3t-35 -2q-6 0 -5 2q-1 12 -13 6q-6 0 -7 1q-2 3 -5 5.5t-7 5t-6 4.5q-6 6 -6 16q1 2 -1.5 6t-0.5 7q7 9 18 8q3 0 12 -2.5t14 -0.5 q14 7 41 5q6 0 18 -0.5t18 -0.5q10 -1 12 1t-2 14q-15 32 -16 65l-3 45l-3 45q-5 45 -7 54v11t-2 14q-7 25 -6 43q0 26 -3 50l-3 21t-2 21q0 10 -5 60q-3 29 -4 34q-2 4 -7 47q-1 11 -2 35t-3 36q-7 33 -9 63q-1 6 2 54q-2 6 -3 6q-8 -2 -26 1t-26 2q-11 -2 -17 6q-2 3 -9 3 q-14 0 -18 5q-17 15 -19 16q-4 3 -3.5 8t4.5 7q3 1 8 1.5t7 0.5q11 0 12 1z" glyph-name="bracketright" horiz-adv-x="309" unicode="]"/><glyph d="M45 714q2 0 19 -2q4 0 6 -7q5 -8 12 -4q8 3 9 2t4.5 -3.5t5.5 -5t2 -5.5v-6q9 -9 15.5 -29.5t8.5 -24.5q1 -3 5.5 -14t8.5 -17q2 -4 5 -11.5t5 -11.5q36 -83 40 -91q6 -12 17 -37t18 -38q6 -15 9 -30q12 -40 11 -54q-5 2 -9 8q-4 10 -20 10q-17 0 -22 8q-8 8 -16 12 q-25 13 -43 56q-8 18 -19.5 52t-16.5 48q-1 3 -3.5 14t-4.5 16q-6 1 -6 -3q-2 -18 -15 -65q-7 -30 -17 -40q-2 -2 -2 -4q0 -14 -7 -24q-3 -1 -2.5 -17t0.5 -18q-1 -6 -3 -17.5t-3 -17.5q-2 -6 -6 -6q-5 0 -6 -3q-3 -9 -17 -3q-12 7 -16 11q-9 10 -19 3q-2 5 -8 11 q-8 11 -4 32l9 41q2 9 5.5 27t5.5 26q5 22 16.5 62.5t16.5 60.5q2 10 6.5 27t7.5 31.5t4 27.5v6t1 6q0 11 12 11z" glyph-name="asciicircum" horiz-adv-x="352" unicode="^"/><glyph d="M262 -35q51 0 76 -15q-16 -30 -55 -30h-95q-5 0 -15 -2q-33 -5 -102 -7q-13 0 -17 7q-2 6 -11 4q-8 -1 -21 2q-7 1 -9 13q-2 9 6 13q7 3 16 3q42 6 85 9q21 2 79.5 2.5t62.5 0.5z" glyph-name="underscore" horiz-adv-x="397" unicode="_"/><glyph d="M-54 606q6 2 10 -2q7 -10 15 -3q16 14 32 1q30 -21 39 -39q6 -8 22 -19.5t22 -18.5q4 -6 4 -10q-3 -3 3 -8q2 0 7 -3.5t8 -3.5q4 -3 13 -17q-16 -2 -17 -2q-3 -1 -6 2v-2v-1v-4.5t-2 -3t-5 0.5q-6 0 -4 -5q0 -3 -1.5 -4t-3.5 -0.5t-3 2.5q-3 3 -6.5 5t-8.5 3.5t-8 2.5 q-33 18 -55 33q-4 3 -12 12t-15 12q-1 1 -9.5 4.5t-12.5 7.5l-5.5 5.5t-5.5 6l-4 6t-2 6.5t1 8q0 2 -1.5 4.5t-1.5 3.5q9 0 12 12q-3 5 1 8z" glyph-name="grave" horiz-adv-x="245" unicode="`"/><glyph d="M161 415q24 0 48 -20q28 -27 24 -58v-6q11 -28 9 -72q-1 -5 2 -13t3 -11q13 -90 14 -103q1 -7 0 -24t0 -24q0 -12 9 -34q17 -2 34 13q20 7 50 36t33 31q5 -18 -12 -42q-5 -6 -23.5 -23t-21.5 -21q-21 -19 -49 -37q-23 -17 -64 -16q-8 0 -22 16q-8 12 -18 22q-5 0 -9 -6 q-3 -8 -7 -8q-7 -1 -14.5 -7.5t-13.5 -9.5q-3 -4 -17.5 -2.5t-18.5 1.5q-5 0 -6 -2l4 -2h2l9 -2q-7 -6 -42 -4q-40 3 -55 19q-20 23 -26 32.5t-9 26.5l-7 39q-8 45 19 88q24 38 72 50q44 14 46 15q5 3 16 0.5t16 -0.5q1 23 -14 103q-3 22 -22 14q-37 -16 -81 -17 q-1 0 -4.5 -0.5t-4.5 -1.5q-11 -6 -17 -4.5t-16 6.5t-16 5q-2 7 3 7q9 3 23.5 7.5t25 7.5t17.5 4q10 1 19.5 4.5t20.5 8.5t18 7q4 1 8 2.5t7.5 2.5t7.5 2q17 1 33 -7q25 -12 32 -11q2 2 0.5 4t-2 2.5t-3.5 2t-4 2.5q-7 1 -9 5q1 1 3 2zM141 230q-12 -3 -13 -7q-6 -8 -9 -8 q-7 0 -11 -4q-4 -3 -9 -8.5t-10 -9.5q-15 -12 -18 -27q-9 -34 -4 -66.5t18 -43.5q2 -1 5 -4t4.5 -4t4 -3t4.5 -3t4 -1.5t4.5 0t5.5 1.5q4 1 18.5 9t19.5 10t5 16q-3 15 -3 18q0 7 -5 27t-5 37q0 6 -2 19.5t-1 20.5t-1 17t-2 14zM1 50q0 -1 -0.5 -3.5t-1 -4t0.5 -3t3 -2.5 q4 -2 9.5 -8t7.5 -8l8 -7q9 -7 17 -6q-27 27 -34 38q-5 11 -9 10q-2 0 -1 -6z" glyph-name="a" horiz-adv-x="373" unicode="a"/><glyph d="M-33 620q10 4 15 -4q16 -19 24 -24q2 -1 7 -11q2 -9 6.5 -23.5t7.5 -27t4 -23.5q2 -26 9 -76.5t9 -73.5q0 -3 5 -6q33 34 99 54q35 10 52 -18q4 0 5 4t5 3q7 -3 8 -8q0 -11 6 -20q7 -10 9 -10q13 -2 15 -18q19 -68 20 -133v-5q8 -18 6 -65q-2 -48 -8 -67q-9 -26 -29 -54 q-13 -18 -39 -26q-8 -3 -12 -1q-9 5 -25 8t-24 7q-3 1 -15 11q-2 2 -10 12.5t-14 14.5q-3 -8 0 -26.5t-3 -24.5q-5 -1 -9 5t-6 7q0 -13 -4 -17q-4 3 -24 17.5t-32 19.5q-2 -2 -1.5 -8t-3.5 -8q-17 9 -18 28q0 10 -5 29t-6 27q-14 86 -18 144q-1 11 -3.5 32t-3.5 28 q-1 15 -24 206q-10 77 -11 88q-1 13 0.5 16t13.5 7q8 2 22 10zM150 368q-36 -4 -45 -12q-22 -19 -36 -38q-12 -14 -10 -37q2 -12 9.5 -47t8.5 -54q1 -11 6.5 -32.5t6.5 -32.5q1 -9 3.5 -27.5t2.5 -21.5q10 -3 28 -12t24 -11q15 28 18 44q10 36 10 100q0 73 -10 140 q-1 6 -4 17t-4 16q-4 8 -8 8z" glyph-name="b" horiz-adv-x="366" unicode="b"/><glyph d="M103 414q3 -1 10 -3.5t10 -4.5q4 -3 8 1q9 9 21 -2q1 0 2.5 -1t3 -1.5t2.5 -1.5q39 -22 46 -67q6 -33 -1 -47q-3 -6 -11.5 -15t-11.5 -13q-3 -3 -7 -2q-6 1 -8 0.5t-6 -5t-6 -5.5q-13 13 -15 32q-1 10 -2.5 29t-2.5 28q-3 22 -16 36t-29 14q-15 1 -19 -10 q-2 -4 -6.5 -11.5t-6.5 -11.5q-8 -15 -2 -34q0 -2 1 -7t0 -8q-4 -14 1 -67q2 -20 10 -37q2 -2 2 -3q-1 -11 5.5 -31t7.5 -28q4 -43 19 -69q11 -18 16 -22q15 -14 33 -8q8 2 22 5t22 5t18.5 6.5t19.5 10.5q39 28 54 48q3 5 11.5 11.5t11.5 9.5q11 10 28 7q-1 -12 -25 -38 l-12 -15q-5 -7 -32 -34q-6 -6 -30 -22l-25 -15q-8 -3 -24 -5.5t-25 -9.5q-36 -26 -67 -5q-10 7 -20 3t-18 0q-56 29 -72 91q-9 29 -12 56q-14 104 -12 155q2 45 8 66q7 30 32 31q1 0 20 11q37 23 79 3zM25 337q-5 -5 -3 -23.5t6 -24.5q3 4 2.5 23.5t-5.5 24.5z" glyph-name="c" horiz-adv-x="300" unicode="c"/><glyph d="M206 613q10 5 17 -10q9 -22 21 -68q2 -7 8.5 -27.5t8.5 -31.5q4 -24 7 -66.5t5 -58.5q5 -36 3 -61q0 -31 4 -56q5 -23 5 -41q2 -25 7 -38q8 -30 8 -46q0 -8 7 -38q7 -25 27 -13q9 6 19 10t15 8.5t13 16.5q6 9 14.5 16t20.5 15l18 12q4 2 12 0q3 -9 -2 -15q-1 -1 -3 -5 q-12 -24 -26 -26q-3 -1 -9 -9q-14 -24 -31 -38q-9 -7 -27 -31q-10 -10 -39 -16q-27 -5 -45 1t-37 27l-13 13q-8 21 -8 22q-7 18 -24 96q-17 81 -18 114q-2 33 -16 59q-12 22 -43 43q-2 -7 -3.5 -10.5t-5.5 -6t-10 -2.5q-7 0 -7 -9q0 -3 -1 -5.5t-2.5 -6t-2.5 -5.5 q-12 -42 -4 -66q10 -25 10 -47q-1 -9 2 -55q4 -59 17 -87q4 -8 8 -24q10 -33 39 -23q18 6 34 27q1 3 8 5l2 4q3 -4 2.5 -22.5t-3.5 -29.5q0 -1 -3.5 -6.5t-10 -11.5t-11.5 -7q-45 -3 -95 24q-29 17 -53 69q-1 3 -14 23q-7 10 -11.5 22t-8 29.5t-5.5 23.5q-10 33 -10 98 q0 52 16 89q18 45 61 52q2 0 5.5 2t4.5 2q17 6 28 -4q9 -7 10 -7q38 -12 63 -38q0 39 -2 117l-3 117q8 2 10.5 2t9 -5.5t8.5 -6.5l2 4q-4 12 -1.5 15t13.5 2q10 -2 15 0zM287 35q-2 -4 0 -13q4 -7 10 -4q4 2 0 9q-7 7 -10 8zM65 33q5 -7 18 -17t19 -9q-4 5 -17.5 15 t-19.5 11z" glyph-name="d" horiz-adv-x="422" unicode="d"/><glyph d="M45 419q14 0 15 -1q0 -4 -10 -6t-10 -6q6 -5 13 1q33 19 65 7q2 -1 8 -3t8 -3q18 -8 21 -10l12 -7q12 -7 26.5 -32.5t19.5 -49.5q7 -32 0 -64q0 -1 -1.5 -7t-2.5 -8.5t-4 -6t-8 -4.5q-2 0 -4 -7q-3 -2 -17 -12.5t-27 -15.5q-5 -2 -14 -7t-14 -7q-6 -2 -11.5 -5.5 t-13.5 -9t-13 -8.5q3 -6 9 -21t11.5 -24.5t12.5 -18.5q5 -6 13 -12.5t13 -11.5q17 -20 39 -12q15 6 37 13t36 13.5t33 20.5q4 3 9.5 8t9.5 7t12 4q6 3 23 15q8 5 12 4q3 -7 0.5 -13.5t-3.5 -8t-6.5 -6t-7.5 -6.5q-10 -8 -12 -13q-6 -7 -25 -20.5t-23 -15.5q-17 -9 -31 -20 q-2 -1 -11 -7l-12 -8q-8 -6 -22 -10.5t-17 -6.5q-15 -13 -70 -15q-26 0 -47 18q-44 38 -61 75q-1 2 -4 10q-13 36 -14 39q-1 7 -9 53q-10 51 -4 109q6 70 26 102q18 26 45 31zM108 386q-19 6 -24 3.5t-15 -18.5q-13 -19 -8 -58q1 -18 6 -53.5t5 -52.5q0 -14 4 -25 q4 1 11 7.5t8 6.5q7 5 18 15t17 14t9 9.5t3.5 9.5t1 14.5t0.5 15.5v7t1 7q1 20 -9 43q-3 6 -7.5 17t-6.5 17q-6 17 -14 21zM70 89q-8 -12 2 -25q26 -36 47 -45q0 2 2 4q-24 27 -28 30q-6 5 -12.5 18t-10.5 18zM125 35q7 -12 17 -14q-7 13 -17 14z" glyph-name="e" horiz-adv-x="329" unicode="e"/><glyph d="M108 650q7 -2 10 -6q-39 -9 -53 -8q-5 1 -14 -4q-3 -1 -16 -20q3 -2 9 4q24 17 47 16q4 0 5 1q9 4 12.5 4t11.5 -5.5t10 -6.5q8 -3 11 -13q2 -4 -2 -5t-13 -6.5t-13 -6.5q-27 -9 -34 -37q-5 -18 -12 -93q-1 -8 4 -50q14 -3 37.5 3.5t35.5 5.5q-5 -13 -8 -19.5t-11 -13.5 t-19 -8q-7 0 -27 -9q-11 -5 -8 -12q1 -13 4.5 -61t8.5 -74q20 -109 21 -116q18 -120 26 -180l-1 -2l-2 -4v-2q-3 -1 -7.5 7.5t-6.5 8.5q7 -23 -11 -71q-13 13 -27 14q-13 1 -21 18q-3 8 -18 27q-18 27 -23 61q-12 62 -17 93q-8 52 -11 94q-1 11 -1.5 35t-2.5 43t-7 36 q-4 10 -6 41q-3 15 -5 20q-19 0 -27 -6q-11 -8 -21 3q-9 10 0 18q2 2 -1 13q-4 9 -2 12t12 5l23 3q10 1 12 3t1 13q-1 9 -2.5 26.5t-2.5 26.5q-6 49 3 88q5 20 31 50q31 33 83 42q29 5 35 4z" glyph-name="f" horiz-adv-x="237" unicode="f"/><glyph d="M44 408q24 7 41 -8q1 -1 13 -6q42 -12 52 -53q0 -2 2 -6q1 -2 1 -3l6 -2q-2 45 -7 61q-6 21 13 15q20 -6 38 -22l7 -6q3 0 4 2t1 5t2 4q27 -17 33 -32l2 -6l9 -53q5 -25 12.5 -70t10.5 -59q6 -27 12 -77q2 -16 7 -24q3 0 4.5 1t3.5 3l3 3q28 15 71 51q5 4 21 4 q-6 -24 -31 -46l-26 -23q-7 -6 -12 -10t-8.5 -6.5t-5.5 -3.5q-5 -2 -15 -12q-9 -11 -3 -22q13 -27 4 -51v-5v-6.5v-5.5q8 -43 -6 -87q-18 -58 -44 -86q-11 -15 -24 -15q-7 0 -26 -12q-39 -19 -49 -23q-14 -5 -21 -3t-18 17q-4 6 -12 6q-24 2 -39 31q-3 5 -13 38q-10 30 9 65 q5 10 12 21t12.5 18t15 18.5t14.5 17.5t18.5 14t17.5 11t34 30q2 2 12.5 8.5t11.5 12.5t-6 33q-1 6 -7 25q-12 -8 -14 -15q-2 -6 -9 -17.5t-9 -18.5q-3 -8 -19 -17l-26 -12q-16 -6 -42 8q-6 3 -18.5 9.5t-18.5 9.5q-11 5 -20 19q-30 47 -45 99q-27 99 4 205q13 36 24 49 q1 1 3.5 4.5t3.5 4l4 2t6 1t7 -3.5q1 -1 12 2zM89 358q-14 6 -16 -6q-5 -37 -1 -49q10 -38 11 -73q3 -41 4 -47q3 -24 -6 -39q-8 -10 -6 -25q2 -29 17 -44q0 4 -1.5 12t-2.5 12q-2 12 0 18q2 7 7 7q4 -1 6 -9q2 -21 11 -34q10 -14 16 -15.5t17 7.5q25 16 43 40q8 9 5 20 l-15 92q0 11 -5 14q-8 4 -17 23q-5 9 -21.5 34t-22.5 40q-7 16 -23 22zM225 -36q-11 -2 -12 -3q-2 -1 -15.5 -12t-23.5 -13q-1 0 -2 -2l-1 -2q-2 -4 -9 -8q-9 -5 -17 -11.5t-18 -18t-13 -14.5q-6 -6 -10.5 -14t-10 -19t-7.5 -16q-11 -25 7 -50q8 -11 27.5 -17.5t30.5 -2.5 q4 2 6 4l15 24q9 18 33 50q20 25 24 52q2 14 -1 41t-3 32z" glyph-name="g" horiz-adv-x="395" unicode="g"/><glyph d="M-69 633q24 5 43 -14q1 1 2 3.5t1.5 4t2.5 2.5t4 0q7 -1 7 -10q6 -17 15 -20q4 -1 6 -8q22 -56 24 -62q1 -4 1.5 -15.5t2.5 -17.5q9 -23 13 -87q1 -5 5 -24t4 -30q10 8 26 33q19 26 34 37q30 21 66 7q17 -7 53 -38q5 -6 3 -14q3 -16 3 -32q0 -5 3 -15t4 -15 q1 -11 1.5 -32.5t2.5 -32.5q1 -15 16 -85q6 -30 7 -44q0 -6 2 -20.5t1 -22.5q0 -12 9 -20q2 -1 8 3q2 1 3 0.5l2 -1t4.5 2t9.5 8.5q9 11 28 23.5t28 21.5q27 23 45 31q-1 -1 -1 -11l1 -10q-23 -15 -32 -37q-11 -15 -12 -15q-5 -1 -9 -3.5t-5.5 -4t-5.5 -7t-5 -6.5 q-2 -3 -9 -10t-10 -12q-9 -15 -22 -25q-22 -15 -29 -22q-10 -8 -18 -6l-7 1q-2 0 -6.5 -4t-7.5 -1q-25 17 -28 23q-1 2 -3 4t-2 4q-20 53 -20 74q-1 20 -1 61q0 25 -6 41q-6 17 -13 98q-1 15 1 96q2 15 -9 20q-13 6 -18 3q-6 -2 -11 -9l-16 -16q-1 0 -3 -2l-4 -4 q-4 -4 -12.5 -14.5t-13.5 -15.5q-3 -3 -5 -9q-10 -32 -6 -71q4 -31 16 -73q14 -48 10 -91q-1 -10 6 -41q4 -16 2 -39q0 -15 -11 -15q-4 0 -5.5 -6t-6.5 -6q-17 9 -26 2q-5 -4 -9 2q-28 24 -31 46q-6 17 -7 18q-11 11 -13 35q-12 88 -16 128q-5 44 -17 99q-8 33 -19 123 q-13 104 -17 145q-3 22 2 46z" glyph-name="h" horiz-adv-x="389" unicode="h"/><glyph d="M-40 707q15 1 18 -13q0 -9 13 -19q38 -31 12 -55q-2 -2 -7.5 -8t-11 -8.5t-12.5 -1.5q-4 4 -13 3.5t-15 1.5q-53 26 -24 75q13 20 40 25zM2 420q29 0 39 -29q2 -7 5 -9q7 6 10.5 5t4.5 -11q2 -10 1 -15q-3 -14 2 -30q7 -25 21 -126q4 -23 16 -77q1 -9 6 -27t6 -27 q1 -4 2 -11t1.5 -9.5t2.5 -6.5t4.5 -2t8.5 2q36 18 49 28q30 23 35 24q10 6 14 10q16 14 31 4q-7 -12 -21 -24q-20 -17 -28 -33q-4 -10 -17 -11q-4 0 -16 -12q-3 -3 -9 -6t-8 -5q-7 -11 -9 -13q-5 -4 -17 -8l-18 -6q-6 -3 -14 -3q-2 0 -5 0.5t-4 0.5q-2 -1 -4.5 -3.5 t-4.5 -3.5q-8 -2 -19 5q-1 1 -13 4.5t-17 8.5q-3 2 -9 3.5t-8 2.5q-16 15 -26 56q-7 32 -11 80q-6 64 -7 97q0 45 -7 84q-2 8 -3 28.5t-5 32.5q-1 6 10 19q11 11 31 13z" glyph-name="i" horiz-adv-x="225" unicode="i"/><glyph d="M-42 678q7 2 10 -2q3 -6 -2 -10q-1 -2 -3.5 -5t-3.5 -5q3 -4 6.5 -5.5t9 -2.5t8.5 -2q0 -1 -4 -18.5t-11 -25.5q-12 -7 -15 -7q-11 1 -25 -4q-12 -3 -20 8t-6 36q-1 7 6 14.5t8 10.5q3 11 21 13q3 1 10 2.5t11 2.5zM-42 432q28 8 57 -1q6 -3 7 -4q2 -5 10.5 -17.5 t9.5 -21.5t3.5 -19t6 -22t5.5 -19q19 -89 20 -127q2 -48 10 -72q3 -6 2 -21.5t0 -21.5q3 -15 8 -19q6 2 9 4.5t7 7t7 7.5q8 7 13.5 10.5t12 6t8.5 3.5q9 3 14 13q4 6 14 13t12 8q10 10 22 -4q-13 -9 -33 -33q-4 -7 -18 -14t-18 -11l-10.5 -10.5t-6 -6.5t-4.5 -4.5t-7 -5.5 t-12 -8t-8 -15q1 -6 1 -19t1 -20q2 -18 2 -52q2 -17 6 -20q2 -2 2 -16q-8 -64 -58 -97q-38 -25 -42 -26q-14 -5 -17 -5q-26 2 -31 13l-5 5q-33 20 -26 70l5 30q5 21 7 24q27 51 42 67q2 3 11.5 9.5t11.5 7.5q-9 50 -11 57q-12 49 -20 142t-10 109q-5 33 -19 107q0 16 9 18z M17 -30q-14 -5 -24 -15q-9 -7 -21 -36q-16 -32 -17 -57q-2 -25 5 -38.5t28 -27.5q4 -4 7 -2q21 6 24 17q2 5 5.5 14.5t6 17.5t3.5 16l2 12t0.5 13t-0.5 11.5t-1.5 13t-2.5 12t-3.5 13t-3.5 11.5t-4.5 13t-3.5 12z" glyph-name="j" horiz-adv-x="183" unicode="j"/><glyph d="M-31 614q5 -2 13.5 -8t12.5 -7q3 1 4 5.5t3 5.5q16 -3 22 -19q24 -50 21 -105q0 -12 5 -24q12 -41 16 -99q1 -19 13 -84q5 -1 10 6t38 49t48 66q7 7 18.5 20t19.5 19q21 16 22 12q0 -2 1.5 -10t1 -15t-4.5 -9q-8 -4 -14 -12t-11.5 -19t-9.5 -16q-8 -12 -28 -37.5 t-29 -40.5q14 -7 23.5 -16.5t25 -31.5t16.5 -23q12 -15 37.5 -54t42.5 -59q7 -9 19.5 -28.5t19.5 -27.5q5 -11 12 -16q11 -10 20 -33q-11 -5 -19 -7q-21 -5 -31 8q-7 8 -15 0q-1 -1 -1.5 -6.5t-1.5 -6.5t-7 2q-2 2 -4 0t-4 -5.5t-4 -4.5q-24 15 -33 32q-5 8 -17 24 q-44 57 -85 139q-6 12 -20.5 31.5t-19.5 28.5q-7 -5 -5 -13q2 -12 5.5 -35t5.5 -34q1 -9 4 -79q0 -26 3 -39q7 -26 -7 -51q-7 -9 -12 -2q-15 13 -17 12q-6 -18 -18 16q-1 1 -1 2q-2 3 -3.5 1t-4 -5.5t-4.5 -3.5q-3 0 -5.5 -2.5t-5.5 -1.5q-2 1 -9.5 11t-8.5 10q-12 8 -17 33 q-1 6 -30 250q-1 14 -3 51t-4 57q-1 6 -5.5 38.5t-8.5 49.5q-2 9 -3.5 19t-3 22t-2.5 19q0 8 1 9q5 1 6.5 4t1.5 5t-1 7t-1 6q-1 13 6 18.5t21 1.5zM111 268q-1 -6 3 -8l4 -5q3 -5 6 -8t5 -2q-1 1 -4 7.5t-6.5 11t-7.5 4.5z" glyph-name="k" horiz-adv-x="367" unicode="k"/><glyph d="M-52 668q17 -5 26 -17q17 -23 22 -45q4 -25 13 -36q0 8 -3.5 23t-2.5 22q12 2 12 -9q1 -8 4 -15.5t7.5 -16.5t6.5 -14q6 -15 11 -34.5t7.5 -33.5t7 -45.5t7.5 -48.5q4 -24 7.5 -73t4.5 -57q9 -91 16 -117q2 -7 13 -63q1 -6 2.5 -19.5t4 -23t7.5 -18.5q17 5 24 11h3t8 2.5 t17 9.5q4 2 9.5 5t9.5 5.5t5 3.5q8 9 30.5 22.5t26.5 16.5q12 6 21 1q-29 -43 -57 -60q-14 -9 -29.5 -22t-23.5 -19q-13 -9 -17.5 -11.5t-14.5 -3t-21 -2.5q-37 -8 -67 11t-41 54q-20 60 -26 130q-1 15 -4 69.5t-8 83.5q-13 68 -28 218q-3 29 -15 92q0 1 -2 5.5t-1.5 6 t2.5 3.5q3 1 8 5t7.5 4.5t10.5 -0.5zM88 56q-13 -14 -1 -33q7 -8 13 -2q-5 24 -12 35z" glyph-name="l" horiz-adv-x="238" unicode="l"/><glyph d="M279 428q7 9 19 6.5t23 -14.5q16 -16 16 -39q4 -33 11 -50q4 -9 9 -42q6 -68 26 -197q6 -56 5 -84q-3 -1 -6.5 2t-6.5 3q-1 0 -1 -5l1 -4q0 -1 -2 -4l-3 -4.5t-2.5 -3.5t-4.5 -2.5t-6 -0.5t-7 -2t-8.5 -2t-9.5 4q-10 9 -13 -12q-24 9 -39 45q-12 30 -17 72 q-2 17 -10.5 82t-11.5 100q0 2 -1 4t-1 4l-3 -3q-11 -72 -39 -157q-7 -17 -2 -35q1 -6 -1.5 -8t-7.5 1q-14 5 -17 5q0 -4 3 -16t1 -18q-40 -5 -62 35q-6 11 -21.5 41.5t-25.5 46.5q-27 48 -36 90q-7 24 -15 35q10 -53 16 -173q4 -58 7 -86q1 -15 0.5 -22t-2 -22t-1.5 -22 q-6 -3 -11 2q-16 19 -19 26t-7 32q-7 50 -13 148l-3 39l-3 39q-1 21 -8 60.5t-8 57.5q-3 23 1 25q12 8 30 3q13 -4 22 2q18 13 40 7q8 -2 8 -6q-3 -9 9 -17q12 -10 21 -35q4 -11 36 -71q31 -62 40 -76q3 -5 5.5 -15t4.5 -15q3 4 4 8t1 9t1 8l32 160q8 35 18 53q2 4 7 4 q8 -29 28 -51q-1 6 -12 43q16 5 22 12z" glyph-name="m" horiz-adv-x="479" unicode="m"/><glyph d="M185 419q10 -1 19.5 -5t21 -10t17.5 -9l4 -4q2 -6 12.5 -27t12.5 -34q12 -96 14 -143q1 -13 4.5 -37.5t4.5 -33.5q0 -8 16 -52q2 -7 19 -13.5t22 -1.5q16 12 45 32.5t45 32.5q5 3 9 0q-8 -36 -20 -42q-29 -16 -40 -38q-7 -13 -27 -24q-10 -11 -30 -18q-13 -11 -25 -12 q-46 -3 -71 34q-24 33 -33 84q-8 45 -13 98q-11 95 -6 147q1 9 -5 35q-3 11 -11 14.5t-17 -5.5q-51 -56 -64 -111q-7 -37 5 -88q4 -24 4 -36q7 -103 12 -136q1 -14 -14 -18q-3 -1 -7 -5q-2 -1 -3 -2q-19 -15 -36 8q-7 12 -14 15q-2 0 -2 -5.5v-6.5q-9 4 -17 20 q-20 41 -22 71q-1 5 -8 57.5t-10 79.5l-22 176q-1 10 0.5 12t12.5 0q10 -2 15 0q12 6 24 -4q5 -4 15.5 -9.5t15.5 -9.5q16 -13 16 -31q2 -23 15 -59q4 3 9 16q7 31 35 72q24 34 72 26z" glyph-name="n" horiz-adv-x="420" unicode="n"/><glyph d="M55 426q10 6 23 -1q0 -2 -2.5 -6.5t-1.5 -7.5q2 0 5 -1t5 -1h4.5t3.5 2.5t1 7.5q1 2 5 3q31 3 78 -25q4 0 4 -4q7 -13 37 -43q7 -7 11.5 -16t8.5 -20.5t7 -17.5q3 -10 7 -30q2 -14 16 -63q9 -41 1 -56q-5 -11 -3 -25q5 -26 -10 -61q-4 -8 -11.5 -24.5t-10.5 -24.5 q-2 -5 -6.5 -8.5t-7.5 -5t-10.5 -4.5t-8.5 -3q-8 9 -6.5 12t7.5 6.5t6 6.5q-5 2 -16 -3q-8 -6 -25 -13.5t-22 -9.5q-18 -11 -40 1q-32 18 -64 43q-34 29 -52 75q-14 39 -20 116q-5 47 7 108q15 62 59 81q4 1 7.5 3t7.5 5t6 4zM110 379q-13 -7 -31 -4q-1 -7 -4 -20t-4 -20 q-5 -32 -2 -43q9 -45 9 -61q-2 -24 4 -43q0 -3 2 -15.5t2 -18.5q3 -59 37 -104q4 -9 10 -7q3 1 6 1t4.5 -0.5t3.5 -3t3 -3.5t3.5 -5t2.5 -5q13 3 15 12q21 27 21 75q-1 55 -8 123l-12 84q-7 35 -33 53q-17 12 -29 5zM171 -17q6 -3 13 -3q8 2 4 9q-1 4 -9 2q-7 -5 -8 -8z" glyph-name="o" horiz-adv-x="359" unicode="o"/><glyph d="M-24 428q20 -2 24 -10q1 -7 13 -7q16 -1 23 -20q1 -2 8 -20.5t13 -28.5q25 25 31 33q41 55 129 31q10 -3 22 -17q46 -50 51 -87q6 -48 15 -71l1 -9q-1 -10 7 -80q1 -17 -7 -45q0 -10 -9 -32q-4 -10 -24 -45q-6 -7 -19 -16q-5 10 4 21.5t4 20.5q-3 -4 -7.5 -13t-9 -15 t-11.5 -10q-2 -2 -2 -5q-1 -2 -0.5 -9.5t-4.5 -7.5q-10 -3 -31 -3q-31 1 -60 30l-34 35q-2 -6 -0.5 -32.5t1.5 -31.5q1 -18 5.5 -51t5.5 -48q2 -43 -1 -55q-1 -1 0 -11t1 -12q-3 -17 -4 -18q-5 4 -16 10t-18.5 13.5t-11.5 19.5q-3 -13 -5 -27q-20 13 -29 34q-6 15 -11 44.5 t-6 33.5q-11 44 -17 146q-1 19 -4 55t-4 50q-1 29 -8 81.5t-8 71.5l-3 43q-2 30 -6 45q-6 19 13 19zM146 374q-22 -4 -34 -11q-22 -12 -45 -61q-1 -1 -1 -7q9 -39 20 -107q11 -77 11 -86q2 -13 9 -20q30 -34 48 -47q9 -7 25 -11q6 -1 10 4q24 55 20 110l-5 45 q-1 21 -10.5 60.5t-11.5 55.5q-1 10 -16 57q-2 9 -8.5 14.5t-11.5 3.5z" glyph-name="p" horiz-adv-x="398" unicode="p"/><glyph d="M36 396q6 -5 17 -1q17 6 58 -7q7 -2 7 -6q1 -5 3.5 -9t5 -6t7 -5.5t6.5 -5.5q11 -7 12 -17q1 -7 11 -14q4 8 1 33q0 1 -1.5 9.5t-1.5 13.5q-1 9 5 13.5t16 0.5q18 -9 19 -10q1 -3 6 -3q12 1 16 -1t9 -12q11 -21 13 -47q2 -21 7.5 -61t7.5 -57q2 -24 9.5 -73t10.5 -74 q1 -9 5.5 -37.5t3.5 -44.5q-1 -13 4 -37t5 -33q4 -71 5 -104q1 -6 -3 -18.5t-5 -15.5l-7 7q-7 8 -9.5 8.5t-4.5 -13.5q-4 -5 -16.5 -1.5t-16.5 9.5q-22 34 -26 54q-2 9 -7 25t-6 22q-6 19 -13 97l-4 35q-4 1 -13 -4q-7 -5 -36 -11q-31 -7 -56 16q-10 8 -17 4 q4 -6 15.5 -13.5t15.5 -13.5q-23 -2 -35 14q-13 13 -21 13q-9 -1 -20 14q-24 36 -28 69q-3 20 -10 56.5t-10 52.5q-11 50 3 102q7 26 24 52q22 30 27 34q7 6 12 1zM86 352q-10 3 -15 -9q-4 -7 -6 -41q-5 -40 7 -77q12 -39 8 -69q-2 -12 0 -18q17 -59 22 -74q7 -25 30 -13 q2 1 11 4.5t12 5.5q10 12 25 8q-12 123 -13 176q-2 32 -17 52q-18 20 -22 33q-6 17 -42 22z" glyph-name="q" horiz-adv-x="373" unicode="q"/><glyph d="M0 422q15 -8 21.5 -12t14.5 -13.5t10 -22.5q0 -1 3 -7l2 -4q6 5 17.5 15.5t17.5 15.5q30 26 74 16q27 -7 47 -28q-6 -15 -21 -7q-10 4 -15 -2q-3 -3 -11 -5.5t-10 -8.5l-5 -5q-43 -17 -56 -57q-2 -5 -3 -16.5t-4 -17.5q-7 -10 -4 -26l9 -55q3 -21 10 -60t10 -58 q0 -2 6 -50q1 -6 -4.5 -24t-8.5 -22q-21 23 -39 2q-2 -5 -8.5 -2t-7.5 3q-3 0 -1 -5l1 -4h-4q-33 29 -38 73q-2 33 -22 127q-4 19 -6 56q1 30 -6 75q-1 5 -1 16t-1 17q-1 29 -12 58q-2 2 -2 5t4 4q2 1 3.5 0t2.5 -3t2 -3q3 2 4.5 5t1.5 4.5t-1 6.5t-1 6q3 2 11 5.5t11 7.5 t9 0zM170 365q19 8 34 -12q-3 -3 -3 -1q-23 8 -40 -3q-11 -11 -24 -12q1 5 6 8.5t6 4.5l5 5q1 0 16 10z" glyph-name="r" horiz-adv-x="284" unicode="r"/><glyph d="M96 423q1 5 19 1.5t21 -3.5q1 0 -3 -4q-15 -14 -2 -14q9 0 -7 -10q-5 -3 -11 -5q-4 -4 -9 -5q-23 -6 -27 -14q-2 -4 -7 -8t-8 -6.5t-5 -8t1 -11.5l3 -18q2 -7 19.5 -23t27.5 -23q38 -27 63 -62q13 -18 24.5 -54.5t10.5 -56.5q-2 -11 -23 -58q-4 -10 -13 -18.5t-16.5 -12 t-20.5 -8.5t-16 -7q-2 -1 -4 -1.5t-4.5 -1.5t-3.5 -1q-18 -8 -52 2q-31 10 -31 11h3v1q-9 3 -24 11q-13 7 -17.5 10.5t-7 8.5t-4.5 8q-7 9 -2 9h2q3 -1 3 0q-1 2 -7 8q-5 6 -3 6q2 -1 3.5 0t2.5 1q4 0 13 -6q9 -4 9 -2q-1 4 -6.5 9t-13.5 11t-11 9q-2 5 0 5q2 1 12 -6 q9 -6 12 -7t10 -5t14.5 -7.5t15.5 -4.5q20 -11 43 -4q18 18 19 33q0 48 -30 87q-13 17 -71 70q-40 38 -29 92q7 42 38 49q7 2 10 7q5 4 12 7t11 4t14.5 2.5t12.5 1.5q30 7 40 12zM41 237l-20 16q-3 0 1.5 -6t12.5 -15t9 -11l22 -29q16 -13 18 -13q0 10 -2 13l-12 13z" glyph-name="s" horiz-adv-x="274" unicode="s"/><glyph d="M-40 623q27 -14 47 -60l21 -66q8 1 21 1t19 2l29 2q-1 -1 -6 -2q2 -1 9 0t18 2.5t14 1.5q24 0 33 -9q4 -4 -3 -7q-4 -2 4 -4q13 -5 15 -7q-4 -5 -12.5 -8.5t-15.5 -5t-19 -3t-17 -2.5h-14t-18 -1q-25 -5 -33 -4q-11 1 -13 -1.5t0 -14.5q3 -21 11.5 -57.5t11.5 -50.5 q13 -83 14 -92q2 -22 11.5 -62t10.5 -46q4 -21 14 -63q5 -17 27 -32q4 -4 10 -1l19 10q10 5 23.5 14.5t22.5 14.5t15 5q8 0 3 -15q-3 -11 -12 -16q-8 -5 -15.5 -15t-12.5 -14q-4 -3 -8 -6.5t-6 -5.5t-6 -4.5t-10 -4.5q-7 -2 -13 -7q-21 -19 -62 -16q-2 0 -5.5 1t-6.5 1 t-6 -3q-2 -4 -8 5l-14 24q-5 8 -8 8q-1 0 -3 -1q-4 -2 -7 3q-24 27 -34 60q-9 36 -14 87q-2 18 -9 69t-9 79q-2 38 -8 122q0 15 -4 21q-11 -3 -31 -2.5t-20 4.5q5 0 19 3.5t20 4.5q-12 2 -17 2t-16.5 -2t-14.5 -2q-17 0 -22.5 4t-7.5 20q11 1 38 6t37 6q5 0 5.5 1.5 t-0.5 6.5q0 18 -4 33q-2 11 0 46q3 2 4.5 -3.5t3.5 -14.5t6 -14q6 18 -2 46q-5 20 11 29zM78 72q-1 0 1.5 -7t5.5 -14.5t3 -8.5q0 -2 3 -3.5t4 -2.5q3 -7 14 -8q3 -1 3 1q1 1 -4 6t-12 14.5t-11.5 16t-6.5 6.5z" glyph-name="t" horiz-adv-x="256" unicode="t"/><glyph d="M250 414q6 -2 8 -19q1 -4 3 -23.5t5 -30.5q3 -13 9 -29q10 -34 7 -50q-1 -3 2 -28q3 -20 7 -58.5t7 -57.5q2 -12 4 -35.5t3 -34.5q2 -18 10.5 -26t20.5 -2q9 3 10 4l84 60q11 9 21 9q3 -10 3 -13t-6 -10t-7 -9q-9 -13 -23 -19t-22 -17q-2 -1 -5.5 -4t-6.5 -5t-6 -2 q-6 0 -7 -3q-4 -8 -24 -17q-7 -4 -12 -9q-6 -7 -37 -7q-10 4 -24.5 8.5t-22.5 7.5q-13 6 -24 17q-19 19 -25 45q0 1 -2 5q-4 0 -7.5 -2t-5 -4t-4 -6.5t-3.5 -5.5q-20 -27 -30 -37q-20 -24 -59 -18q-28 5 -59 29q-10 7 -15 23q-28 70 -29 139q-2 14 -7 25q-6 14 -9 27.5 t-4.5 36.5t-1.5 27q-2 12 -2 44t-4 49q-4 23 10 23q5 0 20 1.5t23 0.5q15 -1 35 -21q15 -14 22.5 -34.5t8.5 -31.5t3 -38q6 -69 6 -71q2 -11 3.5 -35t3.5 -35q7 -33 7 -44q1 -17 24 -34q5 -5 18 -2.5t20 10.5q6 7 15.5 22t11.5 18q4 5 2 19q-2 29 -10 82t-10 75 q-1 9 -3 31.5t-4.5 39t-6.5 32.5q0 9 7 9q8 0 24 6q15 6 21.5 5t21.5 -11q2 1 7 6t10 3zM113 24q-10 4 -13.5 3.5t-13.5 -10.5q14 -4 27 7z" glyph-name="u" horiz-adv-x="414" unicode="u"/><glyph d="M-85 434q19 5 30 4.5t32 -8.5q8 -3 11 -10q10 -16 15 -26q1 4 -0.5 12t0.5 13q13 -6 28 -37q6 -14 30 -73q41 -103 44 -115q3 -14 26 -81q6 -1 6 7q13 36 13 70q1 39 19 158q6 30 7 45q1 7 5 19q5 12 20 7q10 -4 6 -15q-3 -38 -9 -75l-2 -12q1 -16 -5 -48q-1 -9 -4 -26.5 t-4 -25.5q-3 -14 -5 -30t-4 -35.5t-3 -30.5q-2 -19 0 -29q0 -11 -1 -13q-8 -13 -8.5 -41.5t-4.5 -40.5v-4q0 -2 1.5 -6t1.5 -7t-4 -5q-4 -1 -6.5 -0.5t-6.5 3.5t-6 4q-21 6 -29 1q-4 -4 -14 1.5t-13 13.5q-9 26 -18 40q-2 4 0.5 11t1.5 11q7 -6 15 -18.5t11 -16.5 q-16 45 -36 57q-23 15 -31 44q-12 44 -42 117q-10 24 -25.5 69t-21.5 62q-5 20 -17 27q-11 7 -9 26q-1 5 6 7z" glyph-name="v" horiz-adv-x="288" unicode="v"/><glyph d="M352 447q9 -2 7 -10q-2 -17 -3 -23q-3 -16 -3 -82q1 -37 -13 -107q-9 -54 -10 -94q-1 -9 -14 -81q-1 -8 -6 -23t-6 -24q-1 -7 -17 -16q-27 12 -47 35q-3 -2 -2 -5t0 -5q-29 13 -42 41q-6 16 -18 70q-5 21 -19 107q-3 11 -6 13q-6 -7 -8 -23q-1 -11 -11.5 -65t-11.5 -85 q0 -11 -4 -34t-3 -36q1 -7 -4 -12q-10 4 -12.5 3t-8.5 -9q-6 -10 -10 -11t-17 5q-28 11 -39 44q-5 13 -20 70q-1 3 -6.5 26.5t-10.5 35.5q-10 23 -39 123q-16 58 -33 110q-5 9 -3 13q5 -2 8 -10.5t7 -10.5q1 5 -3 13.5t-4 13.5q8 -3 17 2.5t14 5.5q1 8 5 10.5t14 2t11 -0.5 q12 1 22 -7t13 -21q7 -24 13 -40q6 -17 14 -51q2 -15 9.5 -42t9.5 -39q14 -61 20 -78l6 -20q2 2 8 26l15 81q18 78 20 92q2 11 -1 22q-3 8 -7 26q-3 14 3 21t20 3q23 -5 44 -15q10 -8 12 -10q25 -27 41 -79q24 -82 34 -156q2 -9 5 -10q2 2 3 4.5t1.5 5.5t1.5 5q4 17 11 57.5 t12 61.5l3 33q0 14 5 42t6 43q0 3 0.5 9.5t1 11.5t1.5 9q0 1 -0.5 5t-0.5 6t2.5 4t7.5 2q0 4 1 6q1 1 2.5 3t3.5 4q2 1 3.5 5t4.5 3z" glyph-name="w" horiz-adv-x="443" unicode="w"/><glyph d="M230 416q9 -8 5 -18q-34 -82 -70 -129q-4 -6 -13 -21t-14 -23t2 -17t7 -14q4 -25 22 -53q8 -13 18 -38.5t14 -34.5q8 -18 14 -25q2 -3 15 -23q4 -7 -1 -15.5t-11 -8.5q1 -4 -1.5 -7t-6.5 -3t-8 1q-3 0 -21 13q-7 5 -8 2q0 -4 9 -21q-1 -1 -10 2q-32 10 -55 47 q-6 11 -24.5 39.5t-26.5 44.5q-5 1 -10 -6q-50 -66 -61 -88q-3 -5 -7.5 -8t-8 -3.5l-10.5 -1.5t-10 -2q5 9 11 27.5t10 26.5q9 18 31 49t25 36q9 12 2 24q-44 78 -63 138q-3 13 -13 38t-12 31q-5 18 1.5 27.5t24.5 7.5q48 -6 77 -46q30 -39 38 -55l20 -40l4 -1q12 26 30 50 t46 54t39 44z" glyph-name="x" horiz-adv-x="316" unicode="x"/><glyph d="M-52 411q21 -10 29 -8q2 1 4 -1t2 -5q3 -7 10 -10q22 22 40 -8q44 -72 72 -158q5 -19 23 -55q2 -4 5 -12.5t6 -15.5t8 -14q2 20 2 25q4 96 15 143q6 23 13 86q2 18 4 20q8 0 11 -6q1 -7 7 -19.5t7 -19.5q10 -64 -5 -127q-11 -51 -11 -113q1 -19 -8 -63q-4 -16 -3 -32 q0 -26 -7 -59q-1 -9 -2 -20t-2 -24t-2 -20q0 -10 -2 -14q-9 -14 -11 -46q-2 -34 -17 -53q-2 -2 -3 -7t-2 -7q-2 -10 -12 -10q-3 0 -5 1.5t-3.5 5t-2.5 5.5q-8 15 -5 31q2 11 3 23t1.5 27t1.5 23q2 29 16 124q4 17 -11 24q-2 -13 -12 -17q-22 22 -33 45q-70 142 -84 185 q-5 13 -16.5 35.5t-14.5 29.5q-3 8 -11 26t-13 31.5t-7 26.5q1 2 4 1t4 0q-1 2 -2 6t-2 6q-1 11 4.5 15t16.5 -1z" glyph-name="y" horiz-adv-x="309" unicode="y"/><glyph d="M158 409q7 1 21 -1t20 -2q4 0 5.5 -4t2.5 -5q3 -2 5.5 -3.5t4 -3t2.5 -3.5t1.5 -3.5t0 -4t-0.5 -3.5t-1 -3.5t-1.5 -3.5l-2 -4t-1.5 -4t-1.5 -2.5t-1.5 -2.5q-2 -5 -5.5 -13t-6 -13.5t-4.5 -14t-2 -16.5q0 -10 -2 -20.5t-6 -24t-6 -20.5q-12 -57 -29 -90q-4 -8 -6.5 -18 t-4.5 -22t-4 -18q0 -2 -1.5 -10t-2.5 -11.5t-4 -9t-8 -9.5q24 -1 74 5q45 7 86 -10q-2 -3 -10.5 -10t-6.5 -14l-3 -2q-36 -12 -55 -10q-9 2 -40 1.5t-40 -0.5q-24 0 -65 -10t-61 -11q-26 -1 -40 28q5 3 14.5 3.5t13.5 1.5q0 2 -1 11t0 11q1 4 -6 7.5t-7 8.5q93 193 125 321 q-5 3 -13 1q-38 -9 -81 -4q-10 2 -15 0q-11 -5 -19 1q-9 6 -28.5 11.5t-27.5 8.5q33 11 48 11q24 -1 73 -1q61 0 92 1q16 0 32 3zM118 377q2 -10 11 -7q1 1 2 3t0 3q-7 6 -13 1zM112 99l-4 1q-3 -7 -22 -56q6 -4 8 -2q16 39 18 57z" glyph-name="z" horiz-adv-x="334" unicode="z"/><glyph d="M121 724q5 1 23 -10q8 -4 -2 -16q-1 -3 -14 -6q-12 -2 -17 -2q-10 0 -10 -11q1 -9 0 -25t-1 -24q1 -14 -1 -47t1 -47q1 -7 2.5 -19t3.5 -22t6 -19q1 -2 9 -41q2 -8 3 -21t4 -22q2 -6 2 -36v-14q-1 -11 -4 -14.5t-14 -4.5q-3 -1 -6.5 -7.5t-4.5 -7.5q-4 -2 -14 -4t-13 -3 q31 -19 34 -20q5 -1 15 -9q39 -41 43 -86q1 -10 3.5 -27.5l3.5 -24.5q0 -4 2.5 -21.5t2.5 -22t-2 -21.5q-2 -13 7 -33q1 -3 12 -47q2 -6 6 -17t5 -16q3 -9 15.5 -15.5t24.5 -4.5q16 1 19 -11q1 -4 -3.5 -9.5t-9.5 -7.5q-6 -2 -17 -2.5t-15 -1.5q-33 -4 -49 1q-29 10 -51 35 q-28 36 -37 94q-4 20 -6 43q-1 14 -4 84q0 47 -20 90q-13 30 -38 30l-15 1q-15 2 -15 -1h-3q-1 2 -3 5t-3.5 5.5t-2.5 4.5q-3 2 -6 14q-1 4 1.5 9t1.5 8q0 1 2 3q5 1 14 5.5t13 5.5q28 10 39 28q2 3 -1 16q-18 42 -28 91q-10 41 -12 94q-1 13 2 36t3 30l3 21q9 21 14 25 q4 4 10.5 13t10.5 12q12 9 21 7q7 -2 17 4q4 4 10 5.5t10 1.5t12 -0.5t11 -0.5z" glyph-name="braceleft" horiz-adv-x="321" unicode="{"/><glyph d="M-59 740q11 5 18 -6q3 -4 11 -9q2 -1 2.5 0t0.5 3q4 12 10 5q2 -3 12 -37q3 -12 8 -62q11 -99 12 -103q3 -24 15 -58q2 -7 7 -52q1 -10 1.5 -21t1 -25t0.5 -21q0 -16 10 -94q2 -30 17 -80q2 -5 1 -16.5t-1 -15.5q2 -41 12 -73q7 -25 12 -55l-2 -12q-2 -9 3 -24 q16 -42 17 -64q0 -12 -8 -32q-1 -3 -1 -19.5t-1 -19.5q-5 -8 -7.5 -8t-6.5 4q-2 6 -6 13t-4 9q-3 -2 -3.5 -9t-1.5 -9q-7 2 -9 4q-5 5 -6 4q-4 -1 -4 -7v-4q-6 0 -10 8q-3 7 -11 53l-6 58l-3 12t-2 11q-3 16 -6.5 45.5t-4.5 36.5q0 1 -6 28q-2 10 -9 44.5t-10 52.5 q-10 69 -13 101q-1 6 -1 35q-1 22 -5 61q-4 21 -16 126q-2 22 -8 76q-2 12 0 26q0 47 -6 70q-2 8 -2 37q-4 9 9 13z" glyph-name="bar" horiz-adv-x="164" unicode="|"/><glyph d="M-36 723q33 4 49 -1q29 -10 51 -35q28 -36 37 -94q4 -21 6 -43q1 -14 4 -84q0 -47 20 -90q13 -30 38 -30l15 -2q15 -1 15 2h3l9 -15q3 -3 6 -14q1 -4 -1.5 -9t-1.5 -8q0 -1 -2 -3q-5 -1 -14 -5.5t-13 -5.5q-28 -10 -39 -28q-2 -3 1 -16q18 -42 28 -91q10 -41 12 -94 q1 -13 -2 -36t-3 -30l-3 -21q-9 -21 -14 -25q-4 -3 -10.5 -12t-10.5 -13q-12 -9 -21 -7q-7 2 -17 -4q-4 -4 -10 -5.5t-10 -1.5t-12 0.5t-11 0.5q-5 -1 -23 10q-8 4 2 16q1 3 14 6q12 2 17 2q10 0 10 11q-1 9 0 25t1 24q-1 14 1 47t-1 47q-1 7 -2.5 19t-3.5 22t-6 19 q-1 2 -9 41q-2 8 -3 21t-4 22q-2 6 -2 36v14q1 11 4 14.5t14 4.5q3 1 6.5 7.5t4.5 7.5q4 2 14 4t13 3q-31 19 -34 20q-5 1 -15 9q-39 41 -43 86q-1 10 -3.5 27.5l-3.5 24.5q0 4 -2.5 21.5t-2.5 22t2 21.5q2 13 -7 33q-1 3 -12 47q-2 6 -6 17t-5 16q-3 9 -15.5 15t-24.5 5 q-16 -1 -19 11q-1 4 3.5 9.5t9.5 7.5q6 2 17 2.5t15 1.5z" glyph-name="braceright" horiz-adv-x="321" unicode="}"/><glyph d="M403 347l5 -5q2 -6 2.5 -16.5t1.5 -13.5q1 -9 -10 -22q-20 -27 -25 -33q-4 -6 -9 -4q-1 0 -2.5 0.5t-2.5 0.5q-1 -1 -2 -1q-21 -19 -36 -23q-29 -10 -41 -8q-9 2 -19 -4q-13 -7 -34 -3q-12 3 -23 9q-10 4 -14 4q-10 1 -20.5 5.5t-22.5 11.5t-18 10q-13 6 -33 10.5 t-41 4.5t-28 -9q-13 -15 -19 -19q-4 -5 -9 0q-1 -3 -3.5 -7.5t-3.5 -5.5q-6 -10 -14 1q-12 18 -6 33q3 6 8 18.5t9 18.5q12 22 44 38q29 14 68 8q9 -2 25 -9.5t23 -9.5q28 -11 34 -11q8 1 33 -12q36 -19 92 -3q28 8 55 38q5 7 13 4q4 -2 6 -12q5 6 13 14z" glyph-name="asciitilde" horiz-adv-x="516" unicode="~"/><glyph d="M26 417q4 0 10.5 1t11 1t8.5 -3t5.5 -7.5t2 -10.5t1.5 -9q2 -7 6 -14q5 -20 -6 -30q-17 -17 -36 -26q-1 -2 -6.5 -0.5t-6.5 1.5q-14 0 -22 6.5t-13.5 18t-10.5 16.5t-3 8q2 9 -3 20q-5 13 8 18q4 1 13 5t13 5.5t13.5 2.5t14.5 -3zM33 256q6 -3 16 -22l5 -5q7 4 10 -4 q1 -2 1 -3q5 -15 12 -23q14 -15 16 -48q2 -4 0 -7q7 -35 14 -43q7 -9 6.5 -23.5t1.5 -22.5q11 -26 22 -105q1 -5 3 -26t7 -33q3 -4 5 -19q1 -12 7 -43q0 -5 1 -29.5t4 -38.5q1 -5 -0.5 -10t-4 -8t-7.5 -8.5t-6 -7.5q-8 -6 -16 -2q-19 11 -26 -6q-7 -8 -8.5 -4.5t-7 14 t-11.5 12.5q-31 11 -38 36q-2 7 -5 16l-4 12t-1.5 9t0 12t1.5 17q2 19 -3 55.5t-6 47.5q-2 12 -9 37.5t-9 38.5q-1 4 0 11t1 9q2 32 -3 78q-7 32 1 82q1 3 1.5 8.5t1 9t2 8.5t3.5 8q2 8 9 5q4 -1 7 12q1 2 1 4q1 2 6 -1z" glyph-name="exclamdown" horiz-adv-x="203" unicode="¡"/><glyph d="M102 490q12 -7 16 -19q2 -3 2 -14.5v-14.5q-2 -10 2 -20q19 1 40.5 -12.5t36.5 -31.5q12 -15 16 -55q2 -13 0 -55q0 -9 -3 -12q-41 10 -43 28q-2 24 -3 33.5t-4.5 24.5t-9 21t-13.5 5q-4 2 -8 3t-7 2q-1 -6 3 -16t4 -14q1 -9 6.5 -39t3.5 -47q0 -3 1 -8t1 -7 q8 -32 13.5 -93.5t12.5 -90.5q24 10 81 41q10 -12 10.5 -16.5t-5.5 -14.5q-1 -1 -3.5 -6t-4 -6.5t-4.5 -4t-7 -3.5t-6 -7q-1 -7 -3.5 -11.5t-8.5 -7.5l-8 -4t-12 -3l-10 -2q-13 -4 -12 -16q0 -4 1.5 -13t0.5 -13q0 -1 -0.5 -3.5t-0.5 -4.5t-1.5 -3.5t-4 -1t-6.5 2.5 q-3 3 -5 -2q0 -7 -9 -9q-18 33 -17 43q1 15 -13 16q-15 1 -33 14q-92 68 -107 172q-10 64 8 134q20 73 94 93q-5 23 -7 52q-1 8 8.5 14t17.5 2zM91 366q-3 -5 -10 -32q-8 -36 1 -131q3 -25 25 -90q7 -22 25 -36q-4 14 -4 36.5t-1 29.5q-2 17 -5 36.5t-7 43.5t-6 37 q-2 15 -6 47t-7 48q0 10 -5 11zM59 194l-7 59q-4 -34 -2.5 -41.5t9.5 -17.5z" glyph-name="cent" horiz-adv-x="335" unicode="¢"/></font>
</defs>
</svg>
